<svg width="32" height="29" viewBox="0 0 32 29" fill="none" xmlns="http://www.w3.org/2000/svg">
<mask id="mask0_719_2370" style="mask-type:alpha" maskUnits="userSpaceOnUse" x="0" y="-3" width="32" height="32">
<rect y="-3" width="32" height="32" fill="#D9D9D9"/>
</mask>
<g mask="url(#mask0_719_2370)">
<path d="M19.4357 26.898C18.9229 26.898 18.487 26.7185 18.128 26.3596C17.7691 26.0006 17.5896 25.5647 17.5896 25.0519V16.4365C17.5896 15.9237 17.7691 15.4878 18.128 15.1289C18.487 14.7699 18.9229 14.5904 19.4357 14.5904H28.051C28.5639 14.5904 28.9998 14.7699 29.3587 15.1289C29.7177 15.4878 29.8972 15.9237 29.8972 16.4365V25.0519C29.8972 25.5647 29.7177 26.0006 29.3587 26.3595C28.9998 26.7185 28.5639 26.898 28.051 26.898H19.4357ZM19.4357 25.0519H28.051V24.0621C27.5382 23.4245 26.9117 22.9173 26.1716 22.5403C25.4314 22.1634 24.622 21.975 23.7434 21.975C22.8648 21.975 22.0554 22.1634 21.3152 22.5403C20.575 22.9173 19.9485 23.4245 19.4357 24.0621V25.0519ZM23.7434 20.7442C24.2562 20.7442 24.6921 20.5647 25.0511 20.2057C25.41 19.8468 25.5895 19.4109 25.5895 18.8981C25.5895 18.3852 25.41 17.9493 25.0511 17.5904C24.6921 17.2314 24.2562 17.0519 23.7434 17.0519C23.2306 17.0519 22.7947 17.2314 22.4357 17.5904C22.0767 17.9493 21.8972 18.3852 21.8972 18.8981C21.8972 19.4109 22.0767 19.8468 22.4357 20.2057C22.7947 20.5647 23.2306 20.7442 23.7434 20.7442ZM16.0152 9.00065C14.9058 9.00065 13.9618 9.38996 13.1832 10.1686C12.4046 10.9472 12.0152 11.8912 12.0152 13.0006C12.0152 13.8878 12.2575 14.6673 12.7421 15.3391C13.2268 16.0108 13.8682 16.4895 14.6665 16.7749V14.5186C14.4716 14.3408 14.3143 14.1088 14.1947 13.8224C14.075 13.5361 14.0152 13.2622 14.0152 13.0006C14.0152 12.4451 14.2096 11.9728 14.5985 11.584C14.9874 11.1951 15.4596 11.0006 16.0152 11.0006C16.3263 11.0006 16.6062 11.0617 16.8549 11.184C17.1037 11.3062 17.3169 11.4673 17.4947 11.6673H19.7638C19.4921 10.8776 19.019 10.2357 18.3446 9.74169C17.6703 9.24766 16.8938 9.00065 16.0152 9.00065ZM12.9229 25.6673L12.4152 21.6057C12.058 21.4861 11.6917 21.3185 11.3165 21.1032C10.9413 20.8878 10.6058 20.657 10.3101 20.4108L6.54855 22.0006L3.47168 16.6673L6.72551 14.2083C6.69474 14.01 6.67294 13.8109 6.66011 13.6109C6.64729 13.4109 6.64088 13.2117 6.64088 13.0135C6.64088 12.8237 6.64729 12.631 6.66011 12.4352C6.67294 12.2395 6.69474 12.0254 6.72551 11.7929L3.47168 9.33395L6.54855 4.02632L10.2972 5.60325C10.6186 5.34854 10.9618 5.11563 11.3267 4.90452C11.6917 4.69339 12.0503 4.52372 12.4024 4.39552L12.9229 0.333984H19.0767L19.5844 4.40835C19.9844 4.55364 20.3464 4.7233 20.6703 4.91732C20.9942 5.11134 21.3212 5.33998 21.6511 5.60325L25.4511 4.02632L28.5279 9.33395L25.592 11.5647C25.6006 11.5818 25.6049 11.5989 25.6049 11.616C25.6049 11.6331 25.6091 11.6502 25.6177 11.6673H23.1485C23.1263 11.5562 23.1062 11.4459 23.0883 11.3365C23.0703 11.2271 23.0391 11.1169 22.9947 11.0058L25.9126 8.80062L24.5998 6.53395L21.2485 7.94679C20.8024 7.46985 20.2678 7.04848 19.6447 6.68268C19.0216 6.31686 18.3912 6.05789 17.7536 5.90575L17.3331 2.33395H14.687L14.246 5.89292C13.5656 6.05361 12.9374 6.29976 12.3613 6.63138C11.7853 6.96301 11.2357 7.39036 10.7126 7.91345L7.39981 6.53395L6.08698 8.80062L8.96648 10.9468C8.85537 11.263 8.77759 11.5921 8.73315 11.934C8.6887 12.2758 8.66648 12.6357 8.66648 13.0135C8.66648 13.3605 8.6887 13.7006 8.73315 14.034C8.77759 14.3673 8.85109 14.6963 8.95365 15.0211L6.08698 17.2006L7.39981 19.4673L10.6998 18.0673C11.2331 18.6143 11.8353 19.0703 12.5062 19.4352C13.1772 19.8002 13.8973 20.051 14.6665 20.1878V25.6673H12.9229Z" fill="#6A6F75"/>
</g>
</svg>
