<svg xmlns="http://www.w3.org/2000/svg" xmlns:xlink="http://www.w3.org/1999/xlink" version="1.1" width="32pt" height="29pt" viewBox="0 0 32 29">
<path transform="matrix(1,0,0,-1,3.472656,26.898438)" d="M15.964033 .00045C15.451211 .00045 15.015321 .179926 14.656364 .538881 14.297387 .89786 14.117899 1.333759 14.117899 1.846582V10.461918C14.117899 10.97474 14.297387 11.410628 14.656364 11.769585 15.015321 12.128562 15.451211 12.30805 15.964033 12.30805H24.579365C25.092186 12.30805 25.528088 12.128562 25.887066 11.769585 26.246022 11.410628 26.4255 10.97474 26.4255 10.461918V1.846582C26.4255 1.333759 26.246022 .897873 25.887066 .538918 25.528088 .179939 25.092186 .00045 24.579365 .00045H15.964033ZM15.964033 1.846582H24.579365V2.836319C24.066542 3.473919 23.440054 3.981184 22.6999 4.358118 21.95972 4.735029 21.150322 4.923485 20.2717 4.923485 19.393078 4.923485 18.583676 4.735029 17.843499 4.358118 17.103343 3.981184 16.476855 3.473919 15.964033 2.836319V1.846582ZM20.2717 6.154249C20.784522 6.154249 21.220423 6.333738 21.579401 6.692717 21.938357 7.051672 22.117833 7.487562 22.117833 8.000385 22.117833 8.513206 21.938357 8.949106 21.579401 9.308083 21.220423 9.66704 20.784522 9.846516 20.2717 9.846516 19.758877 9.846516 19.322989 9.66704 18.964034 9.308083 18.605055 8.949106 18.425566 8.513206 18.425566 8.000385 18.425566 7.487562 18.605055 7.051672 18.964034 6.692717 19.322989 6.333738 19.758877 6.154249 20.2717 6.154249ZM12.5435 17.897786C11.434122 17.897786 10.490122 17.508473 9.711499 16.72985 8.932878 15.951206 8.543567 15.007195 8.543567 13.897818 8.543567 13.010662 8.785866 12.231183 9.270466 11.559383 9.755088 10.887605 10.396533 10.408983 11.194799 10.123516V12.37985C10.999932 12.557629 10.842667 12.789684 10.723001 13.076017 10.603333 13.362351 10.543499 13.636285 10.543499 13.897818 10.543499 14.453374 10.737944 14.925595 11.126833 15.314485 11.515722 15.703374 11.987944 15.897818 12.5435 15.897818 12.85461 15.897818 13.134532 15.836707 13.383265 15.714485 13.631977 15.592262 13.845222 15.431151 14.022999 15.231152H16.292166C16.02039 16.020886 15.54732 16.66275 14.872965 17.156752 14.198609 17.650774 13.422122 17.897786 12.5435 17.897786ZM9.451266 1.231182 8.943566 5.292717C8.5863 5.412382 8.220056 5.579906 7.844833 5.795284 7.469611 6.010683 7.134133 6.241461 6.8384 6.487616L3.076867 4.897882 0 10.23115 3.253833 12.690118C3.223055 12.888407 3.201256 13.08755 3.188433 13.28755 3.175611 13.48755 3.1692 13.686695 3.1692 13.884984 3.1692 14.074739 3.175611 14.267485 3.188433 14.463219 3.201256 14.658952 3.223055 14.873052 3.253833 15.105518L0 17.564484 3.076867 22.87212 6.825566 21.295186C7.146944 21.549897 7.490111 21.782807 7.855066 21.99392 8.220044 22.205052 8.5786 22.37472 8.930733 22.502919L9.451266 26.564454H15.605L16.1127 22.490086C16.5127 22.344798 16.874676 22.175143 17.198632 21.98112 17.522564 21.787098 17.84949 21.558453 18.1794 21.295186L21.979399 22.87212 25.056265 17.564484 22.120368 15.333718C22.128924 15.316629 22.133198 15.299541 22.133198 15.282452 22.133198 15.26534 22.137467 15.24824 22.146 15.231152H19.676833C19.65461 15.342262 19.634533 15.452518 19.616599 15.561917 19.598645 15.671317 19.567444 15.781573 19.522999 15.892685L22.440966 18.097819 21.128132 20.364485 17.776833 18.95165C17.3307 19.428586 16.79609 19.849953 16.172999 20.215752 15.549911 20.581576 14.919565 20.840552 14.281965 20.992686L13.861465 24.564486H11.2153L10.774301 21.00552C10.093945 20.84483 9.465733 20.598675 8.889667 20.267052 8.3136 19.93543 7.764033 19.508074 7.240966 18.984986L3.928133 20.364485 2.6153 18.097819 5.4948 15.951651C5.383688 15.635428 5.305911 15.306374 5.261467 14.964485 5.217022 14.622596 5.194799 14.262762 5.194799 13.884984 5.194799 13.537984 5.217022 13.197817 5.261467 12.864484 5.305911 12.531151 5.37941 12.202095 5.481966 11.877317L2.6153 9.697817 3.928133 7.43115 7.228133 8.83115C7.761467 8.284151 8.363599 7.828175 9.034532 7.463219 9.705487 7.098263 10.425577 6.847406 11.194799 6.710651V1.231182H9.451266Z" fill="#6a6f75"/>
</svg>
