<svg width="27" height="41" viewBox="0 0 27 41" fill="none" xmlns="http://www.w3.org/2000/svg">
<path d="M13 15V15L13 20V20L13 15Z" stroke="#6A6F75" stroke-width="1.01471"/>
<path d="M19 14V14L19 20V20L19 14Z" stroke="#6A6F75" stroke-width="1.01471"/>
<mask id="path-3-outside-1_719_670" maskUnits="userSpaceOnUse" x="0" y="17.5547" width="27" height="23" fill="black">
<rect fill="white" y="17.5547" width="27" height="23"/>
<path d="M20.4067 21.208C19.7219 18.4269 17.8197 18.2351 14.738 18.8297C11.7324 19.4051 10.515 20.3833 9.52583 21.1505C8.68883 21.8026 8.13718 22.2437 6.78658 22.2246L5.0365 22.1862C1.85974 22.1095 1.21297 23.8165 1.13688 26.7894L1.00372 31.9872C0.946657 34.9601 1.51733 36.7055 4.67508 36.7822L6.53929 36.8205C7.73771 36.8589 8.30838 37.3192 8.99319 37.9138C9.90628 38.6618 11.0286 39.6016 13.8059 39.6592L22.3851 39.851C23.2601 39.851 24.0781 39.3523 24.5346 38.5084C24.9721 37.7028 24.9912 36.6671 24.5917 35.8232C24.5156 35.6697 24.4395 35.5355 24.3444 35.4012C24.839 35.1902 25.2765 34.7875 25.5618 34.2696C25.9994 33.464 26.0184 32.4283 25.6189 31.6036C25.4287 31.22 25.1814 30.8939 24.858 30.6638C25.1814 30.4336 25.4477 30.1267 25.6569 29.7623C26.0945 28.9567 26.1135 27.921 25.714 27.0963C25.4667 26.5784 25.0672 26.1756 24.6107 25.9263C24.7439 25.7729 24.858 25.6194 24.9721 25.4276C25.4097 24.6221 25.4287 23.5863 25.0292 22.7616C24.6107 21.8985 23.8118 21.3423 22.9367 21.3231L20.3687 21.2656V21.2272M24.1732 25.0057C24.021 25.2934 23.7927 25.5235 23.5264 25.677L20.9013 25.6194C20.9013 25.6194 20.8442 25.6194 20.8062 25.6194L20.4638 22.1862L22.9177 22.2437C23.4503 22.2437 23.9449 22.6082 24.2112 23.1452C24.4966 23.7206 24.4775 24.4303 24.1732 24.9865V25.0057ZM24.877 29.3595C24.5917 29.8966 24.0781 30.2226 23.5454 30.2034L19.9882 29.8966C20.635 29.4554 21.0345 28.7649 21.0535 28.0169L20.9013 26.5401L23.6406 26.5976C24.1732 26.5976 24.6678 26.962 24.9341 27.4991C25.2194 28.0745 25.2004 28.7841 24.896 29.3403L24.877 29.3595ZM24.7819 33.886C24.4966 34.423 23.983 34.7491 23.4503 34.7299L18.2952 34.308C17.7436 34.308 17.23 33.9435 16.9827 33.3873C16.6973 32.8119 16.7163 32.1023 17.0207 31.546C17.306 31.009 17.8197 30.6829 18.3523 30.7021L23.5264 31.1241C24.0591 31.1241 24.5536 31.4885 24.82 32.0447C25.1053 32.6201 25.0863 33.3298 24.7819 33.886ZM23.7547 38.1248C23.4884 38.6235 23.0318 38.9303 22.5372 38.9687L18.961 38.892C18.961 38.892 18.8469 38.8536 18.7708 38.8536C18.2382 38.8536 17.7436 38.4892 17.4773 37.9522C17.1919 37.3768 17.2109 36.6671 17.5153 36.1109C17.7816 35.6314 18.2191 35.3437 18.6757 35.2861L23.2601 35.6697C23.4884 35.8232 23.6596 36.0342 23.7927 36.3027C24.059 36.8781 24.0591 37.5877 23.7547 38.144V38.1248ZM2.03094 26.8086C2.08801 23.8357 2.73478 23.0301 4.99846 23.0877H6.29199L6.00665 35.8807H4.71312C2.44944 35.804 1.84072 34.9601 1.91681 31.9872L2.03094 26.7894M14.8902 19.712C17.9909 19.0982 19.0371 19.4818 19.4936 21.3806L20.1594 28.0169C20.1594 28.4964 19.798 28.9951 19.2463 29.2636C18.6757 29.5513 17.9718 29.5321 17.4202 29.2253C16.9446 28.9567 16.7354 28.4772 16.5642 27.7676L15.8603 23.6055C15.8223 23.3562 15.575 23.1836 15.3467 23.2411C15.0994 23.2795 14.9282 23.5288 14.9853 23.7781L15.3657 26.425C14.4527 27.9402 12.5314 28.1128 10.5911 28.0745C10.3438 28.0745 10.1345 28.2663 10.1345 28.5156C10.1345 28.7649 10.3248 28.9759 10.5721 28.9759C12.3982 29.0143 14.3766 28.8608 15.6321 27.5758L15.6891 27.9786C15.8794 28.8033 16.1837 29.6089 17.0017 30.0692C17.0397 30.0884 17.0968 30.1075 17.1539 30.1267C16.7924 30.3569 16.4691 30.6829 16.2598 31.1049C16.0506 31.5077 15.9174 31.968 15.9174 32.4283C15.9174 32.8886 15.9935 33.349 16.2027 33.7709C16.45 34.2888 16.8495 34.6916 17.287 34.9217C17.0778 35.1135 16.8876 35.3437 16.7544 35.6314C16.5261 36.0342 16.412 36.4945 16.412 36.974C16.412 37.4535 16.4881 37.8946 16.6973 38.3166C16.7924 38.5084 16.9066 38.681 17.0207 38.8344L13.882 38.7769C11.4091 38.7194 10.496 37.9713 9.62094 37.2425C8.93613 36.6863 8.23229 36.1109 6.93876 35.9766L7.2241 23.1644C8.59372 23.0877 9.29755 22.5314 10.0775 21.9177C10.9906 21.1888 12.1319 20.3066 14.9092 19.7695L14.8902 19.712Z"/>
</mask>
<path d="M20.4067 21.208C19.7219 18.4269 17.8197 18.2351 14.738 18.8297C11.7324 19.4051 10.515 20.3833 9.52583 21.1505C8.68883 21.8026 8.13718 22.2437 6.78658 22.2246L5.0365 22.1862C1.85974 22.1095 1.21297 23.8165 1.13688 26.7894L1.00372 31.9872C0.946657 34.9601 1.51733 36.7055 4.67508 36.7822L6.53929 36.8205C7.73771 36.8589 8.30838 37.3192 8.99319 37.9138C9.90628 38.6618 11.0286 39.6016 13.8059 39.6592L22.3851 39.851C23.2601 39.851 24.0781 39.3523 24.5346 38.5084C24.9721 37.7028 24.9912 36.6671 24.5917 35.8232C24.5156 35.6697 24.4395 35.5355 24.3444 35.4012C24.839 35.1902 25.2765 34.7875 25.5618 34.2696C25.9994 33.464 26.0184 32.4283 25.6189 31.6036C25.4287 31.22 25.1814 30.8939 24.858 30.6638C25.1814 30.4336 25.4477 30.1267 25.6569 29.7623C26.0945 28.9567 26.1135 27.921 25.714 27.0963C25.4667 26.5784 25.0672 26.1756 24.6107 25.9263C24.7439 25.7729 24.858 25.6194 24.9721 25.4276C25.4097 24.6221 25.4287 23.5863 25.0292 22.7616C24.6107 21.8985 23.8118 21.3423 22.9367 21.3231L20.3687 21.2656V21.2272M24.1732 25.0057C24.021 25.2934 23.7927 25.5235 23.5264 25.677L20.9013 25.6194C20.9013 25.6194 20.8442 25.6194 20.8062 25.6194L20.4638 22.1862L22.9177 22.2437C23.4503 22.2437 23.9449 22.6082 24.2112 23.1452C24.4966 23.7206 24.4775 24.4303 24.1732 24.9865V25.0057ZM24.877 29.3595C24.5917 29.8966 24.0781 30.2226 23.5454 30.2034L19.9882 29.8966C20.635 29.4554 21.0345 28.7649 21.0535 28.0169L20.9013 26.5401L23.6406 26.5976C24.1732 26.5976 24.6678 26.962 24.9341 27.4991C25.2194 28.0745 25.2004 28.7841 24.896 29.3403L24.877 29.3595ZM24.7819 33.886C24.4966 34.423 23.983 34.7491 23.4503 34.7299L18.2952 34.308C17.7436 34.308 17.23 33.9435 16.9827 33.3873C16.6973 32.8119 16.7163 32.1023 17.0207 31.546C17.306 31.009 17.8197 30.6829 18.3523 30.7021L23.5264 31.1241C24.0591 31.1241 24.5536 31.4885 24.82 32.0447C25.1053 32.6201 25.0863 33.3298 24.7819 33.886ZM23.7547 38.1248C23.4884 38.6235 23.0318 38.9303 22.5372 38.9687L18.961 38.892C18.961 38.892 18.8469 38.8536 18.7708 38.8536C18.2382 38.8536 17.7436 38.4892 17.4773 37.9522C17.1919 37.3768 17.2109 36.6671 17.5153 36.1109C17.7816 35.6314 18.2191 35.3437 18.6757 35.2861L23.2601 35.6697C23.4884 35.8232 23.6596 36.0342 23.7927 36.3027C24.059 36.8781 24.0591 37.5877 23.7547 38.144V38.1248ZM2.03094 26.8086C2.08801 23.8357 2.73478 23.0301 4.99846 23.0877H6.29199L6.00665 35.8807H4.71312C2.44944 35.804 1.84072 34.9601 1.91681 31.9872L2.03094 26.7894M14.8902 19.712C17.9909 19.0982 19.0371 19.4818 19.4936 21.3806L20.1594 28.0169C20.1594 28.4964 19.798 28.9951 19.2463 29.2636C18.6757 29.5513 17.9718 29.5321 17.4202 29.2253C16.9446 28.9567 16.7354 28.4772 16.5642 27.7676L15.8603 23.6055C15.8223 23.3562 15.575 23.1836 15.3467 23.2411C15.0994 23.2795 14.9282 23.5288 14.9853 23.7781L15.3657 26.425C14.4527 27.9402 12.5314 28.1128 10.5911 28.0745C10.3438 28.0745 10.1345 28.2663 10.1345 28.5156C10.1345 28.7649 10.3248 28.9759 10.5721 28.9759C12.3982 29.0143 14.3766 28.8608 15.6321 27.5758L15.6891 27.9786C15.8794 28.8033 16.1837 29.6089 17.0017 30.0692C17.0397 30.0884 17.0968 30.1075 17.1539 30.1267C16.7924 30.3569 16.4691 30.6829 16.2598 31.1049C16.0506 31.5077 15.9174 31.968 15.9174 32.4283C15.9174 32.8886 15.9935 33.349 16.2027 33.7709C16.45 34.2888 16.8495 34.6916 17.287 34.9217C17.0778 35.1135 16.8876 35.3437 16.7544 35.6314C16.5261 36.0342 16.412 36.4945 16.412 36.974C16.412 37.4535 16.4881 37.8946 16.6973 38.3166C16.7924 38.5084 16.9066 38.681 17.0207 38.8344L13.882 38.7769C11.4091 38.7194 10.496 37.9713 9.62094 37.2425C8.93613 36.6863 8.23229 36.1109 6.93876 35.9766L7.2241 23.1644C8.59372 23.0877 9.29755 22.5314 10.0775 21.9177C10.9906 21.1888 12.1319 20.3066 14.9092 19.7695L14.8902 19.712Z" fill="#6A6F75"/>
<path d="M14.738 18.8297L14.7902 19.1025L14.7906 19.1024L14.738 18.8297ZM9.52583 21.1505L9.35558 20.931L9.3551 20.9314L9.52583 21.1505ZM6.78658 22.2246L6.78049 22.5023L6.78263 22.5023L6.78658 22.2246ZM5.0365 22.1862L5.0298 22.4639L5.03042 22.4639L5.0365 22.1862ZM1.13688 26.7894L1.41457 26.7965L1.41457 26.7965L1.13688 26.7894ZM1.00372 31.9872L0.726032 31.9801L0.725998 31.9819L1.00372 31.9872ZM4.67508 36.7822L4.66833 37.0599L4.66936 37.0599L4.67508 36.7822ZM6.53929 36.8205L6.54817 36.5429L6.545 36.5428L6.53929 36.8205ZM8.99319 37.9138L8.81101 38.1236L8.81716 38.1287L8.99319 37.9138ZM13.8059 39.6592L13.8121 39.3815L13.8117 39.3815L13.8059 39.6592ZM22.3851 39.851L22.3789 40.1288H22.3851V39.851ZM24.5346 38.5084L24.2905 38.3758L24.2903 38.3762L24.5346 38.5084ZM24.5917 35.8232L24.8428 35.7043L24.8405 35.6998L24.5917 35.8232ZM24.3444 35.4012L24.2354 35.1457L23.9187 35.2808L24.1177 35.5618L24.3444 35.4012ZM25.5618 34.2696L25.8051 34.4037L25.8059 34.4022L25.5618 34.2696ZM25.6189 31.6036L25.8689 31.4825L25.8678 31.4802L25.6189 31.6036ZM24.858 30.6638L24.6969 30.4375L24.379 30.6638L24.6969 30.8901L24.858 30.6638ZM25.6569 29.7623L25.8979 29.9007L25.901 29.8949L25.6569 29.7623ZM25.714 27.0963L25.4633 27.216L25.464 27.2174L25.714 27.0963ZM24.6107 25.9263L24.4009 25.7442L24.1748 26.0048L24.4776 26.1701L24.6107 25.9263ZM24.9721 25.4276L25.211 25.5698L25.2162 25.5602L24.9721 25.4276ZM25.0292 22.7616L25.2792 22.6405L25.2791 22.6404L25.0292 22.7616ZM22.9367 21.3231L22.9305 21.6008L22.9306 21.6008L22.9367 21.3231ZM20.3687 21.2656H20.0909V21.5372L20.3625 21.5433L20.3687 21.2656ZM24.1732 25.0057L24.4187 25.1355L24.451 25.0746V25.0057H24.1732ZM23.5264 25.677L23.5203 25.9547L23.5979 25.9564L23.6651 25.9176L23.5264 25.677ZM20.9013 25.6194L20.9074 25.3416H20.9013V25.6194ZM20.8062 25.6194L20.5298 25.647L20.5547 25.8972H20.8062V25.6194ZM20.4638 22.1862L20.4703 21.9085L20.1562 21.9011L20.1874 22.2138L20.4638 22.1862ZM22.9177 22.2437L22.9112 22.5215H22.9177V22.2437ZM24.1732 24.9865L23.9295 24.8531L23.8954 24.9154V24.9865H24.1732ZM24.877 29.3595L24.6798 29.1639L24.6509 29.193L24.6317 29.2292L24.877 29.3595ZM23.5454 30.2034L23.5215 30.4805L23.5354 30.481L23.5454 30.2034ZM19.9882 29.8966L19.8317 29.6671L19.1877 30.1063L19.9644 30.1733L19.9882 29.8966ZM21.0535 28.0169L21.3312 28.024L21.3316 28.0062L21.3298 27.9884L21.0535 28.0169ZM20.9013 26.5401L20.9071 26.2623L20.5928 26.2557L20.625 26.5685L20.9013 26.5401ZM23.6406 26.5976L23.6347 26.8754H23.6406V26.5976ZM24.896 29.3403L25.0933 29.5359L25.1209 29.5081L25.1397 29.4737L24.896 29.3403ZM24.7819 33.886L24.5382 33.7527L24.5366 33.7557L24.7819 33.886ZM23.4503 34.7299L23.4276 35.0071L23.4403 35.0075L23.4503 34.7299ZM18.2952 34.308L18.3179 34.0311L18.3066 34.0302H18.2952V34.308ZM16.9827 33.3873L17.2367 33.2744L17.2315 33.2639L16.9827 33.3873ZM17.0207 31.546L17.2644 31.6794L17.266 31.6764L17.0207 31.546ZM18.3523 30.7021L18.3749 30.425L18.3623 30.4245L18.3523 30.7021ZM23.5264 31.1241L23.5038 31.4009L23.5151 31.4019H23.5264V31.1241ZM24.82 32.0447L24.5694 32.1647L24.5711 32.1681L24.82 32.0447ZM23.7547 38.1248H24.0325L23.5097 37.9939L23.7547 38.1248ZM22.5372 38.9687L22.5313 39.2464L22.545 39.2467L22.5587 39.2456L22.5372 38.9687ZM18.961 38.892L18.8725 39.1553L18.9127 39.1688L18.9551 39.1697L18.961 38.892ZM17.5153 36.1109L17.2725 35.976L17.2716 35.9775L17.5153 36.1109ZM18.6757 35.2861L18.6988 35.0093L18.6698 35.0069L18.6409 35.0105L18.6757 35.2861ZM23.2601 35.6697L23.4151 35.4392L23.3552 35.399L23.2833 35.3929L23.2601 35.6697ZM23.7927 36.3027L24.0449 36.186L24.0416 36.1793L23.7927 36.3027ZM23.7547 38.144H23.4769L23.9984 38.2773L23.7547 38.144ZM4.99846 23.0877L4.9914 23.3654H4.99846V23.0877ZM6.29199 23.0877L6.5697 23.0939L6.57603 22.8099H6.29199V23.0877ZM6.00665 35.8807V36.1585H6.27831L6.28436 35.8869L6.00665 35.8807ZM4.71312 35.8807L4.70371 36.1585H4.71312V35.8807ZM1.91681 31.9872L2.1945 31.9943L2.19452 31.9933L1.91681 31.9872ZM14.8902 19.712L14.8362 19.4395L14.5277 19.5006L14.6264 19.7992L14.8902 19.712ZM19.4936 21.3806L19.77 21.3529L19.7681 21.3341L19.7637 21.3157L19.4936 21.3806ZM20.1594 28.0169H20.4372V28.003L20.4358 27.9892L20.1594 28.0169ZM19.2463 29.2636L19.1248 29.0138L19.1213 29.0156L19.2463 29.2636ZM17.4202 29.2253L17.2836 29.4671L17.2851 29.468L17.4202 29.2253ZM16.5642 27.7676L16.2903 27.8139L16.2919 27.8234L16.2941 27.8327L16.5642 27.7676ZM15.8603 23.6055L15.5857 23.6474L15.5864 23.6518L15.8603 23.6055ZM15.3467 23.2411L15.3893 23.5156L15.4021 23.5136L15.4146 23.5105L15.3467 23.2411ZM14.9853 23.7781L15.2602 23.7386L15.2586 23.7273L15.2561 23.7162L14.9853 23.7781ZM15.3657 26.425L15.6037 26.5684L15.6548 26.4835L15.6407 26.3855L15.3657 26.425ZM10.5911 28.0745L10.5966 27.7967H10.5911V28.0745ZM10.5721 28.9759L10.5779 28.6981H10.5721V28.9759ZM15.6321 27.5758L15.9071 27.5368L15.8279 26.9778L15.4334 27.3817L15.6321 27.5758ZM15.6891 27.9786L15.4141 28.0175L15.4158 28.0294L15.4185 28.041L15.6891 27.9786ZM17.0017 30.0692L16.8653 30.3115L16.8766 30.3172L17.0017 30.0692ZM17.1539 30.1267L17.3031 30.361L17.7936 30.0487L17.2424 29.8634L17.1539 30.1267ZM16.2598 31.1049L16.5064 31.233L16.5087 31.2283L16.2598 31.1049ZM16.2027 33.7709L16.4534 33.6512L16.4516 33.6475L16.2027 33.7709ZM17.287 34.9217L17.4747 35.1265L17.7658 34.8597L17.4163 34.6759L17.287 34.9217ZM16.7544 35.6314L16.9961 35.7683L17.0017 35.7584L17.0065 35.7481L16.7544 35.6314ZM16.6973 38.3166L16.4485 38.44L16.6973 38.3166ZM17.0207 38.8344L17.0156 39.1122L17.5812 39.1225L17.2436 38.6687L17.0207 38.8344ZM13.882 38.7769L13.8755 39.0546L13.8769 39.0546L13.882 38.7769ZM9.62094 37.2425L9.79873 37.0291L9.79607 37.0269L9.62094 37.2425ZM6.93876 35.9766L6.66105 35.9704L6.65535 36.2265L6.91008 36.2529L6.93876 35.9766ZM7.2241 23.1644L7.20856 22.887L6.95211 22.9014L6.94639 23.1582L7.2241 23.1644ZM10.0775 21.9177L10.2493 22.136L10.2508 22.1348L10.0775 21.9177ZM14.9092 19.7695L14.9619 20.0422L15.2721 19.9823L15.1729 19.6823L14.9092 19.7695ZM20.6764 21.1416C20.3181 19.6864 19.6204 18.8498 18.5605 18.4899C17.5382 18.1429 16.2269 18.2595 14.6854 18.5569L14.7906 19.1024C16.3308 18.8053 17.5114 18.7205 18.3819 19.016C19.2147 19.2987 19.8105 19.9485 20.137 21.2744L20.6764 21.1416ZM14.6858 18.5569C13.1605 18.8489 12.0791 19.2451 11.249 19.671C10.4195 20.0966 9.84933 20.548 9.35558 20.931L9.69607 21.37C10.1915 20.9857 10.7246 20.5645 11.5026 20.1653C12.2799 19.7665 13.31 19.3859 14.7902 19.1025L14.6858 18.5569ZM9.3551 20.9314C8.93039 21.2623 8.60925 21.5135 8.23263 21.6869C7.86524 21.8561 7.43198 21.9559 6.79052 21.9468L6.78263 22.5023C7.49178 22.5124 8.00964 22.4012 8.46498 22.1916C8.91109 21.9862 9.28427 21.6908 9.69655 21.3696L9.3551 20.9314ZM6.79267 21.9468L5.04259 21.9085L5.03042 22.4639L6.78049 22.5023L6.79267 21.9468ZM5.04321 21.9085C3.40588 21.869 2.34134 22.2897 1.69856 23.1818C1.07601 24.0459 0.897275 25.2945 0.859195 26.7823L1.41457 26.7965C1.45258 25.3114 1.63528 24.22 2.14931 23.5066C2.64313 22.8212 3.49036 22.4267 5.0298 22.4639L5.04321 21.9085ZM0.859195 26.7823L0.726037 31.9801L1.28141 31.9943L1.41457 26.7965L0.859195 26.7823ZM0.725998 31.9819C0.697431 33.47 0.820479 34.7272 1.40079 35.6219C1.99996 36.5457 3.03928 37.0203 4.66833 37.0599L4.68182 36.5045C3.15312 36.4673 2.32824 36.0309 1.8669 35.3196C1.38671 34.5792 1.25295 33.4773 1.28145 31.9925L0.725998 31.9819ZM4.66936 37.0599L6.53357 37.0983L6.545 36.5428L4.68079 36.5045L4.66936 37.0599ZM6.5304 37.0982C7.09223 37.1162 7.49364 37.2319 7.83193 37.4057C8.17655 37.5827 8.46754 37.8253 8.81108 38.1236L9.17531 37.7041C8.83404 37.4077 8.49728 37.1229 8.08576 36.9115C7.6679 36.6969 7.18476 36.5633 6.54817 36.5429L6.5304 37.0982ZM8.81716 38.1287C9.27292 38.5021 9.80704 38.9461 10.586 39.2985C11.3668 39.6518 12.3796 39.9075 13.8001 39.9369L13.8117 39.3815C12.4549 39.3534 11.5179 39.1104 10.815 38.7923C10.1101 38.4735 9.62655 38.0736 9.16923 37.6989L8.81716 38.1287ZM13.7997 39.9369L22.3789 40.1287L22.3913 39.5733L13.8121 39.3815L13.7997 39.9369ZM22.3851 40.1288C23.3697 40.1288 24.2776 39.5673 24.7789 38.6406L24.2903 38.3762C23.8786 39.1373 23.1505 39.5732 22.3851 39.5732V40.1288ZM24.7787 38.641C25.26 37.7549 25.2788 36.6256 24.8428 35.7043L24.3406 35.942C24.7035 36.7086 24.6843 37.6508 24.2905 38.3758L24.7787 38.641ZM24.8405 35.6998C24.7601 35.5376 24.6769 35.39 24.5711 35.2406L24.1177 35.5618C24.2022 35.681 24.2711 35.8019 24.3428 35.9466L24.8405 35.6998ZM24.4534 35.6567C25.0094 35.4195 25.4922 34.9715 25.8051 34.4037L25.3185 34.1355C25.0608 34.6034 24.6685 34.961 24.2354 35.1457L24.4534 35.6567ZM25.8059 34.4022C26.2867 33.517 26.3069 32.3868 25.8689 31.4825L25.3689 31.7247C25.7298 32.4699 25.712 33.4111 25.3177 34.137L25.8059 34.4022ZM25.8678 31.4802C25.6633 31.0679 25.3895 30.7011 25.0191 30.4375L24.6969 30.8901C24.9732 31.0867 25.194 31.3721 25.37 31.727L25.8678 31.4802ZM25.0191 30.8901C25.3793 30.6337 25.6714 30.295 25.8978 29.9006L25.4161 29.624C25.224 29.9585 24.9834 30.2335 24.6969 30.4375L25.0191 30.8901ZM25.901 29.8949C26.3818 29.0097 26.402 27.8795 25.964 26.9752L25.464 27.2174C25.825 27.9626 25.8071 28.9038 25.4128 29.6297L25.901 29.8949ZM25.9647 26.9766C25.6915 26.4045 25.2501 25.959 24.7439 25.6825L24.4776 26.1701C24.8844 26.3923 25.242 26.7524 25.4634 27.216L25.9647 26.9766ZM24.8205 26.1084C24.9634 25.9437 25.0875 25.777 25.2108 25.5697L24.7334 25.2856C24.6285 25.4618 24.5243 25.602 24.4009 25.7442L24.8205 26.1084ZM25.2162 25.5602C25.697 24.675 25.7172 23.5448 25.2792 22.6405L24.7792 22.8827C25.1401 23.6279 25.1223 24.5691 24.728 25.295L25.2162 25.5602ZM25.2791 22.6404C24.8216 21.6969 23.9361 21.0672 22.9428 21.0454L22.9306 21.6008C23.6874 21.6174 24.3998 22.1001 24.7793 22.8828L25.2791 22.6404ZM22.9429 21.0454L20.3749 20.9878L20.3625 21.5433L22.9305 21.6008L22.9429 21.0454ZM20.6465 21.2656V21.2272H20.0909V21.2656H20.6465ZM23.9276 24.8758C23.8005 25.1161 23.6098 25.3083 23.3877 25.4363L23.6651 25.9176C23.9757 25.7387 24.2415 25.4706 24.4187 25.1355L23.9276 24.8758ZM23.5325 25.3992L20.9074 25.3417L20.8952 25.8971L23.5203 25.9547L23.5325 25.3992ZM20.9013 25.6194C20.9013 25.3416 20.9013 25.3416 20.9013 25.3416H20.9013C20.9013 25.3416 20.9013 25.3416 20.9013 25.3416C20.9013 25.3416 20.9013 25.3416 20.9013 25.3416C20.9013 25.3416 20.9013 25.3416 20.9013 25.3416C20.9013 25.3416 20.9013 25.3416 20.9013 25.3416C20.9013 25.3416 20.9013 25.3416 20.9013 25.3416C20.9013 25.3416 20.9013 25.3416 20.9013 25.3416C20.9013 25.3416 20.9013 25.3416 20.9013 25.3416C20.9013 25.3416 20.9012 25.3416 20.9012 25.3416C20.9012 25.3416 20.9012 25.3416 20.9012 25.3416C20.9012 25.3416 20.9012 25.3416 20.9012 25.3416C20.9012 25.3416 20.9012 25.3416 20.9012 25.3416C20.9012 25.3416 20.9012 25.3416 20.9012 25.3416C20.9012 25.3416 20.9012 25.3416 20.9012 25.3416C20.9012 25.3416 20.9012 25.3416 20.9011 25.3416C20.9011 25.3416 20.9011 25.3416 20.9011 25.3416C20.9011 25.3416 20.9011 25.3416 20.9011 25.3416C20.9011 25.3416 20.9011 25.3416 20.9011 25.3416C20.9011 25.3416 20.9011 25.3416 20.9011 25.3416C20.901 25.3416 20.901 25.3416 20.901 25.3416C20.901 25.3416 20.901 25.3416 20.901 25.3416C20.901 25.3416 20.901 25.3416 20.901 25.3416C20.901 25.3416 20.901 25.3416 20.9009 25.3416C20.9009 25.3416 20.9009 25.3416 20.9009 25.3416C20.9009 25.3416 20.9009 25.3416 20.9009 25.3416C20.9009 25.3416 20.9009 25.3416 20.9008 25.3416C20.9008 25.3416 20.9008 25.3416 20.9008 25.3416C20.9008 25.3416 20.9008 25.3416 20.9008 25.3416C20.9008 25.3416 20.9007 25.3416 20.9007 25.3416C20.9007 25.3416 20.9007 25.3416 20.9007 25.3416C20.9007 25.3416 20.9007 25.3416 20.9007 25.3416C20.9006 25.3416 20.9006 25.3416 20.9006 25.3416C20.9006 25.3416 20.9006 25.3416 20.9006 25.3416C20.9006 25.3416 20.9005 25.3416 20.9005 25.3416C20.9005 25.3416 20.9005 25.3416 20.9005 25.3416C20.9005 25.3416 20.9005 25.3416 20.9004 25.3416C20.9004 25.3416 20.9004 25.3416 20.9004 25.3416C20.9004 25.3416 20.9004 25.3416 20.9003 25.3416C20.9003 25.3416 20.9003 25.3416 20.9003 25.3416C20.9003 25.3416 20.9003 25.3416 20.9002 25.3416C20.9002 25.3416 20.9002 25.3416 20.9002 25.3416C20.9002 25.3416 20.9002 25.3416 20.9001 25.3416C20.9001 25.3416 20.9001 25.3416 20.9001 25.3416C20.9001 25.3416 20.9001 25.3416 20.9 25.3416C20.9 25.3416 20.9 25.3416 20.9 25.3416C20.9 25.3416 20.8999 25.3416 20.8999 25.3416C20.8999 25.3416 20.8999 25.3416 20.8999 25.3416C20.8998 25.3416 20.8998 25.3416 20.8998 25.3416C20.8998 25.3416 20.8998 25.3416 20.8997 25.3416C20.8997 25.3416 20.8997 25.3416 20.8997 25.3416C20.8997 25.3416 20.8996 25.3416 20.8996 25.3416C20.8996 25.3416 20.8996 25.3416 20.8996 25.3416C20.8995 25.3416 20.8995 25.3416 20.8995 25.3416C20.8995 25.3416 20.8995 25.3416 20.8994 25.3416C20.8994 25.3416 20.8994 25.3416 20.8994 25.3416C20.8993 25.3416 20.8993 25.3416 20.8993 25.3416C20.8993 25.3416 20.8992 25.3416 20.8992 25.3416C20.8992 25.3416 20.8992 25.3416 20.8992 25.3416C20.8991 25.3416 20.8991 25.3416 20.8991 25.3416C20.8991 25.3416 20.899 25.3416 20.899 25.3416C20.899 25.3416 20.899 25.3416 20.8989 25.3416C20.8989 25.3416 20.8989 25.3416 20.8989 25.3416C20.8988 25.3416 20.8988 25.3416 20.8988 25.3416C20.8988 25.3416 20.8987 25.3416 20.8987 25.3416C20.8987 25.3416 20.8987 25.3416 20.8986 25.3416C20.8986 25.3416 20.8986 25.3416 20.8985 25.3416C20.8985 25.3416 20.8985 25.3416 20.8985 25.3416C20.8984 25.3416 20.8984 25.3416 20.8984 25.3416C20.8984 25.3416 20.8983 25.3416 20.8983 25.3416C20.8983 25.3416 20.8982 25.3416 20.8982 25.3416C20.8982 25.3416 20.8982 25.3416 20.8981 25.3416C20.8981 25.3416 20.8981 25.3416 20.898 25.3416C20.898 25.3416 20.898 25.3416 20.898 25.3416C20.8979 25.3416 20.8979 25.3416 20.8979 25.3416C20.8978 25.3416 20.8978 25.3416 20.8978 25.3416C20.8978 25.3416 20.8977 25.3416 20.8977 25.3416C20.8977 25.3416 20.8976 25.3416 20.8976 25.3416C20.8976 25.3416 20.8975 25.3416 20.8975 25.3416C20.8975 25.3416 20.8975 25.3416 20.8974 25.3416C20.8974 25.3416 20.8974 25.3416 20.8973 25.3416C20.8973 25.3416 20.8973 25.3416 20.8972 25.3416C20.8972 25.3416 20.8972 25.3416 20.8971 25.3416C20.8971 25.3416 20.8971 25.3416 20.897 25.3416C20.897 25.3416 20.897 25.3416 20.8969 25.3416C20.8969 25.3416 20.8969 25.3416 20.8968 25.3416C20.8968 25.3416 20.8968 25.3416 20.8967 25.3416C20.8967 25.3416 20.8967 25.3416 20.8966 25.3416C20.8966 25.3416 20.8966 25.3416 20.8965 25.3416C20.8965 25.3416 20.8965 25.3416 20.8964 25.3416C20.8964 25.3416 20.8964 25.3416 20.8963 25.3416C20.8963 25.3416 20.8963 25.3416 20.8962 25.3416C20.8962 25.3416 20.8962 25.3416 20.8961 25.3416C20.8961 25.3416 20.896 25.3416 20.896 25.3416C20.896 25.3416 20.8959 25.3416 20.8959 25.3416C20.8959 25.3416 20.8958 25.3416 20.8958 25.3416C20.8958 25.3416 20.8957 25.3416 20.8957 25.3416C20.8956 25.3416 20.8956 25.3416 20.8956 25.3416C20.8955 25.3416 20.8955 25.3416 20.8955 25.3416C20.8954 25.3416 20.8954 25.3416 20.8953 25.3416C20.8953 25.3416 20.8953 25.3416 20.8952 25.3416C20.8952 25.3416 20.8952 25.3416 20.8951 25.3416C20.8951 25.3416 20.895 25.3416 20.895 25.3416C20.895 25.3416 20.8949 25.3416 20.8949 25.3416C20.8948 25.3416 20.8948 25.3416 20.8948 25.3416C20.8947 25.3416 20.8947 25.3416 20.8946 25.3416C20.8946 25.3416 20.8946 25.3416 20.8945 25.3416C20.8945 25.3416 20.8944 25.3416 20.8944 25.3416C20.8944 25.3416 20.8943 25.3416 20.8943 25.3416C20.8942 25.3416 20.8942 25.3416 20.8942 25.3416C20.8941 25.3416 20.8941 25.3416 20.894 25.3416C20.894 25.3416 20.894 25.3416 20.8939 25.3416C20.8939 25.3416 20.8938 25.3416 20.8938 25.3416C20.8937 25.3416 20.8937 25.3416 20.8937 25.3416C20.8936 25.3416 20.8936 25.3416 20.8935 25.3416C20.8935 25.3416 20.8934 25.3416 20.8934 25.3416C20.8934 25.3416 20.8933 25.3416 20.8933 25.3416C20.8932 25.3416 20.8932 25.3416 20.8931 25.3416C20.8931 25.3416 20.8931 25.3416 20.893 25.3416C20.893 25.3416 20.8929 25.3416 20.8929 25.3416C20.8928 25.3416 20.8928 25.3416 20.8928 25.3416C20.8927 25.3416 20.8927 25.3416 20.8926 25.3416C20.8926 25.3416 20.8925 25.3416 20.8925 25.3416C20.8924 25.3416 20.8924 25.3416 20.8923 25.3416C20.8923 25.3416 20.8923 25.3416 20.8922 25.3416C20.8922 25.3416 20.8921 25.3416 20.8921 25.3416C20.892 25.3416 20.892 25.3416 20.8919 25.3416C20.8919 25.3416 20.8918 25.3416 20.8918 25.3416C20.8918 25.3416 20.8917 25.3416 20.8917 25.3416C20.8916 25.3416 20.8916 25.3416 20.8915 25.3416C20.8915 25.3416 20.8914 25.3416 20.8914 25.3416C20.8913 25.3416 20.8913 25.3416 20.8912 25.3416C20.8912 25.3416 20.8911 25.3416 20.8911 25.3416C20.891 25.3416 20.891 25.3416 20.8909 25.3416C20.8909 25.3416 20.8909 25.3416 20.8908 25.3416C20.8908 25.3416 20.8907 25.3416 20.8907 25.3416C20.8906 25.3416 20.8906 25.3416 20.8905 25.3416C20.8905 25.3416 20.8904 25.3416 20.8904 25.3416C20.8903 25.3416 20.8903 25.3416 20.8902 25.3416C20.8902 25.3416 20.8901 25.3416 20.8901 25.3416C20.89 25.3416 20.89 25.3416 20.8899 25.3416C20.8899 25.3416 20.8898 25.3416 20.8898 25.3416C20.8897 25.3416 20.8897 25.3416 20.8896 25.3416C20.8896 25.3416 20.8895 25.3416 20.8895 25.3416C20.8894 25.3416 20.8894 25.3416 20.8893 25.3416C20.8893 25.3416 20.8892 25.3416 20.8892 25.3416C20.8891 25.3416 20.889 25.3416 20.889 25.3416C20.8889 25.3416 20.8889 25.3416 20.8888 25.3416C20.8888 25.3416 20.8887 25.3416 20.8887 25.3416C20.8886 25.3416 20.8886 25.3416 20.8885 25.3416C20.8885 25.3416 20.8884 25.3416 20.8884 25.3416C20.8883 25.3416 20.8883 25.3416 20.8882 25.3416C20.8882 25.3416 20.8881 25.3416 20.8881 25.3416C20.888 25.3416 20.8879 25.3416 20.8879 25.3416C20.8878 25.3416 20.8878 25.3416 20.8877 25.3416C20.8877 25.3416 20.8876 25.3416 20.8876 25.3416C20.8875 25.3416 20.8875 25.3416 20.8874 25.3416C20.8874 25.3416 20.8873 25.3416 20.8872 25.3416C20.8872 25.3416 20.8871 25.3416 20.8871 25.3416C20.887 25.3416 20.887 25.3416 20.8869 25.3416C20.8869 25.3416 20.8868 25.3416 20.8867 25.3416C20.8867 25.3416 20.8866 25.3416 20.8866 25.3416C20.8865 25.3416 20.8865 25.3416 20.8864 25.3416C20.8864 25.3416 20.8863 25.3416 20.8862 25.3416C20.8862 25.3416 20.8861 25.3416 20.8861 25.3416C20.886 25.3416 20.886 25.3416 20.8859 25.3416C20.8858 25.3416 20.8858 25.3416 20.8857 25.3416C20.8857 25.3416 20.8856 25.3416 20.8856 25.3416C20.8855 25.3416 20.8855 25.3416 20.8854 25.3416C20.8853 25.3416 20.8853 25.3416 20.8852 25.3416C20.8852 25.3416 20.8851 25.3416 20.885 25.3416C20.885 25.3416 20.8849 25.3416 20.8849 25.3416C20.8848 25.3416 20.8848 25.3416 20.8847 25.3416C20.8846 25.3416 20.8846 25.3416 20.8845 25.3416C20.8845 25.3416 20.8844 25.3416 20.8843 25.3416C20.8843 25.3416 20.8842 25.3416 20.8842 25.3416C20.8841 25.3416 20.8841 25.3416 20.884 25.3416C20.8839 25.3416 20.8839 25.3416 20.8838 25.3416C20.8838 25.3416 20.8837 25.3416 20.8836 25.3416C20.8836 25.3416 20.8835 25.3416 20.8835 25.3416C20.8834 25.3416 20.8833 25.3416 20.8833 25.3416C20.8832 25.3416 20.8832 25.3416 20.8831 25.3416C20.883 25.3416 20.883 25.3416 20.8829 25.3416C20.8829 25.3416 20.8828 25.3416 20.8827 25.3416C20.8827 25.3416 20.8826 25.3416 20.8825 25.3416C20.8825 25.3416 20.8824 25.3416 20.8824 25.3416C20.8823 25.3416 20.8822 25.3416 20.8822 25.3416C20.8821 25.3416 20.8821 25.3416 20.882 25.3416C20.8819 25.3416 20.8819 25.3416 20.8818 25.3416C20.8817 25.3416 20.8817 25.3416 20.8816 25.3416C20.8816 25.3416 20.8815 25.3416 20.8814 25.3416C20.8814 25.3416 20.8813 25.3416 20.8812 25.3416C20.8812 25.3416 20.8811 25.3416 20.8811 25.3416C20.881 25.3416 20.8809 25.3416 20.8809 25.3416C20.8808 25.3416 20.8807 25.3416 20.8807 25.3416C20.8806 25.3416 20.8806 25.3416 20.8805 25.3416C20.8804 25.3416 20.8804 25.3416 20.8803 25.3416C20.8802 25.3416 20.8802 25.3416 20.8801 25.3416C20.88 25.3416 20.88 25.3416 20.8799 25.3416C20.8798 25.3416 20.8798 25.3416 20.8797 25.3416C20.8797 25.3416 20.8796 25.3416 20.8795 25.3416C20.8795 25.3416 20.8794 25.3416 20.8793 25.3416C20.8793 25.3416 20.8792 25.3416 20.8791 25.3416C20.8791 25.3416 20.879 25.3416 20.8789 25.3416C20.8789 25.3416 20.8788 25.3416 20.8787 25.3416C20.8787 25.3416 20.8786 25.3416 20.8785 25.3416C20.8785 25.3416 20.8784 25.3416 20.8784 25.3416C20.8783 25.3416 20.8782 25.3416 20.8782 25.3416C20.8781 25.3416 20.878 25.3416 20.878 25.3416C20.8779 25.3416 20.8778 25.3416 20.8778 25.3416C20.8777 25.3416 20.8776 25.3416 20.8776 25.3416C20.8775 25.3416 20.8774 25.3416 20.8774 25.3416C20.8773 25.3416 20.8772 25.3416 20.8772 25.3416C20.8771 25.3416 20.877 25.3416 20.877 25.3416C20.8769 25.3416 20.8768 25.3416 20.8768 25.3416C20.8767 25.3416 20.8766 25.3416 20.8766 25.3416C20.8765 25.3416 20.8764 25.3416 20.8763 25.3416C20.8763 25.3416 20.8762 25.3416 20.8761 25.3416C20.8761 25.3416 20.876 25.3416 20.8759 25.3416C20.8759 25.3416 20.8758 25.3416 20.8757 25.3416C20.8757 25.3416 20.8756 25.3416 20.8755 25.3416C20.8755 25.3416 20.8754 25.3416 20.8753 25.3416C20.8753 25.3416 20.8752 25.3416 20.8751 25.3416C20.875 25.3416 20.875 25.3416 20.8749 25.3416C20.8748 25.3416 20.8748 25.3416 20.8747 25.3416C20.8746 25.3416 20.8746 25.3416 20.8745 25.3416C20.8744 25.3416 20.8744 25.3416 20.8743 25.3416C20.8742 25.3416 20.8741 25.3416 20.8741 25.3416C20.874 25.3416 20.8739 25.3416 20.8739 25.3416C20.8738 25.3416 20.8737 25.3416 20.8737 25.3416C20.8736 25.3416 20.8735 25.3416 20.8734 25.3416C20.8734 25.3416 20.8733 25.3416 20.8732 25.3416C20.8732 25.3416 20.8731 25.3416 20.873 25.3416C20.873 25.3416 20.8729 25.3416 20.8728 25.3416C20.8727 25.3416 20.8727 25.3416 20.8726 25.3416C20.8725 25.3416 20.8725 25.3416 20.8724 25.3416C20.8723 25.3416 20.8722 25.3416 20.8722 25.3416C20.8721 25.3416 20.872 25.3416 20.872 25.3416C20.8719 25.3416 20.8718 25.3416 20.8717 25.3416C20.8717 25.3416 20.8716 25.3416 20.8715 25.3416C20.8715 25.3416 20.8714 25.3416 20.8713 25.3416C20.8712 25.3416 20.8712 25.3416 20.8711 25.3416C20.871 25.3416 20.871 25.3416 20.8709 25.3416C20.8708 25.3416 20.8707 25.3416 20.8707 25.3416C20.8706 25.3416 20.8705 25.3416 20.8704 25.3416C20.8704 25.3416 20.8703 25.3416 20.8702 25.3416C20.8702 25.3416 20.8701 25.3416 20.87 25.3416C20.8699 25.3416 20.8699 25.3416 20.8698 25.3416C20.8697 25.3416 20.8696 25.3416 20.8696 25.3416C20.8695 25.3416 20.8694 25.3416 20.8693 25.3416C20.8693 25.3416 20.8692 25.3416 20.8691 25.3416C20.8691 25.3416 20.869 25.3416 20.8689 25.3416C20.8688 25.3416 20.8688 25.3416 20.8687 25.3416C20.8686 25.3416 20.8685 25.3416 20.8685 25.3416C20.8684 25.3416 20.8683 25.3416 20.8682 25.3416C20.8682 25.3416 20.8681 25.3416 20.868 25.3416C20.8679 25.3416 20.8679 25.3416 20.8678 25.3416C20.8677 25.3416 20.8676 25.3416 20.8676 25.3416C20.8675 25.3416 20.8674 25.3416 20.8673 25.3416C20.8673 25.3416 20.8672 25.3416 20.8671 25.3416C20.8671 25.3416 20.867 25.3416 20.8669 25.3416C20.8668 25.3416 20.8667 25.3416 20.8667 25.3416C20.8666 25.3416 20.8665 25.3416 20.8664 25.3416C20.8664 25.3416 20.8663 25.3416 20.8662 25.3416C20.8661 25.3416 20.8661 25.3416 20.866 25.3416C20.8659 25.3416 20.8658 25.3416 20.8658 25.3416C20.8657 25.3416 20.8656 25.3416 20.8655 25.3416C20.8655 25.3416 20.8654 25.3416 20.8653 25.3416C20.8652 25.3416 20.8652 25.3416 20.8651 25.3416C20.865 25.3416 20.8649 25.3416 20.8649 25.3416C20.8648 25.3416 20.8647 25.3416 20.8646 25.3416C20.8646 25.3416 20.8645 25.3416 20.8644 25.3416C20.8643 25.3416 20.8642 25.3416 20.8642 25.3416C20.8641 25.3416 20.864 25.3416 20.8639 25.3416C20.8639 25.3416 20.8638 25.3416 20.8637 25.3416C20.8636 25.3416 20.8636 25.3416 20.8635 25.3416C20.8634 25.3416 20.8633 25.3416 20.8632 25.3416C20.8632 25.3416 20.8631 25.3416 20.863 25.3416C20.8629 25.3416 20.8629 25.3416 20.8628 25.3416C20.8627 25.3416 20.8626 25.3416 20.8626 25.3416C20.8625 25.3416 20.8624 25.3416 20.8623 25.3416C20.8622 25.3416 20.8622 25.3416 20.8621 25.3416C20.862 25.3416 20.8619 25.3416 20.8619 25.3416C20.8618 25.3416 20.8617 25.3416 20.8616 25.3416C20.8615 25.3416 20.8615 25.3416 20.8614 25.3416C20.8613 25.3416 20.8612 25.3416 20.8612 25.3416C20.8611 25.3416 20.861 25.3416 20.8609 25.3416C20.8608 25.3416 20.8608 25.3416 20.8607 25.3416C20.8606 25.3416 20.8605 25.3416 20.8604 25.3416C20.8604 25.3416 20.8603 25.3416 20.8602 25.3416C20.8601 25.3416 20.8601 25.3416 20.86 25.3416C20.8599 25.3416 20.8598 25.3416 20.8597 25.3416C20.8597 25.3416 20.8596 25.3416 20.8595 25.3416C20.8594 25.3416 20.8593 25.3416 20.8593 25.3416C20.8592 25.3416 20.8591 25.3416 20.859 25.3416C20.8589 25.3416 20.8589 25.3416 20.8588 25.3416C20.8587 25.3416 20.8586 25.3416 20.8586 25.3416C20.8585 25.3416 20.8584 25.3416 20.8583 25.3416C20.8582 25.3416 20.8582 25.3416 20.8581 25.3416C20.858 25.3416 20.8579 25.3416 20.8578 25.3416C20.8578 25.3416 20.8577 25.3416 20.8576 25.3416C20.8575 25.3416 20.8574 25.3416 20.8574 25.3416C20.8573 25.3416 20.8572 25.3416 20.8571 25.3416C20.857 25.3416 20.857 25.3416 20.8569 25.3416C20.8568 25.3416 20.8567 25.3416 20.8566 25.3416C20.8566 25.3416 20.8565 25.3416 20.8564 25.3416C20.8563 25.3416 20.8562 25.3416 20.8562 25.3416C20.8561 25.3416 20.856 25.3416 20.8559 25.3416C20.8558 25.3416 20.8558 25.3416 20.8557 25.3416C20.8556 25.3416 20.8555 25.3416 20.8554 25.3416C20.8554 25.3416 20.8553 25.3416 20.8552 25.3416C20.8551 25.3416 20.855 25.3416 20.855 25.3416C20.8549 25.3416 20.8548 25.3416 20.8547 25.3416C20.8546 25.3416 20.8545 25.3416 20.8545 25.3416C20.8544 25.3416 20.8543 25.3416 20.8542 25.3416C20.8541 25.3416 20.8541 25.3416 20.854 25.3416C20.8539 25.3416 20.8538 25.3416 20.8537 25.3416C20.8537 25.3416 20.8536 25.3416 20.8535 25.3416C20.8534 25.3416 20.8533 25.3416 20.8533 25.3416C20.8532 25.3416 20.8531 25.3416 20.853 25.3416C20.8529 25.3416 20.8528 25.3416 20.8528 25.3416C20.8527 25.3416 20.8526 25.3416 20.8525 25.3416C20.8524 25.3416 20.8524 25.3416 20.8523 25.3416C20.8522 25.3416 20.8521 25.3416 20.852 25.3416C20.852 25.3416 20.8519 25.3416 20.8518 25.3416C20.8517 25.3416 20.8516 25.3416 20.8515 25.3416C20.8515 25.3416 20.8514 25.3416 20.8513 25.3416C20.8512 25.3416 20.8511 25.3416 20.8511 25.3416C20.851 25.3416 20.8509 25.3416 20.8508 25.3416C20.8507 25.3416 20.8506 25.3416 20.8506 25.3416C20.8505 25.3416 20.8504 25.3416 20.8503 25.3416C20.8502 25.3416 20.8502 25.3416 20.8501 25.3416C20.85 25.3416 20.8499 25.3416 20.8498 25.3416C20.8497 25.3416 20.8497 25.3416 20.8496 25.3416C20.8495 25.3416 20.8494 25.3416 20.8493 25.3416C20.8492 25.3416 20.8492 25.3416 20.8491 25.3416C20.849 25.3416 20.8489 25.3416 20.8488 25.3416C20.8488 25.3416 20.8487 25.3416 20.8486 25.3416C20.8485 25.3416 20.8484 25.3416 20.8483 25.3416C20.8483 25.3416 20.8482 25.3416 20.8481 25.3416C20.848 25.3416 20.8479 25.3416 20.8478 25.3416C20.8478 25.3416 20.8477 25.3416 20.8476 25.3416C20.8475 25.3416 20.8474 25.3416 20.8474 25.3416C20.8473 25.3416 20.8472 25.3416 20.8471 25.3416C20.847 25.3416 20.8469 25.3416 20.8469 25.3416C20.8468 25.3416 20.8467 25.3416 20.8466 25.3416C20.8465 25.3416 20.8464 25.3416 20.8464 25.3416C20.8463 25.3416 20.8462 25.3416 20.8461 25.3416C20.846 25.3416 20.8459 25.3416 20.8459 25.3416C20.8458 25.3416 20.8457 25.3416 20.8456 25.3416C20.8455 25.3416 20.8454 25.3416 20.8454 25.3416C20.8453 25.3416 20.8452 25.3416 20.8451 25.3416C20.845 25.3416 20.8449 25.3416 20.8449 25.3416C20.8448 25.3416 20.8447 25.3416 20.8446 25.3416C20.8445 25.3416 20.8444 25.3416 20.8444 25.3416C20.8443 25.3416 20.8442 25.3416 20.8441 25.3416C20.844 25.3416 20.844 25.3416 20.8439 25.3416C20.8438 25.3416 20.8437 25.3416 20.8436 25.3416C20.8435 25.3416 20.8435 25.3416 20.8434 25.3416C20.8433 25.3416 20.8432 25.3416 20.8431 25.3416C20.843 25.3416 20.843 25.3416 20.8429 25.3416C20.8428 25.3416 20.8427 25.3416 20.8426 25.3416C20.8425 25.3416 20.8425 25.3416 20.8424 25.3416C20.8423 25.3416 20.8422 25.3416 20.8421 25.3416C20.842 25.3416 20.842 25.3416 20.8419 25.3416C20.8418 25.3416 20.8417 25.3416 20.8416 25.3416C20.8415 25.3416 20.8415 25.3416 20.8414 25.3416C20.8413 25.3416 20.8412 25.3416 20.8411 25.3416C20.841 25.3416 20.841 25.3416 20.8409 25.3416C20.8408 25.3416 20.8407 25.3416 20.8406 25.3416C20.8405 25.3416 20.8405 25.3416 20.8404 25.3416C20.8403 25.3416 20.8402 25.3416 20.8401 25.3416C20.84 25.3416 20.8399 25.3416 20.8399 25.3416C20.8398 25.3416 20.8397 25.3416 20.8396 25.3416C20.8395 25.3416 20.8394 25.3416 20.8394 25.3416C20.8393 25.3416 20.8392 25.3416 20.8391 25.3416C20.839 25.3416 20.8389 25.3416 20.8389 25.3416C20.8388 25.3416 20.8387 25.3416 20.8386 25.3416C20.8385 25.3416 20.8384 25.3416 20.8384 25.3416C20.8383 25.3416 20.8382 25.3416 20.8381 25.3416C20.838 25.3416 20.8379 25.3416 20.8379 25.3416C20.8378 25.3416 20.8377 25.3416 20.8376 25.3416C20.8375 25.3416 20.8374 25.3416 20.8374 25.3416C20.8373 25.3416 20.8372 25.3416 20.8371 25.3416C20.837 25.3416 20.8369 25.3416 20.8369 25.3416C20.8368 25.3416 20.8367 25.3416 20.8366 25.3416C20.8365 25.3416 20.8364 25.3416 20.8364 25.3416C20.8363 25.3416 20.8362 25.3416 20.8361 25.3416C20.836 25.3416 20.8359 25.3416 20.8359 25.3416C20.8358 25.3416 20.8357 25.3416 20.8356 25.3416C20.8355 25.3416 20.8354 25.3416 20.8354 25.3416C20.8353 25.3416 20.8352 25.3416 20.8351 25.3416C20.835 25.3416 20.8349 25.3416 20.8349 25.3416C20.8348 25.3416 20.8347 25.3416 20.8346 25.3416C20.8345 25.3416 20.8344 25.3416 20.8344 25.3416C20.8343 25.3416 20.8342 25.3416 20.8341 25.3416C20.834 25.3416 20.8339 25.3416 20.8338 25.3416C20.8338 25.3416 20.8337 25.3416 20.8336 25.3416C20.8335 25.3416 20.8334 25.3416 20.8333 25.3416C20.8333 25.3416 20.8332 25.3416 20.8331 25.3416C20.833 25.3416 20.8329 25.3416 20.8328 25.3416C20.8328 25.3416 20.8327 25.3416 20.8326 25.3416C20.8325 25.3416 20.8324 25.3416 20.8323 25.3416C20.8323 25.3416 20.8322 25.3416 20.8321 25.3416C20.832 25.3416 20.8319 25.3416 20.8318 25.3416C20.8318 25.3416 20.8317 25.3416 20.8316 25.3416C20.8315 25.3416 20.8314 25.3416 20.8313 25.3416C20.8313 25.3416 20.8312 25.3416 20.8311 25.3416C20.831 25.3416 20.8309 25.3416 20.8308 25.3416C20.8308 25.3416 20.8307 25.3416 20.8306 25.3416C20.8305 25.3416 20.8304 25.3416 20.8303 25.3416C20.8303 25.3416 20.8302 25.3416 20.8301 25.3416C20.83 25.3416 20.8299 25.3416 20.8298 25.3416C20.8298 25.3416 20.8297 25.3416 20.8296 25.3416C20.8295 25.3416 20.8294 25.3416 20.8293 25.3416C20.8293 25.3416 20.8292 25.3416 20.8291 25.3416C20.829 25.3416 20.8289 25.3416 20.8289 25.3416C20.8288 25.3416 20.8287 25.3416 20.8286 25.3416C20.8285 25.3416 20.8284 25.3416 20.8284 25.3416C20.8283 25.3416 20.8282 25.3416 20.8281 25.3416C20.828 25.3416 20.8279 25.3416 20.8279 25.3416C20.8278 25.3416 20.8277 25.3416 20.8276 25.3416C20.8275 25.3416 20.8274 25.3416 20.8274 25.3416C20.8273 25.3416 20.8272 25.3416 20.8271 25.3416C20.827 25.3416 20.8269 25.3416 20.8269 25.3416C20.8268 25.3416 20.8267 25.3416 20.8266 25.3416C20.8265 25.3416 20.8265 25.3416 20.8264 25.3416C20.8263 25.3416 20.8262 25.3416 20.8261 25.3416C20.826 25.3416 20.826 25.3416 20.8259 25.3416C20.8258 25.3416 20.8257 25.3416 20.8256 25.3416C20.8255 25.3416 20.8255 25.3416 20.8254 25.3416C20.8253 25.3416 20.8252 25.3416 20.8251 25.3416C20.8251 25.3416 20.825 25.3416 20.8249 25.3416C20.8248 25.3416 20.8247 25.3416 20.8246 25.3416C20.8246 25.3416 20.8245 25.3416 20.8244 25.3416C20.8243 25.3416 20.8242 25.3416 20.8241 25.3416C20.8241 25.3416 20.824 25.3416 20.8239 25.3416C20.8238 25.3416 20.8237 25.3416 20.8237 25.3416C20.8236 25.3416 20.8235 25.3416 20.8234 25.3416C20.8233 25.3416 20.8232 25.3416 20.8232 25.3416C20.8231 25.3416 20.823 25.3416 20.8229 25.3416C20.8228 25.3416 20.8228 25.3416 20.8227 25.3416C20.8226 25.3416 20.8225 25.3416 20.8224 25.3416C20.8223 25.3416 20.8223 25.3416 20.8222 25.3416C20.8221 25.3416 20.822 25.3416 20.8219 25.3416C20.8219 25.3416 20.8218 25.3416 20.8217 25.3416C20.8216 25.3416 20.8215 25.3416 20.8214 25.3416C20.8214 25.3416 20.8213 25.3416 20.8212 25.3416C20.8211 25.3416 20.821 25.3416 20.821 25.3416C20.8209 25.3416 20.8208 25.3416 20.8207 25.3416C20.8206 25.3416 20.8206 25.3416 20.8205 25.3416C20.8204 25.3416 20.8203 25.3416 20.8202 25.3416C20.8202 25.3416 20.8201 25.3416 20.82 25.3416C20.8199 25.3416 20.8198 25.3416 20.8197 25.3416C20.8197 25.3416 20.8196 25.3416 20.8195 25.3416C20.8194 25.3416 20.8193 25.3416 20.8193 25.3416C20.8192 25.3416 20.8191 25.3416 20.819 25.3416C20.8189 25.3416 20.8189 25.3416 20.8188 25.3416C20.8187 25.3416 20.8186 25.3416 20.8185 25.3416C20.8185 25.3416 20.8184 25.3416 20.8183 25.3416C20.8182 25.3416 20.8181 25.3416 20.8181 25.3416C20.818 25.3416 20.8179 25.3416 20.8178 25.3416C20.8177 25.3416 20.8177 25.3416 20.8176 25.3416C20.8175 25.3416 20.8174 25.3416 20.8173 25.3416C20.8173 25.3416 20.8172 25.3416 20.8171 25.3416C20.817 25.3416 20.8169 25.3416 20.8169 25.3416C20.8168 25.3416 20.8167 25.3416 20.8166 25.3416C20.8165 25.3416 20.8165 25.3416 20.8164 25.3416C20.8163 25.3416 20.8162 25.3416 20.8161 25.3416C20.8161 25.3416 20.816 25.3416 20.8159 25.3416C20.8158 25.3416 20.8157 25.3416 20.8157 25.3416C20.8156 25.3416 20.8155 25.3416 20.8154 25.3416C20.8153 25.3416 20.8153 25.3416 20.8152 25.3416C20.8151 25.3416 20.815 25.3416 20.815 25.3416C20.8149 25.3416 20.8148 25.3416 20.8147 25.3416C20.8146 25.3416 20.8146 25.3416 20.8145 25.3416C20.8144 25.3416 20.8143 25.3416 20.8142 25.3416C20.8142 25.3416 20.8141 25.3416 20.814 25.3416C20.8139 25.3416 20.8138 25.3416 20.8138 25.3416C20.8137 25.3416 20.8136 25.3416 20.8135 25.3416C20.8135 25.3416 20.8134 25.3416 20.8133 25.3416C20.8132 25.3416 20.8131 25.3416 20.8131 25.3416C20.813 25.3416 20.8129 25.3416 20.8128 25.3416C20.8128 25.3416 20.8127 25.3416 20.8126 25.3416C20.8125 25.3416 20.8124 25.3416 20.8124 25.3416C20.8123 25.3416 20.8122 25.3416 20.8121 25.3416C20.8121 25.3416 20.812 25.3416 20.8119 25.3416C20.8118 25.3416 20.8117 25.3416 20.8117 25.3416C20.8116 25.3416 20.8115 25.3416 20.8114 25.3416C20.8114 25.3416 20.8113 25.3416 20.8112 25.3416C20.8111 25.3416 20.811 25.3416 20.811 25.3416C20.8109 25.3416 20.8108 25.3416 20.8107 25.3416C20.8107 25.3416 20.8106 25.3416 20.8105 25.3416C20.8104 25.3416 20.8104 25.3416 20.8103 25.3416C20.8102 25.3416 20.8101 25.3416 20.81 25.3416C20.81 25.3416 20.8099 25.3416 20.8098 25.3416C20.8097 25.3416 20.8097 25.3416 20.8096 25.3416C20.8095 25.3416 20.8094 25.3416 20.8094 25.3416C20.8093 25.3416 20.8092 25.3416 20.8091 25.3416C20.8091 25.3416 20.809 25.3416 20.8089 25.3416C20.8088 25.3416 20.8088 25.3416 20.8087 25.3416C20.8086 25.3416 20.8085 25.3416 20.8084 25.3416C20.8084 25.3416 20.8083 25.3416 20.8082 25.3416C20.8081 25.3416 20.8081 25.3416 20.808 25.3416C20.8079 25.3416 20.8078 25.3416 20.8078 25.3416C20.8077 25.3416 20.8076 25.3416 20.8075 25.3416C20.8075 25.3416 20.8074 25.3416 20.8073 25.3416C20.8072 25.3416 20.8072 25.3416 20.8071 25.3416C20.807 25.3416 20.8069 25.3416 20.8069 25.3416C20.8068 25.3416 20.8067 25.3416 20.8066 25.3416C20.8066 25.3416 20.8065 25.3416 20.8064 25.3416C20.8063 25.3416 20.8063 25.3416 20.8062 25.3416V25.8972C20.8063 25.8972 20.8063 25.8972 20.8064 25.8972C20.8065 25.8972 20.8066 25.8972 20.8066 25.8972C20.8067 25.8972 20.8068 25.8972 20.8069 25.8972C20.8069 25.8972 20.807 25.8972 20.8071 25.8972C20.8072 25.8972 20.8072 25.8972 20.8073 25.8972C20.8074 25.8972 20.8075 25.8972 20.8075 25.8972C20.8076 25.8972 20.8077 25.8972 20.8078 25.8972C20.8078 25.8972 20.8079 25.8972 20.808 25.8972C20.8081 25.8972 20.8081 25.8972 20.8082 25.8972C20.8083 25.8972 20.8084 25.8972 20.8084 25.8972C20.8085 25.8972 20.8086 25.8972 20.8087 25.8972C20.8088 25.8972 20.8088 25.8972 20.8089 25.8972C20.809 25.8972 20.8091 25.8972 20.8091 25.8972C20.8092 25.8972 20.8093 25.8972 20.8094 25.8972C20.8094 25.8972 20.8095 25.8972 20.8096 25.8972C20.8097 25.8972 20.8097 25.8972 20.8098 25.8972C20.8099 25.8972 20.81 25.8972 20.81 25.8972C20.8101 25.8972 20.8102 25.8972 20.8103 25.8972C20.8104 25.8972 20.8104 25.8972 20.8105 25.8972C20.8106 25.8972 20.8107 25.8972 20.8107 25.8972C20.8108 25.8972 20.8109 25.8972 20.811 25.8972C20.811 25.8972 20.8111 25.8972 20.8112 25.8972C20.8113 25.8972 20.8114 25.8972 20.8114 25.8972C20.8115 25.8972 20.8116 25.8972 20.8117 25.8972C20.8117 25.8972 20.8118 25.8972 20.8119 25.8972C20.812 25.8972 20.8121 25.8972 20.8121 25.8972C20.8122 25.8972 20.8123 25.8972 20.8124 25.8972C20.8124 25.8972 20.8125 25.8972 20.8126 25.8972C20.8127 25.8972 20.8128 25.8972 20.8128 25.8972C20.8129 25.8972 20.813 25.8972 20.8131 25.8972C20.8131 25.8972 20.8132 25.8972 20.8133 25.8972C20.8134 25.8972 20.8135 25.8972 20.8135 25.8972C20.8136 25.8972 20.8137 25.8972 20.8138 25.8972C20.8138 25.8972 20.8139 25.8972 20.814 25.8972C20.8141 25.8972 20.8142 25.8972 20.8142 25.8972C20.8143 25.8972 20.8144 25.8972 20.8145 25.8972C20.8146 25.8972 20.8146 25.8972 20.8147 25.8972C20.8148 25.8972 20.8149 25.8972 20.815 25.8972C20.815 25.8972 20.8151 25.8972 20.8152 25.8972C20.8153 25.8972 20.8153 25.8972 20.8154 25.8972C20.8155 25.8972 20.8156 25.8972 20.8157 25.8972C20.8157 25.8972 20.8158 25.8972 20.8159 25.8972C20.816 25.8972 20.8161 25.8972 20.8161 25.8972C20.8162 25.8972 20.8163 25.8972 20.8164 25.8972C20.8165 25.8972 20.8165 25.8972 20.8166 25.8972C20.8167 25.8972 20.8168 25.8972 20.8169 25.8972C20.8169 25.8972 20.817 25.8972 20.8171 25.8972C20.8172 25.8972 20.8173 25.8972 20.8173 25.8972C20.8174 25.8972 20.8175 25.8972 20.8176 25.8972C20.8177 25.8972 20.8177 25.8972 20.8178 25.8972C20.8179 25.8972 20.818 25.8972 20.8181 25.8972C20.8181 25.8972 20.8182 25.8972 20.8183 25.8972C20.8184 25.8972 20.8185 25.8972 20.8185 25.8972C20.8186 25.8972 20.8187 25.8972 20.8188 25.8972C20.8189 25.8972 20.8189 25.8972 20.819 25.8972C20.8191 25.8972 20.8192 25.8972 20.8193 25.8972C20.8193 25.8972 20.8194 25.8972 20.8195 25.8972C20.8196 25.8972 20.8197 25.8972 20.8197 25.8972C20.8198 25.8972 20.8199 25.8972 20.82 25.8972C20.8201 25.8972 20.8202 25.8972 20.8202 25.8972C20.8203 25.8972 20.8204 25.8972 20.8205 25.8972C20.8206 25.8972 20.8206 25.8972 20.8207 25.8972C20.8208 25.8972 20.8209 25.8972 20.821 25.8972C20.821 25.8972 20.8211 25.8972 20.8212 25.8972C20.8213 25.8972 20.8214 25.8972 20.8214 25.8972C20.8215 25.8972 20.8216 25.8972 20.8217 25.8972C20.8218 25.8972 20.8219 25.8972 20.8219 25.8972C20.822 25.8972 20.8221 25.8972 20.8222 25.8972C20.8223 25.8972 20.8223 25.8972 20.8224 25.8972C20.8225 25.8972 20.8226 25.8972 20.8227 25.8972C20.8228 25.8972 20.8228 25.8972 20.8229 25.8972C20.823 25.8972 20.8231 25.8972 20.8232 25.8972C20.8232 25.8972 20.8233 25.8972 20.8234 25.8972C20.8235 25.8972 20.8236 25.8972 20.8237 25.8972C20.8237 25.8972 20.8238 25.8972 20.8239 25.8972C20.824 25.8972 20.8241 25.8972 20.8241 25.8972C20.8242 25.8972 20.8243 25.8972 20.8244 25.8972C20.8245 25.8972 20.8246 25.8972 20.8246 25.8972C20.8247 25.8972 20.8248 25.8972 20.8249 25.8972C20.825 25.8972 20.8251 25.8972 20.8251 25.8972C20.8252 25.8972 20.8253 25.8972 20.8254 25.8972C20.8255 25.8972 20.8255 25.8972 20.8256 25.8972C20.8257 25.8972 20.8258 25.8972 20.8259 25.8972C20.826 25.8972 20.826 25.8972 20.8261 25.8972C20.8262 25.8972 20.8263 25.8972 20.8264 25.8972C20.8265 25.8972 20.8265 25.8972 20.8266 25.8972C20.8267 25.8972 20.8268 25.8972 20.8269 25.8972C20.8269 25.8972 20.827 25.8972 20.8271 25.8972C20.8272 25.8972 20.8273 25.8972 20.8274 25.8972C20.8274 25.8972 20.8275 25.8972 20.8276 25.8972C20.8277 25.8972 20.8278 25.8972 20.8279 25.8972C20.8279 25.8972 20.828 25.8972 20.8281 25.8972C20.8282 25.8972 20.8283 25.8972 20.8284 25.8972C20.8284 25.8972 20.8285 25.8972 20.8286 25.8972C20.8287 25.8972 20.8288 25.8972 20.8289 25.8972C20.8289 25.8972 20.829 25.8972 20.8291 25.8972C20.8292 25.8972 20.8293 25.8972 20.8293 25.8972C20.8294 25.8972 20.8295 25.8972 20.8296 25.8972C20.8297 25.8972 20.8298 25.8972 20.8298 25.8972C20.8299 25.8972 20.83 25.8972 20.8301 25.8972C20.8302 25.8972 20.8303 25.8972 20.8303 25.8972C20.8304 25.8972 20.8305 25.8972 20.8306 25.8972C20.8307 25.8972 20.8308 25.8972 20.8308 25.8972C20.8309 25.8972 20.831 25.8972 20.8311 25.8972C20.8312 25.8972 20.8313 25.8972 20.8313 25.8972C20.8314 25.8972 20.8315 25.8972 20.8316 25.8972C20.8317 25.8972 20.8318 25.8972 20.8318 25.8972C20.8319 25.8972 20.832 25.8972 20.8321 25.8972C20.8322 25.8972 20.8323 25.8972 20.8323 25.8972C20.8324 25.8972 20.8325 25.8972 20.8326 25.8972C20.8327 25.8972 20.8328 25.8972 20.8328 25.8972C20.8329 25.8972 20.833 25.8972 20.8331 25.8972C20.8332 25.8972 20.8333 25.8972 20.8333 25.8972C20.8334 25.8972 20.8335 25.8972 20.8336 25.8972C20.8337 25.8972 20.8338 25.8972 20.8338 25.8972C20.8339 25.8972 20.834 25.8972 20.8341 25.8972C20.8342 25.8972 20.8343 25.8972 20.8344 25.8972C20.8344 25.8972 20.8345 25.8972 20.8346 25.8972C20.8347 25.8972 20.8348 25.8972 20.8349 25.8972C20.8349 25.8972 20.835 25.8972 20.8351 25.8972C20.8352 25.8972 20.8353 25.8972 20.8354 25.8972C20.8354 25.8972 20.8355 25.8972 20.8356 25.8972C20.8357 25.8972 20.8358 25.8972 20.8359 25.8972C20.8359 25.8972 20.836 25.8972 20.8361 25.8972C20.8362 25.8972 20.8363 25.8972 20.8364 25.8972C20.8364 25.8972 20.8365 25.8972 20.8366 25.8972C20.8367 25.8972 20.8368 25.8972 20.8369 25.8972C20.8369 25.8972 20.837 25.8972 20.8371 25.8972C20.8372 25.8972 20.8373 25.8972 20.8374 25.8972C20.8374 25.8972 20.8375 25.8972 20.8376 25.8972C20.8377 25.8972 20.8378 25.8972 20.8379 25.8972C20.8379 25.8972 20.838 25.8972 20.8381 25.8972C20.8382 25.8972 20.8383 25.8972 20.8384 25.8972C20.8384 25.8972 20.8385 25.8972 20.8386 25.8972C20.8387 25.8972 20.8388 25.8972 20.8389 25.8972C20.8389 25.8972 20.839 25.8972 20.8391 25.8972C20.8392 25.8972 20.8393 25.8972 20.8394 25.8972C20.8394 25.8972 20.8395 25.8972 20.8396 25.8972C20.8397 25.8972 20.8398 25.8972 20.8399 25.8972C20.8399 25.8972 20.84 25.8972 20.8401 25.8972C20.8402 25.8972 20.8403 25.8972 20.8404 25.8972C20.8405 25.8972 20.8405 25.8972 20.8406 25.8972C20.8407 25.8972 20.8408 25.8972 20.8409 25.8972C20.841 25.8972 20.841 25.8972 20.8411 25.8972C20.8412 25.8972 20.8413 25.8972 20.8414 25.8972C20.8415 25.8972 20.8415 25.8972 20.8416 25.8972C20.8417 25.8972 20.8418 25.8972 20.8419 25.8972C20.842 25.8972 20.842 25.8972 20.8421 25.8972C20.8422 25.8972 20.8423 25.8972 20.8424 25.8972C20.8425 25.8972 20.8425 25.8972 20.8426 25.8972C20.8427 25.8972 20.8428 25.8972 20.8429 25.8972C20.843 25.8972 20.843 25.8972 20.8431 25.8972C20.8432 25.8972 20.8433 25.8972 20.8434 25.8972C20.8435 25.8972 20.8435 25.8972 20.8436 25.8972C20.8437 25.8972 20.8438 25.8972 20.8439 25.8972C20.844 25.8972 20.844 25.8972 20.8441 25.8972C20.8442 25.8972 20.8443 25.8972 20.8444 25.8972C20.8444 25.8972 20.8445 25.8972 20.8446 25.8972C20.8447 25.8972 20.8448 25.8972 20.8449 25.8972C20.8449 25.8972 20.845 25.8972 20.8451 25.8972C20.8452 25.8972 20.8453 25.8972 20.8454 25.8972C20.8454 25.8972 20.8455 25.8972 20.8456 25.8972C20.8457 25.8972 20.8458 25.8972 20.8459 25.8972C20.8459 25.8972 20.846 25.8972 20.8461 25.8972C20.8462 25.8972 20.8463 25.8972 20.8464 25.8972C20.8464 25.8972 20.8465 25.8972 20.8466 25.8972C20.8467 25.8972 20.8468 25.8972 20.8469 25.8972C20.8469 25.8972 20.847 25.8972 20.8471 25.8972C20.8472 25.8972 20.8473 25.8972 20.8474 25.8972C20.8474 25.8972 20.8475 25.8972 20.8476 25.8972C20.8477 25.8972 20.8478 25.8972 20.8478 25.8972C20.8479 25.8972 20.848 25.8972 20.8481 25.8972C20.8482 25.8972 20.8483 25.8972 20.8483 25.8972C20.8484 25.8972 20.8485 25.8972 20.8486 25.8972C20.8487 25.8972 20.8488 25.8972 20.8488 25.8972C20.8489 25.8972 20.849 25.8972 20.8491 25.8972C20.8492 25.8972 20.8492 25.8972 20.8493 25.8972C20.8494 25.8972 20.8495 25.8972 20.8496 25.8972C20.8497 25.8972 20.8497 25.8972 20.8498 25.8972C20.8499 25.8972 20.85 25.8972 20.8501 25.8972C20.8502 25.8972 20.8502 25.8972 20.8503 25.8972C20.8504 25.8972 20.8505 25.8972 20.8506 25.8972C20.8506 25.8972 20.8507 25.8972 20.8508 25.8972C20.8509 25.8972 20.851 25.8972 20.8511 25.8972C20.8511 25.8972 20.8512 25.8972 20.8513 25.8972C20.8514 25.8972 20.8515 25.8972 20.8515 25.8972C20.8516 25.8972 20.8517 25.8972 20.8518 25.8972C20.8519 25.8972 20.852 25.8972 20.852 25.8972C20.8521 25.8972 20.8522 25.8972 20.8523 25.8972C20.8524 25.8972 20.8524 25.8972 20.8525 25.8972C20.8526 25.8972 20.8527 25.8972 20.8528 25.8972C20.8528 25.8972 20.8529 25.8972 20.853 25.8972C20.8531 25.8972 20.8532 25.8972 20.8533 25.8972C20.8533 25.8972 20.8534 25.8972 20.8535 25.8972C20.8536 25.8972 20.8537 25.8972 20.8537 25.8972C20.8538 25.8972 20.8539 25.8972 20.854 25.8972C20.8541 25.8972 20.8541 25.8972 20.8542 25.8972C20.8543 25.8972 20.8544 25.8972 20.8545 25.8972C20.8545 25.8972 20.8546 25.8972 20.8547 25.8972C20.8548 25.8972 20.8549 25.8972 20.855 25.8972C20.855 25.8972 20.8551 25.8972 20.8552 25.8972C20.8553 25.8972 20.8554 25.8972 20.8554 25.8972C20.8555 25.8972 20.8556 25.8972 20.8557 25.8972C20.8558 25.8972 20.8558 25.8972 20.8559 25.8972C20.856 25.8972 20.8561 25.8972 20.8562 25.8972C20.8562 25.8972 20.8563 25.8972 20.8564 25.8972C20.8565 25.8972 20.8566 25.8972 20.8566 25.8972C20.8567 25.8972 20.8568 25.8972 20.8569 25.8972C20.857 25.8972 20.857 25.8972 20.8571 25.8972C20.8572 25.8972 20.8573 25.8972 20.8574 25.8972C20.8574 25.8972 20.8575 25.8972 20.8576 25.8972C20.8577 25.8972 20.8578 25.8972 20.8578 25.8972C20.8579 25.8972 20.858 25.8972 20.8581 25.8972C20.8582 25.8972 20.8582 25.8972 20.8583 25.8972C20.8584 25.8972 20.8585 25.8972 20.8586 25.8972C20.8586 25.8972 20.8587 25.8972 20.8588 25.8972C20.8589 25.8972 20.8589 25.8972 20.859 25.8972C20.8591 25.8972 20.8592 25.8972 20.8593 25.8972C20.8593 25.8972 20.8594 25.8972 20.8595 25.8972C20.8596 25.8972 20.8597 25.8972 20.8597 25.8972C20.8598 25.8972 20.8599 25.8972 20.86 25.8972C20.8601 25.8972 20.8601 25.8972 20.8602 25.8972C20.8603 25.8972 20.8604 25.8972 20.8604 25.8972C20.8605 25.8972 20.8606 25.8972 20.8607 25.8972C20.8608 25.8972 20.8608 25.8972 20.8609 25.8972C20.861 25.8972 20.8611 25.8972 20.8612 25.8972C20.8612 25.8972 20.8613 25.8972 20.8614 25.8972C20.8615 25.8972 20.8615 25.8972 20.8616 25.8972C20.8617 25.8972 20.8618 25.8972 20.8619 25.8972C20.8619 25.8972 20.862 25.8972 20.8621 25.8972C20.8622 25.8972 20.8622 25.8972 20.8623 25.8972C20.8624 25.8972 20.8625 25.8972 20.8626 25.8972C20.8626 25.8972 20.8627 25.8972 20.8628 25.8972C20.8629 25.8972 20.8629 25.8972 20.863 25.8972C20.8631 25.8972 20.8632 25.8972 20.8632 25.8972C20.8633 25.8972 20.8634 25.8972 20.8635 25.8972C20.8636 25.8972 20.8636 25.8972 20.8637 25.8972C20.8638 25.8972 20.8639 25.8972 20.8639 25.8972C20.864 25.8972 20.8641 25.8972 20.8642 25.8972C20.8642 25.8972 20.8643 25.8972 20.8644 25.8972C20.8645 25.8972 20.8646 25.8972 20.8646 25.8972C20.8647 25.8972 20.8648 25.8972 20.8649 25.8972C20.8649 25.8972 20.865 25.8972 20.8651 25.8972C20.8652 25.8972 20.8652 25.8972 20.8653 25.8972C20.8654 25.8972 20.8655 25.8972 20.8655 25.8972C20.8656 25.8972 20.8657 25.8972 20.8658 25.8972C20.8658 25.8972 20.8659 25.8972 20.866 25.8972C20.8661 25.8972 20.8661 25.8972 20.8662 25.8972C20.8663 25.8972 20.8664 25.8972 20.8664 25.8972C20.8665 25.8972 20.8666 25.8972 20.8667 25.8972C20.8667 25.8972 20.8668 25.8972 20.8669 25.8972C20.867 25.8972 20.8671 25.8972 20.8671 25.8972C20.8672 25.8972 20.8673 25.8972 20.8673 25.8972C20.8674 25.8972 20.8675 25.8972 20.8676 25.8972C20.8676 25.8972 20.8677 25.8972 20.8678 25.8972C20.8679 25.8972 20.8679 25.8972 20.868 25.8972C20.8681 25.8972 20.8682 25.8972 20.8682 25.8972C20.8683 25.8972 20.8684 25.8972 20.8685 25.8972C20.8685 25.8972 20.8686 25.8972 20.8687 25.8972C20.8688 25.8972 20.8688 25.8972 20.8689 25.8972C20.869 25.8972 20.8691 25.8972 20.8691 25.8972C20.8692 25.8972 20.8693 25.8972 20.8693 25.8972C20.8694 25.8972 20.8695 25.8972 20.8696 25.8972C20.8696 25.8972 20.8697 25.8972 20.8698 25.8972C20.8699 25.8972 20.8699 25.8972 20.87 25.8972C20.8701 25.8972 20.8702 25.8972 20.8702 25.8972C20.8703 25.8972 20.8704 25.8972 20.8704 25.8972C20.8705 25.8972 20.8706 25.8972 20.8707 25.8972C20.8707 25.8972 20.8708 25.8972 20.8709 25.8972C20.871 25.8972 20.871 25.8972 20.8711 25.8972C20.8712 25.8972 20.8712 25.8972 20.8713 25.8972C20.8714 25.8972 20.8715 25.8972 20.8715 25.8972C20.8716 25.8972 20.8717 25.8972 20.8717 25.8972C20.8718 25.8972 20.8719 25.8972 20.872 25.8972C20.872 25.8972 20.8721 25.8972 20.8722 25.8972C20.8722 25.8972 20.8723 25.8972 20.8724 25.8972C20.8725 25.8972 20.8725 25.8972 20.8726 25.8972C20.8727 25.8972 20.8727 25.8972 20.8728 25.8972C20.8729 25.8972 20.873 25.8972 20.873 25.8972C20.8731 25.8972 20.8732 25.8972 20.8732 25.8972C20.8733 25.8972 20.8734 25.8972 20.8734 25.8972C20.8735 25.8972 20.8736 25.8972 20.8737 25.8972C20.8737 25.8972 20.8738 25.8972 20.8739 25.8972C20.8739 25.8972 20.874 25.8972 20.8741 25.8972C20.8741 25.8972 20.8742 25.8972 20.8743 25.8972C20.8744 25.8972 20.8744 25.8972 20.8745 25.8972C20.8746 25.8972 20.8746 25.8972 20.8747 25.8972C20.8748 25.8972 20.8748 25.8972 20.8749 25.8972C20.875 25.8972 20.875 25.8972 20.8751 25.8972C20.8752 25.8972 20.8753 25.8972 20.8753 25.8972C20.8754 25.8972 20.8755 25.8972 20.8755 25.8972C20.8756 25.8972 20.8757 25.8972 20.8757 25.8972C20.8758 25.8972 20.8759 25.8972 20.8759 25.8972C20.876 25.8972 20.8761 25.8972 20.8761 25.8972C20.8762 25.8972 20.8763 25.8972 20.8763 25.8972C20.8764 25.8972 20.8765 25.8972 20.8766 25.8972C20.8766 25.8972 20.8767 25.8972 20.8768 25.8972C20.8768 25.8972 20.8769 25.8972 20.877 25.8972C20.877 25.8972 20.8771 25.8972 20.8772 25.8972C20.8772 25.8972 20.8773 25.8972 20.8774 25.8972C20.8774 25.8972 20.8775 25.8972 20.8776 25.8972C20.8776 25.8972 20.8777 25.8972 20.8778 25.8972C20.8778 25.8972 20.8779 25.8972 20.878 25.8972C20.878 25.8972 20.8781 25.8972 20.8782 25.8972C20.8782 25.8972 20.8783 25.8972 20.8784 25.8972C20.8784 25.8972 20.8785 25.8972 20.8785 25.8972C20.8786 25.8972 20.8787 25.8972 20.8787 25.8972C20.8788 25.8972 20.8789 25.8972 20.8789 25.8972C20.879 25.8972 20.8791 25.8972 20.8791 25.8972C20.8792 25.8972 20.8793 25.8972 20.8793 25.8972C20.8794 25.8972 20.8795 25.8972 20.8795 25.8972C20.8796 25.8972 20.8797 25.8972 20.8797 25.8972C20.8798 25.8972 20.8798 25.8972 20.8799 25.8972C20.88 25.8972 20.88 25.8972 20.8801 25.8972C20.8802 25.8972 20.8802 25.8972 20.8803 25.8972C20.8804 25.8972 20.8804 25.8972 20.8805 25.8972C20.8806 25.8972 20.8806 25.8972 20.8807 25.8972C20.8807 25.8972 20.8808 25.8972 20.8809 25.8972C20.8809 25.8972 20.881 25.8972 20.8811 25.8972C20.8811 25.8972 20.8812 25.8972 20.8812 25.8972C20.8813 25.8972 20.8814 25.8972 20.8814 25.8972C20.8815 25.8972 20.8816 25.8972 20.8816 25.8972C20.8817 25.8972 20.8817 25.8972 20.8818 25.8972C20.8819 25.8972 20.8819 25.8972 20.882 25.8972C20.8821 25.8972 20.8821 25.8972 20.8822 25.8972C20.8822 25.8972 20.8823 25.8972 20.8824 25.8972C20.8824 25.8972 20.8825 25.8972 20.8825 25.8972C20.8826 25.8972 20.8827 25.8972 20.8827 25.8972C20.8828 25.8972 20.8829 25.8972 20.8829 25.8972C20.883 25.8972 20.883 25.8972 20.8831 25.8972C20.8832 25.8972 20.8832 25.8972 20.8833 25.8972C20.8833 25.8972 20.8834 25.8972 20.8835 25.8972C20.8835 25.8972 20.8836 25.8972 20.8836 25.8972C20.8837 25.8972 20.8838 25.8972 20.8838 25.8972C20.8839 25.8972 20.8839 25.8972 20.884 25.8972C20.8841 25.8972 20.8841 25.8972 20.8842 25.8972C20.8842 25.8972 20.8843 25.8972 20.8843 25.8972C20.8844 25.8972 20.8845 25.8972 20.8845 25.8972C20.8846 25.8972 20.8846 25.8972 20.8847 25.8972C20.8848 25.8972 20.8848 25.8972 20.8849 25.8972C20.8849 25.8972 20.885 25.8972 20.885 25.8972C20.8851 25.8972 20.8852 25.8972 20.8852 25.8972C20.8853 25.8972 20.8853 25.8972 20.8854 25.8972C20.8855 25.8972 20.8855 25.8972 20.8856 25.8972C20.8856 25.8972 20.8857 25.8972 20.8857 25.8972C20.8858 25.8972 20.8858 25.8972 20.8859 25.8972C20.886 25.8972 20.886 25.8972 20.8861 25.8972C20.8861 25.8972 20.8862 25.8972 20.8862 25.8972C20.8863 25.8972 20.8864 25.8972 20.8864 25.8972C20.8865 25.8972 20.8865 25.8972 20.8866 25.8972C20.8866 25.8972 20.8867 25.8972 20.8867 25.8972C20.8868 25.8972 20.8869 25.8972 20.8869 25.8972C20.887 25.8972 20.887 25.8972 20.8871 25.8972C20.8871 25.8972 20.8872 25.8972 20.8872 25.8972C20.8873 25.8972 20.8874 25.8972 20.8874 25.8972C20.8875 25.8972 20.8875 25.8972 20.8876 25.8972C20.8876 25.8972 20.8877 25.8972 20.8877 25.8972C20.8878 25.8972 20.8878 25.8972 20.8879 25.8972C20.8879 25.8972 20.888 25.8972 20.8881 25.8972C20.8881 25.8972 20.8882 25.8972 20.8882 25.8972C20.8883 25.8972 20.8883 25.8972 20.8884 25.8972C20.8884 25.8972 20.8885 25.8972 20.8885 25.8972C20.8886 25.8972 20.8886 25.8972 20.8887 25.8972C20.8887 25.8972 20.8888 25.8972 20.8888 25.8972C20.8889 25.8972 20.8889 25.8972 20.889 25.8972C20.889 25.8972 20.8891 25.8972 20.8892 25.8972C20.8892 25.8972 20.8893 25.8972 20.8893 25.8972C20.8894 25.8972 20.8894 25.8972 20.8895 25.8972C20.8895 25.8972 20.8896 25.8972 20.8896 25.8972C20.8897 25.8972 20.8897 25.8972 20.8898 25.8972C20.8898 25.8972 20.8899 25.8972 20.8899 25.8972C20.89 25.8972 20.89 25.8972 20.8901 25.8972C20.8901 25.8972 20.8902 25.8972 20.8902 25.8972C20.8903 25.8972 20.8903 25.8972 20.8904 25.8972C20.8904 25.8972 20.8905 25.8972 20.8905 25.8972C20.8906 25.8972 20.8906 25.8972 20.8907 25.8972C20.8907 25.8972 20.8908 25.8972 20.8908 25.8972C20.8909 25.8972 20.8909 25.8972 20.8909 25.8972C20.891 25.8972 20.891 25.8972 20.8911 25.8972C20.8911 25.8972 20.8912 25.8972 20.8912 25.8972C20.8913 25.8972 20.8913 25.8972 20.8914 25.8972C20.8914 25.8972 20.8915 25.8972 20.8915 25.8972C20.8916 25.8972 20.8916 25.8972 20.8917 25.8972C20.8917 25.8972 20.8918 25.8972 20.8918 25.8972C20.8918 25.8972 20.8919 25.8972 20.8919 25.8972C20.892 25.8972 20.892 25.8972 20.8921 25.8972C20.8921 25.8972 20.8922 25.8972 20.8922 25.8972C20.8923 25.8972 20.8923 25.8972 20.8923 25.8972C20.8924 25.8972 20.8924 25.8972 20.8925 25.8972C20.8925 25.8972 20.8926 25.8972 20.8926 25.8972C20.8927 25.8972 20.8927 25.8972 20.8928 25.8972C20.8928 25.8972 20.8928 25.8972 20.8929 25.8972C20.8929 25.8972 20.893 25.8972 20.893 25.8972C20.8931 25.8972 20.8931 25.8972 20.8931 25.8972C20.8932 25.8972 20.8932 25.8972 20.8933 25.8972C20.8933 25.8972 20.8934 25.8972 20.8934 25.8972C20.8934 25.8972 20.8935 25.8972 20.8935 25.8972C20.8936 25.8972 20.8936 25.8972 20.8937 25.8972C20.8937 25.8972 20.8937 25.8972 20.8938 25.8972C20.8938 25.8972 20.8939 25.8972 20.8939 25.8972C20.894 25.8972 20.894 25.8972 20.894 25.8972C20.8941 25.8972 20.8941 25.8972 20.8942 25.8972C20.8942 25.8972 20.8942 25.8972 20.8943 25.8972C20.8943 25.8972 20.8944 25.8972 20.8944 25.8972C20.8944 25.8972 20.8945 25.8972 20.8945 25.8972C20.8946 25.8972 20.8946 25.8972 20.8946 25.8972C20.8947 25.8972 20.8947 25.8972 20.8948 25.8972C20.8948 25.8972 20.8948 25.8972 20.8949 25.8972C20.8949 25.8972 20.895 25.8972 20.895 25.8972C20.895 25.8972 20.8951 25.8972 20.8951 25.8972C20.8952 25.8972 20.8952 25.8972 20.8952 25.8972C20.8953 25.8972 20.8953 25.8972 20.8953 25.8972C20.8954 25.8972 20.8954 25.8972 20.8955 25.8972C20.8955 25.8972 20.8955 25.8972 20.8956 25.8972C20.8956 25.8972 20.8956 25.8972 20.8957 25.8972C20.8957 25.8972 20.8958 25.8972 20.8958 25.8972C20.8958 25.8972 20.8959 25.8972 20.8959 25.8972C20.8959 25.8972 20.896 25.8972 20.896 25.8972C20.896 25.8972 20.8961 25.8972 20.8961 25.8972C20.8962 25.8972 20.8962 25.8972 20.8962 25.8972C20.8963 25.8972 20.8963 25.8972 20.8963 25.8972C20.8964 25.8972 20.8964 25.8972 20.8964 25.8972C20.8965 25.8972 20.8965 25.8972 20.8965 25.8972C20.8966 25.8972 20.8966 25.8972 20.8966 25.8972C20.8967 25.8972 20.8967 25.8972 20.8967 25.8972C20.8968 25.8972 20.8968 25.8972 20.8968 25.8972C20.8969 25.8972 20.8969 25.8972 20.8969 25.8972C20.897 25.8972 20.897 25.8972 20.897 25.8972C20.8971 25.8972 20.8971 25.8972 20.8971 25.8972C20.8972 25.8972 20.8972 25.8972 20.8972 25.8972C20.8973 25.8972 20.8973 25.8972 20.8973 25.8972C20.8974 25.8972 20.8974 25.8972 20.8974 25.8972C20.8975 25.8972 20.8975 25.8972 20.8975 25.8972C20.8975 25.8972 20.8976 25.8972 20.8976 25.8972C20.8976 25.8972 20.8977 25.8972 20.8977 25.8972C20.8977 25.8972 20.8978 25.8972 20.8978 25.8972C20.8978 25.8972 20.8978 25.8972 20.8979 25.8972C20.8979 25.8972 20.8979 25.8972 20.898 25.8972C20.898 25.8972 20.898 25.8972 20.898 25.8972C20.8981 25.8972 20.8981 25.8972 20.8981 25.8972C20.8982 25.8972 20.8982 25.8972 20.8982 25.8972C20.8982 25.8972 20.8983 25.8972 20.8983 25.8972C20.8983 25.8972 20.8984 25.8972 20.8984 25.8972C20.8984 25.8972 20.8984 25.8972 20.8985 25.8972C20.8985 25.8972 20.8985 25.8972 20.8985 25.8972C20.8986 25.8972 20.8986 25.8972 20.8986 25.8972C20.8987 25.8972 20.8987 25.8972 20.8987 25.8972C20.8987 25.8972 20.8988 25.8972 20.8988 25.8972C20.8988 25.8972 20.8988 25.8972 20.8989 25.8972C20.8989 25.8972 20.8989 25.8972 20.8989 25.8972C20.899 25.8972 20.899 25.8972 20.899 25.8972C20.899 25.8972 20.8991 25.8972 20.8991 25.8972C20.8991 25.8972 20.8991 25.8972 20.8992 25.8972C20.8992 25.8972 20.8992 25.8972 20.8992 25.8972C20.8992 25.8972 20.8993 25.8972 20.8993 25.8972C20.8993 25.8972 20.8993 25.8972 20.8994 25.8972C20.8994 25.8972 20.8994 25.8972 20.8994 25.8972C20.8995 25.8972 20.8995 25.8972 20.8995 25.8972C20.8995 25.8972 20.8995 25.8972 20.8996 25.8972C20.8996 25.8972 20.8996 25.8972 20.8996 25.8972C20.8996 25.8972 20.8997 25.8972 20.8997 25.8972C20.8997 25.8972 20.8997 25.8972 20.8997 25.8972C20.8998 25.8972 20.8998 25.8972 20.8998 25.8972C20.8998 25.8972 20.8998 25.8972 20.8999 25.8972C20.8999 25.8972 20.8999 25.8972 20.8999 25.8972C20.8999 25.8972 20.9 25.8972 20.9 25.8972C20.9 25.8972 20.9 25.8972 20.9 25.8972C20.9001 25.8972 20.9001 25.8972 20.9001 25.8972C20.9001 25.8972 20.9001 25.8972 20.9001 25.8972C20.9002 25.8972 20.9002 25.8972 20.9002 25.8972C20.9002 25.8972 20.9002 25.8972 20.9002 25.8972C20.9003 25.8972 20.9003 25.8972 20.9003 25.8972C20.9003 25.8972 20.9003 25.8972 20.9003 25.8972C20.9004 25.8972 20.9004 25.8972 20.9004 25.8972C20.9004 25.8972 20.9004 25.8972 20.9004 25.8972C20.9005 25.8972 20.9005 25.8972 20.9005 25.8972C20.9005 25.8972 20.9005 25.8972 20.9005 25.8972C20.9005 25.8972 20.9006 25.8972 20.9006 25.8972C20.9006 25.8972 20.9006 25.8972 20.9006 25.8972C20.9006 25.8972 20.9006 25.8972 20.9007 25.8972C20.9007 25.8972 20.9007 25.8972 20.9007 25.8972C20.9007 25.8972 20.9007 25.8972 20.9007 25.8972C20.9007 25.8972 20.9008 25.8972 20.9008 25.8972C20.9008 25.8972 20.9008 25.8972 20.9008 25.8972C20.9008 25.8972 20.9008 25.8972 20.9008 25.8972C20.9009 25.8972 20.9009 25.8972 20.9009 25.8972C20.9009 25.8972 20.9009 25.8972 20.9009 25.8972C20.9009 25.8972 20.9009 25.8972 20.9009 25.8972C20.901 25.8972 20.901 25.8972 20.901 25.8972C20.901 25.8972 20.901 25.8972 20.901 25.8972C20.901 25.8972 20.901 25.8972 20.901 25.8972C20.901 25.8972 20.901 25.8972 20.9011 25.8972C20.9011 25.8972 20.9011 25.8972 20.9011 25.8972C20.9011 25.8972 20.9011 25.8972 20.9011 25.8972C20.9011 25.8972 20.9011 25.8972 20.9011 25.8972C20.9011 25.8972 20.9011 25.8972 20.9011 25.8972C20.9012 25.8972 20.9012 25.8972 20.9012 25.8972C20.9012 25.8972 20.9012 25.8972 20.9012 25.8972C20.9012 25.8972 20.9012 25.8972 20.9012 25.8972C20.9012 25.8972 20.9012 25.8972 20.9012 25.8972C20.9012 25.8972 20.9012 25.8972 20.9012 25.8972C20.9012 25.8972 20.9012 25.8972 20.9012 25.8972C20.9012 25.8972 20.9013 25.8972 20.9013 25.8972C20.9013 25.8972 20.9013 25.8972 20.9013 25.8972C20.9013 25.8972 20.9013 25.8972 20.9013 25.8972C20.9013 25.8972 20.9013 25.8972 20.9013 25.8972C20.9013 25.8972 20.9013 25.8972 20.9013 25.8972C20.9013 25.8972 20.9013 25.8972 20.9013 25.8972C20.9013 25.8972 20.9013 25.8972 20.9013 25.8972C20.9013 25.8972 20.9013 25.8972 20.9013 25.8972H20.9013C20.9013 25.8972 20.9013 25.8972 20.9013 25.6194ZM21.0826 25.5919L20.7402 22.1586L20.1874 22.2138L20.5298 25.647L21.0826 25.5919ZM20.4573 22.4639L22.9112 22.5214L22.9242 21.966L20.4703 21.9085L20.4573 22.4639ZM22.9177 22.5215C23.3196 22.5215 23.7306 22.8012 23.9624 23.2686L24.4601 23.0218C24.1592 22.4151 23.5811 21.966 22.9177 21.966V22.5215ZM23.9624 23.2686C24.207 23.7619 24.1908 24.3757 23.9295 24.8531L24.4169 25.1198C24.7643 24.4848 24.7861 23.6793 24.4601 23.0218L23.9624 23.2686ZM23.8954 24.9865V25.0057H24.451V24.9865H23.8954ZM24.6317 29.2292C24.3874 29.689 23.9641 29.9406 23.5554 29.9258L23.5354 30.481C24.192 30.5047 24.796 30.1041 25.1223 29.4899L24.6317 29.2292ZM23.5693 29.9267L20.0121 29.6198L19.9644 30.1733L23.5216 30.4802L23.5693 29.9267ZM20.1447 30.126C20.8586 29.6391 21.3097 28.8691 21.3312 28.024L20.7758 28.0099C20.7592 28.6607 20.4114 29.2717 19.8317 29.6671L20.1447 30.126ZM21.3298 27.9884L21.1776 26.5116L20.625 26.5685L20.7772 28.0454L21.3298 27.9884ZM20.8955 26.8178L23.6347 26.8753L23.6464 26.3199L20.9071 26.2623L20.8955 26.8178ZM23.6406 26.8754C24.0425 26.8754 24.4535 27.1551 24.6852 27.6225L25.1829 27.3757C24.8821 26.769 24.3039 26.3198 23.6406 26.3198V26.8754ZM24.6852 27.6225C24.9298 28.1158 24.9136 28.7296 24.6524 29.207L25.1397 29.4737C25.4872 28.8387 25.509 28.0332 25.1829 27.3757L24.6852 27.6225ZM24.6988 29.1447L24.6798 29.1639L25.0742 29.5551L25.0933 29.5359L24.6988 29.1447ZM24.5366 33.7557C24.2923 34.2155 23.869 34.467 23.4603 34.4523L23.4403 35.0075C24.0969 35.0312 24.7008 34.6306 25.0272 34.0163L24.5366 33.7557ZM23.473 34.4531L18.3179 34.0311L18.2726 34.5848L23.4277 35.0068L23.473 34.4531ZM18.2952 34.0302C17.8692 34.0302 17.446 33.7457 17.2365 33.2745L16.7288 33.5002C17.0139 34.1413 17.6179 34.5857 18.2952 34.5857V34.0302ZM17.2315 33.2639C16.9869 32.7706 17.0031 32.1568 17.2644 31.6794L16.777 31.4127C16.4296 32.0477 16.4077 32.8532 16.7338 33.5107L17.2315 33.2639ZM17.266 31.6764C17.5103 31.2165 17.9336 30.965 18.3423 30.9797L18.3623 30.4245C17.7057 30.4009 17.1018 30.8015 16.7754 31.4157L17.266 31.6764ZM18.3297 30.979L23.5038 31.4009L23.549 30.8472L18.3749 30.4253L18.3297 30.979ZM23.5264 31.4019C23.9267 31.4019 24.3372 31.6797 24.5694 32.1647L25.0705 31.9248C24.7701 31.2973 24.1914 30.8463 23.5264 30.8463V31.4019ZM24.5711 32.1681C24.8157 32.6614 24.7995 33.2752 24.5382 33.7527L25.0256 34.0193C25.3731 33.3843 25.3949 32.5788 25.0688 31.9213L24.5711 32.1681ZM23.5097 37.9939C23.2833 38.4178 22.9061 38.6615 22.5158 38.6918L22.5587 39.2456C23.1575 39.1992 23.6935 38.8291 23.9997 38.2556L23.5097 37.9939ZM22.5432 38.691L18.967 38.6143L18.9551 39.1697L22.5313 39.2464L22.5432 38.691ZM18.961 38.892C19.0495 38.6287 19.0495 38.6287 19.0494 38.6287C19.0494 38.6287 19.0494 38.6286 19.0494 38.6286C19.0493 38.6286 19.0493 38.6286 19.0493 38.6286C19.0492 38.6286 19.0491 38.6285 19.049 38.6285C19.0488 38.6284 19.0486 38.6284 19.0483 38.6283C19.0478 38.6281 19.0472 38.6279 19.0465 38.6277C19.045 38.6272 19.0431 38.6266 19.0408 38.6258C19.0362 38.6244 19.03 38.6224 19.0224 38.6201C19.0074 38.6156 18.9865 38.6095 18.9623 38.6034C18.9203 38.5929 18.845 38.5758 18.7708 38.5758V39.1314C18.7686 39.1314 18.7734 39.1313 18.7866 39.1336C18.7986 39.1356 18.8124 39.1386 18.8265 39.1422C18.8404 39.1457 18.8528 39.1492 18.8616 39.1519C18.8659 39.1532 18.8692 39.1542 18.8711 39.1548C18.8721 39.1551 18.8727 39.1554 18.873 39.1554C18.8731 39.1555 18.8731 39.1555 18.873 39.1555C18.873 39.1554 18.8729 39.1554 18.8729 39.1554C18.8728 39.1554 18.8728 39.1554 18.8727 39.1554C18.8727 39.1553 18.8727 39.1553 18.8726 39.1553C18.8726 39.1553 18.8726 39.1553 18.8726 39.1553C18.8725 39.1553 18.8725 39.1553 18.961 38.892ZM18.7708 38.5758C18.3689 38.5758 17.9579 38.2961 17.7261 37.8288L17.2284 38.0756C17.5293 38.6823 18.1074 39.1314 18.7708 39.1314V38.5758ZM17.7261 37.8288C17.4815 37.3355 17.4977 36.7217 17.759 36.2442L17.2716 35.9775C16.9241 36.6126 16.9023 37.4181 17.2284 38.0756L17.7261 37.8288ZM17.7581 36.2458C17.9842 35.8387 18.3472 35.6075 18.7104 35.5617L18.6409 35.0105C18.0911 35.0798 17.579 35.4241 17.2725 35.976L17.7581 36.2458ZM18.6525 35.563L23.2369 35.9466L23.2833 35.3929L18.6988 35.0093L18.6525 35.563ZM23.1051 35.9003C23.2859 36.0218 23.4278 36.192 23.5439 36.4261L24.0416 36.1793C23.8914 35.8763 23.6909 35.6246 23.4151 35.4392L23.1051 35.9003ZM23.5406 36.4194C23.7733 36.922 23.7694 37.5384 23.511 38.0106L23.9984 38.2773C24.3487 37.6371 24.3448 36.8342 24.0448 36.186L23.5406 36.4194ZM24.0325 38.144V38.1248H23.4769V38.144H24.0325ZM2.30867 26.8139C2.33728 25.3236 2.51746 24.4695 2.90429 23.985C3.27007 23.5269 3.87827 23.3371 4.9914 23.3653L5.00552 22.81C3.85496 22.7807 3.00794 22.9649 2.47015 23.6384C1.95341 24.2855 1.78168 25.3206 1.75322 26.8032L2.30867 26.8139ZM4.99846 23.3654H6.29199V22.8099H4.99846V23.3654ZM6.01428 23.0815L5.72895 35.8745L6.28436 35.8869L6.5697 23.0939L6.01428 23.0815ZM6.00665 35.6029H4.71312V36.1585H6.00665V35.6029ZM4.72253 35.6031C3.61029 35.5654 3.00945 35.3398 2.66311 34.8579C2.29754 34.3493 2.15637 33.484 2.19449 31.9943L1.63912 31.9801C1.60116 33.4633 1.7263 34.5064 2.21199 35.1821C2.71691 35.8846 3.55226 36.1193 4.70371 36.1583L4.72253 35.6031ZM2.19452 31.9933L2.30865 26.7955L1.75323 26.7833L1.6391 31.9811L2.19452 31.9933ZM14.9441 19.9845C16.4968 19.6771 17.4629 19.6379 18.0886 19.8652C18.6694 20.0762 19.0056 20.5392 19.2236 21.4456L19.7637 21.3157C19.5251 20.3233 19.1099 19.6451 18.2783 19.343C17.4916 19.0572 16.3842 19.1331 14.8362 19.4395L14.9441 19.9845ZM19.2173 21.4084L19.883 28.0446L20.4358 27.9892L19.77 21.3529L19.2173 21.4084ZM19.8817 28.0169C19.8817 28.3606 19.6107 28.7773 19.1248 29.0139L19.3679 29.5134C19.9853 29.2129 20.4372 28.6322 20.4372 28.0169H19.8817ZM19.1213 29.0156C18.6337 29.2614 18.0273 29.2451 17.5552 28.9825L17.2851 29.468C17.9164 29.8192 18.7176 29.8413 19.3714 29.5117L19.1213 29.0156ZM17.5568 28.9834C17.1903 28.7765 17.0032 28.4029 16.8342 27.7024L16.2941 27.8327C16.4676 28.5516 16.6989 29.137 17.2836 29.4671L17.5568 28.9834ZM16.8381 27.7213L16.1342 23.5592L15.5864 23.6518L16.2903 27.8139L16.8381 27.7213ZM16.1349 23.5636C16.0746 23.1679 15.681 22.8704 15.2788 22.9717L15.4146 23.5105C15.4396 23.5041 15.4763 23.5081 15.5147 23.5352C15.5527 23.562 15.5789 23.6028 15.5857 23.6474L16.1349 23.5636ZM15.3041 22.9666C14.8972 23.0297 14.6216 23.434 14.7145 23.8401L15.2561 23.7162C15.2349 23.6236 15.3016 23.5292 15.3893 23.5156L15.3041 22.9666ZM14.7103 23.8177L15.0908 26.4645L15.6407 26.3855L15.2602 23.7386L14.7103 23.8177ZM15.1278 26.2816C14.7185 26.9609 14.0806 27.3493 13.2907 27.5643C12.494 27.7811 11.5619 27.8158 10.5966 27.7967L10.5856 28.3522C11.5606 28.3715 12.5593 28.3391 13.4366 28.1003C14.3206 27.8598 15.1 27.4042 15.6037 26.5684L15.1278 26.2816ZM10.5911 27.7967C10.2038 27.7967 9.85677 28.0998 9.85677 28.5156H10.4123C10.4123 28.4327 10.4838 28.3522 10.5911 28.3522V27.7967ZM9.85677 28.5156C9.85677 28.9005 10.1541 29.2537 10.5721 29.2537V28.6981C10.4954 28.6981 10.4123 28.6294 10.4123 28.5156H9.85677ZM10.5662 29.2536C12.3871 29.2919 14.4831 29.1493 15.8308 27.7699L15.4334 27.3817C14.27 28.5724 12.4094 28.7367 10.5779 28.6982L10.5662 29.2536ZM15.357 27.6147L15.4141 28.0175L15.9642 27.9396L15.9071 27.5368L15.357 27.6147ZM15.4185 28.041C15.6123 28.8815 15.9396 29.7902 16.8655 30.3113L17.1379 29.8271C16.4278 29.4275 16.1464 28.7251 15.9598 27.9161L15.4185 28.041ZM16.8766 30.3172C16.9366 30.3475 17.0161 30.3735 17.0654 30.39L17.2424 29.8634C17.1775 29.8416 17.1429 29.8293 17.1267 29.8211L16.8766 30.3172ZM17.0047 29.8924C16.6069 30.1457 16.2458 30.5079 16.0109 30.9815L16.5087 31.2283C16.6923 30.858 16.978 30.568 17.3031 30.361L17.0047 29.8924ZM16.0133 30.9768C15.7874 31.4118 15.6396 31.9158 15.6396 32.4283H16.1952C16.1952 32.0202 16.3138 31.6036 16.5063 31.233L16.0133 30.9768ZM15.6396 32.4283C15.6396 32.9183 15.7205 33.4238 15.9539 33.8943L16.4516 33.6475C16.2665 33.2742 16.1952 32.859 16.1952 32.4283H15.6396ZM15.9521 33.8906C16.2246 34.4612 16.666 34.9089 17.1577 35.1676L17.4163 34.6759C17.0331 34.4742 16.6755 34.1163 16.4534 33.6512L15.9521 33.8906ZM17.0993 34.717C16.8702 34.9269 16.6545 35.1858 16.5023 35.5147L17.0065 35.7481C17.1206 35.5016 17.2853 35.3001 17.4747 35.1265L17.0993 34.717ZM16.5127 35.4944C16.259 35.9422 16.1342 36.4503 16.1342 36.974H16.6898C16.6898 36.5387 16.7933 36.1262 16.9961 35.7683L16.5127 35.4944ZM16.1342 36.974C16.1342 37.484 16.2154 37.97 16.4485 38.44L16.9462 38.1932C16.7607 37.8192 16.6898 37.4229 16.6898 36.974H16.1342ZM16.4485 38.44C16.5532 38.6512 16.6774 38.8383 16.7978 39.0002L17.2436 38.6687C17.1358 38.5237 17.0317 38.3656 16.9462 38.1932L16.4485 38.44ZM17.0258 38.5567L13.8871 38.4992L13.8769 39.0546L17.0156 39.1122L17.0258 38.5567ZM13.8885 38.4992C12.6798 38.4711 11.8708 38.2748 11.2644 38.0073C10.6568 37.7393 10.236 37.3933 9.79872 37.0291L9.44316 37.4559C9.88092 37.8206 10.3542 38.213 11.0401 38.5156C11.7273 38.8187 12.6112 39.0252 13.8755 39.0546L13.8885 38.4992ZM9.79607 37.0269C9.10647 36.4668 8.34789 35.8436 6.96744 35.7003L6.91008 36.2529C8.1167 36.3782 8.76579 36.9058 9.44581 37.4581L9.79607 37.0269ZM7.21647 35.9828L7.50181 23.1706L6.94639 23.1582L6.66105 35.9704L7.21647 35.9828ZM7.23963 23.4417C8.70073 23.3599 9.46298 22.7547 10.2493 22.136L9.9057 21.6994C9.13213 22.3081 8.48671 22.8154 7.20856 22.887L7.23963 23.4417ZM10.2508 22.1348C10.7046 21.7725 11.1999 21.3847 11.9199 21.0194C12.6403 20.6539 13.5948 20.3066 14.9619 20.0422L14.8565 19.4968C13.4464 19.7695 12.4415 20.1318 11.6686 20.524C10.8954 20.9162 10.3634 21.334 9.90419 21.7006L10.2508 22.1348ZM15.1729 19.6823L15.1539 19.6248L14.6264 19.7992L14.6455 19.8567L15.1729 19.6823Z" fill="#6A6F75" mask="url(#path-3-outside-1_719_670)"/>
<circle cx="16" cy="8" r="7.5" fill="#6A6F75" stroke="#6A6F75"/>
<mask id="mask0_719_670" style="mask-type:alpha" maskUnits="userSpaceOnUse" x="11" y="3" width="11" height="10">
<rect x="11.7572" y="3.75724" width="8.48845" height="8.4592" fill="#D9D9D9" stroke="#6A6F75" stroke-width="1.51449"/>
</mask>
<g mask="url(#mask0_719_670)">
<path d="M13.6984 8.90511V7.76788H15.4508C15.7111 7.76788 15.9421 7.70472 16.1434 7.57796C16.3449 7.45106 16.4783 7.28123 16.5422 7.06871L16.5495 7.04432H16.5241H13.2816V5.77314H16.4615H16.4922L16.4785 5.74572C16.386 5.56132 16.2349 5.42168 16.0266 5.32661C15.8192 5.232 15.6029 5.18465 15.3779 5.18465H13.2816V3.91346H18.7245V5.18465H17.5035H17.4577L17.4902 5.21698C17.5443 5.27093 17.6059 5.35268 17.675 5.46297C17.7441 5.5731 17.7955 5.67243 17.8297 5.76102L17.8344 5.77314H17.8474H18.7245V7.04432H17.8786H17.8621L17.8599 7.0607C17.7841 7.6173 17.5396 8.07542 17.1264 8.43595C16.713 8.79662 16.2275 8.9907 15.6692 9.01828H15.6071H15.5636L15.5933 9.05011L18.3978 12.0623H16.6261L13.6984 8.90511Z" fill="white" stroke="#6A6F75" stroke-width="0.0378622"/>
</g>
</svg>
