<svg id="Layer_1" data-name="Layer 1" xmlns="http://www.w3.org/2000/svg" viewBox="0 0 27 41"><defs><style>.cls-1{fill:#6a6f75;}</style></defs><path class="cls-1" d="M26.57,32.21l-.26.13h0l.27-.13a3.42,3.42,0,0,0-.64-.82,3.15,3.15,0,0,0,.67-.78l-.23-.12.23.12h0a3.19,3.19,0,0,0,.07-3h0a2.93,2.93,0,0,0-1-1.12,2.49,2.49,0,0,0,.23-.31h0a3.21,3.21,0,0,0,.07-3h0a2.88,2.88,0,0,0-2.46-1.62L21,21.56a4.08,4.08,0,0,0-.94-1.74v-4a8.33,8.33,0,0,0,4.75-7.44A8.54,8.54,0,0,0,16.14,0,8.54,8.54,0,0,0,7.45,8.36a8.34,8.34,0,0,0,4.74,7.44v4c-.39.15-.75.29-1.07.45a12,12,0,0,0-2,1.28h0a6.77,6.77,0,0,1-1.19.77,3.46,3.46,0,0,1-1.52.26l-1.84,0h0c-1.72,0-2.85.39-3.53,1.29a6.46,6.46,0,0,0-.89,3.66L0,32.72H0a6.36,6.36,0,0,0,.72,3.7c.63.94,1.73,1.42,3.45,1.46V37.6h0v.28h0l2,0h0a3.34,3.34,0,0,1,1.37.31,5.49,5.49,0,0,1,1,.73l.17-.19L8.55,39h0l.19-.22h0L8.55,39a8.18,8.18,0,0,0,1.87,1.19,8.82,8.82,0,0,0,3.4.65l9.06.19v-.28h0V41h0a2.91,2.91,0,0,0,2.53-1.51h0a3.26,3.26,0,0,0,.06-3h0c0-.08-.09-.14-.13-.22a3,3,0,0,0,1.15-1.1h0l-.24-.12h0l.25.13a3.19,3.19,0,0,0,.07-3Zm-1.15,2.45h0l-.26-.14h0a1.27,1.27,0,0,1-1.13.7l-5.44-.42,0,.28h0l0-.28h0A1.26,1.26,0,0,1,17.45,34h0l-.26.12h0l.26-.12a1.7,1.7,0,0,1,0-1.61h0a1.27,1.27,0,0,1,1.13-.7l5.46.42,0-.28h0l0,.28h0a1.31,1.31,0,0,1,1.11.78l.26-.12h0l-.25.12h0a1.7,1.7,0,0,1,0,1.61l.26.14Zm-6.15,5.08ZM9.88,22.5l.19.22a9.6,9.6,0,0,1,1.76-1.13,12.14,12.14,0,0,1,3.21-1l.31-.12a6.42,6.42,0,0,1,3-.06,1.51,1.51,0,0,1,.18.09l.08,0A2.07,2.07,0,0,1,19.54,22l.7,6.69a1.25,1.25,0,0,1-.8,1l.13.25h0l-.13-.25h0a1.87,1.87,0,0,1-1.65,0c-.39-.21-.59-.59-.77-1.3l-.74-4.21h0a.75.75,0,0,0-.87-.6h0a.72.72,0,0,0-.6.85h0L15.16,27a3.07,3.07,0,0,1-1.88,1.24,10.77,10.77,0,0,1-2.85.23h0a.76.76,0,0,0-.78.73.75.75,0,0,0,.75.75h0a8.24,8.24,0,0,0,5.14-1.16,3.33,3.33,0,0,0,1.31,2.09,2.53,2.53,0,0,0-.7.82h0a3.22,3.22,0,0,0-.39,1.47,3.26,3.26,0,0,0,.33,1.48h0a2.82,2.82,0,0,0,1,1.07,2.47,2.47,0,0,0-.39.55h0a3,3,0,0,0-.39,1.49,3.09,3.09,0,0,0,.34,1.48.41.41,0,0,0,.07.11l-2.78,0a7.26,7.26,0,0,1-2.77-.49,6.57,6.57,0,0,1-1.55-1h0a5.54,5.54,0,0,0-2.72-1.3L7.16,24a5.35,5.35,0,0,0,2.91-1.29h0l-.18-.22ZM24,35.52ZM15.45,23.84Zm8.76,3.7a1.3,1.3,0,0,1,1.11.76,1.7,1.7,0,0,1,0,1.58h0l0,0a1.3,1.3,0,0,1-1.13.71l-3.07-.26a2.53,2.53,0,0,0,.71-1.68h0v0l-.12-1.19,2.56.06v-.29h0v.29Zm1.31,2.52L25.45,30h0l.07.07Zm-4.2-2.86Zm0-.94Zm2.49,10.21ZM15.07,24.39Zm1.29,10.15ZM18,37.05a1.37,1.37,0,0,1,1-.68l4.7.37a1.31,1.31,0,0,1,.42.5,1.75,1.75,0,0,1,0,1.59h0a1.33,1.33,0,0,1-1,.71l-3.71-.08h-.05a.85.85,0,0,0-.2,0,1.27,1.27,0,0,1-1.1-.76A1.7,1.7,0,0,1,18,37.05Zm.63-5.63Zm6.15-5.78Zm-1.33-2.53a1.31,1.31,0,0,1,1.1.76,1.7,1.7,0,0,1,0,1.61l.26.14h0l-.26-.14,0,.07h0A1.5,1.5,0,0,1,24,26L21.49,26l-.31-2.92,2.26.05v0Zm-2.69-1.27Zm0,0ZM4.52,24H5.58L5.3,36.4H4.22c-1.17,0-1.8-.27-2.17-.75a4.79,4.79,0,0,1-.49-2.91h0l.12-5.27h0a4.74,4.74,0,0,1,.63-2.87c.38-.46,1-.66,2.2-.63v0ZM5.58,36.68ZM8.89,8.36a7.12,7.12,0,0,1,7.25-7,7.12,7.12,0,0,1,7.25,7,7.12,7.12,0,0,1-7.25,7A7.12,7.12,0,0,1,8.89,8.36Zm4.87,8a8.83,8.83,0,0,0,2.38.33,9,9,0,0,0,2.39-.33V19a9.5,9.5,0,0,0-3.78.14q-.52.09-1,.21ZM6.41,22.81Zm-1.85,0h0v0ZM6.15,37.64Z"/><path class="cls-1" d="M22.31,8.36a6.06,6.06,0,0,0-6.17-5.93A6.06,6.06,0,0,0,10,8.36a6.06,6.06,0,0,0,6.17,5.93A6.06,6.06,0,0,0,22.31,8.36Zm-5.62-1H13.27V6.1h3.39v0a.91.91,0,0,0-.48-.42,1.65,1.65,0,0,0-.69-.15H13.27V4.21H19V5.5H17.68l0,0a1.45,1.45,0,0,1,.2.25,1.85,1.85,0,0,1,.16.31H19V7.39h-.91v0a2.13,2.13,0,0,1-.78,1.39,2.52,2.52,0,0,1-1.54.6h-.11l0,0,3,3.06H16.8L13.71,9.28V8.13h1.85a1.35,1.35,0,0,0,.73-.2.9.9,0,0,0,.42-.51v0Z"/></svg>