<svg xmlns="http://www.w3.org/2000/svg" version="1.1" width="18pt" height="18pt" viewBox="0 0 18 18">
<path transform="matrix(1,0,0,-1,2.25,15.75)" d="M12.712501 0C11.150001 0 9.606251 .340625 8.08125 1.021874 6.55625 1.703124 5.16875 2.66875 3.91875 3.91875 2.66875 5.16875 1.703125 6.55625 1.021875 8.08125 .340625 9.606251 0 11.15 0 12.7125 0 12.9375 .075 13.125 .225 13.275 .375 13.425 .5625 13.5 .7875 13.5H3.825C4 13.5 4.15625 13.440625 4.29375 13.321875 4.43125 13.203125 4.5125 13.0625 4.5375 12.9L5.025 10.275C5.05 10.075 5.04375 9.90625 5.00625 9.76875 4.96875 9.63125 4.9 9.5125 4.8 9.4125L2.98125 7.575C3.23125 7.1125 3.528125 6.665625 3.871875 6.234375 4.215625 5.803125 4.59375 5.3875 5.00625 4.987499 5.39375 4.599999 5.8 4.240624 6.225 3.909374 6.65 3.578125 7.1 3.275 7.575 3L9.3375 4.7625C9.45 4.875 9.596875 4.959375 9.778126 5.015625 9.959375 5.071875 10.1375 5.0875 10.3125 5.0625L12.900001 4.5375C13.075001 4.4875 13.21875 4.396875 13.331249 4.265625 13.443749 4.134375 13.5 3.987499 13.5 3.825V.787499C13.5 .562499 13.425 .374999 13.275001 .224999 13.125001 .075 12.937501 0 12.712501 0Z" fill="#1c1b1f"/>
</svg>
