<svg width="16" height="15" viewBox="0 0 16 15" fill="none" xmlns="http://www.w3.org/2000/svg">
<path d="M14.8525 12.6712L14.8517 12.6704L10.4609 8.46229L10.4607 8.46209L9.46563 7.52096L14.8517 2.37193C14.9642 2.26429 15.0559 2.14441 15.1136 2.012C15.1704 1.88169 15.2049 1.73952 15.2049 1.59632C15.2049 1.4459 15.1826 1.30246 15.113 1.16872C15.0567 1.04008 14.9773 0.909444 14.8735 0.810236L14.8736 0.810192L14.8718 0.808658C14.7602 0.712637 14.6355 0.625543 14.4978 0.570703L14.4813 0.612274L14.4978 0.570703C14.3597 0.515665 14.2004 0.494246 14.0542 0.494246C13.9053 0.494246 13.7576 0.527103 13.6117 0.580742L13.6117 0.580727L13.6106 0.58117C13.4729 0.636009 13.3477 0.723275 13.2458 0.820704L7.04829 6.74552C6.94495 6.84432 6.86507 6.96458 6.80823 7.09498L6.80822 7.09498L6.80774 7.09616C6.75149 7.23596 6.7169 7.37782 6.7169 7.52114C6.7169 7.66434 6.75144 7.80651 6.80823 7.93682C6.86507 8.06723 6.94495 8.18749 7.04829 8.28628L13.2458 14.2111L13.2458 14.2111L13.2467 14.2119C13.4639 14.4087 13.7488 14.5062 14.0433 14.5062C14.3398 14.5062 14.6245 14.3863 14.8298 14.1902C15.046 13.9835 15.1609 13.721 15.1611 13.4364C15.1724 13.1511 15.0574 12.8779 14.8525 12.6712Z" fill="#181725" stroke="#181725" stroke-width="0.0896334"/>
<path d="M1.30764 2.32881L1.30847 2.32962L5.69929 6.53771L5.6995 6.53791L6.69453 7.47904L1.30851 12.6281C1.19591 12.7357 1.10426 12.8556 1.04655 12.988C0.989755 13.1183 0.955219 13.2605 0.955219 13.4037C0.955219 13.5541 0.977605 13.6975 1.04718 13.8313C1.10341 13.9599 1.18283 14.0906 1.28661 14.1898L1.28656 14.1898L1.28835 14.1913C1.39995 14.2874 1.52466 14.3745 1.66233 14.4293L1.67889 14.3877L1.66233 14.4293C1.8005 14.4843 1.9598 14.5058 2.10595 14.5058C2.2549 14.5058 2.40258 14.4729 2.54846 14.4193L2.54846 14.4193L2.54958 14.4188C2.68725 14.364 2.81244 14.2767 2.91435 14.1793L9.11187 8.25448C9.21521 8.15568 9.29509 8.03542 9.35192 7.90502L9.35194 7.90502L9.35242 7.90384C9.40866 7.76404 9.44325 7.62218 9.44325 7.47886C9.44325 7.33566 9.40872 7.19349 9.35192 7.06318C9.29509 6.93277 9.21521 6.81251 9.11187 6.71372L2.91435 0.788897L2.91436 0.788885L2.91347 0.788073C2.69624 0.591333 2.41137 0.493841 2.1169 0.493841C1.82036 0.493841 1.53561 0.613657 1.33041 0.809831C1.1142 1.01653 0.99926 1.27895 0.999019 1.56361C0.987804 1.84894 1.10278 2.12208 1.30764 2.32881Z" fill="#181725" stroke="#181725" stroke-width="0.0896334"/>
</svg>
