<svg width="267" height="100" viewBox="0 0 267 100" fill="none" xmlns="http://www.w3.org/2000/svg">
<path d="M16.6361 85.8493C8.83765 86.452 1.22796 80.0476 0.298532 71.7554C-0.848731 61.4736 1.257 51.9397 7.93727 43.7128C10.5731 40.4598 13.768 38.1653 17.8633 36.9744C33.5328 32.4072 49.4493 29.0961 65.6489 27.0412C68.3138 26.6999 71.1602 25.7051 73.3748 24.2093C85.6462 15.8953 98.709 9.15693 112.396 3.52227C118.212 1.12609 124.268 0.327366 130.433 0.109531C146.894 -0.471362 163.166 1.51093 179.366 4.13947C186.417 5.27947 193.394 6.89145 200.445 8.06776C208.795 9.45464 216.231 13.2159 223.804 16.6432C233.04 20.8183 242.248 25.0371 252.362 26.787C255.434 27.3171 257.815 29.2268 259.34 31.986C266.347 44.6712 268.642 58.1262 265.846 72.3943C265.062 76.4025 262.942 79.4159 259.101 80.9698C255.441 82.451 251.723 83.7798 247.657 85.3192C250.75 66.7234 244.702 52.811 228.052 44.86C215.541 38.8841 203.11 40.7357 192.407 49.5653C181.007 58.9612 177.318 71.2543 180.963 85.9291H83.0902C86.8225 68.9671 81.7687 55.258 66.6655 46.3195C54.5103 39.131 41.8251 39.8135 30.3089 47.9606C17.2606 57.1967 12.9475 70.1143 16.6361 85.8638V85.8493ZM139.263 11.5531C132.205 11.7782 124.98 10.7036 118.517 13.3829C108.606 17.4855 99.1011 22.5828 89.4365 27.2953C88.4417 27.7818 87.5486 28.4934 86.4376 29.2122C89.7705 30.679 130.556 30.0618 139.255 28.5587V11.5531H139.263ZM150.786 28.0359C151.156 28.1303 151.403 28.261 151.65 28.2538C166.833 27.731 182.016 27.2082 197.199 26.6273C197.787 26.6055 198.608 26.1698 198.891 25.6833C199.9 23.9189 200.721 22.0455 201.73 19.9543C184.775 15.9824 168.068 12.8311 150.786 12.2284V28.0359Z" fill="#9B9B9B"/>
<path d="M73.6876 76.2136C73.6586 89.0731 63.1807 99.5292 50.3285 99.5219C37.5561 99.5146 26.9476 88.8916 26.9766 76.141C27.0057 63.3976 37.6723 52.7673 50.4011 52.7891C63.1735 52.8109 73.7167 63.4194 73.6876 76.2209V76.2136Z" fill="#9B9B9B"/>
<path d="M238.516 76.5476C238.211 89.6975 227.508 99.8268 214.264 99.5001C201.854 99.1951 191.565 88.3179 191.841 75.7997C192.125 62.8385 202.973 52.4333 215.825 52.7963C228.488 53.1594 238.807 63.9567 238.516 76.5476Z" fill="#9B9B9B"/>
</svg>
