<svg width="15" height="15" viewBox="0 0 15 15" fill="none" xmlns="http://www.w3.org/2000/svg">
<mask id="mask0_353_70974" style="mask-type:alpha" maskUnits="userSpaceOnUse" x="0" y="0" width="15" height="15">
<rect width="15" height="15" fill="#D9D9D9"/>
</mask>
<g mask="url(#mask0_353_70974)">
<path d="M4.0625 10C4.32292 10 4.54427 9.90885 4.72656 9.72656C4.90885 9.54427 5 9.32292 5 9.0625C5 8.80208 4.90885 8.58073 4.72656 8.39844C4.54427 8.21615 4.32292 8.125 4.0625 8.125C3.80208 8.125 3.58073 8.21615 3.39844 8.39844C3.21615 8.58073 3.125 8.80208 3.125 9.0625C3.125 9.32292 3.21615 9.54427 3.39844 9.72656C3.58073 9.90885 3.80208 10 4.0625 10ZM9.6875 10C9.89583 10 10.0833 9.9375 10.25 9.8125C10.4167 9.6875 10.526 9.52604 10.5781 9.32812C10.3698 9.28646 10.1719 9.21615 9.98438 9.11719C9.79688 9.01823 9.625 8.89062 9.46875 8.73438L9.07813 8.34375C8.97396 8.42708 8.89323 8.53125 8.83594 8.65625C8.77865 8.78125 8.75 8.91667 8.75 9.0625C8.75 9.32292 8.84115 9.54427 9.02344 9.72656C9.20573 9.90885 9.42708 10 9.6875 10ZM3.125 11.875V12.5C3.125 12.6771 3.0651 12.8255 2.94531 12.9453C2.82552 13.0651 2.67708 13.125 2.5 13.125H1.875C1.69792 13.125 1.54948 13.0651 1.42969 12.9453C1.3099 12.8255 1.25 12.6771 1.25 12.5V7.5L2.5625 3.75C2.625 3.5625 2.73698 3.41146 2.89844 3.29688C3.0599 3.18229 3.23958 3.125 3.4375 3.125H5.625V3.98438C5.625 4.04688 5.6276 4.11198 5.63281 4.17969C5.63802 4.2474 5.64583 4.3125 5.65625 4.375H3.65625L3 6.25H6.98438L8.23438 7.5H2.5V10.625H11.25V9.35938C11.4792 9.33854 11.7005 9.28125 11.9141 9.1875C12.1276 9.09375 12.3229 8.96354 12.5 8.79688V12.5C12.5 12.6771 12.4401 12.8255 12.3203 12.9453C12.2005 13.0651 12.0521 13.125 11.875 13.125H11.25C11.0729 13.125 10.9245 13.0651 10.8047 12.9453C10.6849 12.8255 10.625 12.6771 10.625 12.5V11.875H3.125ZM9.375 3.75C9.55208 3.75 9.70052 3.6901 9.82031 3.57031C9.9401 3.45052 10 3.30208 10 3.125C10 2.94792 9.9401 2.79948 9.82031 2.67969C9.70052 2.5599 9.55208 2.5 9.375 2.5C9.19792 2.5 9.04948 2.5599 8.92969 2.67969C8.8099 2.79948 8.75 2.94792 8.75 3.125C8.75 3.30208 8.8099 3.45052 8.92969 3.57031C9.04948 3.6901 9.19792 3.75 9.375 3.75ZM10.3438 7.84375L7.15625 4.65625C7.07292 4.57292 7.00521 4.47135 6.95312 4.35156C6.90104 4.23177 6.875 4.10938 6.875 3.98438V1.5625C6.875 1.30208 6.96615 1.08073 7.14844 0.898438C7.33073 0.716146 7.55208 0.625 7.8125 0.625H10.2344C10.3594 0.625 10.4818 0.651042 10.6016 0.703125C10.7214 0.755208 10.8229 0.822917 10.9062 0.90625L14.0938 4.09375C14.2708 4.27083 14.3594 4.49219 14.3594 4.75781C14.3594 5.02344 14.2708 5.24479 14.0938 5.42188L11.6719 7.84375C11.4948 8.02083 11.2734 8.10938 11.0078 8.10938C10.7422 8.10938 10.5208 8.02083 10.3438 7.84375ZM11.0156 6.75L13 4.76562L10.1094 1.875H8.125V3.85938L11.0156 6.75Z" fill="#4D535A"/>
</g>
</svg>
