<svg width="11" height="10" viewBox="0 0 11 10" fill="none" xmlns="http://www.w3.org/2000/svg">
<path d="M8 5.5C7.30833 5.5 6.71875 5.25625 6.23125 4.76875C5.74375 4.28125 5.5 3.69167 5.5 3C5.5 2.31667 5.74167 1.72917 6.225 1.2375C6.70833 0.745833 7.3 0.5 8 0.5C8.69167 0.5 9.28125 0.74375 9.76875 1.23125C10.2563 1.71875 10.5 2.30833 10.5 3C10.5 3.69167 10.2563 4.28125 9.76875 4.76875C9.28125 5.25625 8.69167 5.5 8 5.5ZM7.75 3.5H8.25V1.5H7.75V3.5ZM1 10C0.858333 10 0.739583 9.95208 0.64375 9.85625C0.547917 9.76042 0.5 9.64167 0.5 9.5V5.5L1.55 2.5C1.6 2.35 1.68958 2.22917 1.81875 2.1375C1.94792 2.04583 2.09167 2 2.25 2H4.65C4.6 2.15833 4.5625 2.32083 4.5375 2.4875C4.5125 2.65417 4.5 2.825 4.5 3H2.425L1.9 4.5H4.8375C4.92917 4.69167 5.03542 4.87083 5.15625 5.0375C5.27708 5.20417 5.4125 5.35833 5.5625 5.5H1.5V8H8.5V6.4625C8.675 6.4375 8.84583 6.4 9.0125 6.35C9.17917 6.3 9.34167 6.2375 9.5 6.1625V9.5C9.5 9.64167 9.45208 9.76042 9.35625 9.85625C9.26042 9.95208 9.14167 10 9 10H8.5C8.35833 10 8.23958 9.95208 8.14375 9.85625C8.04792 9.76042 8 9.64167 8 9.5V9H2V9.5C2 9.64167 1.95208 9.76042 1.85625 9.85625C1.76042 9.95208 1.64167 10 1.5 10H1ZM8 4.5C8.06667 4.5 8.125 4.475 8.175 4.425C8.225 4.375 8.25 4.31667 8.25 4.25C8.25 4.18333 8.225 4.125 8.175 4.075C8.125 4.025 8.06667 4 8 4C7.93333 4 7.875 4.025 7.825 4.075C7.775 4.125 7.75 4.18333 7.75 4.25C7.75 4.31667 7.775 4.375 7.825 4.425C7.875 4.475 7.93333 4.5 8 4.5ZM2.75 7.5C2.95833 7.5 3.13542 7.42708 3.28125 7.28125C3.42708 7.13542 3.5 6.95833 3.5 6.75C3.5 6.54167 3.42708 6.36458 3.28125 6.21875C3.13542 6.07292 2.95833 6 2.75 6C2.54167 6 2.36458 6.07292 2.21875 6.21875C2.07292 6.36458 2 6.54167 2 6.75C2 6.95833 2.07292 7.13542 2.21875 7.28125C2.36458 7.42708 2.54167 7.5 2.75 7.5ZM7.25 7.5C7.45833 7.5 7.63542 7.42708 7.78125 7.28125C7.92708 7.13542 8 6.95833 8 6.75C8 6.70833 7.99792 6.66667 7.99375 6.625C7.98958 6.58333 7.97917 6.54167 7.9625 6.5C7.7375 6.5 7.51875 6.47917 7.30625 6.4375C7.09375 6.39583 6.89167 6.33333 6.7 6.25C6.63333 6.31667 6.58333 6.39375 6.55 6.48125C6.51667 6.56875 6.5 6.65833 6.5 6.75C6.5 6.95833 6.57292 7.13542 6.71875 7.28125C6.86458 7.42708 7.04167 7.5 7.25 7.5Z" fill="white"/>
</svg>
