<svg width="12" height="12" viewBox="0 0 12 12" fill="none" xmlns="http://www.w3.org/2000/svg">
<mask id="mask0_353_70913" style="mask-type:alpha" maskUnits="userSpaceOnUse" x="0" y="0" width="12" height="12">
<rect width="12" height="12" fill="#D9D9D9"/>
</mask>
<g mask="url(#mask0_353_70913)">
<path d="M6 12.4385C5.11667 12.4385 4.39583 12.2982 3.8375 12.0176C3.27917 11.7371 3 11.3749 3 10.931C3 10.6379 3.12083 10.3824 3.3625 10.1647C3.60417 9.94695 3.9375 9.77526 4.3625 9.64964L4.65 10.6044C4.50833 10.6462 4.37917 10.6986 4.2625 10.7614C4.14583 10.8242 4.06667 10.8807 4.025 10.931C4.13333 11.065 4.38333 11.1822 4.775 11.2827C5.16667 11.3832 5.575 11.4335 6 11.4335C6.425 11.4335 6.83542 11.3832 7.23125 11.2827C7.62708 11.1822 7.87917 11.065 7.9875 10.931C7.94583 10.8807 7.86667 10.8242 7.75 10.7614C7.63333 10.6986 7.50417 10.6462 7.3625 10.6044L7.65 9.64964C8.075 9.77526 8.40625 9.94695 8.64375 10.1647C8.88125 10.3824 9 10.6379 9 10.931C9 11.3749 8.72083 11.7371 8.1625 12.0176C7.60417 12.2982 6.88333 12.4385 6 12.4385ZM6 9.08434C6.15 8.80797 6.30833 8.55463 6.475 8.32432C6.64167 8.09402 6.80417 7.87418 6.9625 7.66481C7.27083 7.26282 7.51667 6.90061 7.7 6.57818C7.88333 6.25574 7.975 5.85585 7.975 5.37848C7.975 4.82574 7.78333 4.35675 7.4 3.97151C7.01667 3.58627 6.55 3.39365 6 3.39365C5.45 3.39365 4.98333 3.58627 4.6 3.97151C4.21667 4.35675 4.025 4.82574 4.025 5.37848C4.025 5.85585 4.11667 6.25574 4.3 6.57818C4.48333 6.90061 4.72917 7.26282 5.0375 7.66481C5.19583 7.87418 5.35833 8.09402 5.525 8.32432C5.69167 8.55463 5.85 8.80797 6 9.08434ZM6 10.931C5.90833 10.931 5.825 10.9038 5.75 10.8493C5.675 10.7949 5.62083 10.7216 5.5875 10.6295C5.39583 10.0349 5.15417 9.53658 4.8625 9.13459C4.57083 8.7326 4.2875 8.34735 4.0125 7.97886C3.74583 7.61037 3.51458 7.22932 3.31875 6.8357C3.12292 6.44208 3.025 5.95634 3.025 5.37848C3.025 4.541 3.3125 3.83333 3.8875 3.25547C4.4625 2.6776 5.16667 2.38867 6 2.38867C6.83333 2.38867 7.5375 2.6776 8.1125 3.25547C8.6875 3.83333 8.975 4.541 8.975 5.37848C8.975 5.95634 8.87917 6.44208 8.6875 6.8357C8.49583 7.22932 8.2625 7.61037 7.9875 7.97886C7.72083 8.34735 7.43958 8.7326 7.14375 9.13459C6.84792 9.53658 6.60417 10.0349 6.4125 10.6295C6.37917 10.7216 6.325 10.7949 6.25 10.8493C6.175 10.9038 6.09167 10.931 6 10.931ZM6 6.44627C6.29167 6.44627 6.54167 6.34159 6.75 6.13222C6.95833 5.92285 7.0625 5.6716 7.0625 5.37848C7.0625 5.08536 6.95833 4.83412 6.75 4.62475C6.54167 4.41538 6.29167 4.31069 6 4.31069C5.70833 4.31069 5.45833 4.41538 5.25 4.62475C5.04167 4.83412 4.9375 5.08536 4.9375 5.37848C4.9375 5.6716 5.04167 5.92285 5.25 6.13222C5.45833 6.34159 5.70833 6.44627 6 6.44627Z" fill="white"/>
</g>
</svg>
