<svg width="18" height="18" viewBox="0 0 18 18" fill="none" xmlns="http://www.w3.org/2000/svg">
<mask id="mask0_353_78332" style="mask-type:alpha" maskUnits="userSpaceOnUse" x="0" y="0" width="18" height="18">
<rect width="18" height="18" fill="#D9D9D9"/>
</mask>
<g mask="url(#mask0_353_78332)">
<path d="M14.0192 13.875H6.23077C5.85193 13.875 5.53125 13.7437 5.26875 13.4812C5.00625 13.2187 4.875 12.898 4.875 12.5192V2.48078C4.875 2.10193 5.00625 1.78125 5.26875 1.51875C5.53125 1.25625 5.85193 1.125 6.23077 1.125H11.4375L15.375 5.06246V12.5192C15.375 12.898 15.2437 13.2187 14.9812 13.4812C14.7187 13.7437 14.398 13.875 14.0192 13.875ZM10.875 5.62496V2.24998H6.23077C6.17308 2.24998 6.12018 2.27402 6.07209 2.32209C6.02402 2.37018 5.99998 2.42308 5.99998 2.48078V12.5192C5.99998 12.5769 6.02402 12.6298 6.07209 12.6779C6.12018 12.7259 6.17308 12.75 6.23077 12.75H14.0192C14.0769 12.75 14.1298 12.7259 14.1779 12.6779C14.2259 12.6298 14.25 12.5769 14.25 12.5192V5.62496H10.875ZM3.23078 16.875C2.85193 16.875 2.53125 16.7437 2.26875 16.4812C2.00625 16.2187 1.875 15.898 1.875 15.5192V5.625H2.99998V15.5192C2.99998 15.5769 3.02402 15.6298 3.07209 15.6779C3.12018 15.7259 3.17308 15.75 3.23078 15.75H10.875V16.8749L3.23078 16.875Z" fill="#1C1B1F"/>
</g>
</svg>
