<svg xmlns="http://www.w3.org/2000/svg" version="1.1" width="18pt" height="18pt" viewBox="0 0 18 18">
<path transform="matrix(1,0,0,-1,1.875,16.875)" d="M12.144188 3.000036H4.355775C3.976925 3.000036 3.65625 3.131286 3.39375 3.393785 3.13125 3.656285 3 3.97696 3 4.35581V14.394224C3 14.773074 3.13125 15.09375 3.39375 15.35625 3.65625 15.61875 3.976925 15.75 4.355775 15.75H9.5625L13.499964 11.812536V4.35581C13.499964 3.97696 13.368714 3.656285 13.106215 3.393785 12.843715 3.131286 12.523039 3.000036 12.144188 3.000036ZM9 11.250036V14.625018H4.355775C4.298075 14.625018 4.245182 14.600981 4.197094 14.552906 4.149019 14.504818 4.124981 14.451924 4.124981 14.394224V4.35581C4.124981 4.29811 4.149019 4.245217 4.197094 4.19713 4.245182 4.149055 4.298075 4.125017 4.355775 4.125017H12.144188C12.201888 4.125017 12.254784 4.149055 12.302871 4.19713 12.350945 4.245217 12.374983 4.29811 12.374983 4.35581V11.250036H9ZM1.355775 .000036C.976925 .000036 .65625 .131286 .39375 .393785 .13125 .656285 0 .976961 0 1.355812V11.25H1.124981V1.355812C1.124981 1.298112 1.149019 1.245216 1.197094 1.197129 1.245181 1.149055 1.298075 1.125017 1.355775 1.125017H8.999964V.000054L1.355775 .000036Z" fill="#1c1b1f"/>
</svg>
