<svg width="13" height="13" viewBox="0 0 13 13" fill="none" xmlns="http://www.w3.org/2000/svg">
<g id="border_color">
<mask id="mask0_4440_11227" style="mask-type:alpha" maskUnits="userSpaceOnUse" x="0" y="0" width="13" height="13">
<rect id="Bounding box" width="13" height="13" fill="#D9D9D9"/>
</mask>
<g mask="url(#mask0_4440_11227)">
<path id="border_color_2" d="M1.08334 13V11.375H11.9167V13H1.08334ZM3.25001 8.89064H3.91978L8.41561 4.40307L8.07504 4.05735L7.73758 3.72504L3.25001 8.22087V8.89064ZM2.43751 9.70314V7.87502L8.50946 1.81147C8.58791 1.73302 8.67697 1.67366 8.77663 1.63339C8.87621 1.59313 8.97985 1.573 9.08755 1.573C9.19534 1.573 9.2997 1.59313 9.40063 1.63339C9.50156 1.67366 9.59406 1.73581 9.6781 1.81986L10.3292 2.47921C10.4132 2.55766 10.474 2.64753 10.5115 2.74882C10.5489 2.85002 10.5677 2.95465 10.5677 3.06272C10.5677 3.16401 10.5487 3.26471 10.5106 3.36483C10.4726 3.46504 10.4122 3.55663 10.3292 3.63959L4.26564 9.70314H2.43751ZM8.41561 4.40307L8.07504 4.05735L7.73758 3.72504L8.41561 4.40307Z" fill="white"/>
</g>
</g>
</svg>
