<svg id="Layer_1" data-name="Layer 1" xmlns="http://www.w3.org/2000/svg" viewBox="0 0 28 28"><defs><style>.cls-1{fill:#6a6f75;}</style></defs><path class="cls-1" d="M6.38,21.62l10.17-5.06L21.61,6.39,11.45,11.46ZM14,15.5A1.46,1.46,0,1,1,15.47,14,1.48,1.48,0,0,1,15,15a1.43,1.43,0,0,1-1,.45ZM14,28a13.57,13.57,0,0,1-5.44-1.1A14,14,0,1,1,26.89,8.56,13.74,13.74,0,0,1,28,14a13.63,13.63,0,0,1-1.1,5.46,14.46,14.46,0,0,1-3,4.45,14.28,14.28,0,0,1-4.45,3A13.63,13.63,0,0,1,14,28Zm0-2.21a11.35,11.35,0,0,0,8.38-3.41A11.32,11.32,0,0,0,25.8,14a11.33,11.33,0,0,0-3.43-8.38A11.38,11.38,0,0,0,14,2.22,11.39,11.39,0,0,0,5.64,5.64,11.38,11.38,0,0,0,2.21,14a11.39,11.39,0,0,0,3.43,8.38A11.4,11.4,0,0,0,14,25.79Z"/></svg>