<svg width="21" height="21" viewBox="0 0 21 21" fill="none" xmlns="http://www.w3.org/2000/svg">
<g clip-path="url(#clip0_2832_11586)">
<path d="M17.4457 6.99906H18.375C18.8391 6.99906 19.2842 7.18343 19.6124 7.51162C19.9406 7.83981 20.125 8.28493 20.125 8.74906V12.2491C20.125 12.7132 19.9406 13.1583 19.6124 13.4865C19.2842 13.8147 18.8391 13.9991 18.375 13.9991H17.4457C17.2324 15.6907 16.4091 17.2463 15.1303 18.3741C13.8515 19.5018 12.205 20.124 10.5 20.1241V18.3741C11.8924 18.3741 13.2277 17.8209 14.2123 16.8364C15.1969 15.8518 15.75 14.5164 15.75 13.1241V7.87406C15.75 6.48167 15.1969 5.14631 14.2123 4.16175C13.2277 3.17718 11.8924 2.62406 10.5 2.62406C9.10761 2.62406 7.77226 3.17718 6.78769 4.16175C5.80312 5.14631 5.25 6.48167 5.25 7.87406V13.9991H2.625C2.16087 13.9991 1.71575 13.8147 1.38756 13.4865C1.05937 13.1583 0.875 12.7132 0.875 12.2491V8.74906C0.875 8.28493 1.05937 7.83981 1.38756 7.51162C1.71575 7.18343 2.16087 6.99906 2.625 6.99906H3.55425C3.76778 5.30759 4.59119 3.75217 5.87 2.62465C7.14881 1.49713 8.79511 0.875 10.5 0.875C12.2049 0.875 13.8512 1.49713 15.13 2.62465C16.4088 3.75217 17.2322 5.30759 17.4457 6.99906ZM2.625 8.74906V12.2491H3.5V8.74906H2.625ZM17.5 8.74906V12.2491H18.375V8.74906H17.5ZM6.79 13.8109L7.7175 12.3269C8.55144 12.8493 9.51595 13.1256 10.5 13.1241C11.4841 13.1256 12.4486 12.8493 13.2825 12.3269L14.21 13.8109C13.0981 14.5076 11.8121 14.8761 10.5 14.8741C9.1879 14.8761 7.9019 14.5076 6.79 13.8109Z" fill="#202831"/>
</g>
<defs>
<clipPath id="clip0_2832_11586">
<rect width="21" height="21" fill="white"/>
</clipPath>
</defs>
</svg>
