<svg width="14" height="20" viewBox="0 0 14 20" fill="none" xmlns="http://www.w3.org/2000/svg">
<path d="M5.86 20L0.82 11.208V9.136H2.5C3.172 9.136 3.76 9.04267 4.264 8.856C4.78667 8.65067 5.216 8.36133 5.552 7.988C5.90667 7.61467 6.14933 7.16667 6.28 6.644H0.82V4.572H6.252C6.14 4.08667 5.944 3.65733 5.664 3.284C5.40267 2.91067 5.048 2.62133 4.6 2.416C4.17067 2.192 3.648 2.08 3.032 2.08H0.82V0.0079987H13.448V2.08H9.052C9.36933 2.43467 9.63067 2.81733 9.836 3.228C10.06 3.63867 10.2093 4.08667 10.284 4.572H13.448V6.644H10.34C10.1533 8.02533 9.62133 9.108 8.744 9.892C7.86667 10.6573 6.73733 11.18 5.356 11.46L10.844 20H5.86Z" fill="#202831"/>
</svg>
