<svg width="18" height="18" viewBox="0 0 18 18" fill="none" xmlns="http://www.w3.org/2000/svg">
<mask id="mask0_353_64293" style="mask-type:alpha" maskUnits="userSpaceOnUse" x="0" y="0" width="18" height="18">
<rect width="17.2308" height="17.2308" fill="#D9D9D9"/>
</mask>
<g mask="url(#mask0_353_64293)">
<path d="M8.97401 15.0766L7.88093 14.1102C6.61196 12.9827 5.56285 12.0101 4.73362 11.1924C3.90439 10.3747 3.24478 9.6406 2.75478 8.99015C2.26478 8.33969 1.92241 7.74189 1.72766 7.19674C1.53292 6.6516 1.43555 6.09406 1.43555 5.52414C1.43555 4.35951 1.83132 3.38692 2.62285 2.60637C3.41439 1.82582 4.40068 1.43555 5.5817 1.43555C6.23503 1.43555 6.85696 1.57183 7.44747 1.84441C8.03798 2.11698 8.54683 2.50106 8.97401 2.99665C9.40119 2.50106 9.91003 2.11698 10.5005 1.84441C11.0911 1.57183 11.713 1.43555 12.3663 1.43555C13.5473 1.43555 14.5336 1.82582 15.3252 2.60637C16.1167 3.38692 16.5125 4.35951 16.5125 5.52414C16.5125 6.09406 16.4151 6.6516 16.2204 7.19674C16.0256 7.74189 15.6832 8.33969 15.1932 8.99015C14.7032 9.6406 14.0436 10.3747 13.2144 11.1924C12.3852 12.0101 11.3361 12.9827 10.0671 14.1102L8.97401 15.0766Z" fill="#FF0000"/>
</g>
</svg>
