<svg width="23" height="23" viewBox="0 0 23 23" fill="none" xmlns="http://www.w3.org/2000/svg">
<mask id="mask0_353_70901" style="mask-type:alpha" maskUnits="userSpaceOnUse" x="0" y="0" width="23" height="23">
<rect width="23" height="23" fill="#D9D9D9"/>
</mask>
<g mask="url(#mask0_353_70901)">
<path d="M11.5003 20.1245L10.1107 18.8786C8.49755 17.4252 7.16387 16.1714 6.1097 15.1172C5.05553 14.063 4.21699 13.1167 3.59408 12.2781C2.97116 11.4396 2.53592 10.6689 2.28835 9.96615C2.04078 9.26337 1.91699 8.54462 1.91699 7.8099C1.91699 6.30851 2.42012 5.05469 3.42637 4.04844C4.43262 3.04219 5.68644 2.53906 7.18783 2.53906C8.01838 2.53906 8.80901 2.71476 9.5597 3.06615C10.3104 3.41753 10.9573 3.91267 11.5003 4.55156C12.0434 3.91267 12.6903 3.41753 13.441 3.06615C14.1916 2.71476 14.9823 2.53906 15.8128 2.53906C17.3142 2.53906 18.568 3.04219 19.5743 4.04844C20.5805 5.05469 21.0837 6.30851 21.0837 7.8099C21.0837 8.54462 20.9599 9.26337 20.7123 9.96615C20.4647 10.6689 20.0295 11.4396 19.4066 12.2781C18.7837 13.1167 17.9451 14.063 16.891 15.1172C15.8368 16.1714 14.5031 17.4252 12.8899 18.8786L11.5003 20.1245ZM11.5003 17.537C13.0337 16.1634 14.2955 14.9854 15.2857 14.0031C16.276 13.0208 17.0587 12.1663 17.6337 11.4396C18.2087 10.7128 18.608 10.066 18.8316 9.49896C19.0552 8.93194 19.167 8.36892 19.167 7.8099C19.167 6.85156 18.8475 6.05295 18.2087 5.41406C17.5698 4.77517 16.7712 4.45573 15.8128 4.45573C15.0621 4.45573 14.3673 4.66736 13.7284 5.09063C13.0896 5.51389 12.6503 6.05295 12.4107 6.70781H10.5899C10.3503 6.05295 9.91109 5.51389 9.2722 5.09063C8.63331 4.66736 7.93852 4.45573 7.18783 4.45573C6.22949 4.45573 5.43088 4.77517 4.79199 5.41406C4.1531 6.05295 3.83366 6.85156 3.83366 7.8099C3.83366 8.36892 3.94546 8.93194 4.16908 9.49896C4.39269 10.066 4.79199 10.7128 5.36699 11.4396C5.94199 12.1663 6.72463 13.0208 7.71491 14.0031C8.70519 14.9854 9.96699 16.1634 11.5003 17.537Z" fill="#202831"/>
</g>
</svg>
