<svg xmlns="http://www.w3.org/2000/svg" version="1.1" width="18pt" height="18pt" viewBox="0 0 18 18">
<path transform="matrix(1,0,0,-1,2.625,15.375)" d="M1.355775 .000036C.976925 .000036 .65625 .131286 .39375 .393785 .13125 .656285 0 .976961 0 1.355812V11.394224C0 11.773074 .13125 12.09375 .39375 12.35625 .65625 12.61875 .976925 12.75 1.355775 12.75H6.3822V11.625018H1.355775C1.298075 11.625018 1.245181 11.600981 1.197094 11.552906 1.149019 11.504818 1.124981 11.451924 1.124981 11.394224V1.355812C1.124981 1.298112 1.149019 1.245217 1.197094 1.19713 1.245181 1.149055 1.298075 1.125017 1.355775 1.125017H6.3822V.000036H1.355775ZM9.548063 3.173136 8.769243 3.986567 10.595196 5.812536H4.197094V6.937499H10.595196L8.769243 8.763468 9.548063 9.5769 12.749964 6.375018 9.548063 3.173136Z" fill="#1c1b1f"/>
</svg>
