<svg width="18" height="19" viewBox="0 0 18 19" fill="none" xmlns="http://www.w3.org/2000/svg">
<mask id="mask0_353_78325" style="mask-type:alpha" maskUnits="userSpaceOnUse" x="0" y="0" width="18" height="19">
<rect y="0.5" width="18" height="18" fill="#D9D9D9"/>
</mask>
<g mask="url(#mask0_353_78325)">
<path d="M3.98078 15.875C3.60193 15.875 3.28125 15.7437 3.01875 15.4812C2.75625 15.2187 2.625 14.898 2.625 14.5192V4.48078C2.625 4.10193 2.75625 3.78125 3.01875 3.51875C3.28125 3.25625 3.60193 3.125 3.98078 3.125H9.0072V4.24998H3.98078C3.92308 4.24998 3.87018 4.27402 3.82209 4.32209C3.77402 4.37018 3.74998 4.42308 3.74998 4.48078V14.5192C3.74998 14.5769 3.77402 14.6298 3.82209 14.6779C3.87018 14.7259 3.92308 14.75 3.98078 14.75H9.0072V15.875H3.98078ZM12.1731 12.7019L11.3942 11.8884L13.2202 10.0625H6.82209V8.9375H13.2202L11.3942 7.11153L12.1731 6.2981L15.375 9.49998L12.1731 12.7019Z" fill="#1C1B1F"/>
</g>
</svg>
