<svg width="34" height="27" viewBox="0 0 34 27" fill="none" xmlns="http://www.w3.org/2000/svg">
<path d="M30.6797 26.145H26.9797C26.1703 26.145 25.4766 25.44 25.4766 24.6175V22.855H9.05781V24.6175C9.05781 25.44 8.36406 26.145 7.55469 26.145H3.85469C3.04531 26.145 2.35156 25.44 2.35156 24.6175V13.22C2.35156 11.34 3.85469 9.8125 5.70469 9.8125H28.8297C30.6797 9.8125 32.1828 11.34 32.1828 13.22V24.6175C32.1828 25.44 31.4891 26.145 30.6797 26.145ZM8.47969 21.68H26.0547C26.4016 21.68 26.6328 21.915 26.6328 22.2675V24.6175C26.6328 24.8525 26.7484 24.97 26.9797 24.97H30.6797C30.9109 24.97 31.0266 24.8525 31.0266 24.6175V13.22C31.0266 12.045 29.9859 10.9875 28.8297 10.9875H5.70469C4.54844 10.9875 3.50781 12.045 3.50781 13.22V24.6175C3.50781 24.8525 3.62344 24.97 3.85469 24.97H7.55469C7.78594 24.97 7.90156 24.8525 7.90156 24.6175V22.2675C7.90156 21.915 8.13281 21.68 8.47969 21.68Z" fill="#6A6F75" stroke="#6A6F75" stroke-width="0.3"/>
<path d="M21.8643 20.3169H12.8946C12.5582 20.3169 12.334 19.9082 12.334 19.2952C12.334 18.6821 12.5582 18.2734 12.8946 18.2734H21.8643C22.2007 18.2734 22.4249 18.6821 22.4249 19.2952C22.4249 19.9082 22.2007 20.3169 21.8643 20.3169Z" fill="#6A6F75"/>
<ellipse cx="8.18505" cy="15.209" rx="2.69091" ry="2.72464" fill="#6A6F75"/>
<ellipse cx="26.3491" cy="15.209" rx="2.69091" ry="2.72464" fill="#6A6F75"/>
<path d="M3.58437 9.90125H1.96563C0.925 9.90125 0 8.96125 0 7.90375C0 6.84625 0.925 5.90625 1.96563 5.90625H3.58437C4.27812 5.90625 4.85625 6.25875 5.20312 6.84625C5.55 7.43375 5.66563 8.25625 5.31875 8.84375C4.97187 9.43125 4.27812 9.90125 3.58437 9.90125ZM1.96563 7.08125C1.50313 7.08125 1.15625 7.43375 1.15625 7.90375C1.15625 8.37375 1.50313 8.72625 1.96563 8.72625H3.58437C3.93125 8.72625 4.1625 8.60875 4.27812 8.25625C4.39375 8.02125 4.39375 7.66875 4.27812 7.43375C4.1625 7.19875 3.93125 7.08125 3.58437 7.08125H1.96563Z" fill="#6A6F75"/>
<path d="M29.4066 10.9875C29.1754 10.9875 28.9441 10.87 28.8285 10.635L25.8223 3.2325C25.591 2.5275 24.8973 2.175 24.2035 2.175H10.3285C9.63477 2.175 8.94102 2.645 8.70977 3.2325L5.70352 10.635C5.58789 10.9875 5.24102 11.105 4.89414 10.9875C4.54727 10.87 4.43164 10.5175 4.54727 10.165L7.55352 2.7625C8.01602 1.705 9.17227 1 10.3285 1H24.2035C25.3598 1 26.4004 1.705 26.8629 2.7625L29.8691 10.165C29.9848 10.5175 29.8691 10.7525 29.5223 10.9875C29.5223 10.9875 29.5223 10.9875 29.4066 10.9875Z" fill="#6A6F75" stroke="#6A6F75" stroke-width="0.3"/>
<path d="M31.9676 9.90125H30.3488C29.6551 9.90125 28.9613 9.54875 28.6144 8.84375C28.2676 8.13875 28.2676 7.43375 28.7301 6.84625C29.0769 6.25875 29.6551 5.90625 30.3488 5.90625H31.9676C33.0082 5.90625 33.9332 6.84625 33.9332 7.90375C33.9332 8.96125 33.0082 9.90125 31.9676 9.90125ZM29.7707 7.43375C29.6551 7.66875 29.5394 8.02125 29.7707 8.25625C30.0019 8.49125 30.2332 8.72625 30.4644 8.72625H32.0832C32.5457 8.72625 32.8926 8.37375 32.8926 7.90375C32.8926 7.43375 32.5457 7.08125 32.0832 7.08125H30.4644C30.1176 7.08125 29.8863 7.19875 29.7707 7.43375Z" fill="#6A6F75"/>
</svg>
