<svg width="12" height="12" viewBox="0 0 12 12" fill="none" xmlns="http://www.w3.org/2000/svg">
<mask id="mask0_353_72116" style="mask-type:alpha" maskUnits="userSpaceOnUse" x="0" y="0" width="12" height="12">
<rect width="12" height="12" fill="#D9D9D9"/>
</mask>
<g mask="url(#mask0_353_72116)">
<path d="M6 3.175L4.5875 1.775L5.2875 1.0625L6 1.775L7.775 0L8.475 0.7L6 3.175ZM2 12C1.85833 12 1.73958 11.9521 1.64375 11.8562C1.54792 11.7604 1.5 11.6417 1.5 11.5V7.5L2.55 4.5C2.6 4.35 2.68958 4.22917 2.81875 4.1375C2.94792 4.04583 3.09167 4 3.25 4H8.75C8.90833 4 9.05208 4.04583 9.18125 4.1375C9.31042 4.22917 9.4 4.35 9.45 4.5L10.5 7.5V11.5C10.5 11.6417 10.4521 11.7604 10.3562 11.8562C10.2604 11.9521 10.1417 12 10 12H9.5C9.35833 12 9.23958 11.9521 9.14375 11.8562C9.04792 11.7604 9 11.6417 9 11.5V11H3V11.5C3 11.6417 2.95208 11.7604 2.85625 11.8562C2.76042 11.9521 2.64167 12 2.5 12H2ZM2.9 6.5H9.1L8.575 5H3.425L2.9 6.5ZM3.75 9.5C3.95833 9.5 4.13542 9.42708 4.28125 9.28125C4.42708 9.13542 4.5 8.95833 4.5 8.75C4.5 8.54167 4.42708 8.36458 4.28125 8.21875C4.13542 8.07292 3.95833 8 3.75 8C3.54167 8 3.36458 8.07292 3.21875 8.21875C3.07292 8.36458 3 8.54167 3 8.75C3 8.95833 3.07292 9.13542 3.21875 9.28125C3.36458 9.42708 3.54167 9.5 3.75 9.5ZM8.25 9.5C8.45833 9.5 8.63542 9.42708 8.78125 9.28125C8.92708 9.13542 9 8.95833 9 8.75C9 8.54167 8.92708 8.36458 8.78125 8.21875C8.63542 8.07292 8.45833 8 8.25 8C8.04167 8 7.86458 8.07292 7.71875 8.21875C7.57292 8.36458 7.5 8.54167 7.5 8.75C7.5 8.95833 7.57292 9.13542 7.71875 9.28125C7.86458 9.42708 8.04167 9.5 8.25 9.5ZM2.5 10H9.5V7.5H2.5V10Z" fill="white"/>
</g>
</svg>
