<svg width="18" height="23" viewBox="0 0 18 23" fill="none" xmlns="http://www.w3.org/2000/svg">
<path d="M8.49806 22.4038C7.93828 22.4038 7.45971 22.2047 7.06236 21.8064C6.66501 21.4082 6.46634 20.9294 6.46634 20.3702H10.5336C10.5336 20.9312 10.3343 21.4104 9.93567 21.8078C9.53704 22.2051 9.05784 22.4038 8.49806 22.4038ZM0.0625 19.2452V17.5577H2.09616V9.16343C2.09616 7.65046 2.5631 6.31272 3.49698 5.15022C4.43088 3.98772 5.62981 3.24422 7.09375 2.91971V2.21875C7.09375 1.82813 7.23034 1.49611 7.50353 1.22268C7.77672 0.949226 8.10844 0.8125 8.49871 0.8125C8.88897 0.8125 9.22111 0.949226 9.49515 1.22268C9.76918 1.49611 9.90619 1.82813 9.90619 2.21875V2.44372C9.72158 2.77689 9.57519 3.11583 9.46702 3.46055C9.35885 3.80525 9.29251 4.16294 9.26798 4.53361C9.13998 4.51053 9.01517 4.49033 8.89358 4.47303C8.77197 4.45572 8.64077 4.44707 8.49997 4.44707C7.19756 4.44707 6.0859 4.90753 5.16499 5.82845C4.24407 6.74936 3.78361 7.86102 3.78361 9.16343V17.5577H13.2163V10.5243C13.4745 10.6166 13.7471 10.6887 14.0341 10.7406C14.3211 10.7925 14.611 10.8149 14.9038 10.8077V17.5577H16.9374V19.2452H0.0625ZM14.6671 8.35217C13.808 8.35217 13.0775 8.05151 12.4753 7.4502C11.8731 6.84889 11.5721 6.11871 11.5721 5.25968C11.5721 4.40067 11.8727 3.67008 12.474 3.06793C13.0753 2.46577 13.8055 2.16469 14.6645 2.16469C15.5235 2.16469 16.2541 2.46535 16.8563 3.06666C17.4584 3.66798 17.7595 4.39814 17.7595 5.25715C17.7595 6.11616 17.4589 6.84675 16.8576 7.4489C16.2563 8.05108 15.5261 8.35217 14.6671 8.35217Z" fill="#1C5792"/>
</svg>
