<svg width="35" height="32" viewBox="0 0 35 32" fill="none" xmlns="http://www.w3.org/2000/svg">
<path d="M28.2331 5.05236C28.5324 5.05213 28.8223 5.15852 29.0477 5.35271C29.2734 5.54706 29.419 5.81613 29.4554 6.10956L29.4554 6.10977L31.3 21.1279L31.3215 21.3023L31.1513 21.346L30.1447 21.6044L29.9242 21.661L29.8965 21.435L28.0562 6.45249H25.9435V8.25288V8.2538C25.9427 8.44106 25.8655 8.61918 25.7308 8.74953C25.5964 8.8797 25.4155 8.95183 25.228 8.95183C25.0406 8.95183 24.8597 8.8797 24.7253 8.74953C24.5906 8.61918 24.5134 8.44106 24.5126 8.2538L24.5126 8.25288L24.5126 6.45249H19.2421V8.25288V8.2538C19.2412 8.44106 19.164 8.61918 19.0294 8.74953C18.8949 8.8797 18.714 8.95183 18.5266 8.95183C18.3391 8.95183 18.1583 8.8797 18.0238 8.74953C17.8891 8.61918 17.8119 8.44106 17.8111 8.2538L17.8111 8.25288L17.8111 6.45249H15.6982L14.2874 17.9386L14.2612 18.1511L14.051 18.1106C13.722 18.0472 13.389 18.0051 13.0543 17.9848L12.842 17.9719L12.8679 17.7608L14.299 6.10977L14.299 6.10956C14.3354 5.81613 14.481 5.54706 14.7066 5.35271C14.9321 5.15852 15.2219 5.05213 15.5213 5.05236C15.5213 5.05236 15.5214 5.05236 15.5214 5.05236M28.2331 5.05236L15.5213 5.25236L15.5214 5.05236M28.2331 5.05236L28.2329 5.05236L25.9435 5.05236L25.9436 4.81492L25.9435 4.81446C25.9412 3.81396 25.5308 2.85639 24.8041 2.15149C24.0776 1.44678 23.0945 1.05196 22.0706 1.05195H21.684C20.6601 1.05196 19.677 1.44678 18.9505 2.15149C18.2239 2.85639 17.8134 3.81396 17.8111 4.81446V4.81492V5.05236M28.2331 5.05236H17.8111M15.5214 5.05236L17.8111 5.05236M15.5214 5.05236L17.8111 5.05236M19.2421 4.81537C19.2421 4.81531 19.2421 4.81524 19.2421 4.81517C19.2435 4.1898 19.5 3.58936 19.9572 3.14588C20.4146 2.70218 21.0355 2.45205 21.684 2.45208H22.0706C22.7191 2.45205 23.34 2.70218 23.7974 3.14588C24.2546 3.5894 24.5111 4.18993 24.5126 4.81537V5.05235H19.2421L19.2421 4.81537Z" fill="#6A6F75" stroke="#6A6F75" stroke-width="0.4"/>
<path d="M31.7646 21.8119L31.7656 21.8117C32.1918 21.7046 32.6427 21.7415 33.0448 21.9165C33.447 22.0915 33.7773 22.3948 33.9805 22.7777C34.1004 23.0033 34.1727 23.2503 34.1928 23.5039C34.213 23.7577 34.1806 24.0127 34.0976 24.2538C34.0146 24.4949 33.8828 24.717 33.7103 24.9071C33.5379 25.0971 33.3283 25.2512 33.0941 25.3606L22.174 30.4763C22.1739 30.4763 22.1739 30.4763 22.1738 30.4763C21.3995 30.8407 20.5508 31.0304 19.691 31.0315C18.498 31.0331 17.3356 30.6604 16.3768 29.968C14.2885 28.4932 11.8633 27.5333 9.30977 27.1702C9.25899 27.2382 9.196 27.2968 9.12372 27.343C9.00707 27.4176 8.87103 27.4571 8.7324 27.457C8.73238 27.457 8.73236 27.457 8.73234 27.457H6.74047L1.65469 28.4437L1.65459 28.4438C1.60865 28.4527 1.56196 28.4571 1.51517 28.4572C1.51512 28.4572 1.51508 28.4572 1.51504 28.4572L1.51491 28.2572C1.38717 28.2573 1.26394 28.2113 1.16921 28.128C1.07449 28.0446 1.01506 27.93 1.00249 27.8064C0.98993 27.6828 1.02513 27.5591 1.10124 27.4593C1.17735 27.3596 1.28892 27.291 1.41423 27.2668L31.7646 21.8119ZM31.7646 21.8119L25.7857 23.3467C25.5012 22.4426 24.533 21.5757 22.6585 21.5566C22.4343 21.5542 22.2132 21.5543 21.9968 21.5544C21.9637 21.5544 21.9307 21.5544 21.8978 21.5544H21.8977M31.7646 21.8119L21.8977 21.5544M21.8977 21.5544H21.8975C20.9136 21.5546 20.0281 21.5549 19.3371 21.3731C18.3833 21.1043 17.5023 20.635 16.7565 19.9987L16.7566 19.9987M21.8977 21.5544L16.7566 19.9987M16.7566 19.9987L16.7538 19.9964M16.7566 19.9987L16.7538 19.9964M16.7538 19.9964C15.6321 19.0741 14.3006 18.6725 13.0708 18.593C11.844 18.5137 10.7023 18.7539 9.95004 19.1342L9.95001 19.1341M16.7538 19.9964L9.95001 19.1341M9.95001 19.1341L9.94566 19.1365M9.95001 19.1341L9.94566 19.1365M9.94566 19.1365C9.75013 19.2414 9.53925 19.3165 9.32047 19.3593L9.94566 19.1365ZM32.7413 23.8072L32.7415 23.8066C32.7704 23.7225 32.7754 23.6326 32.7561 23.5462C32.7369 23.4597 32.6938 23.3792 32.6309 23.3134C32.5679 23.2475 32.4873 23.1988 32.3973 23.1731C32.3074 23.1474 32.212 23.1456 32.1212 23.168C32.1209 23.168 32.1207 23.1681 32.1204 23.1682L25.6668 24.8248C25.4934 25.1536 25.2506 25.4429 24.9543 25.6738C24.634 25.9235 24.2595 26.0983 23.8598 26.1852C22.5248 26.5271 20.3598 26.7652 17.5901 25.9833M32.7413 23.8072L17.9323 24.8307L17.9872 24.6384C17.9871 24.6384 17.987 24.6383 17.9869 24.6383C17.8975 24.6128 17.8039 24.6047 17.7113 24.6145C17.6187 24.6242 17.5288 24.6516 17.4466 24.6953C17.3645 24.739 17.2916 24.7983 17.2324 24.8699C17.1732 24.9415 17.1289 25.0241 17.1022 25.1131C17.0755 25.202 17.0671 25.2953 17.0775 25.3876C17.088 25.4798 17.117 25.5689 17.1627 25.6498C17.2084 25.7306 17.2698 25.8015 17.3432 25.8587C17.4166 25.9158 17.5005 25.958 17.5901 25.9833M32.7413 23.8072C32.7201 23.8697 32.6859 23.9277 32.6406 23.9776C32.5953 24.0275 32.5397 24.0684 32.4771 24.0974L32.4763 24.0978M32.7413 23.8072L32.4763 24.0978M17.5901 25.9833L17.6444 25.7908L17.5902 25.9833C17.5901 25.9833 17.5901 25.9833 17.5901 25.9833ZM32.4763 24.0978L21.5554 29.2137L21.554 29.2143M32.4763 24.0978L21.554 29.2143M21.554 29.2143C20.8665 29.5429 20.0992 29.682 19.3355 29.616C18.5719 29.5501 17.842 29.2817 17.2253 28.8407L17.2244 28.84M21.554 29.2143L17.2244 28.84M17.2244 28.84C14.927 27.2165 12.257 26.1649 9.4479 25.7755V20.7588C9.85427 20.6982 10.2473 20.5692 10.6093 20.3771C11.1419 20.1082 12.0191 19.9246 12.9851 19.9903C13.9484 20.0558 14.9806 20.3678 15.832 21.0674C16.7375 21.8364 17.8056 22.4017 18.9605 22.7237L18.9605 22.7238M17.2244 28.84L18.9605 22.7238M18.9605 22.7238L18.9632 22.7245M18.9605 22.7238L18.9632 22.7245M18.9632 22.7245C19.8418 22.956 20.8467 22.9553 21.8748 22.9545M18.9632 22.7245L21.8748 22.9545M21.8748 22.9545L21.8988 22.9545M21.8748 22.9545L21.8988 22.9545M21.8988 22.9545H21.8989H21.8988ZM5.9549 26.1821L1.37637 27.0704L1.6549 18.0693L1.6166 18.2656L1.65469 18.0693L1.65479 18.0693C1.56352 18.0515 1.46959 18.0514 1.37826 18.0689C1.28689 18.0864 1.1997 18.1213 1.12169 18.1718C1.04368 18.2223 0.97628 18.2875 0.92359 18.3639C0.870889 18.4403 0.833986 18.5263 0.815241 18.6171C0.796496 18.708 0.796334 18.8015 0.814766 18.8924C0.833197 18.9833 0.869804 19.0695 0.922245 19.1461C0.974676 19.2226 1.04185 19.288 1.1197 19.3388C1.19754 19.3895 1.28461 19.4247 1.37592 19.4425L1.37612 19.4426L5.9549 20.3309V26.1821ZM6.74047 19.056H6.72125V19.256L6.75934 19.0597L6.74047 19.056ZM32.7887 24.112C32.7252 24.182 32.6478 24.2387 32.5611 24.2789L32.9306 23.8716C32.9005 23.9602 32.8522 24.042 32.7887 24.112ZM7.3859 20.4561H8.01689V26.0569H7.3859V20.4561Z" fill="#6A6F75" stroke="#6A6F75" stroke-width="0.4"/>
<path d="M24.0479 10.3641L24.0479 10.3642L25.903 12.1743C26.4797 12.7369 26.4797 13.6531 25.9033 14.2156L25.9033 14.2157L24.6126 15.4749C24.6126 15.4749 24.6126 15.4749 24.6126 15.4749C24.3336 15.7472 23.9625 15.897 23.5684 15.897C23.1743 15.897 22.8033 15.7472 22.5243 15.4749C22.5243 15.4749 22.5243 15.4749 22.5243 15.4749L22.5037 15.4549L18.9204 18.951C18.9204 18.951 18.9204 18.951 18.9204 18.9511C18.7921 19.0763 18.5813 19.1565 18.3973 19.1565C18.3788 19.1565 18.3603 19.1558 18.3419 19.1541L17.6436 19.0888C17.4051 19.0664 17.1885 18.8789 17.1383 18.648L17.1949 18.6357L17.1383 18.648L16.9545 17.8031L16.9545 17.803L17.0111 17.7907C16.9714 17.6081 17.0408 17.3795 17.1762 17.2474L24.0479 10.3641ZM24.0479 10.3641C23.7687 10.0918 23.3976 9.94202 23.0035 9.94202C22.6094 9.94202 22.2384 10.0918 21.9594 10.3642C21.9594 10.3642 21.9594 10.3642 21.9594 10.3642L20.6688 11.6233C20.3897 11.8957 20.2356 12.2583 20.2356 12.6441C20.2356 13.03 20.3897 13.3926 20.6689 13.6649C20.6689 13.6649 20.6689 13.6649 20.6689 13.6649L20.6873 13.6828M24.0479 10.3641L20.6873 13.6828M17.1357 17.2059L17.4466 16.9026L17.1357 17.2059ZM17.1357 17.2059C17.1357 17.2059 17.1357 17.2059 17.1357 17.2059L17.1357 17.2059ZM20.6873 13.6828L18.9413 15.3863C18.8204 15.5044 18.7465 15.6903 18.7444 15.8634M20.6873 13.6828L18.7444 15.8634M18.7444 15.8634C18.5759 15.8555 18.3996 15.9149 18.2799 16.0318C18.2799 16.0318 18.2799 16.0318 18.2799 16.0318L18.167 16.1419C18.0262 16.2793 17.9486 16.5096 17.9752 16.7048C17.7876 16.6987 17.5759 16.7762 17.4467 16.9026L18.7444 15.8634ZM23.6996 13.3586L23.6996 13.3586C23.8121 13.4684 23.9616 13.5289 24.1212 13.529L23.6996 13.3586ZM23.6996 13.3586L22.834 12.514C22.7216 12.4043 22.6599 12.2591 22.6598 12.1047C22.6598 11.9501 22.7213 11.8048 22.8338 11.6952L22.8338 11.6951M23.6996 13.3586L22.8338 11.6951M22.8338 11.6951C22.946 11.5856 23.0954 11.525 23.2552 11.525C23.4149 11.525 23.5645 11.5856 23.677 11.6954L23.677 11.6955M22.8338 11.6951L23.677 11.6955M23.677 11.6955L24.5427 12.5401M23.677 11.6955L24.5427 12.5401M18.3993 18.5606L18.3999 18.5607C18.3997 18.5607 18.401 18.5608 18.4042 18.5605C18.4072 18.5603 18.4111 18.5598 18.4157 18.5588C18.4252 18.557 18.4362 18.5539 18.4475 18.55C18.4587 18.546 18.4693 18.5414 18.4777 18.537C18.482 18.5348 18.4853 18.5328 18.4878 18.5311C18.49 18.5296 18.491 18.5288 18.4911 18.5286L22.0725 15.0345L21.8431 14.8105L20.8543 15.7752C20.7949 15.8332 20.7171 15.862 20.6398 15.862C20.5625 15.862 20.4848 15.8332 20.4253 15.7752C20.4253 15.7752 20.4253 15.7752 20.4253 15.7752L20.4658 15.7337L18.3993 18.5606ZM18.3993 18.5606L17.7271 18.4981M18.3993 18.5606L17.7271 18.4981M20.4253 15.3527L21.412 14.3899L21.1182 14.1032L19.3714 15.8076C19.3711 15.808 19.3696 15.8101 19.3672 15.8148C19.3642 15.8209 19.361 15.8288 19.3583 15.8373C19.3556 15.8459 19.3537 15.8541 19.3527 15.8607C19.3519 15.8656 19.3519 15.8681 19.3519 15.8686L19.3878 16.0556C19.3878 16.0556 19.3878 16.0556 19.3878 16.0556C19.4175 16.21 19.3697 16.3607 19.2533 16.454L19.2533 16.454C19.1374 16.5468 18.978 16.5629 18.8299 16.505L18.8299 16.505L18.7127 16.4591C18.7111 16.4593 18.7092 16.4596 18.7073 16.46C18.7049 16.4605 18.7027 16.4611 18.701 16.4616L18.5969 16.5633C18.5967 16.5637 18.5952 16.5658 18.5928 16.5705C18.5898 16.5766 18.5866 16.5844 18.5839 16.5929C18.5812 16.6015 18.5793 16.6097 18.5783 16.6163C18.5776 16.6212 18.5776 16.6237 18.5776 16.6242L18.6135 16.8112L18.6135 16.8113L18.5565 16.8222L20.4253 15.3527ZM20.4253 15.3527C20.4253 15.3527 20.4253 15.3527 20.4253 15.3527L20.4253 15.3527ZM17.7271 18.4981L17.5496 17.6813C17.5496 17.6805 17.5496 17.6785 17.5501 17.6748C17.551 17.6689 17.5526 17.6614 17.555 17.6535C17.5574 17.6456 17.5602 17.6384 17.5629 17.6328C17.5646 17.6293 17.5658 17.6275 17.5662 17.6269L17.7271 18.4981ZM24.5427 12.5401C24.7741 12.766 24.7741 13.1329 24.5427 13.3587C24.4302 13.4684 24.2808 13.529 24.1212 13.529L24.5427 12.5401Z" fill="#6A6F75" stroke="#6A6F75" stroke-width="0.11597"/>
</svg>
