<svg id="Layer_1" data-name="Layer 1" xmlns="http://www.w3.org/2000/svg" viewBox="0 0 35 32"><defs><style>.cls-1{fill:#6a6f75;}</style></defs><path class="cls-1" d="M34.84,23.28a2,2,0,0,0-2.1-1.21L29.88,5a.84.84,0,0,0-.82-.73H26.4V4a3.82,3.82,0,0,0-1.08-2.66A4.78,4.78,0,0,0,22.48,0a4.22,4.22,0,0,0-4.29,2.17,3.34,3.34,0,0,0-.47,1.72v.31h-2.6A.84.84,0,0,0,14.3,5L11.8,18.61a3.83,3.83,0,0,0-1.74.43,6.92,6.92,0,0,1-1.19.41.83.83,0,0,0-.58-.24H6.35L1,18.08a.86.86,0,0,0-.62.12.87.87,0,0,0-.35.53.78.78,0,0,0,.12.63.77.77,0,0,0,.52.36l4.74,1v6l-4.75,1A.84.84,0,0,0,1,29.43l5.31-1.15,2-.11a.79.79,0,0,0,.56-.27A20.78,20.78,0,0,1,16.57,31a5.89,5.89,0,0,0,3.25,1,6.41,6.41,0,0,0,1.61-.21,7,7,0,0,0,2.1-.9l.16-.07c3.47-1.62,9.37-4.37,9.84-4.63A2.29,2.29,0,0,0,34.84,23.28ZM18.54,8.5a.83.83,0,0,0,.83-.84V5.92h5.38V7.66a.83.83,0,1,0,1.65,0V5.92h2L31.13,22.4l-5,1.21a1.87,1.87,0,0,0-.52-.9,4.87,4.87,0,0,0-3.35-1,8.12,8.12,0,0,0-1,.06,7.38,7.38,0,0,1-5-1.91,5,5,0,0,0-2.84-1.16L15.82,5.92h1.9V7.66A.83.83,0,0,0,18.54,8.5Zm2.94,14.9a4.4,4.4,0,0,1,3,.51c.08.08.08.11.07.14a1.21,1.21,0,0,1-.47,1c-.52.4-2,.93-6.23.1a.86.86,0,0,0-.62.13.85.85,0,0,0-.34.54.83.83,0,0,0,.65,1c3.77.74,6.19.61,7.53-.4a2.94,2.94,0,0,0,.8-1l6.66-1.63c.27-.05.69,0,.76.13s.16.41-.57.82c-.4.22-6.3,3-9.94,4.66l-.12.07a5.37,5.37,0,0,1-1.68.72,4.32,4.32,0,0,1-3.55-.55,22.44,22.44,0,0,0-8.33-3.38V21.11A8,8,0,0,0,11,20.45a4.63,4.63,0,0,1,2-.15A3.77,3.77,0,0,1,15.1,21,8.91,8.91,0,0,0,21.48,23.4Zm.8-21.7a3.12,3.12,0,0,1,1.88.82A2.07,2.07,0,0,1,24.75,4v.26H19.37V3.93a1.63,1.63,0,0,1,.23-.84A2.57,2.57,0,0,1,22.28,1.7ZM7.47,20.88v5.66l-.42,0V20.88Z"/><path class="cls-1" d="M17.09,17.34a.35.35,0,0,0-.1.29c0,.12.18,1.17.25,1.38a.3.3,0,0,0,.28.21l1.14.06a.35.35,0,0,0,.22-.08l3.88-3.79.15.16a1.42,1.42,0,0,0,1,.42h0a1.42,1.42,0,0,0,1-.42l1.44-1.47a1.48,1.48,0,0,0,0-2L24.3,9.94a1.42,1.42,0,0,0-2,0l-1.44,1.47a1.48,1.48,0,0,0,0,2.05l0,0L19,15.37a.31.31,0,0,0-.09.21l0,.3h-.2a.31.31,0,0,0-.22.09l-.3.3a.55.55,0,0,0-.08.15l-.09.36h-.14a.3.3,0,0,0-.2.08Zm6.08-5.87a.56.56,0,0,1,.79,0l.89.9a.6.6,0,0,1,0,.81.59.59,0,0,1-.8,0l-.88-.9A.58.58,0,0,1,23.17,11.47Zm-2.6,3.84a.33.33,0,0,0-.1.23.32.32,0,0,0,.1.22.3.3,0,0,0,.44,0l1-1.06.25.26-3.77,3.68-.75,0c-.05-.27-.12-.7-.15-.9l.31-.28h.27a.31.31,0,0,0,.3-.24l.13-.52.14-.14h.36a.33.33,0,0,0,.32-.3l0-.48,1.81-1.8.3.31Z"/></svg>