<svg width="35" height="32" viewBox="0 0 35 32" fill="none" xmlns="http://www.w3.org/2000/svg">
<path d="M28.2331 5.0504C28.5324 5.05017 28.8223 5.15657 29.0477 5.35075C29.2734 5.5451 29.419 5.81418 29.4554 6.10761L29.4554 6.10782L31.3 21.1259L31.3215 21.3003L31.1513 21.344L30.1447 21.6024L29.9242 21.659L29.8965 21.4331L28.0562 6.45054H25.9435V8.25092V8.25184C25.9427 8.4391 25.8655 8.61723 25.7308 8.74758C25.5964 8.87775 25.4155 8.94988 25.228 8.94988C25.0406 8.94988 24.8597 8.87775 24.7253 8.74758C24.5906 8.61723 24.5134 8.4391 24.5126 8.25184L24.5126 8.25092L24.5126 6.45054H19.2421V8.25092V8.25184C19.2412 8.4391 19.164 8.61723 19.0294 8.74758C18.8949 8.87775 18.714 8.94988 18.5266 8.94988C18.3391 8.94988 18.1583 8.87775 18.0238 8.74758C17.8891 8.61723 17.8119 8.4391 17.8111 8.25184L17.8111 8.25092L17.8111 6.45054H15.6982L14.2874 17.9366L14.2612 18.1492L14.051 18.1086C13.722 18.0452 13.389 18.0032 13.0543 17.9828L12.842 17.9699L12.8679 17.7588L14.299 6.10782L14.299 6.10761C14.3354 5.81418 14.481 5.5451 14.7066 5.35075C14.9321 5.15657 15.2219 5.05017 15.5213 5.0504C15.5213 5.0504 15.5214 5.0504 15.5214 5.0504M28.2331 5.0504L15.5213 5.2504L15.5214 5.0504M28.2331 5.0504L28.2329 5.0504L25.9435 5.0504L25.9436 4.81297L25.9435 4.8125C25.9412 3.81201 25.5308 2.85444 24.8041 2.14954C24.0776 1.44483 23.0945 1.05001 22.0706 1.05H21.684C20.6601 1.05001 19.677 1.44483 18.9505 2.14954C18.2239 2.85444 17.8134 3.81201 17.8111 4.8125V4.81297V5.0504M28.2331 5.0504H17.8111M15.5214 5.0504L17.8111 5.0504M15.5214 5.0504L17.8111 5.0504M19.2421 4.81342C19.2421 4.81335 19.2421 4.81328 19.2421 4.81321C19.2435 4.18785 19.5 3.5874 19.9572 3.14393C20.4146 2.70022 21.0355 2.45009 21.684 2.45012H22.0706C22.7191 2.45009 23.34 2.70022 23.7974 3.14393C24.2546 3.58745 24.5111 4.18798 24.5126 4.81342V5.0504H19.2421L19.2421 4.81342Z" fill="#6A6F75" stroke="#6A6F75" stroke-width="0.4"/>
<path d="M31.7646 21.81L31.7656 21.8097C32.1918 21.7026 32.6427 21.7395 33.0448 21.9145C33.447 22.0895 33.7773 22.3928 33.9805 22.7758C34.1004 23.0014 34.1727 23.2483 34.1928 23.502C34.213 23.7557 34.1806 24.0107 34.0976 24.2518C34.0146 24.493 33.8828 24.715 33.7103 24.9051C33.5379 25.0951 33.3283 25.2493 33.0941 25.3586L22.174 30.4743C22.1739 30.4743 22.1739 30.4743 22.1738 30.4744C21.3995 30.8387 20.5508 31.0284 19.691 31.0295C18.498 31.0311 17.3356 30.6584 16.3768 29.966C14.2885 28.4912 11.8633 27.5313 9.30977 27.1683C9.25899 27.2362 9.196 27.2948 9.12372 27.341C9.00707 27.4157 8.87103 27.4551 8.7324 27.4551C8.73238 27.4551 8.73236 27.4551 8.73234 27.4551H6.74047L1.65469 28.4418L1.65459 28.4418C1.60865 28.4507 1.56196 28.4552 1.51517 28.4552C1.51512 28.4552 1.51508 28.4552 1.51504 28.4552L1.51491 28.2552C1.38717 28.2554 1.26394 28.2093 1.16921 28.126C1.07449 28.0427 1.01506 27.9281 1.00249 27.8045C0.98993 27.6809 1.02513 27.5571 1.10124 27.4574C1.17735 27.3577 1.28892 27.289 1.41423 27.2649L31.7646 21.81ZM31.7646 21.81L25.7857 23.3448C25.5012 22.4406 24.533 21.5737 22.6585 21.5546C22.4343 21.5523 22.2132 21.5523 21.9968 21.5524C21.9637 21.5524 21.9307 21.5524 21.8978 21.5524H21.8977M31.7646 21.81L21.8977 21.5524M21.8977 21.5524H21.8975C20.9136 21.5527 20.0281 21.5529 19.3371 21.3712C18.3833 21.1024 17.5023 20.633 16.7565 19.9968L16.7566 19.9968M21.8977 21.5524L16.7566 19.9968M16.7566 19.9968L16.7538 19.9945M16.7566 19.9968L16.7538 19.9945M16.7538 19.9945C15.6321 19.0721 14.3006 18.6706 13.0708 18.5911C11.844 18.5118 10.7023 18.7519 9.95004 19.1322L9.95001 19.1322M16.7538 19.9945L9.95001 19.1322M9.95001 19.1322L9.94566 19.1345M9.95001 19.1322L9.94566 19.1345M9.94566 19.1345C9.75013 19.2395 9.53925 19.3146 9.32047 19.3573L9.94566 19.1345ZM32.7413 23.8053L32.7415 23.8047C32.7704 23.7206 32.7754 23.6307 32.7561 23.5442C32.7369 23.4577 32.6938 23.3772 32.6309 23.3114C32.5679 23.2456 32.4873 23.1969 32.3973 23.1711C32.3074 23.1454 32.212 23.1437 32.1212 23.166C32.1209 23.1661 32.1207 23.1661 32.1204 23.1662L25.6668 24.8229C25.4934 25.1516 25.2506 25.441 24.9543 25.6719C24.634 25.9215 24.2595 26.0963 23.8598 26.1832C22.5248 26.5251 20.3598 26.7632 17.5901 25.9813M32.7413 23.8053L17.9323 24.8288L17.9872 24.6364C17.9871 24.6364 17.987 24.6364 17.9869 24.6364C17.8975 24.6109 17.8039 24.6028 17.7113 24.6125C17.6187 24.6222 17.5288 24.6497 17.4466 24.6934C17.3645 24.7371 17.2916 24.7963 17.2324 24.868C17.1732 24.9396 17.1289 25.0222 17.1022 25.1111C17.0755 25.2001 17.0671 25.2934 17.0775 25.3856C17.088 25.4778 17.117 25.5669 17.1627 25.6478C17.2084 25.7287 17.2698 25.7996 17.3432 25.8567C17.4166 25.9138 17.5005 25.9561 17.5901 25.9813M32.7413 23.8053C32.7201 23.8677 32.6859 23.9257 32.6406 23.9756C32.5953 24.0256 32.5397 24.0664 32.4771 24.0954L32.4763 24.0958M32.7413 23.8053L32.4763 24.0958M17.5901 25.9813L17.6444 25.7888L17.5902 25.9814C17.5901 25.9813 17.5901 25.9813 17.5901 25.9813ZM32.4763 24.0958L21.5554 29.2117L21.554 29.2124M32.4763 24.0958L21.554 29.2124M21.554 29.2124C20.8665 29.541 20.0992 29.68 19.3355 29.6141C18.5719 29.5481 17.842 29.2797 17.2253 28.8387L17.2244 28.8381M21.554 29.2124L17.2244 28.8381M17.2244 28.8381C14.927 27.2145 12.257 26.1629 9.4479 25.7735V20.7569C9.85427 20.6963 10.2473 20.5673 10.6093 20.3751C11.1419 20.1062 12.0191 19.9227 12.9851 19.9884C13.9484 20.0538 14.9806 20.3659 15.832 21.0655C16.7375 21.8344 17.8056 22.3998 18.9605 22.7218L18.9605 22.7218M17.2244 28.8381L18.9605 22.7218M18.9605 22.7218L18.9632 22.7225M18.9605 22.7218L18.9632 22.7225M18.9632 22.7225C19.8418 22.954 20.8467 22.9533 21.8748 22.9526M18.9632 22.7225L21.8748 22.9526M21.8748 22.9526L21.8988 22.9526M21.8748 22.9526L21.8988 22.9526M21.8988 22.9526H21.8989H21.8988ZM5.9549 26.1802L1.37637 27.0685L1.6549 18.0674L1.6166 18.2637L1.65469 18.0673L1.65479 18.0674C1.56352 18.0496 1.46959 18.0494 1.37826 18.0669C1.28689 18.0844 1.1997 18.1193 1.12169 18.1698C1.04368 18.2203 0.97628 18.2855 0.92359 18.3619C0.870889 18.4383 0.833986 18.5243 0.815241 18.6152C0.796496 18.706 0.796334 18.7996 0.814766 18.8905C0.833197 18.9813 0.869804 19.0675 0.922245 19.1441C0.974676 19.2207 1.04185 19.2861 1.1197 19.3368C1.19754 19.3876 1.28461 19.4228 1.37592 19.4406L1.37612 19.4406L5.9549 20.329V26.1802ZM6.74047 19.0541H6.72125V19.2541L6.75934 19.0577L6.74047 19.0541ZM32.7887 24.11C32.7252 24.18 32.6478 24.2368 32.5611 24.2769L32.9306 23.8696C32.9005 23.9583 32.8522 24.04 32.7887 24.11ZM7.3859 20.4542H8.01689V26.055H7.3859V20.4542Z" fill="#6A6F75" stroke="#6A6F75" stroke-width="0.4"/>
<path d="M24.0479 10.3641L24.0479 10.3642L25.903 12.1743C26.4797 12.7369 26.4797 13.6531 25.9033 14.2156L25.9033 14.2157L24.6126 15.4749C24.6126 15.4749 24.6126 15.4749 24.6126 15.4749C24.3336 15.7472 23.9625 15.897 23.5684 15.897C23.1743 15.897 22.8033 15.7472 22.5243 15.4749C22.5243 15.4749 22.5243 15.4749 22.5243 15.4749L22.5037 15.4549L18.9204 18.951C18.9204 18.951 18.9204 18.951 18.9204 18.9511C18.7921 19.0763 18.5813 19.1565 18.3973 19.1565C18.3788 19.1565 18.3603 19.1558 18.3419 19.1541L17.6436 19.0888C17.4051 19.0664 17.1885 18.8789 17.1383 18.648L17.1949 18.6357L17.1383 18.648L16.9545 17.8031L16.9545 17.803L17.0111 17.7907C16.9714 17.6081 17.0408 17.3795 17.1762 17.2474L24.0479 10.3641ZM24.0479 10.3641C23.7687 10.0918 23.3976 9.94202 23.0035 9.94202C22.6094 9.94202 22.2384 10.0918 21.9594 10.3642C21.9594 10.3642 21.9594 10.3642 21.9594 10.3642L20.6688 11.6233C20.3897 11.8957 20.2356 12.2583 20.2356 12.6441C20.2356 13.03 20.3897 13.3926 20.6689 13.6649C20.6689 13.6649 20.6689 13.6649 20.6689 13.6649L20.6873 13.6828M24.0479 10.3641L20.6873 13.6828M17.1357 17.2059L17.4466 16.9026L17.1357 17.2059ZM17.1357 17.2059C17.1357 17.2059 17.1357 17.2059 17.1357 17.2059L17.1357 17.2059ZM20.6873 13.6828L18.9413 15.3863C18.8204 15.5044 18.7465 15.6903 18.7444 15.8634M20.6873 13.6828L18.7444 15.8634M18.7444 15.8634C18.5759 15.8555 18.3996 15.9149 18.2799 16.0318C18.2799 16.0318 18.2799 16.0318 18.2799 16.0318L18.167 16.1419C18.0262 16.2793 17.9486 16.5096 17.9752 16.7048C17.7876 16.6987 17.5759 16.7762 17.4467 16.9026L18.7444 15.8634ZM23.6996 13.3586L23.6996 13.3586C23.8121 13.4684 23.9616 13.5289 24.1212 13.529L23.6996 13.3586ZM23.6996 13.3586L22.834 12.514C22.7216 12.4043 22.6599 12.2591 22.6598 12.1047C22.6598 11.9501 22.7213 11.8048 22.8338 11.6952L22.8338 11.6951M23.6996 13.3586L22.8338 11.6951M22.8338 11.6951C22.946 11.5856 23.0954 11.525 23.2552 11.525C23.4149 11.525 23.5645 11.5856 23.677 11.6954L23.677 11.6955M22.8338 11.6951L23.677 11.6955M23.677 11.6955L24.5427 12.5401M23.677 11.6955L24.5427 12.5401M18.3993 18.5606L18.3999 18.5607C18.3997 18.5607 18.401 18.5608 18.4042 18.5605C18.4072 18.5603 18.4111 18.5598 18.4157 18.5588C18.4252 18.557 18.4362 18.5539 18.4475 18.55C18.4587 18.546 18.4693 18.5414 18.4777 18.537C18.482 18.5348 18.4853 18.5328 18.4878 18.5311C18.49 18.5296 18.491 18.5288 18.4911 18.5286L22.0725 15.0345L21.8431 14.8105L20.8543 15.7752C20.7949 15.8332 20.7171 15.862 20.6398 15.862C20.5625 15.862 20.4848 15.8332 20.4253 15.7752C20.4253 15.7752 20.4253 15.7752 20.4253 15.7752L20.4658 15.7337L18.3993 18.5606ZM18.3993 18.5606L17.7271 18.4981M18.3993 18.5606L17.7271 18.4981M20.4253 15.3527L21.412 14.3899L21.1182 14.1032L19.3714 15.8076C19.3711 15.808 19.3696 15.8101 19.3672 15.8148C19.3642 15.8209 19.361 15.8288 19.3583 15.8373C19.3556 15.8459 19.3537 15.8541 19.3527 15.8607C19.3519 15.8656 19.3519 15.8681 19.3519 15.8686L19.3878 16.0556C19.3878 16.0556 19.3878 16.0556 19.3878 16.0556C19.4175 16.21 19.3697 16.3607 19.2533 16.454L19.2533 16.454C19.1374 16.5468 18.978 16.5629 18.8299 16.505L18.8299 16.505L18.7127 16.4591C18.7111 16.4593 18.7092 16.4596 18.7073 16.46C18.7049 16.4605 18.7027 16.4611 18.701 16.4616L18.5969 16.5633C18.5967 16.5637 18.5952 16.5658 18.5928 16.5705C18.5898 16.5766 18.5866 16.5844 18.5839 16.5929C18.5812 16.6015 18.5793 16.6097 18.5783 16.6163C18.5776 16.6212 18.5776 16.6237 18.5776 16.6242L18.6135 16.8112L18.6135 16.8113L18.5565 16.8222L20.4253 15.3527ZM20.4253 15.3527C20.4253 15.3527 20.4253 15.3527 20.4253 15.3527L20.4253 15.3527ZM17.7271 18.4981L17.5496 17.6813C17.5496 17.6805 17.5496 17.6785 17.5501 17.6748C17.551 17.6689 17.5526 17.6614 17.555 17.6535C17.5574 17.6456 17.5602 17.6384 17.5629 17.6328C17.5646 17.6293 17.5658 17.6275 17.5662 17.6269L17.7271 18.4981ZM24.5427 12.5401C24.7741 12.766 24.7741 13.1329 24.5427 13.3587C24.4302 13.4684 24.2808 13.529 24.1212 13.529L24.5427 12.5401Z" fill="#6A6F75" stroke="#6A6F75" stroke-width="0.11597"/>
</svg>
