<svg width="16" height="17" viewBox="0 0 16 17" fill="none" xmlns="http://www.w3.org/2000/svg">
<mask id="mask0_353_66245" style="mask-type:alpha" maskUnits="userSpaceOnUse" x="0" y="0" width="16" height="17">
<rect y="0.617188" width="16" height="15.9803" fill="#D9D9D9"/>
</mask>
<g mask="url(#mask0_353_66245)">
<path d="M6 2.6149V1.2832H10V2.6149H6ZM7.33333 9.93921H8.66667V5.94413H7.33333V9.93921ZM8 15.266C7.17778 15.266 6.40278 15.1078 5.675 14.7916C4.94722 14.4753 4.31111 14.0453 3.76667 13.5015C3.22222 12.9577 2.79167 12.3224 2.475 11.5955C2.15833 10.8686 2 10.0946 2 9.27336C2 8.45215 2.15833 7.67811 2.475 6.95122C2.79167 6.22434 3.22222 5.58901 3.76667 5.04524C4.31111 4.50146 4.94722 4.07144 5.675 3.75516C6.40278 3.43888 7.17778 3.28074 8 3.28074C8.68889 3.28074 9.35 3.39172 9.98333 3.61367C10.6167 3.83562 11.2111 4.15744 11.7667 4.57914L12.7 3.64696L13.6333 4.57914L12.7 5.51133C13.1222 6.0662 13.4444 6.65991 13.6667 7.29247C13.8889 7.92502 14 8.58532 14 9.27336C14 10.0946 13.8417 10.8686 13.525 11.5955C13.2083 12.3224 12.7778 12.9577 12.2333 13.5015C11.6889 14.0453 11.0528 14.4753 10.325 14.7916C9.59722 15.1078 8.82222 15.266 8 15.266ZM8 13.9343C9.28889 13.9343 10.3889 13.4793 11.3 12.5693C12.2111 11.6593 12.6667 10.5607 12.6667 9.27336C12.6667 7.98606 12.2111 6.88741 11.3 5.97742C10.3889 5.06743 9.28889 4.61244 8 4.61244C6.71111 4.61244 5.61111 5.06743 4.7 5.97742C3.78889 6.88741 3.33333 7.98606 3.33333 9.27336C3.33333 10.5607 3.78889 11.6593 4.7 12.5693C5.61111 13.4793 6.71111 13.9343 8 13.9343Z" fill="white"/>
</g>
</svg>
