<svg width="32" height="27" viewBox="0 0 32 27" fill="none" xmlns="http://www.w3.org/2000/svg">
<path d="M22.757 12.2391H22.7456C22.5122 12.2391 22.3299 12.3143 22.2067 12.4343C22.0839 12.5539 22.008 12.7295 22.008 12.9535V16.152C22.008 16.6034 22.3106 16.9529 22.7456 16.9529L22.757 12.2391ZM22.757 12.2391H22.7684M22.757 12.2391H22.7684M22.7684 12.2391H22.7799M22.7684 12.2391H22.7799M22.7799 12.2391H22.7913M22.7799 12.2391H22.7913M22.7913 12.2391H22.8027M22.7913 12.2391H22.8027M22.8027 12.2391H22.8142M22.8027 12.2391H22.8142M22.8142 12.2391H22.8256M22.8142 12.2391H22.8256M22.8256 12.2391H22.837M22.8256 12.2391H22.837M22.837 12.2391H22.8485M22.837 12.2391H22.8485M22.8485 12.2391H22.8599M22.8485 12.2391H22.8599M22.8599 12.2391H22.8713M22.8599 12.2391H22.8713M22.8713 12.2391H22.8827M22.8713 12.2391H22.8827M22.8827 12.2391H22.8941M22.8827 12.2391H22.8941M22.8941 12.2391H22.9055M22.8941 12.2391H22.9055M22.9055 12.2391H22.917M22.9055 12.2391H22.917M22.917 12.2391H22.9284M22.917 12.2391H22.9284M22.9284 12.2391H22.9398M22.9284 12.2391H22.9398M22.9398 12.2391H22.9512M22.9398 12.2391H22.9512M22.9512 12.2391H22.9626M22.9512 12.2391H22.9626M22.9626 12.2391H22.974M22.9626 12.2391H22.974M22.974 12.2391H22.9854M22.974 12.2391H22.9854M22.9854 12.2391H22.9968M22.9854 12.2391H22.9968M22.9968 12.2391H23.0082M22.9968 12.2391H23.0082M23.0082 12.2391H23.0196M23.0082 12.2391H23.0196M23.0196 12.2391H23.031M23.0196 12.2391H23.031M23.031 12.2391H23.0424M23.031 12.2391H23.0424M23.0424 12.2391H23.0538M23.0424 12.2391H23.0538M23.0538 12.2391H23.0652M23.0538 12.2391H23.0652M23.0652 12.2391H23.0765M23.0652 12.2391H23.0765M23.0765 12.2391H23.0879M23.0765 12.2391H23.0879M23.0879 12.2391H23.0993M23.0879 12.2391H23.0993M23.0993 12.2391H23.1107M23.0993 12.2391H23.1107M23.1107 12.2391H23.1221M23.1107 12.2391H23.1221M23.1221 12.2391H23.1334M23.1221 12.2391H23.1334M23.1334 12.2391H23.1448M23.1334 12.2391H23.1448M23.1448 12.2391H23.1562M23.1448 12.2391H23.1562M23.1562 12.2391H23.1676M23.1562 12.2391H23.1676M23.1676 12.2391H23.1789M23.1676 12.2391H23.1789M23.1789 12.2391H23.1903M23.1789 12.2391H23.1903M23.1903 12.2391H23.2017M23.1903 12.2391H23.2017M23.2017 12.2391H23.213M23.2017 12.2391H23.213M23.213 12.2391H23.2244M23.213 12.2391H23.2244M23.2244 12.2391H23.2358M23.2244 12.2391H23.2358M23.2358 12.2391H23.2471M23.2358 12.2391H23.2471M23.2471 12.2391H23.2585M23.2471 12.2391H23.2585M23.2585 12.2391H23.2698M23.2585 12.2391H23.2698M23.2698 12.2391H23.2812M23.2698 12.2391H23.2812M23.2812 12.2391H23.2926M23.2812 12.2391H23.2926M23.2926 12.2391H23.3039M23.2926 12.2391H23.3039M23.3039 12.2391H23.3153M23.3039 12.2391H23.3153M23.3153 12.2391H23.3266M23.3153 12.2391H23.3266M23.3266 12.2391H23.338M23.3266 12.2391H23.338M23.338 12.2391H23.3493M23.338 12.2391H23.3493M23.3493 12.2391H23.3606M23.3493 12.2391H23.3606M23.3606 12.2391H23.372M23.3606 12.2391H23.372M23.372 12.2391H23.3833M23.372 12.2391H23.3833M23.3833 12.2391H23.3947M23.3833 12.2391H23.3947M23.3947 12.2391H23.406M23.3947 12.2391H23.406M23.406 12.2391H23.4173M23.406 12.2391H23.4173M23.4173 12.2391H23.4287M23.4173 12.2391H23.4287M23.4287 12.2391H23.44M23.4287 12.2391H23.44M23.44 12.2391H23.4513M23.44 12.2391H23.4513M23.4513 12.2391H23.4627M23.4513 12.2391H23.4627M23.4627 12.2391H23.474M23.4627 12.2391H23.474M23.474 12.2391H23.4853M23.474 12.2391H23.4853M23.4853 12.2391H23.4966M23.4853 12.2391H23.4966M23.4966 12.2391H23.508M23.4966 12.2391H23.508M23.508 12.2391H23.5193M23.508 12.2391H23.5193M23.5193 12.2391H23.5306M23.5193 12.2391H23.5306M23.5306 12.2391H23.5419M23.5306 12.2391H23.5419M23.5419 12.2391H23.5533M23.5419 12.2391H23.5533M23.5533 12.2391H23.5646M23.5533 12.2391H23.5646M23.5646 12.2391H23.5759M23.5646 12.2391H23.5759M23.5759 12.2391H23.5872M23.5759 12.2391H23.5872M23.5872 12.2391H23.5985M23.5872 12.2391H23.5985M23.5985 12.2391H23.6098M23.5985 12.2391H23.6098M23.6098 12.2391H23.6211M23.6098 12.2391H23.6211M23.6211 12.2391H23.6324M23.6211 12.2391H23.6324M23.6324 12.2391H23.6437M23.6324 12.2391H23.6437M23.6437 12.2391H23.655M23.6437 12.2391H23.655M23.655 12.2391H23.6664M23.655 12.2391H23.6664M23.6664 12.2391H23.6777M23.6664 12.2391H23.6777M23.6777 12.2391H23.689M23.6777 12.2391H23.689M23.689 12.2391H23.7003M23.689 12.2391H23.7003M23.7003 12.2391H23.7116M23.7003 12.2391H23.7116M23.7116 12.2391H23.7228M23.7116 12.2391H23.7228M23.7228 12.2391H23.7341M23.7228 12.2391H23.7341M23.7341 12.2391H23.7454M23.7341 12.2391H23.7454M23.7454 12.2391H23.7567M23.7454 12.2391H23.7567M23.7567 12.2391H23.768M23.7567 12.2391H23.768M23.768 12.2391H23.7793M23.768 12.2391H23.7793M23.7793 12.2391H23.7906M23.7793 12.2391H23.7906M23.7906 12.2391H23.8019M23.7906 12.2391H23.8019M23.8019 12.2391H23.8132M23.8019 12.2391H23.8132M23.8132 12.2391H23.8245M23.8132 12.2391H23.8245M23.8245 12.2391H23.8357M23.8245 12.2391H23.8357M23.8357 12.2391H23.847M23.8357 12.2391H23.847M23.847 12.2391H23.8583M23.847 12.2391H23.8583M23.8583 12.2391H23.8696M23.8583 12.2391H23.8696M23.8696 12.2391H23.8809M23.8696 12.2391H23.8809M23.8809 12.2391H23.8921M23.8809 12.2391H23.8921M23.8921 12.2391H23.9034M23.8921 12.2391H23.9034M23.9034 12.2391H23.9147M23.9034 12.2391H23.9147M23.9147 12.2391H23.926M23.9147 12.2391H23.926M23.926 12.2391H23.9372M23.926 12.2391H23.9372M23.9372 12.2391H23.9485M23.9372 12.2391H23.9485M23.9485 12.2391H23.9598M23.9485 12.2391H23.9598M23.9598 12.2391H23.9711M23.9598 12.2391H23.9711M23.9711 12.2391H23.9823M23.9711 12.2391H23.9823M23.9823 12.2391H23.9936M23.9823 12.2391H23.9936M23.9936 12.2391H24.0048M23.9936 12.2391H24.0048M24.0048 12.2391H24.0161M24.0048 12.2391H24.0161M24.0161 12.2391H24.0274M24.0161 12.2391H24.0274M24.0274 12.2391H24.0386M24.0274 12.2391H24.0386M24.0386 12.2391H24.0499M24.0386 12.2391H24.0499M24.0499 12.2391H24.0612M24.0499 12.2391H24.0612M24.0612 12.2391H24.0724M24.0612 12.2391H24.0724M24.0724 12.2391H24.0837M24.0724 12.2391H24.0837M24.0837 12.2391H24.0949M24.0837 12.2391H24.0949M24.0949 12.2391H24.1062M24.0949 12.2391H24.1062M24.1062 12.2391H24.1174M24.1062 12.2391H24.1174M24.1174 12.2391H24.1287M24.1174 12.2391H24.1287M24.1287 12.2391H24.1399M24.1287 12.2391H24.1399M24.1399 12.2391H24.1512M24.1399 12.2391H24.1512M24.1512 12.2391H24.1624M24.1512 12.2391H24.1624M24.1624 12.2391H24.1737M24.1624 12.2391H24.1737M24.1737 12.2391H24.1849M24.1737 12.2391H24.1849M24.1849 12.2391H24.1962M24.1849 12.2391H24.1962M24.1962 12.2391H24.2074M24.1962 12.2391H24.2074M24.2074 12.2391H24.2187M24.2074 12.2391H24.2187M24.2187 12.2391H24.2299M24.2187 12.2391H24.2299M24.2299 12.2391H24.2412M24.2299 12.2391H24.2412M24.2412 12.2391H24.2524M24.2412 12.2391H24.2524M24.2524 12.2391H24.2637M24.2524 12.2391H24.2637M24.2637 12.2391H24.2749M24.2637 12.2391H24.2749M24.2749 12.2391H24.2861M24.2749 12.2391H24.2861M24.2861 12.2391H24.2974M24.2861 12.2391H24.2974M24.2974 12.2391H24.3086M24.2974 12.2391H24.3086M24.3086 12.2391H24.3198M24.3086 12.2391H24.3198M24.3198 12.2391H24.3311M24.3198 12.2391H24.3311M24.3311 12.2391H24.3423M24.3311 12.2391H24.3423M24.3423 12.2391H24.3535M24.3423 12.2391H24.3535M24.3535 12.2391H24.3648M24.3535 12.2391H24.3648M24.3648 12.2391H24.376M24.3648 12.2391H24.376M24.376 12.2391H24.3872M24.376 12.2391H24.3872M24.3872 12.2391H24.3985M24.3872 12.2391H24.3985M24.3985 12.2391H24.4097M24.3985 12.2391H24.4097M24.4097 12.2391H24.4209M24.4097 12.2391H24.4209M24.4209 12.2391H24.4322M24.4209 12.2391H24.4322M24.4322 12.2391H24.4434M24.4322 12.2391H24.4434M24.4434 12.2391H24.4546M24.4434 12.2391H24.4546M24.4546 12.2391H24.4658M24.4546 12.2391H24.4658M24.4658 12.2391H24.4771M24.4658 12.2391H24.4771M24.4771 12.2391H24.4883M24.4771 12.2391H24.4883M24.4883 12.2391H24.4995M24.4883 12.2391H24.4995M24.4995 12.2391H24.5107M24.4995 12.2391H24.5107M24.5107 12.2391H24.5219M24.5107 12.2391H24.5219M24.5219 12.2391H24.5332M24.5219 12.2391H24.5332M24.5332 12.2391H24.5444M24.5332 12.2391H24.5444M24.5444 12.2391H24.5556M24.5444 12.2391H24.5556M24.5556 12.2391H24.5668M24.5556 12.2391H24.5668M24.5668 12.2391H24.578M24.5668 12.2391H24.578M24.578 12.2391H24.5892M24.578 12.2391H24.5892M24.5892 12.2391H24.6005M24.5892 12.2391H24.6005M24.6005 12.2391H24.6117M24.6005 12.2391H24.6117M24.6117 12.2391H24.6229M24.6117 12.2391H24.6229M24.6229 12.2391H24.6341M24.6229 12.2391H24.6341M24.6341 12.2391H24.6453M24.6341 12.2391H24.6453M24.6453 12.2391H24.6565M24.6453 12.2391H24.6565M24.6565 12.2391H24.6677M24.6565 12.2391H24.6677M24.6677 12.2391H24.6789M24.6677 12.2391H24.6789M24.6789 12.2391H24.6902M24.6789 12.2391H24.6902M24.6902 12.2391H24.7014M24.6902 12.2391H24.7014M24.7014 12.2391H24.7126M24.7014 12.2391H24.7126M24.7126 12.2391H24.7238M24.7126 12.2391H24.7238M24.7238 12.2391H24.735M24.7238 12.2391H24.735M24.735 12.2391H24.7462M24.735 12.2391H24.7462M24.7462 12.2391H24.7574M24.7462 12.2391H24.7574M24.7574 12.2391H24.7686M24.7574 12.2391H24.7686M24.7686 12.2391H24.7798M24.7686 12.2391H24.7798M24.7798 12.2391H24.791M24.7798 12.2391H24.791M24.791 12.2391H24.8022M24.791 12.2391H24.8022M24.8022 12.2391H24.8134M24.8022 12.2391H24.8134M24.8134 12.2391H24.8246M24.8134 12.2391H24.8246M24.8246 12.2391H24.8358M24.8246 12.2391H24.8358M24.8358 12.2391H24.847M24.8358 12.2391H24.847M24.847 12.2391H24.8582M24.847 12.2391H24.8582M24.8582 12.2391H24.8694M24.8582 12.2391H24.8694M24.8694 12.2391H24.8806M24.8694 12.2391H24.8806M24.8806 12.2391H24.8918M24.8806 12.2391H24.8918M24.8918 12.2391H24.903M24.8918 12.2391H24.903M24.903 12.2391H24.9142M24.903 12.2391H24.9142M24.9142 12.2391H24.9254M24.9142 12.2391H24.9254M24.9254 12.2391H24.9366M24.9254 12.2391H24.9366M24.9366 12.2391H24.9478M24.9366 12.2391H24.9478M24.9478 12.2391H24.959M24.9478 12.2391H24.959M24.959 12.2391H24.9702M24.959 12.2391H24.9702M24.9702 12.2391H24.9814M24.9702 12.2391H24.9814M24.9814 12.2391H24.9926M24.9814 12.2391H24.9926M24.9926 12.2391H25.0038M24.9926 12.2391H25.0038M25.0038 12.2391H25.015M25.0038 12.2391H25.015M25.015 12.2391H25.0262M25.015 12.2391H25.0262M25.0262 12.2391H25.0374M25.0262 12.2391H25.0374M25.0374 12.2391H25.0486M25.0374 12.2391H25.0486M25.0486 12.2391H25.0598M25.0486 12.2391H25.0598M25.0598 12.2391H25.0709M25.0598 12.2391H25.0709M25.0709 12.2391H25.0821M25.0709 12.2391H25.0821M25.0821 12.2391H25.0933M25.0821 12.2391H25.0933M25.0933 12.2391H25.1045M25.0933 12.2391H25.1045M25.1045 12.2391H25.1157M25.1045 12.2391H25.1157M25.1157 12.2391H25.1269M25.1157 12.2391H25.1269M25.1269 12.2391H25.1381M25.1269 12.2391H25.1381M25.1381 12.2391H25.1493M25.1381 12.2391H25.1493M25.1493 12.2391H25.1605M25.1493 12.2391H25.1605M25.1605 12.2391H25.1716M25.1605 12.2391H25.1716M25.1716 12.2391H25.1828M25.1716 12.2391H25.1828M25.1828 12.2391H25.194M25.1828 12.2391H25.194M25.194 12.2391H25.2052M25.194 12.2391H25.2052M25.2052 12.2391H25.2164M25.2052 12.2391H25.2164M25.2164 12.2391H25.2276M25.2164 12.2391H25.2276M25.2276 12.2391H25.2388M25.2276 12.2391H25.2388M25.2388 12.2391H25.25M25.2388 12.2391H25.25M25.25 12.2391H25.2611M25.25 12.2391H25.2611M25.2611 12.2391H25.2723M25.2611 12.2391H25.2723M25.2723 12.2391H25.2835M25.2723 12.2391H25.2835M25.2835 12.2391H25.2947M25.2835 12.2391H25.2947M25.2947 12.2391H25.3059M25.2947 12.2391H25.3059M25.3059 12.2391H25.3171M25.3059 12.2391H25.3171M25.3171 12.2391H25.3283M25.3171 12.2391H25.3283M25.3283 12.2391H25.3394M25.3283 12.2391H25.3394M25.3394 12.2391H25.3506M25.3394 12.2391H25.3506M25.3506 12.2391H25.3618M25.3506 12.2391H25.3618M25.3618 12.2391H25.373M25.3618 12.2391H25.373M25.373 12.2391H25.3842M25.373 12.2391H25.3842M25.3842 12.2391H25.3954M25.3842 12.2391H25.3954M25.3954 12.2391H25.4065M25.3954 12.2391H25.4065M25.4065 12.2391H25.4177M25.4065 12.2391H25.4177M25.4177 12.2391H25.4289M25.4177 12.2391H25.4289M25.4289 12.2391H25.4401M25.4289 12.2391H25.4401M25.4401 12.2391H25.4513M25.4401 12.2391H25.4513M25.4513 12.2391H25.4625M25.4513 12.2391H25.4625M25.4625 12.2391H25.4736M25.4625 12.2391H25.4736M25.4736 12.2391H25.4848M25.4736 12.2391H25.4848M25.4848 12.2391H25.496M25.4848 12.2391H25.496M25.496 12.2391H25.5072M25.496 12.2391H25.5072M25.5072 12.2391H25.5184M25.5072 12.2391H25.5184M25.5184 12.2391H25.5295M25.5184 12.2391H25.5295M25.5295 12.2391H25.5407M25.5295 12.2391H25.5407M25.5407 12.2391H25.5519M25.5407 12.2391H25.5519M25.5519 12.2391H25.5631M25.5519 12.2391H25.5631M25.5631 12.2391H25.5743M25.5631 12.2391H25.5743M25.5743 12.2391H25.5855M25.5743 12.2391H25.5855M25.5855 12.2391H25.5966M25.5855 12.2391H25.5966M25.5966 12.2391H25.6078M25.5966 12.2391H25.6078M25.6078 12.2391H25.619M25.6078 12.2391H25.619M25.619 12.2391H25.6302M25.619 12.2391H25.6302M25.6302 12.2391H25.6414M25.6302 12.2391H25.6414M25.6414 12.2391H25.6525M25.6414 12.2391H25.6525M25.6525 12.2391H25.6637M25.6525 12.2391H25.6637M25.6637 12.2391H25.6749M25.6637 12.2391H25.6749M25.6749 12.2391H25.6861M25.6749 12.2391H25.6861M25.6861 12.2391H25.6973M25.6861 12.2391H25.6973M25.6973 12.2391H25.7084M25.6973 12.2391H25.7084M25.7084 12.2391H25.7196M25.7084 12.2391H25.7196M25.7196 12.2391H25.7308M25.7196 12.2391H25.7308M25.7308 12.2391H25.742M25.7308 12.2391H25.742M25.742 12.2391H25.7532M25.742 12.2391H25.7532M25.7532 12.2391H25.7644M25.7532 12.2391H25.7644M25.7644 12.2391H25.7755M25.7644 12.2391H25.7755M25.7755 12.2391H25.7867M25.7755 12.2391H25.7867M25.7867 12.2391H25.7979M25.7867 12.2391H25.7979M25.7979 12.2391H25.8091M25.7979 12.2391H25.8091M25.8091 12.2391H25.8203M25.8091 12.2391H25.8203M25.8203 12.2391H25.8314M25.8203 12.2391H25.8314M25.8314 12.2391H25.8426M25.8314 12.2391H25.8426M25.8426 12.2391H25.8538M25.8426 12.2391H25.8538M25.8538 12.2391H25.865M25.8538 12.2391H25.865M25.865 12.2391H25.8762M25.865 12.2391H25.8762M25.8762 12.2391H25.8874M25.8762 12.2391H25.8874M25.8874 12.2391H25.8985M25.8874 12.2391H25.8985M25.8985 12.2391H25.9097M25.8985 12.2391H25.9097M25.9097 12.2391H25.9209M25.9097 12.2391H25.9209M25.9209 12.2391H25.9321M25.9209 12.2391H25.9321M25.9321 12.2391H25.9433M25.9321 12.2391H25.9433M25.9433 12.2391H25.9545M25.9433 12.2391H25.9545M25.9545 12.2391H25.9657M25.9545 12.2391H25.9657M25.9657 12.2391H25.9768M25.9657 12.2391H25.9768M25.9768 12.2391H25.988M25.9768 12.2391H25.988M25.988 12.2391H25.9992M25.988 12.2391H25.9992M25.9992 12.2391H26.0104M25.9992 12.2391H26.0104M26.0104 12.2391H26.0216M26.0104 12.2391H26.0216M26.0216 12.2391H26.0328M26.0216 12.2391H26.0328M26.0328 12.2391H26.044M26.0328 12.2391H26.044M26.044 12.2391H26.0551M26.044 12.2391H26.0551M26.0551 12.2391H26.0663M26.0551 12.2391H26.0663M26.0663 12.2391H26.0775M26.0663 12.2391H26.0775M26.0775 12.2391H26.0887M26.0775 12.2391H26.0887M26.0887 12.2391H26.0999M26.0887 12.2391H26.0999M26.0999 12.2391H26.1111M26.0999 12.2391H26.1111M26.1111 12.2391H26.1223M26.1111 12.2391H26.1223M26.1223 12.2391H26.1335M26.1223 12.2391H26.1335M26.1335 12.2391H26.1446M26.1335 12.2391H26.1446M26.1446 12.2391H26.1558M26.1446 12.2391H26.1558M26.1558 12.2391H26.167M26.1558 12.2391H26.167M26.167 12.2391H26.1782M26.167 12.2391H26.1782M26.1782 12.2391H26.1894M26.1782 12.2391H26.1894M26.1894 12.2391H26.2006M26.1894 12.2391H26.2006M26.2006 12.2391H26.2118M26.2006 12.2391H26.2118M26.2118 12.2391H26.223M26.2118 12.2391H26.223M26.223 12.2391H26.2342M26.223 12.2391H26.2342M26.2342 12.2391H26.2454M26.2342 12.2391H26.2454M26.2454 12.2391H26.2566M26.2454 12.2391H26.2566M26.2566 12.2391H26.2678M26.2566 12.2391H26.2678M26.2678 12.2391H26.279M26.2678 12.2391H26.279M26.279 12.2391H26.2901M26.279 12.2391H26.2901M26.2901 12.2391H26.3013M26.2901 12.2391H26.3013M26.3013 12.2391H26.3125M26.3013 12.2391H26.3125M26.3125 12.2391H26.3237M26.3125 12.2391H26.3237M26.3237 12.2391H26.3349M26.3237 12.2391H26.3349M26.3349 12.2391H26.3461M26.3349 12.2391H26.3461M26.3461 12.2391H26.3573M26.3461 12.2391H26.3573M26.3573 12.2391H26.3685M26.3573 12.2391H26.3685M26.3685 12.2391H26.3797M26.3685 12.2391H26.3797M26.3797 12.2391H26.3909M26.3797 12.2391H26.3909M26.3909 12.2391H26.4021M26.3909 12.2391H26.4021M26.4021 12.2391H26.4133M26.4021 12.2391H26.4133M26.4133 12.2391H26.4245M26.4133 12.2391H26.4245M26.4245 12.2391H26.4357M26.4245 12.2391H26.4357M26.4357 12.2391H26.4469M26.4357 12.2391H26.4469M26.4469 12.2391H26.4581M26.4469 12.2391H26.4581M26.4581 12.2391H26.4693M26.4581 12.2391H26.4693M26.4693 12.2391H26.4805M26.4693 12.2391H26.4805M26.4805 12.2391H26.4917M26.4805 12.2391H26.4917M26.4917 12.2391H26.503M26.4917 12.2391H26.503M26.503 12.2391H26.5142M26.503 12.2391H26.5142M26.5142 12.2391H26.5254M26.5142 12.2391H26.5254M26.5254 12.2391H26.5366M26.5254 12.2391H26.5366M26.5366 12.2391H26.5478M26.5366 12.2391H26.5478M26.5478 12.2391H26.559M26.5478 12.2391H26.559M26.559 12.2391H26.5702M26.559 12.2391H26.5702M26.5702 12.2391H26.5814M26.5702 12.2391H26.5814M26.5814 12.2391H26.5926M26.5814 12.2391H26.5926M26.5926 12.2391H26.6038M26.5926 12.2391H26.6038M26.6038 12.2391H26.615M26.6038 12.2391H26.615M26.615 12.2391H26.6263M26.615 12.2391H26.6263M26.6263 12.2391H26.6375M26.6263 12.2391H26.6375M26.6375 12.2391H26.6487M26.6375 12.2391H26.6487M26.6487 12.2391H26.6599M26.6487 12.2391H26.6599M26.6599 12.2391H26.6711M26.6599 12.2391H26.6711M26.6711 12.2391H26.6823M26.6711 12.2391H26.6823M26.6823 12.2391H26.6935M26.6823 12.2391H26.6935M26.6935 12.2391H26.7048M26.6935 12.2391H26.7048M26.7048 12.2391H26.716M26.7048 12.2391H26.716M26.716 12.2391H26.7272M26.716 12.2391H26.7272M26.7272 12.2391H26.7384M26.7272 12.2391H26.7384M26.7384 12.2391H26.7496M26.7384 12.2391H26.7496M26.7496 12.2391H26.7609M26.7496 12.2391H26.7609M26.7609 12.2391H26.7721M26.7609 12.2391H26.7721M26.7721 12.2391H26.7833M26.7721 12.2391H26.7833M26.7833 12.2391H26.7945M26.7833 12.2391H26.7945M26.7945 12.2391H26.8057M26.7945 12.2391H26.8057M26.8057 12.2391H26.817M26.8057 12.2391H26.817M26.817 12.2391H26.8282M26.817 12.2391H26.8282M26.8282 12.2391H26.8394M26.8282 12.2391H26.8394M26.8394 12.2391H26.8507M26.8394 12.2391H26.8507M26.8507 12.2391H26.8619M26.8507 12.2391H26.8619M26.8619 12.2391H26.8731M26.8619 12.2391H26.8731M26.8731 12.2391H26.8843M26.8731 12.2391H26.8843M26.8843 12.2391H26.8956M26.8843 12.2391H26.8956M26.8956 12.2391H26.9068M26.8956 12.2391H26.9068M26.9068 12.2391H26.918M26.9068 12.2391H26.918M26.918 12.2391H26.9293M26.918 12.2391H26.9293M26.9293 12.2391H26.9405M26.9293 12.2391H26.9405M26.9405 12.2391H26.9517M26.9405 12.2391H26.9517M26.9517 12.2391H26.963M26.9517 12.2391H26.963M26.963 12.2391H26.9742M26.963 12.2391H26.9742M26.9742 12.2391H26.9855M26.9742 12.2391H26.9855M26.9855 12.2391H26.9967M26.9855 12.2391H26.9967M26.9967 12.2391H27.0079M26.9967 12.2391H27.0079M27.0079 12.2391H27.0192M27.0079 12.2391H27.0192M27.0192 12.2391H27.0304M27.0192 12.2391H27.0304M27.0304 12.2391H27.0417M27.0304 12.2391H27.0417M27.0417 12.2391H27.0529M27.0417 12.2391H27.0529M27.0529 12.2391H27.0642M27.0529 12.2391H27.0642M27.0642 12.2391H27.0754M27.0642 12.2391H27.0754M27.0754 12.2391H27.0867M27.0754 12.2391H27.0867M27.0867 12.2391H27.0979M27.0867 12.2391H27.0979M27.0979 12.2391H27.1092M27.0979 12.2391H27.1092M27.1092 12.2391H27.1204M27.1092 12.2391H27.1204M27.1204 12.2391H27.1317M27.1204 12.2391H27.1317M27.1317 12.2391H27.1429M27.1317 12.2391H27.1429M27.1429 12.2391H27.1542M27.1429 12.2391H27.1542M27.1542 12.2391H27.1654M27.1542 12.2391H27.1654M27.1654 12.2391H27.1767M27.1654 12.2391H27.1767M27.1767 12.2391H27.1879M27.1767 12.2391H27.1879M27.1879 12.2391H27.1992M27.1879 12.2391H27.1992M27.1992 12.2391H27.2105M27.1992 12.2391H27.2105M27.2105 12.2391H27.2217M27.2105 12.2391H27.2217M27.2217 12.2391H27.233M27.2217 12.2391H27.233M27.233 12.2391H27.2442M27.233 12.2391H27.2442M27.2442 12.2391H27.2555M27.2442 12.2391H27.2555M27.2555 12.2391H27.2668M27.2555 12.2391H27.2668M27.2668 12.2391H27.278M27.2668 12.2391H27.278M27.278 12.2391H27.2893M27.278 12.2391H27.2893M27.2893 12.2391H27.3006M27.2893 12.2391H27.3006M27.3006 12.2391H27.3118M27.3006 12.2391H27.3118M27.3118 12.2391H27.3231M27.3118 12.2391H27.3231M27.3231 12.2391H27.3344M27.3231 12.2391H27.3344M27.3344 12.2391H27.3457M27.3344 12.2391H27.3457M27.3457 12.2391H27.3569M27.3457 12.2391H27.3569M27.3569 12.2391H27.3682M27.3569 12.2391H27.3682M27.3682 12.2391H27.3795M27.3682 12.2391H27.3795M27.3795 12.2391H27.3908M27.3795 12.2391H27.3908M27.3908 12.2391H27.402M27.3908 12.2391H27.402M27.402 12.2391H27.4133M27.402 12.2391H27.4133M27.4133 12.2391H27.4246M27.4133 12.2391H27.4246M27.4246 12.2391H27.4359M27.4246 12.2391H27.4359M27.4359 12.2391H27.4472M27.4359 12.2391H27.4472M27.4472 12.2391H27.4585M27.4472 12.2391H27.4585M27.4585 12.2391H27.4698M27.4585 12.2391H27.4698M27.4698 12.2391H27.481M27.4698 12.2391H27.481M27.481 12.2391H27.4923M27.481 12.2391H27.4923M27.4923 12.2391H27.5036M27.4923 12.2391H27.5036M27.5036 12.2391H27.5149M27.5036 12.2391H27.5149M27.5149 12.2391H27.5262M27.5149 12.2391H27.5262M27.5262 12.2391H27.5375M27.5262 12.2391H27.5375M27.5375 12.2391H27.5488M27.5375 12.2391H27.5488M27.5488 12.2391H27.5601M27.5488 12.2391H27.5601M27.5601 12.2391H27.5714M27.5601 12.2391H27.5714M27.5714 12.2391H27.5827M27.5714 12.2391H27.5827M27.5827 12.2391H27.594M27.5827 12.2391H27.594M27.594 12.2391H27.6053M27.594 12.2391H27.6053M27.6053 12.2391H27.6166M27.6053 12.2391H27.6166M27.6166 12.2391H27.6279M27.6166 12.2391H27.6279M27.6279 12.2391H27.6392M27.6279 12.2391H27.6392M27.6392 12.2391H27.6505M27.6392 12.2391H27.6505M27.6505 12.2391H27.6618M27.6505 12.2391H27.6618M27.6618 12.2391H27.6732M27.6618 12.2391H27.6732M27.6732 12.2391H27.6845M27.6732 12.2391H27.6845M27.6845 12.2391H27.6958M27.6845 12.2391H27.6958M27.6958 12.2391H27.7071M27.6958 12.2391H27.7071M27.7071 12.2391H27.7184M27.7071 12.2391H27.7184M27.7184 12.2391H27.7297M27.7184 12.2391H27.7297M27.7297 12.2391H27.7411M27.7297 12.2391H27.7411M27.7411 12.2391H27.7524M27.7411 12.2391H27.7524M27.7524 12.2391H27.7637M27.7524 12.2391H27.7637M27.7637 12.2391H27.775M27.7637 12.2391H27.775M27.775 12.2391H27.7864M27.775 12.2391H27.7864M27.7864 12.2391H27.7977M27.7864 12.2391H27.7977M27.7977 12.2391H27.809M27.7977 12.2391H27.809M27.809 12.2391H27.8203M27.809 12.2391H27.8203M27.8203 12.2391H27.8317M27.8203 12.2391H27.8317M27.8317 12.2391H27.843M27.8317 12.2391H27.843M27.843 12.2391H27.8544M27.843 12.2391H27.8544M27.8544 12.2391H27.8657M27.8544 12.2391H27.8657M27.8657 12.2391H27.877M27.8657 12.2391H27.877M27.877 12.2391H27.8884M27.877 12.2391H27.8884M27.8884 12.2391H27.8997M27.8884 12.2391H27.8997M27.8997 12.2391H27.9111M27.8997 12.2391H27.9111M27.9111 12.2391H27.9224M27.9111 12.2391H27.9224M27.9224 12.2391H27.9337M27.9224 12.2391H27.9337M27.9337 12.2391H27.9451M27.9337 12.2391H27.9451M27.9451 12.2391H27.9564M27.9451 12.2391H27.9564M27.9564 12.2391H27.9678M27.9564 12.2391H27.9678M27.9678 12.2391H27.9792M27.9678 12.2391H27.9792M27.9792 12.2391H27.9905M27.9792 12.2391H27.9905M27.9905 12.2391H28.0019M27.9905 12.2391H28.0019M28.0019 12.2391H28.0132M28.0019 12.2391H28.0132M28.0132 12.2391H28.0246M28.0132 12.2391H28.0246M28.0246 12.2391H28.0359M28.0246 12.2391H28.0359M28.0359 12.2391H28.0473M28.0359 12.2391H28.0473M28.0473 12.2391H28.0587M28.0473 12.2391H28.0587M28.0587 12.2391H28.07M28.0587 12.2391H28.07M28.07 12.2391H28.0814M28.07 12.2391H28.0814M28.0814 12.2391H28.0928M28.0814 12.2391H28.0928M28.0928 12.2391H28.1042M28.0928 12.2391H28.1042M28.1042 12.2391H28.1155M28.1042 12.2391H28.1155M28.1155 12.2391H28.1269M28.1155 12.2391H28.1269M28.1269 12.2391H28.1383M28.1269 12.2391H28.1383M28.1383 12.2391H28.1497M28.1383 12.2391H28.1497M28.1497 12.2391H28.161M28.1497 12.2391H28.161M28.161 12.2391H28.1724M28.161 12.2391H28.1724M28.1724 12.2391H28.1838M28.1724 12.2391H28.1838M28.1838 12.2391H28.1952M28.1838 12.2391H28.1952M28.1952 12.2391H28.2066M28.1952 12.2391H28.2066M28.2066 12.2391H28.218M28.2066 12.2391H28.218M28.218 12.2391H28.2294M28.218 12.2391H28.2294M28.2294 12.2391H28.2408M28.2294 12.2391H28.2408M28.2408 12.2391H28.2522M28.2408 12.2391H28.2522M28.2522 12.2391H28.2636M28.2522 12.2391H28.2636M28.2636 12.2391H28.275M28.2636 12.2391H28.275M28.275 12.2391H28.2864M28.275 12.2391H28.2864M28.2864 12.2391H28.2978M28.2864 12.2391H28.2978M28.2978 12.2391H28.3092M28.2978 12.2391H28.3092M28.3092 12.2391H28.3206M28.3092 12.2391H28.3206M28.3206 12.2391H28.332M28.3206 12.2391H28.332M28.332 12.2391H28.3434M28.332 12.2391H28.3434M28.3434 12.2391H28.3548M28.3434 12.2391H28.3548M28.3548 12.2391H28.3662M28.3548 12.2391H28.3662M28.3662 12.2391H28.3776M28.3662 12.2391H28.3776M28.3776 12.2391H28.3891M28.3776 12.2391H28.3891M28.3891 12.2391H28.4005M28.3891 12.2391H28.4005M28.4005 12.2391H28.4119M28.4005 12.2391H28.4119M28.4119 12.2391H28.4233M28.4119 12.2391H28.4233M28.4233 12.2391H28.4348M28.4233 12.2391H28.4348M28.4348 12.2391H28.4462M28.4348 12.2391H28.4462M28.4462 12.2391H28.4576M28.4462 12.2391H28.4576M28.4576 12.2391H28.469M28.4576 12.2391H28.469M28.469 12.2391H28.4805M28.469 12.2391H28.4805M28.4805 12.2391H28.4919M28.4805 12.2391H28.4919M28.4919 12.2391H28.5034M28.4919 12.2391H28.5034M28.5034 12.2391H28.5148M28.5034 12.2391H28.5148M28.5148 12.2391C28.9879 12.2391 29.3411 12.5393 29.3411 12.9535L28.5148 12.2391ZM28.5034 16.9529H28.5148H28.5034ZM28.5034 16.9529H28.4919M28.5034 16.9529H28.4919M28.4919 16.9529H28.4805M28.4919 16.9529H28.4805M28.4805 16.9529H28.469M28.4805 16.9529H28.469M28.469 16.9529H28.4576M28.469 16.9529H28.4576M28.4576 16.9529H28.4462M28.4576 16.9529H28.4462M28.4462 16.9529H28.4348M28.4462 16.9529H28.4348M28.4348 16.9529H28.4233M28.4348 16.9529H28.4233M28.4233 16.9529H28.4119M28.4233 16.9529H28.4119M28.4119 16.9529H28.4005M28.4119 16.9529H28.4005M28.4005 16.9529H28.3891M28.4005 16.9529H28.3891M28.3891 16.9529H28.3776M28.3891 16.9529H28.3776M28.3776 16.9529H28.3662M28.3776 16.9529H28.3662M28.3662 16.9529H28.3548M28.3662 16.9529H28.3548M28.3548 16.9529H28.3434M28.3548 16.9529H28.3434M28.3434 16.9529H28.332M28.3434 16.9529H28.332M28.332 16.9529H28.3206M28.332 16.9529H28.3206M28.3206 16.9529H28.3092M28.3206 16.9529H28.3092M28.3092 16.9529H28.2978M28.3092 16.9529H28.2978M28.2978 16.9529H28.2864M28.2978 16.9529H28.2864M28.2864 16.9529H28.275M28.2864 16.9529H28.275M28.275 16.9529H28.2636M28.275 16.9529H28.2636M28.2636 16.9529H28.2522M28.2636 16.9529H28.2522M28.2522 16.9529H28.2408M28.2522 16.9529H28.2408M28.2408 16.9529H28.2294M28.2408 16.9529H28.2294M28.2294 16.9529H28.218M28.2294 16.9529H28.218M28.218 16.9529H28.2066M28.218 16.9529H28.2066M28.2066 16.9529H28.1952M28.2066 16.9529H28.1952M28.1952 16.9529H28.1838M28.1952 16.9529H28.1838M28.1838 16.9529H28.1724M28.1838 16.9529H28.1724M28.1724 16.9529H28.161M28.1724 16.9529H28.161M28.161 16.9529H28.1497M28.161 16.9529H28.1497M28.1497 16.9529H28.1383M28.1497 16.9529H28.1383M28.1383 16.9529H28.1269M28.1383 16.9529H28.1269M28.1269 16.9529H28.1155M28.1269 16.9529H28.1155M28.1155 16.9529H28.1042M28.1155 16.9529H28.1042M28.1042 16.9529H28.0928M28.1042 16.9529H28.0928M28.0928 16.9529H28.0814M28.0928 16.9529H28.0814M28.0814 16.9529H28.07M28.0814 16.9529H28.07M28.07 16.9529H28.0587M28.07 16.9529H28.0587M28.0587 16.9529H28.0473M28.0587 16.9529H28.0473M28.0473 16.9529H28.0359M28.0473 16.9529H28.0359M28.0359 16.9529H28.0246M28.0359 16.9529H28.0246M28.0246 16.9529H28.0132M28.0246 16.9529H28.0132M28.0132 16.9529H28.0019M28.0132 16.9529H28.0019M28.0019 16.9529H27.9905M28.0019 16.9529H27.9905M27.9905 16.9529H27.9792M27.9905 16.9529H27.9792M27.9792 16.9529H27.9678M27.9792 16.9529H27.9678M27.9678 16.9529H27.9564M27.9678 16.9529H27.9564M27.9564 16.9529H27.9451M27.9564 16.9529H27.9451M27.9451 16.9529H27.9337M27.9451 16.9529H27.9337M27.9337 16.9529H27.9224M27.9337 16.9529H27.9224M27.9224 16.9529H27.9111M27.9224 16.9529H27.9111M27.9111 16.9529H27.8997M27.9111 16.9529H27.8997M27.8997 16.9529H27.8884M27.8997 16.9529H27.8884M27.8884 16.9529H27.877M27.8884 16.9529H27.877M27.877 16.9529H27.8657M27.877 16.9529H27.8657M27.8657 16.9529H27.8544M27.8657 16.9529H27.8544M27.8544 16.9529H27.843M27.8544 16.9529H27.843M27.843 16.9529H27.8317M27.843 16.9529H27.8317M27.8317 16.9529H27.8203M27.8317 16.9529H27.8203M27.8203 16.9529H27.809M27.8203 16.9529H27.809M27.809 16.9529H27.7977M27.809 16.9529H27.7977M27.7977 16.9529H27.7864M27.7977 16.9529H27.7864M27.7864 16.9529H27.775M27.7864 16.9529H27.775M27.775 16.9529H27.7637M27.775 16.9529H27.7637M27.7637 16.9529H27.7524M27.7637 16.9529H27.7524M27.7524 16.9529H27.7411M27.7524 16.9529H27.7411M27.7411 16.9529H27.7297M27.7411 16.9529H27.7297M27.7297 16.9529H27.7184M27.7297 16.9529H27.7184M27.7184 16.9529H27.7071M27.7184 16.9529H27.7071M27.7071 16.9529H27.6958M27.7071 16.9529H27.6958M27.6958 16.9529H27.6845M27.6958 16.9529H27.6845M27.6845 16.9529H27.6732M27.6845 16.9529H27.6732M27.6732 16.9529H27.6618M27.6732 16.9529H27.6618M27.6618 16.9529H27.6505M27.6618 16.9529H27.6505M27.6505 16.9529H27.6392M27.6505 16.9529H27.6392M27.6392 16.9529H27.6279M27.6392 16.9529H27.6279M27.6279 16.9529H27.6166M27.6279 16.9529H27.6166M27.6166 16.9529H27.6053M27.6166 16.9529H27.6053M27.6053 16.9529H27.594M27.6053 16.9529H27.594M27.594 16.9529H27.5827M27.594 16.9529H27.5827M27.5827 16.9529H27.5714M27.5827 16.9529H27.5714M27.5714 16.9529H27.5601M27.5714 16.9529H27.5601M27.5601 16.9529H27.5488M27.5601 16.9529H27.5488M27.5488 16.9529H27.5375M27.5488 16.9529H27.5375M27.5375 16.9529H27.5262M27.5375 16.9529H27.5262M27.5262 16.9529H27.5149M27.5262 16.9529H27.5149M27.5149 16.9529H27.5036M27.5149 16.9529H27.5036M27.5036 16.9529H27.4923M27.5036 16.9529H27.4923M27.4923 16.9529H27.481M27.4923 16.9529H27.481M27.481 16.9529H27.4698M27.481 16.9529H27.4698M27.4698 16.9529H27.4585M27.4698 16.9529H27.4585M27.4585 16.9529H27.4472M27.4585 16.9529H27.4472M27.4472 16.9529H27.4359M27.4472 16.9529H27.4359M27.4359 16.9529H27.4246M27.4359 16.9529H27.4246M27.4246 16.9529H27.4133M27.4246 16.9529H27.4133M27.4133 16.9529H27.402M27.4133 16.9529H27.402M27.402 16.9529H27.3908M27.402 16.9529H27.3908M27.3908 16.9529H27.3795M27.3908 16.9529H27.3795M27.3795 16.9529H27.3682M27.3795 16.9529H27.3682M27.3682 16.9529H27.3569M27.3682 16.9529H27.3569M27.3569 16.9529H27.3457M27.3569 16.9529H27.3457M27.3457 16.9529H27.3344M27.3457 16.9529H27.3344M27.3344 16.9529H27.3231M27.3344 16.9529H27.3231M27.3231 16.9529H27.3118M27.3231 16.9529H27.3118M27.3118 16.9529H27.3006M27.3118 16.9529H27.3006M27.3006 16.9529H27.2893M27.3006 16.9529H27.2893M27.2893 16.9529H27.278M27.2893 16.9529H27.278M27.278 16.9529H27.2668M27.278 16.9529H27.2668M27.2668 16.9529H27.2555M27.2668 16.9529H27.2555M27.2555 16.9529H27.2442M27.2555 16.9529H27.2442M27.2442 16.9529H27.233M27.2442 16.9529H27.233M27.233 16.9529H27.2217M27.233 16.9529H27.2217M27.2217 16.9529H27.2105M27.2217 16.9529H27.2105M27.2105 16.9529H27.1992M27.2105 16.9529H27.1992M27.1992 16.9529H27.1879M27.1992 16.9529H27.1879M27.1879 16.9529H27.1767M27.1879 16.9529H27.1767M27.1767 16.9529H27.1654M27.1767 16.9529H27.1654M27.1654 16.9529H27.1542M27.1654 16.9529H27.1542M27.1542 16.9529H27.1429M27.1542 16.9529H27.1429M27.1429 16.9529H27.1317M27.1429 16.9529H27.1317M27.1317 16.9529H27.1204M27.1317 16.9529H27.1204M27.1204 16.9529H27.1092M27.1204 16.9529H27.1092M27.1092 16.9529H27.0979M27.1092 16.9529H27.0979M27.0979 16.9529H27.0867M27.0979 16.9529H27.0867M27.0867 16.9529H27.0754M27.0867 16.9529H27.0754M27.0754 16.9529H27.0642M27.0754 16.9529H27.0642M27.0642 16.9529H27.0529M27.0642 16.9529H27.0529M27.0529 16.9529H27.0417M27.0529 16.9529H27.0417M27.0417 16.9529H27.0304M27.0417 16.9529H27.0304M27.0304 16.9529H27.0192M27.0304 16.9529H27.0192M27.0192 16.9529H27.0079M27.0192 16.9529H27.0079M27.0079 16.9529H26.9967M27.0079 16.9529H26.9967M26.9967 16.9529H26.9855M26.9967 16.9529H26.9855M26.9855 16.9529H26.9742M26.9855 16.9529H26.9742M26.9742 16.9529H26.963M26.9742 16.9529H26.963M26.963 16.9529H26.9517M26.963 16.9529H26.9517M26.9517 16.9529H26.9405M26.9517 16.9529H26.9405M26.9405 16.9529H26.9293M26.9405 16.9529H26.9293M26.9293 16.9529H26.918M26.9293 16.9529H26.918M26.918 16.9529H26.9068M26.918 16.9529H26.9068M26.9068 16.9529H26.8956M26.9068 16.9529H26.8956M26.8956 16.9529H26.8843M26.8956 16.9529H26.8843M26.8843 16.9529H26.8731M26.8843 16.9529H26.8731M26.8731 16.9529H26.8619M26.8731 16.9529H26.8619M26.8619 16.9529H26.8507M26.8619 16.9529H26.8507M26.8507 16.9529H26.8394M26.8507 16.9529H26.8394M26.8394 16.9529H26.8282M26.8394 16.9529H26.8282M26.8282 16.9529H26.817M26.8282 16.9529H26.817M26.817 16.9529H26.8057M26.817 16.9529H26.8057M26.8057 16.9529H26.7945M26.8057 16.9529H26.7945M26.7945 16.9529H26.7833M26.7945 16.9529H26.7833M26.7833 16.9529H26.7721M26.7833 16.9529H26.7721M26.7721 16.9529H26.7609M26.7721 16.9529H26.7609M26.7609 16.9529H26.7496M26.7609 16.9529H26.7496M26.7496 16.9529H26.7384M26.7496 16.9529H26.7384M26.7384 16.9529H26.7272M26.7384 16.9529H26.7272M26.7272 16.9529H26.716M26.7272 16.9529H26.716M26.716 16.9529H26.7048M26.716 16.9529H26.7048M26.7048 16.9529H26.6935M26.7048 16.9529H26.6935M26.6935 16.9529H26.6823M26.6935 16.9529H26.6823M26.6823 16.9529H26.6711M26.6823 16.9529H26.6711M26.6711 16.9529H26.6599M26.6711 16.9529H26.6599M26.6599 16.9529H26.6487M26.6599 16.9529H26.6487M26.6487 16.9529H26.6375M26.6487 16.9529H26.6375M26.6375 16.9529H26.6263M26.6375 16.9529H26.6263M26.6263 16.9529H26.615M26.6263 16.9529H26.615M26.615 16.9529H26.6038M26.615 16.9529H26.6038M26.6038 16.9529H26.5926M26.6038 16.9529H26.5926M26.5926 16.9529H26.5814M26.5926 16.9529H26.5814M26.5814 16.9529H26.5702M26.5814 16.9529H26.5702M26.5702 16.9529H26.559M26.5702 16.9529H26.559M26.559 16.9529H26.5478M26.559 16.9529H26.5478M26.5478 16.9529H26.5366M26.5478 16.9529H26.5366M26.5366 16.9529H26.5254M26.5366 16.9529H26.5254M26.5254 16.9529H26.5142M26.5254 16.9529H26.5142M26.5142 16.9529H26.503M26.5142 16.9529H26.503M26.503 16.9529H26.4917M26.503 16.9529H26.4917M26.4917 16.9529H26.4805M26.4917 16.9529H26.4805M26.4805 16.9529H26.4693M26.4805 16.9529H26.4693M26.4693 16.9529H26.4581M26.4693 16.9529H26.4581M26.4581 16.9529H26.4469M26.4581 16.9529H26.4469M26.4469 16.9529H26.4357M26.4469 16.9529H26.4357M26.4357 16.9529H26.4245M26.4357 16.9529H26.4245M26.4245 16.9529H26.4133M26.4245 16.9529H26.4133M26.4133 16.9529H26.4021M26.4133 16.9529H26.4021M26.4021 16.9529H26.3909M26.4021 16.9529H26.3909M26.3909 16.9529H26.3797M26.3909 16.9529H26.3797M26.3797 16.9529H26.3685M26.3797 16.9529H26.3685M26.3685 16.9529H26.3573M26.3685 16.9529H26.3573M26.3573 16.9529H26.3461M26.3573 16.9529H26.3461M26.3461 16.9529H26.3349M26.3461 16.9529H26.3349M26.3349 16.9529H26.3237M26.3349 16.9529H26.3237M26.3237 16.9529H26.3125M26.3237 16.9529H26.3125M26.3125 16.9529H26.3013M26.3125 16.9529H26.3013M26.3013 16.9529H26.2901M26.3013 16.9529H26.2901M26.2901 16.9529H26.279M26.2901 16.9529H26.279M26.279 16.9529H26.2678M26.279 16.9529H26.2678M26.2678 16.9529H26.2566M26.2678 16.9529H26.2566M26.2566 16.9529H26.2454M26.2566 16.9529H26.2454M26.2454 16.9529H26.2342M26.2454 16.9529H26.2342M26.2342 16.9529H26.223M26.2342 16.9529H26.223M26.223 16.9529H26.2118M26.223 16.9529H26.2118M26.2118 16.9529H26.2006M26.2118 16.9529H26.2006M26.2006 16.9529H26.1894M26.2006 16.9529H26.1894M26.1894 16.9529H26.1782M26.1894 16.9529H26.1782M26.1782 16.9529H26.167M26.1782 16.9529H26.167M26.167 16.9529H26.1558M26.167 16.9529H26.1558M26.1558 16.9529H26.1446M26.1558 16.9529H26.1446M26.1446 16.9529H26.1335M26.1446 16.9529H26.1335M26.1335 16.9529H26.1223M26.1335 16.9529H26.1223M26.1223 16.9529H26.1111M26.1223 16.9529H26.1111M26.1111 16.9529H26.0999M26.1111 16.9529H26.0999M26.0999 16.9529H26.0887M26.0999 16.9529H26.0887M26.0887 16.9529H26.0775M26.0887 16.9529H26.0775M26.0775 16.9529H26.0663M26.0775 16.9529H26.0663M26.0663 16.9529H26.0551M26.0663 16.9529H26.0551M26.0551 16.9529H26.044M26.0551 16.9529H26.044M26.044 16.9529H26.0328M26.044 16.9529H26.0328M26.0328 16.9529H26.0216M26.0328 16.9529H26.0216M26.0216 16.9529H26.0104M26.0216 16.9529H26.0104M26.0104 16.9529H25.9992M26.0104 16.9529H25.9992M25.9992 16.9529H25.988M25.9992 16.9529H25.988M25.988 16.9529H25.9768M25.988 16.9529H25.9768M25.9768 16.9529H25.9657M25.9768 16.9529H25.9657M25.9657 16.9529H25.9545M25.9657 16.9529H25.9545M25.9545 16.9529H25.9433M25.9545 16.9529H25.9433M25.9433 16.9529H25.9321M25.9433 16.9529H25.9321M25.9321 16.9529H25.9209M25.9321 16.9529H25.9209M25.9209 16.9529H25.9097M25.9209 16.9529H25.9097M25.9097 16.9529H25.8985M25.9097 16.9529H25.8985M25.8985 16.9529H25.8874M25.8985 16.9529H25.8874M25.8874 16.9529H25.8762M25.8874 16.9529H25.8762M25.8762 16.9529H25.865M25.8762 16.9529H25.865M25.865 16.9529H25.8538M25.865 16.9529H25.8538M25.8538 16.9529H25.8426M25.8538 16.9529H25.8426M25.8426 16.9529H25.8314M25.8426 16.9529H25.8314M25.8314 16.9529H25.8203H25.8314ZM21.3712 0.7848L21.3713 0.784791L21.3701 0.782604C21.1593 0.371994 20.6316 0.158994 20.1965 0.369586L14.7248 2.86226H3.48521C2.07476 2.86226 0.85 4.0495 0.85 5.43274V23.7593C0.85 25.1494 2.082 26.2433 3.48521 26.2433H25.7633C27.1738 26.2433 28.3098 25.1425 28.3098 23.7593V19.5234L28.3098 19.5004C28.3099 19.2534 28.31 18.9731 28.2229 18.7225H28.5148C29.9252 18.7225 31.15 17.5353 31.15 16.152V12.9535C31.15 11.5634 29.918 10.4695 28.5148 10.4695H28.2108C28.3098 10.191 28.3098 9.95042 28.3098 9.67535V9.66859V9.66048V9.65237V9.64426V9.63615V9.62804V9.61992V9.61181V9.60369V9.59557V9.58745V9.57932V9.57119V9.56307V9.55494V9.5468V9.53867V9.53053V9.5224V9.51426V9.50611V9.49797V9.48983V9.48168V9.47353V9.46538V9.45723V9.44907V9.44092V9.43276V9.4246V9.41644V9.40828V9.40011V9.39195V9.38378V9.37561V9.36744V9.35926V9.35109V9.34291V9.33473V9.32656V9.31837V9.31019V9.30201V9.29382V9.28563V9.27744V9.26925V9.26106V9.25286V9.24467V9.23647V9.22827V9.22007V9.21187V9.20366V9.19546V9.18725V9.17904V9.17083V9.16262V9.15441V9.1462V9.13798V9.12976V9.12154V9.11332V9.1051V9.09688V9.08865V9.08043V9.0722V9.06397V9.05574V9.04751V9.03928V9.03104V9.02281V9.01457V9.00633V8.99809V8.98985V8.98161V8.97336V8.96512V8.95687V8.94862V8.94038V8.93213V8.92387V8.91562V8.90737V8.89911V8.89085V8.8826V8.87434V8.86608V8.85781V8.84955V8.84129V8.83302V8.82475V8.81649V8.80822V8.79995V8.79168V8.78341V8.77513V8.76686V8.75858V8.7503V8.74203V8.73375V8.72547V8.71719V8.7089V8.70062V8.69234V8.68405V8.67576V8.66748V8.65919V8.6509V8.64261V8.63431V8.62602V8.61773V8.60943V8.60114V8.59284V8.58454V8.57625V8.56795V8.55964V8.55134V8.54304V8.53474V8.52643V8.51813V8.50982V8.50152V8.49321V8.4849V8.47659V8.46828V8.45997V8.45166V8.44334V8.43503V8.42671V8.4184V8.41008V8.40177V8.39345V8.38513V8.37681V8.36849V8.36017V8.35185V8.34353V8.3352V8.32688V8.31855V8.31023V8.3019V8.29358V8.28525V8.27692V8.26859V8.26026V8.25193V8.2436V8.23527V8.22694V8.21861V8.21027V8.20194V8.19361V8.18527V8.17694V8.1686V8.16026V8.15193V8.14359V8.13525V8.12691V8.11857V8.11023V8.10189V8.09355V8.08521V8.07687V8.06852V8.06018V8.05184V8.04349V8.03515V8.0268V8.01846V8.01011V8.00177V7.99342V7.98507V7.97673V7.96838V7.96003V7.95168V7.94333V7.93498V7.92664V7.91829V7.90993V7.90158V7.89323V7.88488V7.87653V7.86818V7.85983V7.85147V7.84312V7.83477V7.82642V7.81806V7.80971V7.80135V7.793V7.78465V7.77629V7.76794V7.75958V7.75123V7.74287V7.73452V7.72616V7.7178V7.70945V7.70109V7.69273V7.68438V7.67602V7.66767V7.65931V7.65095V7.64259V7.63424V7.62588V7.61752V7.60917V7.60081V7.59245V7.58409V7.57574V7.56738V7.55902V7.55066V7.5423V7.53395V7.52559V7.51723V7.50887V7.50052V7.49216V7.4838V7.47545V7.46709V7.45873V7.45037V7.44202V7.43366V7.4253V7.41695V7.40859V7.40023V7.39188V7.38352V7.37517V7.36681V7.35845V7.3501V7.34174V7.33339V7.32503V7.31668V7.30832V7.29997V7.29162V7.28326V7.27491V7.26656V7.2582V7.24985V7.2415V7.23315V7.22479V7.21644V7.20809V7.19974V7.19139V7.18304V7.17469V7.16634V7.15799V7.14964V7.14129V7.13295V7.1246V7.11625V7.1079V7.09956V7.09121V7.08287V7.07452V7.06618V7.05783V7.04949V7.04114V7.0328V7.02446V7.01612V7.00778V6.99943V6.99109V6.98275V6.97441V6.96608V6.95774V6.9494V6.94106V6.93273V6.92439V6.91605V6.90772V6.89938V6.89105V6.88272V6.87439V6.86605V6.85772V6.84939V6.84106V6.83273V6.8244V6.81608V6.80775V6.79942V6.7911V6.78277V6.77445V6.76612V6.7578V6.74948V6.74116V6.73283V6.72451V6.7162V6.70788V6.69956V6.69124V6.68293V6.67461V6.6663V6.65798V6.64967V6.64136V6.63305V6.62474V6.61643V6.60812V6.59981V6.5915V6.5832V6.57489V6.56659V6.55828V6.54998V6.54168V6.53338V6.52508V6.51678V6.50848V6.50019V6.49189V6.4836V6.4753V6.46701V6.45872V6.45043V6.44214V6.43385V6.42556V6.41728V6.40899V6.40071V6.39242V6.38414V6.37586V6.36758V6.3593V6.35102V6.34274V6.33447V6.32619V6.31792V6.30965V6.30138V6.29311V6.28484V6.27657V6.2683V6.26004V6.25177V6.24351V6.23525V6.22699V6.21873V6.21047V6.20222V6.19396V6.18571V6.17745V6.1692V6.16095V6.1527V6.14445V6.13621V6.12796V6.11972V6.11147V6.10323V6.09499V6.08676V6.07852V6.07028V6.06205V6.05381V6.04558V6.03735V6.02912V6.0209V6.01267V6.00445V5.99622V5.988V5.97978V5.97156V5.96335V5.95513V5.94691V5.9387V5.93049V5.92228V5.91407V5.90587V5.89766V5.88946V5.88125V5.87305V5.86485V5.85666V5.84846V5.84027V5.83207V5.82388V5.81569V5.80751V5.79932V5.79113V5.78295V5.77477V5.76659V5.75841V5.75024V5.74206V5.73389V5.72572V5.71755V5.70938V5.70121V5.69305V5.68489V5.67672V5.66856V5.66041V5.65225V5.6441V5.63595V5.62779V5.61965V5.6115V5.60335V5.59521V5.58707V5.57893V5.57079V5.56266V5.55452V5.54639V5.53826V5.53013V5.52201V5.51388V5.50576V5.49764V5.48952V5.4814V5.47329V5.46517V5.45706V5.44895V5.44085V5.43274C28.3098 4.05657 27.1808 2.86226 25.7633 2.86226H22.3951L21.3712 0.7848ZM26.0077 10.3838L23.985 10.4695C23.101 10.4696 22.1613 10.5114 21.4408 10.8396C21.0759 11.0058 20.7624 11.2474 20.5413 11.5969C20.3205 11.9461 20.1991 12.3915 20.1991 12.9535V16.152C20.1991 17.6182 21.3315 18.7225 22.7456 18.7225H22.7518H22.758H22.7643H22.7705H22.7767H22.783H22.7892H22.7954H22.8016H22.8079H22.8141H22.8203H22.8265H22.8327H22.8389H22.8452H22.8514H22.8576H22.8638H22.87H22.8762H22.8824H22.8886H22.8948H22.901H22.9071H22.9133H22.9195H22.9257H22.9319H22.9381H22.9442H22.9504H22.9566H22.9628H22.9689H22.9751H22.9813H22.9874H22.9936H22.9998H23.0059H23.0121H23.0182H23.0244H23.0306H23.0367H23.0429H23.049H23.0551H23.0613H23.0674H23.0736H23.0797H23.0858H23.092H23.0981H23.1042H23.1104H23.1165H23.1226H23.1287H23.1349H23.141H23.1471H23.1532H23.1593H23.1654H23.1716H23.1777H23.1838H23.1899H23.196H23.2021H23.2082H23.2143H23.2204H23.2265H23.2326H23.2387H23.2447H23.2508H23.2569H23.263H23.2691H23.2752H23.2813H23.2873H23.2934H23.2995H23.3056H23.3116H23.3177H23.3238H23.3298H23.3359H23.342H23.348H23.3541H23.3601H23.3662H23.3723H23.3783H23.3844H23.3904H23.3965H23.4025H23.4085H23.4146H23.4206H23.4267H23.4327H23.4388H23.4448H23.4508H23.4569H23.4629H23.4689H23.4749H23.481H23.487H23.493H23.499H23.5051H23.5111H23.5171H23.5231H23.5291H23.5351H23.5411H23.5472H23.5532H23.5592H23.5652H23.5712H23.5772H23.5832H23.5892H23.5952H23.6012H23.6072H23.6132H23.6192H23.6251H23.6311H23.6371H23.6431H23.6491H23.6551H23.6611H23.667H23.673H23.679H23.685H23.6909H23.6969H23.7029H23.7089H23.7148H23.7208H23.7268H23.7327H23.7387H23.7446H23.7506H23.7566H23.7625H23.7685H23.7744H23.7804H23.7863H23.7923H23.7982H23.8042H23.8101H23.8161H23.822H23.828H23.8339H23.8398H23.8458H23.8517H23.8577H23.8636H23.8695H23.8755H23.8814H23.8873H23.8932H23.8992H23.9051H23.911H23.9169H23.9229H23.9288H23.9347H23.9406H23.9465H23.9525H23.9584H23.9643H23.9702H23.9761H23.982H23.9879H23.9938H23.9997H24.0056H24.0115H24.0174H24.0233H24.0292H24.0351H24.041H24.0469H24.0528H24.0587H24.0646H24.0705H24.0764H24.0823H24.0882H24.0941H24.1H24.1058H24.1117H24.1176H24.1235H24.1294H24.1352H24.1411H24.147H24.1529H24.1588H24.1646H24.1705H24.1764H24.1822H24.1881H24.194H24.1998H24.2057H24.2116H24.2174H24.2233H24.2292H24.235H24.2409H24.2467H24.2526H24.2585H24.2643H24.2702H24.276H24.2819H24.2877H24.2936H24.2994H24.3053H24.3111H24.317H24.3228H24.3286H24.3345H24.3403H24.3462H24.352H24.3579H24.3637H24.3695H24.3754H24.3812H24.387H24.3929H24.3987H24.4045H24.4104H24.4162H24.422H24.4279H24.4337H24.4395H24.4453H24.4512H24.457H24.4628H24.4686H24.4744H24.4803H24.4861H24.4919H24.4977H24.5035H24.5093H24.5152H24.521H24.5268H24.5326H24.5384H24.5442H24.55H24.5558H24.5616H24.5675H24.5733H24.5791H24.5849H24.5907H24.5965H24.6023H24.6081H24.6139H24.6197H24.6255H24.6313H24.6371H24.6429H24.6487H24.6545H24.6603H24.6661H24.6718H24.6776H24.6834H24.6892H24.695H24.7008H24.7066H24.7124H24.7182H24.7239H24.7297H24.7355H24.7413H24.7471H24.7529H24.7586H24.7644H24.7702H24.776H24.7818H24.7875H24.7933H24.7991H24.8049H24.8107H24.8164H24.8222H24.828H24.8337H24.8395H24.8453H24.8511H24.8568H24.8626H24.8684H24.8741H24.8799H24.8857H24.8914H24.8972H24.903H24.9087H24.9145H24.9203H24.926H24.9318H24.9376H24.9433H24.9491H24.9548H24.9606H24.9664H24.9721H24.9779H24.9836H24.9894H24.9951H25.0009H25.0067H25.0124H25.0182H25.0239H25.0297H25.0354H25.0412H25.0469H25.0527H25.0584H25.0642H25.0699H25.0757H25.0814H25.0872H25.0929H25.0987H25.1044H25.1102H25.1159H25.1217H25.1274H25.1332H25.1389H25.1446H25.1504H25.1561H25.1619H25.1676H25.1734H25.1791H25.1848H25.1906H25.1963H25.2021H25.2078H25.2135H25.2193H25.225H25.2308H25.2365H25.2422H25.248H25.2537H25.2594H25.2652H25.2709H25.2766H25.2824H25.2881H25.2938H25.2996H25.3053H25.3111H25.3168H25.3225H25.3282H25.334H25.3397H25.3454H25.3512H25.3569H25.3626H25.3684H25.3741H25.3798H25.3856H25.3913H25.397H25.4027H25.4085H25.4142H25.4199H25.4257H25.4314H25.4371H25.4428H25.4486H25.4543H25.46H25.4657H25.4715H25.4772H25.4829H25.4886H25.4944H25.5001H25.5058H25.5115H25.5173H25.523H25.5287H25.5344H25.5402H25.5459H25.5516H25.5573H25.5631H25.5688H25.5745H25.5802H25.586H25.5917H25.5974H25.6031H25.6088H25.6146H25.6203H25.626H25.6317H25.6374H25.6432H25.6489H25.6546H25.6603H25.6661H25.6718H25.6775H25.6832H25.6889H25.6947H25.7004H25.7061H25.7118H25.7175H25.7233H25.729H25.7347H25.7404H25.7461H25.7519H25.7576H25.7633C26.2168 18.7225 26.5896 19.0913 26.5896 19.5234V23.7593C26.5896 24.1914 26.2168 24.5602 25.7633 24.5602H3.48521C3.03175 24.5602 2.65888 24.1914 2.65888 23.7593V5.43274C2.65888 5.00061 3.03175 4.63184 3.48521 4.63184H10.9612L8.77803 5.62852H4.72781C4.20494 5.62852 3.77899 6.03776 3.77899 6.55654C3.77899 6.99978 4.2166 7.3981 4.72781 7.3981H26.5896V9.66859C26.5896 10.0127 26.3049 10.3048 26.0077 10.3838ZM21.7899 5.62852H12.9577L20.1037 2.34407L21.7899 5.62852ZM23.265 4.63184H25.7633C26.2168 4.63184 26.5896 5.00061 26.5896 5.43274V5.62852H23.8108L23.265 4.63184Z" fill="#BABCBF" stroke="#BABCBF" stroke-width="0.3"/>
<circle cx="26" cy="14.4219" r="0.85" fill="#BABCBF" stroke="#BABCBF" stroke-width="0.3"/>
<path d="M14.3633 5.15228L19.7881 2.74935L21.1442 5.15239L14.3633 5.15228Z" fill="#BABCBF" stroke="#BABCBF"/>
</svg>
