<svg width="14" height="13" viewBox="0 0 14 13" fill="none" xmlns="http://www.w3.org/2000/svg">
<path d="M0 12.3272L7 0.236328L14 12.3272H0ZM7 10.4181C7.1803 10.4181 7.33144 10.3572 7.45341 10.2352C7.57538 10.1132 7.63636 9.96209 7.63636 9.78178C7.63636 9.60148 7.57538 9.45034 7.45341 9.32837C7.33144 9.2064 7.1803 9.14542 7 9.14542C6.8197 9.14542 6.66856 9.2064 6.54659 9.32837C6.42462 9.45034 6.36364 9.60148 6.36364 9.78178C6.36364 9.96209 6.42462 10.1132 6.54659 10.2352C6.66856 10.3572 6.8197 10.4181 7 10.4181ZM6.36364 8.50906H7.63636V5.32724H6.36364V8.50906Z" fill="#EF3B3B"/>
</svg>
