<svg width="20" height="20" viewBox="0 0 20 20" fill="none" xmlns="http://www.w3.org/2000/svg">
<mask id="mask0_675_5566" style="mask-type:alpha" maskUnits="userSpaceOnUse" x="0" y="0" width="20" height="20">
<rect width="20" height="20" fill="#D9D9D9"/>
<rect x="0.416667" y="0.416667" width="19.1667" height="19.1667" stroke="black" stroke-opacity="0.05" stroke-width="0.833333"/>
</mask>
<g mask="url(#mask0_675_5566)">
<path d="M4.42316 17.9166C4.00222 17.9166 3.64591 17.7708 3.35425 17.4791C3.06258 17.1875 2.91675 16.8311 2.91675 16.4102V5.25641C2.91675 4.83547 3.06258 4.47916 3.35425 4.1875C3.64591 3.89583 4.00222 3.74999 4.42316 3.74999H5.57702V1.98718H6.85904V3.74999H13.1731V1.98718H14.4231V3.74999H15.577C15.9979 3.74999 16.3542 3.89583 16.6459 4.1875C16.9375 4.47916 17.0834 4.83547 17.0834 5.25641V16.4102C17.0834 16.8311 16.9375 17.1875 16.6459 17.4791C16.3542 17.7708 15.9979 17.9166 15.577 17.9166H4.42316ZM4.42316 16.6666H15.577C15.6411 16.6666 15.6998 16.6399 15.7533 16.5865C15.8067 16.5331 15.8334 16.4743 15.8334 16.4102V8.58975H4.16673V16.4102C4.16673 16.4743 4.19344 16.5331 4.24685 16.5865C4.30028 16.6399 4.35905 16.6666 4.42316 16.6666ZM4.16673 7.33977H15.8334V5.25641C15.8334 5.1923 15.8067 5.13353 15.7533 5.0801C15.6998 5.02668 15.6411 4.99997 15.577 4.99997H4.42316C4.35905 4.99997 4.30028 5.02668 4.24685 5.0801C4.19344 5.13353 4.16673 5.1923 4.16673 5.25641V7.33977ZM10.0001 11.7307C9.796 11.7307 9.62213 11.6589 9.47844 11.5152C9.33474 11.3715 9.26289 11.1976 9.26289 10.9936C9.26289 10.7895 9.33474 10.6156 9.47844 10.472C9.62213 10.3283 9.796 10.2564 10.0001 10.2564C10.2041 10.2564 10.378 10.3283 10.5217 10.472C10.6654 10.6156 10.7372 10.7895 10.7372 10.9936C10.7372 11.1976 10.6654 11.3715 10.5217 11.5152C10.378 11.6589 10.2041 11.7307 10.0001 11.7307ZM6.66673 11.7307C6.46267 11.7307 6.2888 11.6589 6.1451 11.5152C6.00141 11.3715 5.92956 11.1976 5.92956 10.9936C5.92956 10.7895 6.00141 10.6156 6.1451 10.472C6.2888 10.3283 6.46267 10.2564 6.66673 10.2564C6.87078 10.2564 7.04466 10.3283 7.18835 10.472C7.33205 10.6156 7.40389 10.7895 7.40389 10.9936C7.40389 11.1976 7.33205 11.3715 7.18835 11.5152C7.04466 11.6589 6.87078 11.7307 6.66673 11.7307ZM13.3334 11.7307C13.1293 11.7307 12.9555 11.6589 12.8118 11.5152C12.6681 11.3715 12.5962 11.1976 12.5962 10.9936C12.5962 10.7895 12.6681 10.6156 12.8118 10.472C12.9555 10.3283 13.1293 10.2564 13.3334 10.2564C13.5374 10.2564 13.7113 10.3283 13.855 10.472C13.9987 10.6156 14.0706 10.7895 14.0706 10.9936C14.0706 11.1976 13.9987 11.3715 13.855 11.5152C13.7113 11.6589 13.5374 11.7307 13.3334 11.7307ZM10.0001 15C9.796 15 9.62213 14.9281 9.47844 14.7844C9.33474 14.6407 9.26289 14.4669 9.26289 14.2628C9.26289 14.0588 9.33474 13.8849 9.47844 13.7412C9.62213 13.5975 9.796 13.5256 10.0001 13.5256C10.2041 13.5256 10.378 13.5975 10.5217 13.7412C10.6654 13.8849 10.7372 14.0588 10.7372 14.2628C10.7372 14.4669 10.6654 14.6407 10.5217 14.7844C10.378 14.9281 10.2041 15 10.0001 15ZM6.66673 15C6.46267 15 6.2888 14.9281 6.1451 14.7844C6.00141 14.6407 5.92956 14.4669 5.92956 14.2628C5.92956 14.0588 6.00141 13.8849 6.1451 13.7412C6.2888 13.5975 6.46267 13.5256 6.66673 13.5256C6.87078 13.5256 7.04466 13.5975 7.18835 13.7412C7.33205 13.8849 7.40389 14.0588 7.40389 14.2628C7.40389 14.4669 7.33205 14.6407 7.18835 14.7844C7.04466 14.9281 6.87078 15 6.66673 15ZM13.3334 15C13.1293 15 12.9555 14.9281 12.8118 14.7844C12.6681 14.6407 12.5962 14.4669 12.5962 14.2628C12.5962 14.0588 12.6681 13.8849 12.8118 13.7412C12.9555 13.5975 13.1293 13.5256 13.3334 13.5256C13.5374 13.5256 13.7113 13.5975 13.855 13.7412C13.9987 13.8849 14.0706 14.0588 14.0706 14.2628C14.0706 14.4669 13.9987 14.6407 13.855 14.7844C13.7113 14.9281 13.5374 15 13.3334 15Z" fill="#003366"/>
<path d="M5.57702 3.76041H5.58744V3.74999V1.9976H6.84862V3.74999V3.76041H6.85904H13.1731H13.1835V3.74999V1.9976H14.4127V3.74999V3.76041H14.4231H15.577C15.9952 3.76041 16.3488 3.90519 16.6385 4.19486C16.9282 4.48453 17.073 4.83817 17.073 5.25641V16.4102C17.073 16.8284 16.9282 17.1821 16.6385 17.4718C16.3488 17.7614 15.9952 17.9062 15.577 17.9062H4.42316C4.00492 17.9062 3.65128 17.7614 3.36161 17.4718C3.07195 17.1821 2.92716 16.8284 2.92716 16.4102V5.25641C2.92716 4.83817 3.07195 4.48453 3.36161 4.19486C3.65128 3.90519 4.00492 3.76041 4.42316 3.76041H5.57702ZM15.8438 8.58975V8.57933H15.8334H4.16673H4.15631V8.58975V16.4102C4.15631 16.4776 4.18449 16.5389 4.23949 16.5939C4.2945 16.6489 4.3558 16.6771 4.42316 16.6771H15.577C15.6443 16.6771 15.7056 16.6489 15.7606 16.5939C15.8156 16.5389 15.8438 16.4776 15.8438 16.4102V8.58975ZM4.15631 7.33977V7.35018H4.16673H15.8334H15.8438V7.33977V5.25641C15.8438 5.18905 15.8156 5.12774 15.7606 5.07274C15.7056 5.01774 15.6443 4.98956 15.577 4.98956H4.42316C4.3558 4.98956 4.2945 5.01774 4.23949 5.07273L4.23949 5.07274C4.18449 5.12774 4.15631 5.18905 4.15631 5.25641V7.33977ZM10.0001 11.7203C9.79875 11.7203 9.62753 11.6496 9.4858 11.5078C9.34407 11.3661 9.27331 11.1949 9.27331 10.9936C9.27331 10.7923 9.34407 10.6211 9.4858 10.4793C9.62753 10.3376 9.79875 10.2668 10.0001 10.2668C10.2014 10.2668 10.3726 10.3376 10.5143 10.4793C10.6561 10.6211 10.7268 10.7923 10.7268 10.9936C10.7268 11.1949 10.6561 11.3661 10.5143 11.5078C10.3726 11.6496 10.2014 11.7203 10.0001 11.7203ZM6.66673 11.7203C6.46542 11.7203 6.2942 11.6496 6.15247 11.5078C6.01074 11.3661 5.93998 11.1949 5.93998 10.9936C5.93998 10.7923 6.01074 10.6211 6.15247 10.4793C6.2942 10.3376 6.46542 10.2668 6.66673 10.2668C6.86803 10.2668 7.03925 10.3376 7.18099 10.4793C7.32272 10.6211 7.39348 10.7923 7.39348 10.9936C7.39348 11.1949 7.32272 11.3661 7.18099 11.5078C7.03925 11.6496 6.86803 11.7203 6.66673 11.7203ZM13.3334 11.7203C13.1321 11.7203 12.9609 11.6496 12.8191 11.5078C12.6774 11.3661 12.6066 11.1949 12.6066 10.9936C12.6066 10.7923 12.6774 10.6211 12.8191 10.4793C12.9609 10.3376 13.1321 10.2668 13.3334 10.2668C13.5347 10.2668 13.7059 10.3376 13.8477 10.4793C13.9894 10.6211 14.0601 10.7923 14.0601 10.9936C14.0601 11.1949 13.9894 11.3661 13.8477 11.5078C13.7059 11.6496 13.5347 11.7203 13.3334 11.7203ZM10.0001 14.9896C9.79875 14.9896 9.62753 14.9188 9.4858 14.7771C9.34407 14.6353 9.27331 14.4641 9.27331 14.2628C9.27331 14.0615 9.34407 13.8903 9.4858 13.7485C9.62753 13.6068 9.79875 13.536 10.0001 13.536C10.2014 13.536 10.3726 13.6068 10.5143 13.7485C10.6561 13.8903 10.7268 14.0615 10.7268 14.2628C10.7268 14.4641 10.6561 14.6353 10.5143 14.7771C10.3726 14.9188 10.2014 14.9896 10.0001 14.9896ZM6.66673 14.9896C6.46542 14.9896 6.2942 14.9188 6.15247 14.7771C6.01074 14.6353 5.93998 14.4641 5.93998 14.2628C5.93998 14.0615 6.01074 13.8903 6.15247 13.7485C6.2942 13.6068 6.46542 13.536 6.66673 13.536C6.86803 13.536 7.03925 13.6068 7.18099 13.7485C7.32272 13.8903 7.39348 14.0615 7.39348 14.2628C7.39348 14.4641 7.32272 14.6353 7.18099 14.7771C7.03925 14.9188 6.86803 14.9896 6.66673 14.9896ZM13.3334 14.9896C13.1321 14.9896 12.9609 14.9188 12.8191 14.7771C12.6774 14.6353 12.6066 14.4641 12.6066 14.2628C12.6066 14.0615 12.6774 13.8903 12.8191 13.7485C12.9609 13.6068 13.1321 13.536 13.3334 13.536C13.5347 13.536 13.7059 13.6068 13.8477 13.7485C13.9894 13.8903 14.0601 14.0615 14.0601 14.2628C14.0601 14.4641 13.9894 14.6353 13.8477 14.7771C13.7059 14.9188 13.5347 14.9896 13.3334 14.9896Z" stroke="black" stroke-opacity="0.05" stroke-width="0.0208333"/>
</g>
</svg>
