<svg xmlns="http://www.w3.org/2000/svg" xmlns:xlink="http://www.w3.org/1999/xlink" version="1.1" width="64.5791pt" height="64.58008pt" viewBox="0 0 64.5791 64.58008">
<defs>
<clipPath id="clip_0">
<path transform="matrix(1,0,0,-1,0,64.58008)" d="M64.57948 32.290338C64.57948 14.457203 50.122877 .000595 32.28974 .000595 14.45661 .000595 0 14.457203 0 32.290338 0 50.123468 14.45661 64.58008 32.28974 64.58008 50.122877 64.58008 64.57948 50.123468 64.57948 32.290338Z" fill-rule="evenodd"/>
</clipPath>
</defs>
<path transform="matrix(1,0,0,-1,16.54004,44.773439)" d="M2.823506-.000687C2.047042-.000687 1.382342 .275782 .829405 .828718 .276468 1.381655 0 2.046356 0 2.822821V19.763857C0 20.540322 .276468 21.20502 .829405 21.757958 1.382342 22.310894 2.047042 22.587363 2.823506 22.587363H7.270529L9.882273 25.41087H18.35279V22.587363H11.117557L8.541107 19.763857H2.823506V2.822821H25.411557V15.528598H28.235064V2.822821C28.235064 2.046356 27.958596 1.381655 27.405659 .828718 26.852723 .275782 26.18802-.000687 25.411557-.000687H2.823506ZM25.411557 19.763857V22.587363H22.58805V25.41087H25.411557V28.234375H28.235064V25.41087H31.05857V22.587363H28.235064V19.763857H25.411557ZM14.117532 4.940449C15.882223 4.940449 17.382212 5.558092 18.617495 6.793375 19.85278 8.02866 20.47042 9.528646 20.47042 11.293339 20.47042 13.058029 19.85278 14.558017 18.617495 15.793302 17.382212 17.028586 15.882223 17.646227 14.117532 17.646227 12.35284 17.646227 10.852853 17.028586 9.617569 15.793302 8.382284 14.558017 7.764643 13.058029 7.764643 11.293339 7.764643 9.528646 8.382284 8.02866 9.617569 6.793375 10.852853 5.558092 12.35284 4.940449 14.117532 4.940449ZM14.117532 7.763956C13.129305 7.763956 12.294018 8.105129 11.61167 8.787476 10.929323 9.469824 10.588149 10.305111 10.588149 11.293339 10.588149 12.281566 10.929323 13.116852 11.61167 13.799199 12.294018 14.481546 13.129305 14.822721 14.117532 14.822721 15.105759 14.822721 15.941047 14.481546 16.623394 13.799199 17.305743 13.116852 17.646916 12.281566 17.646916 11.293339 17.646916 10.305111 17.305743 9.469824 16.623394 8.787476 15.941047 8.105129 15.105759 7.763956 14.117532 7.763956Z" fill="#1c1b1f"/>
<g clip-path="url(#clip_0)">
<path transform="matrix(1,0,0,-1,0,64.58008)" d="M63.69483 32.290338C63.69483 14.945786 49.634294 .885246 32.28974 .885246V-.884056C50.611455-.884056 65.464138 13.968624 65.464138 32.290338H63.69483ZM32.28974 .885246C14.945189 .885246 .88465 14.945786 .88465 32.290338H-.88465C-.88465 13.968624 13.968031-.884056 32.28974-.884056V.885246ZM.88465 32.290338C.88465 49.634889 14.945189 63.695428 32.28974 63.695428V65.46473C13.968031 65.46473-.88465 50.612047-.88465 32.290338H.88465ZM32.28974 63.695428C49.634294 63.695428 63.69483 49.634889 63.69483 32.290338H65.464138C65.464138 50.612047 50.611455 65.46473 32.28974 65.46473V63.695428Z" fill="#babcbf"/>
</g>
</svg>
