<svg width="65" height="65" viewBox="0 0 65 65" fill="none" xmlns="http://www.w3.org/2000/svg">
<g id="Group 38">
<g id="add_a_photo">
<mask id="mask0_353_69636" style="mask-type:alpha" maskUnits="userSpaceOnUse" x="15" y="15" width="35" height="35">
<rect id="Bounding box" x="15.1279" y="15.127" width="33.8821" height="33.8821" fill="#D9D9D9"/>
</mask>
<g mask="url(#mask0_353_69636)">
<path id="add_a_photo_2" d="M19.3635 44.7741C18.5871 44.7741 17.9224 44.4977 17.3694 43.9447C16.8165 43.3918 16.54 42.7271 16.54 41.9506V25.0096C16.54 24.2331 16.8165 23.5684 17.3694 23.0155C17.9224 22.4625 18.5871 22.1861 19.3635 22.1861H23.8106L26.4223 19.3626H34.8928V22.1861H27.6576L25.0811 25.0096H19.3635V41.9506H41.9516V29.2448H44.7751V41.9506C44.7751 42.7271 44.4986 43.3918 43.9457 43.9447C43.3928 44.4977 42.7281 44.7741 41.9516 44.7741H19.3635ZM41.9516 25.0096V22.1861H39.1281V19.3626H41.9516V16.5391H44.7751V19.3626H47.5986V22.1861H44.7751V25.0096H41.9516ZM30.6576 39.833C32.4223 39.833 33.9223 39.2153 35.1575 37.9801C36.3928 36.7448 37.0105 35.2448 37.0105 33.4801C37.0105 31.7154 36.3928 30.2154 35.1575 28.9801C33.9223 27.7449 32.4223 27.1272 30.6576 27.1272C28.8929 27.1272 27.3929 27.7449 26.1576 28.9801C24.9223 30.2154 24.3047 31.7154 24.3047 33.4801C24.3047 35.2448 24.9223 36.7448 26.1576 37.9801C27.3929 39.2153 28.8929 39.833 30.6576 39.833ZM30.6576 37.0095C29.6693 37.0095 28.8341 36.6683 28.1517 35.986C27.4694 35.3036 27.1282 34.4683 27.1282 33.4801C27.1282 32.4919 27.4694 31.6566 28.1517 30.9742C28.8341 30.2919 29.6693 29.9507 30.6576 29.9507C31.6458 29.9507 32.4811 30.2919 33.1634 30.9742C33.8458 31.6566 34.187 32.4919 34.187 33.4801C34.187 34.4683 33.8458 35.3036 33.1634 35.986C32.4811 36.6683 31.6458 37.0095 30.6576 37.0095Z" fill="#1C1B1F"/>
</g>
</g>
<circle id="Ellipse 5" cx="32.2897" cy="32.2897" r="31.8474" stroke="#BABCBF" stroke-width="0.88465"/>
</g>
</svg>
