<svg width="16" height="16" viewBox="0 0 16 16" fill="none" xmlns="http://www.w3.org/2000/svg">
<g id="car_tag">
<mask id="mask0_353_78640" style="mask-type:alpha" maskUnits="userSpaceOnUse" x="0" y="0" width="16" height="16">
<rect id="Bounding box" x="0.5" y="0.8125" width="15" height="15" fill="#D9D9D9"/>
</mask>
<g mask="url(#mask0_353_78640)">
<path id="car_tag_2" d="M4.5625 10.8125C4.82292 10.8125 5.04427 10.7214 5.22656 10.5391C5.40885 10.3568 5.5 10.1354 5.5 9.875C5.5 9.61458 5.40885 9.39323 5.22656 9.21094C5.04427 9.02865 4.82292 8.9375 4.5625 8.9375C4.30208 8.9375 4.08073 9.02865 3.89844 9.21094C3.71615 9.39323 3.625 9.61458 3.625 9.875C3.625 10.1354 3.71615 10.3568 3.89844 10.5391C4.08073 10.7214 4.30208 10.8125 4.5625 10.8125ZM10.1875 10.8125C10.3958 10.8125 10.5833 10.75 10.75 10.625C10.9167 10.5 11.026 10.3385 11.0781 10.1406C10.8698 10.099 10.6719 10.0286 10.4844 9.92969C10.2969 9.83073 10.125 9.70312 9.96875 9.54688L9.57813 9.15625C9.47396 9.23958 9.39323 9.34375 9.33594 9.46875C9.27865 9.59375 9.25 9.72917 9.25 9.875C9.25 10.1354 9.34115 10.3568 9.52344 10.5391C9.70573 10.7214 9.92708 10.8125 10.1875 10.8125ZM3.625 12.6875V13.3125C3.625 13.4896 3.5651 13.638 3.44531 13.7578C3.32552 13.8776 3.17708 13.9375 3 13.9375H2.375C2.19792 13.9375 2.04948 13.8776 1.92969 13.7578C1.8099 13.638 1.75 13.4896 1.75 13.3125V8.3125L3.0625 4.5625C3.125 4.375 3.23698 4.22396 3.39844 4.10938C3.5599 3.99479 3.73958 3.9375 3.9375 3.9375H6.125V4.79688C6.125 4.85938 6.1276 4.92448 6.13281 4.99219C6.13802 5.0599 6.14583 5.125 6.15625 5.1875H4.15625L3.5 7.0625H7.48438L8.73438 8.3125H3V11.4375H11.75V10.1719C11.9792 10.151 12.2005 10.0938 12.4141 10C12.6276 9.90625 12.8229 9.77604 13 9.60938V13.3125C13 13.4896 12.9401 13.638 12.8203 13.7578C12.7005 13.8776 12.5521 13.9375 12.375 13.9375H11.75C11.5729 13.9375 11.4245 13.8776 11.3047 13.7578C11.1849 13.638 11.125 13.4896 11.125 13.3125V12.6875H3.625ZM9.875 4.5625C10.0521 4.5625 10.2005 4.5026 10.3203 4.38281C10.4401 4.26302 10.5 4.11458 10.5 3.9375C10.5 3.76042 10.4401 3.61198 10.3203 3.49219C10.2005 3.3724 10.0521 3.3125 9.875 3.3125C9.69792 3.3125 9.54948 3.3724 9.42969 3.49219C9.3099 3.61198 9.25 3.76042 9.25 3.9375C9.25 4.11458 9.3099 4.26302 9.42969 4.38281C9.54948 4.5026 9.69792 4.5625 9.875 4.5625ZM10.8438 8.65625L7.65625 5.46875C7.57292 5.38542 7.50521 5.28385 7.45312 5.16406C7.40104 5.04427 7.375 4.92188 7.375 4.79688V2.375C7.375 2.11458 7.46615 1.89323 7.64844 1.71094C7.83073 1.52865 8.05208 1.4375 8.3125 1.4375H10.7344C10.8594 1.4375 10.9818 1.46354 11.1016 1.51562C11.2214 1.56771 11.3229 1.63542 11.4062 1.71875L14.5938 4.90625C14.7708 5.08333 14.8594 5.30469 14.8594 5.57031C14.8594 5.83594 14.7708 6.05729 14.5938 6.23438L12.1719 8.65625C11.9948 8.83333 11.7734 8.92188 11.5078 8.92188C11.2422 8.92188 11.0208 8.83333 10.8438 8.65625ZM11.5156 7.5625L13.5 5.57812L10.6094 2.6875H8.625V4.67188L11.5156 7.5625Z" fill="#4D535A"/>
</g>
</g>
</svg>
