<svg width="73" height="73" viewBox="0 0 73 73" fill="none" xmlns="http://www.w3.org/2000/svg">
<g id="Group 2226">
<circle id="Ellipse 3" cx="36.1687" cy="36.1325" r="36" fill="white"/>
<g id="beenhere">
<mask id="mask0_4_2659" style="mask-type:alpha" maskUnits="userSpaceOnUse" x="17" y="15" width="37" height="37">
<rect id="Bounding box" x="17.8373" y="15.1325" width="36" height="36" fill="#D9D9D9"/>
</mask>
<g mask="url(#mask0_4_2659)">
<path id="beenhere_2" d="M35.8373 49.6325L25.0373 41.5325C24.6623 41.2575 24.3686 40.9075 24.1561 40.4825C23.9436 40.0575 23.8373 39.6075 23.8373 39.1325V21.1325C23.8373 20.3075 24.1311 19.6013 24.7186 19.0138C25.3061 18.4263 26.0123 18.1325 26.8373 18.1325H44.8373C45.6623 18.1325 46.3686 18.4263 46.9561 19.0138C47.5436 19.6013 47.8373 20.3075 47.8373 21.1325V39.1325C47.8373 39.6075 47.7311 40.0575 47.5186 40.4825C47.3061 40.9075 47.0123 41.2575 46.6373 41.5325L35.8373 49.6325ZM35.8373 45.8825L44.8373 39.1325V21.1325H26.8373V39.1325L35.8373 45.8825ZM34.2623 37.6325L42.7373 29.1575L40.6373 26.9825L34.2623 33.3575L31.1123 30.2075L28.9373 32.3075L34.2623 37.6325Z" fill="#003366"/>
</g>
</g>
</g>
</svg>
