<svg width="77" height="77" viewBox="0 0 77 77" fill="none" xmlns="http://www.w3.org/2000/svg">
<g id="Group 353">
<rect id="Rectangle 621" width="77" height="77" rx="6" fill="#E8F3FF"/>
<g id="destruction">
<mask id="mask0_2528_5744" style="mask-type:alpha" maskUnits="userSpaceOnUse" x="19" y="20" width="39" height="39">
<rect id="Bounding box" x="19" y="20" width="39" height="39" fill="#D9D9D9"/>
</mask>
<g mask="url(#mask0_2528_5744)">
<path id="destruction_2" d="M27.125 55.75C26.2312 55.75 25.4661 55.4318 24.8297 54.7953C24.1932 54.1589 23.875 53.3937 23.875 52.5V46C23.875 45.1063 24.1932 44.3411 24.8297 43.7047C25.4661 43.0682 26.2312 42.75 27.125 42.75H49.875C50.7687 42.75 51.5339 43.0682 52.1703 43.7047C52.8068 44.3411 53.125 45.1063 53.125 46V52.5C53.125 53.3937 52.8068 54.1589 52.1703 54.7953C51.5339 55.4318 50.7687 55.75 49.875 55.75H27.125ZM27.125 52.5H49.875V46H27.125V52.5ZM29.6031 40.3125L21.4375 35.6813L31.1875 34.0563L28.5469 24.5094L36.6313 30.2375L41.5063 21.625L43.1313 31.375L52.6781 28.7344L46.95 36.8188L53.125 40.3125H46.5437L42.2375 37.875L44.7563 34.3L40.5312 35.4781L39.8 31.1719L37.6875 34.95L34.1125 32.4313L35.2906 36.6562L30.9844 37.3875L35.8594 40.3125H29.6031Z" fill="#1C1B1F"/>
</g>
</g>
</g>
</svg>
