<svg width="32" height="32" viewBox="0 0 32 32" fill="none" xmlns="http://www.w3.org/2000/svg">
<g id="difference">
<mask id="mask0_54_5331" style="mask-type:alpha" maskUnits="userSpaceOnUse" x="0" y="0" width="32" height="32">
<rect id="Bounding box" width="32" height="32" fill="#D9D9D9"/>
</mask>
<g mask="url(#mask0_54_5331)">
<path id="difference_2" d="M16.667 14.6666H19.3337V11.9999H22.0003V9.33325H19.3337V6.66659H16.667V9.33325H14.0003V11.9999H16.667V14.6666ZM14.0003 19.9999H22.0003V17.3333H14.0003V19.9999ZM10.667 25.3333C9.93366 25.3333 9.30588 25.0721 8.78366 24.5499C8.26144 24.0277 8.00033 23.3999 8.00033 22.6666V3.99992C8.00033 3.26659 8.26144 2.63881 8.78366 2.11659C9.30588 1.59436 9.93366 1.33325 10.667 1.33325H20.0003L28.0003 9.33325V22.6666C28.0003 23.3999 27.7392 24.0277 27.217 24.5499C26.6948 25.0721 26.067 25.3333 25.3337 25.3333H10.667ZM10.667 22.6666H25.3337V10.6666L18.667 3.99992H10.667V22.6666ZM5.33366 30.6666C4.60033 30.6666 3.97255 30.4055 3.45033 29.8833C2.9281 29.361 2.66699 28.7333 2.66699 27.9999V9.33325H5.33366V27.9999H20.0003V30.6666H5.33366Z" fill="#003366"/>
</g>
</g>
</svg>
