<svg width="34" height="34" viewBox="0 0 34 34" fill="none" xmlns="http://www.w3.org/2000/svg">
<g id="electric_car">
<mask id="mask0_71_953" style="mask-type:alpha" maskUnits="userSpaceOnUse" x="0" y="0" width="34" height="34">
<rect id="Bounding box" width="34" height="34" fill="#D9D9D9"/>
</mask>
<g mask="url(#mask0_71_953)">
<path id="electric_car_2" d="M8.5 21.2501V22.6667C8.5 23.0681 8.36424 23.4046 8.09271 23.6761C7.82118 23.9477 7.48472 24.0834 7.08333 24.0834H5.66667C5.26528 24.0834 4.92882 23.9477 4.65729 23.6761C4.38576 23.4046 4.25 23.0681 4.25 22.6667V11.3334L7.225 2.83341C7.36667 2.40841 7.62049 2.06605 7.98646 1.80633C8.35243 1.54661 8.75972 1.41675 9.20833 1.41675H24.7917C25.2403 1.41675 25.6476 1.54661 26.0135 1.80633C26.3795 2.06605 26.6333 2.40841 26.775 2.83341L29.75 11.3334V22.6667C29.75 23.0681 29.6142 23.4046 29.3427 23.6761C29.0712 23.9477 28.7347 24.0834 28.3333 24.0834H26.9167C26.5153 24.0834 26.1788 23.9477 25.9073 23.6761C25.6358 23.4046 25.5 23.0681 25.5 22.6667V21.2501H8.5ZM8.21667 8.50008H25.7833L24.2958 4.25008H9.70417L8.21667 8.50008ZM10.625 17.0001C11.2153 17.0001 11.717 16.7935 12.1302 16.3803C12.5434 15.9671 12.75 15.4654 12.75 14.8751C12.75 14.2848 12.5434 13.7831 12.1302 13.3699C11.717 12.9567 11.2153 12.7501 10.625 12.7501C10.0347 12.7501 9.53299 12.9567 9.11979 13.3699C8.7066 13.7831 8.5 14.2848 8.5 14.8751C8.5 15.4654 8.7066 15.9671 9.11979 16.3803C9.53299 16.7935 10.0347 17.0001 10.625 17.0001ZM23.375 17.0001C23.9653 17.0001 24.467 16.7935 24.8802 16.3803C25.2934 15.9671 25.5 15.4654 25.5 14.8751C25.5 14.2848 25.2934 13.7831 24.8802 13.3699C24.467 12.9567 23.9653 12.7501 23.375 12.7501C22.7847 12.7501 22.283 12.9567 21.8698 13.3699C21.4566 13.7831 21.25 14.2848 21.25 14.8751C21.25 15.4654 21.4566 15.9671 21.8698 16.3803C22.283 16.7935 22.7847 17.0001 23.375 17.0001ZM18.4167 32.5834L9.91667 28.3334H15.5833V25.5001L24.0833 29.7501H18.4167V32.5834ZM7.08333 18.4167H26.9167V11.3334H7.08333V18.4167Z" fill="#003366"/>
</g>
</g>
</svg>
