<svg width="77" height="77" viewBox="0 0 77 77" fill="none" xmlns="http://www.w3.org/2000/svg">
<g id="Group 352">
<rect id="Rectangle 620" width="77" height="77" rx="6" fill="#E8F3FF"/>
<path id="Vector" d="M55.8098 35.8053H54.0831H52.5329H50.8062V34.0787V34.0725V34.0663V34.0602V34.054V34.0479V34.0417V34.0356V34.0295V34.0234V34.0173V34.0112V34.0051V33.9991V33.993V33.987V33.9809V33.9749V33.9689V33.9629V33.9569V33.9509V33.9449V33.9389V33.9329V33.927V33.921V33.9151V33.9092V33.9032V33.8973V33.8914V33.8855V33.8796V33.8738V33.8679V33.862V33.8562V33.8504V33.8445V33.8387V33.8329V33.8271V33.8213V33.8155V33.8097V33.804V33.7982V33.7925V33.7867V33.781V33.7753V33.7696V33.7639V33.7582V33.7525V33.7469V33.7412V33.7356V33.7299V33.7243V33.7187V33.7131V33.7074V33.7019V33.6963V33.6907V33.6851V33.6796V33.674V33.6692H48.6732H46.9465V31.9425C46.9465 29.506 46.3329 28.6805 46.096 28.4477C45.9755 28.3292 45.88 28.289 45.8422 28.276H39.8274H38.1007V26.5493V24.7107V23.7267H34.0644V24.7107V26.5493V28.276H32.3377V26.5493L32.3377 28.276H32.3376H32.3374H32.3371H32.3368H32.3363H32.3358H32.3353H32.3346H32.3339H32.3331H32.3322H32.3312H32.3302H32.3291H32.3279H32.3266H32.3253H32.3239H32.3224H32.3209H32.3192H32.3175H32.3158H32.3139H32.312H32.31H32.3079H32.3058H32.3036H32.3013H32.2989H32.2965H32.294H32.2914H32.2888H32.2861H32.2833H32.2804H32.2775H32.2745H32.2714H32.2683H32.2651H32.2618H32.2584H32.255H32.2515H32.248H32.2443H32.2406H32.2369H32.2331H32.2292H32.2252H32.2211H32.217H32.2129H32.2086H32.2043H32.2H32.1955H32.191H32.1864H32.1818H32.1771H32.1723H32.1675H32.1626H32.1576H32.1526H32.1475H32.1424H32.1371H32.1318H32.1265H32.1211H32.1156H32.1101H32.1044H32.0988H32.093H32.0872H32.0814H32.0755H32.0695H32.0634H32.0573H32.0512H32.0449H32.0386H32.0323H32.0259H32.0194H32.0128H32.0063H31.9996H31.9929H31.9861H31.9793H31.9724H31.9654H31.9584H31.9513H31.9442H31.937H31.9297H31.9224H31.9151H31.9076H31.9002H31.8926H31.885H31.8774H31.8696H31.8619H31.854H31.8462H31.8382H31.8302H31.8222H31.8141H31.8059H31.7977H31.7894H31.7811H31.7727H31.7643H31.7558H31.7472H31.7386H31.73H31.7213H31.7125H31.7037H31.6948H31.6859H31.6769H31.6679H31.6588H31.6497H31.6405H31.6313H31.622H31.6126H31.6032H31.5938H31.5843H31.5747H31.5652H31.5555H31.5458H31.5361H31.5263H31.5164H31.5065H31.4966H31.4866H31.4765H31.4664H31.4563H31.4461H31.4359H31.4256H31.4152H31.4049H31.3944H31.3839H31.3734H31.3629H31.3522H31.3416H31.3309H31.3201H31.3093H31.2984H31.2875H31.2766H31.2656H31.2546H31.2435H31.2324H31.2212H31.21H31.1987H31.1874H31.1761H31.1647H31.1533H31.1418H31.1303H31.1187H31.1071H31.0954H31.0837H31.072H31.0602H31.0484H31.0366H31.0247H31.0127H31.0007H30.9887H30.9766H30.9645H30.9524H30.9402H30.928H30.9157H30.9034H30.891H30.8787H30.8662H30.8538H30.8413H30.8287H30.8161H30.8035H30.7908H30.7781H30.7654H30.7526H30.7398H30.727H30.7141H30.7012H30.6882H30.6752H30.6622H30.6491H30.636H30.6229H30.6097H30.5965H30.5832H30.57H30.5566H30.5433H30.5299H30.5165H30.503H30.4895H30.476H30.4625H30.4489H30.4353H30.4216H30.4079H30.3942H30.3804H30.3666H30.3528H30.339H30.3251H30.3112H30.2972H30.2833H30.2692H30.2552H30.2411H30.227H30.2129H30.1987H30.1845H30.1703H30.1561H30.1418H30.1275H30.1131H30.0988H30.0844H30.07H30.0555H30.041H30.0265H30.012H29.9974H29.9828H29.9682H29.9535H29.9389H29.9242H29.9094H29.8947H29.8799H29.8651H29.8502H29.8354H29.8205H29.8056H29.7907H29.7757H29.7607H29.7457H29.7307H29.7156H29.7005H29.6854H29.6703H29.6551H29.64H29.6248H29.6095H29.5943H29.579H29.5637H29.5484H29.5331H29.5177H29.5023H29.4869H29.4715H29.4561H29.4406H29.4251H29.4096H29.3941H29.3785H29.363H29.3474H29.3318H29.3161H29.3005H29.2848H29.2692H29.2535H29.2377H29.222H29.2062H29.1905H29.1747H29.1588H29.143H29.1272H29.1113H29.0954H29.0795H29.0636H29.0477H29.0317H29.0158H28.9998H28.9838H28.9678H28.9518H28.9357H28.9197H28.9036H28.8875H28.8714H28.8553H28.8392H28.823H28.8069H28.7907H28.7745H28.7583H28.7421H28.7259H28.7096H28.6934H28.6771H28.6609H28.6446H28.6283H28.612H28.5957H28.5793H28.563H28.5466H28.5303H28.5139H28.4975H28.4811H28.4647H28.4483H28.4319H28.4154H28.399H28.3825H28.3661H28.3496H28.3331H28.3167H28.3002H28.2837H28.2671H28.2506H28.2341H28.2176H28.201H28.1845H28.1679H28.1514H28.1348H28.1182H28.1017H28.0851H28.0685H28.0519H28.0353H28.0187H28.0021H27.9855H27.9689H27.9522H27.9356H27.919H27.9023H27.8857H27.8691H27.8524H27.8358H27.8191H27.8025H27.7858H27.7691H27.7525H27.7358H27.7192H27.7025H27.6858H27.6692H27.6525H27.6358H27.6191H27.6025H27.5858H27.5691H27.5524H27.5358H27.5191H27.5024H27.4858H27.4691H27.4524H27.4358H27.4191H27.4024H27.3858H27.3691H27.3524H27.3358H27.3191H27.3025H27.2858H27.2692H27.2525H27.2359H27.2193H27.2026H27.186H27.1694H27.1528H27.1362H27.1195H27.1029H27.0863H27.0698H27.0532H27.0366H27.02H27.0034H26.9869H26.9703H26.9538H26.9372H26.9207H26.9041H26.8876H26.8711H26.8546H26.8381H26.8216H26.8051H26.7886H26.787L23.563 30.741L23.0987 31.0959H22.5143H20.2776V37.5486V39.2752H18.551H16.7143H15.7267V39.4293H16.7143H18.551H20.2776V41.156V47.861H22.5143H23.0679L23.5183 48.1829L32.0399 54.2733H32.0482H32.0673H32.0867H32.1065H32.1265H32.1468H32.1674H32.1883H32.2094H32.2309H32.2526H32.2746H32.2969H32.3195H32.3424H32.3655H32.3889H32.4126H32.4365H32.4607H32.4852H32.51H32.535H32.5603H32.5859H32.6117H32.6378H32.6641H32.6907H32.7176H32.7447H32.7721H32.7997H32.8276H32.8557H32.8841H32.9127H32.9416H32.9707H33H33.0296H33.0595H33.0896H33.1199H33.1505H33.1813H33.2123H33.2436H33.2751H33.3068H33.3388H33.371H33.4034H33.436H33.4689H33.502H33.5353H33.5688H33.6026H33.6365H33.6707H33.7051H33.7397H33.7746H33.8096H33.8448H33.8803H33.916H33.9518H33.9879H34.0242H34.0606H34.0973H34.1342H34.1713H34.2085H34.246H34.2836H34.3215H34.3595H34.3978H34.4362H34.4748H34.5136H34.5526H34.5917H34.631H34.6706H34.7103H34.7501H34.7902H34.8304H34.8708H34.9114H34.9521H34.993H35.0341H35.0754H35.1168H35.1584H35.2001H35.242H35.2841H35.3263H35.3687H35.4112H35.4539H35.4967H35.5397H35.5829H35.6262H35.6696H35.7132H35.7569H35.8008H35.8448H35.889H35.9333H35.9777H36.0223H36.067H36.1119H36.1569H36.202H36.2472H36.2926H36.3381H36.3837H36.4295H36.4754H36.5214H36.5675H36.6137H36.6601H36.7066H36.7532H36.7999H36.8467H36.8937H36.9407H36.9879H37.0351H37.0825H37.13H37.1776H37.2252H37.273H37.3209H37.3689H37.417H37.4652H37.5134H37.5618H37.6102H37.6588H37.7074H37.7562H37.805H37.8539H37.9028H37.9519H38.0011H38.0503H38.0996H38.149H38.1984H38.248H38.2976H38.3472H38.397H38.4468H38.4967H38.5466H38.5967H38.6467H38.6969H38.7471H38.7973H38.8477H38.8981H38.9485H38.999H39.0495H39.1001H39.1508H39.2015H39.2522H39.303H39.3538H39.4047H39.4556H39.5066H39.5576H39.6086H39.6597H39.7108H39.762H39.8132H39.8644H39.9156H39.9669H40.0182H40.0695H40.1209H40.1723H40.2237H40.2751H40.3265H40.378H40.4295H40.481H40.5325H40.584H40.6355H40.6871H40.7386H40.7902H40.8417H40.8933H40.9449H40.9965H41.048H41.0996H41.1512H41.2028H41.2543H41.3059H41.3575H41.409H41.4606H41.5121H41.5636H41.6151H41.6666H41.7181H41.7695H41.821H41.8724H41.9238H41.9751H42.0265H42.0778H42.1291H42.1804H42.2316H42.2828H42.334H42.3851H42.4362H42.4873H42.5383H42.5893H42.6403H42.6912H42.7421H42.7929H42.8437H42.8944H42.9451H42.9957H43.0463H43.0968H43.1473H43.1977H43.2481H43.2984H43.3486H43.3988H43.4489H43.499H43.549H43.5989H43.6488H43.6986H43.7483H43.798H43.8476H43.8971H43.9465H43.9959H44.0452H44.0944H44.1435H44.1925H44.2415H44.2904H44.3392H44.3879H44.4365H44.485H44.5334H44.5818H44.63H44.6782H44.7262H44.7742H44.822H44.8698H44.9174H44.965H45.0124H45.0598H45.107H45.1541H45.2012H45.2481H45.2949H45.3415H45.3881H45.4346H45.4809H45.5271H45.5732H45.6192H45.665H45.7107H45.7563H45.8018H45.8471H45.8923H45.9374H45.9824H46.0272H46.0719H46.1164H46.1608H46.2051H46.2492H46.2932H46.337H46.3807H46.4243H46.4677H46.5109H46.554H46.597H46.6398H46.6824H46.7249H46.7672H46.8094H46.8514H46.8933H46.935H46.9765H47.0179H47.0591H47.1001H47.141H47.1817H47.2222H47.2626H47.3027H47.3427H47.3826H47.4222H47.4617H47.501H47.5401H47.579H47.6177H47.6563H47.6946H47.7328H47.7708H47.8086H47.8462H47.8836H47.9208H47.9579H47.9947H48.0313H48.0677H48.1039H48.1399H48.1758H48.2114H48.2468H48.2819H48.3169H48.3517H48.3862H48.4206H48.4547H48.4886H48.5223H48.5558H48.589H48.6221H48.6549H48.6874H48.7198H48.7519H48.7838H48.8155H48.8469H48.8781H48.9091H48.9398H48.9703H49.0006H49.0306H49.0604H49.0899H49.1192H49.1483H49.1771H49.2056H49.2339H49.262H49.2898H49.3174H49.3447H49.3717H49.3985H49.425H49.4513H49.4773H49.5031H49.5285H49.5538H49.5787H49.6034H49.6278H49.652H49.6758H49.6994H49.7228H49.7458H49.7686H49.7911H49.8133H49.8353H49.8569H49.8783H49.8994H49.9202H49.9407H49.9609H49.9808H50.0005H50.0198H50.0389H50.0577H50.0761H50.0943H50.1122H50.1297H50.147H50.1639H50.1806H50.197H50.213H50.2287H50.2442H50.2593C50.6176 54.2733 50.7585 54.2046 50.784 54.1904C50.7958 54.1639 50.809 54.1133 50.8134 54.0487C50.8143 54.0357 50.8147 54.0246 50.8148 54.0158C50.8149 54.0118 50.8149 54.0082 50.8148 54.0052L50.8062 53.9369V53.828H52.5329L55.8098 35.8053ZM55.8098 35.8053V34.0787V33.6334H60.3562C60.3607 33.6416 60.3652 33.6497 60.3695 33.6577C60.3845 33.6856 60.3953 33.7071 60.4009 33.7187C60.4037 33.7244 60.405 33.7273 60.4049 33.727L60.4035 33.7239L60.4019 33.7204L60.4008 33.7181L60.4002 33.7168L60.3999 33.7161C60.3999 33.7159 60.3998 33.7158 60.5837 33.6334H60.872C60.7847 33.6334 60.7056 33.6244 60.6353 33.6103C60.6968 33.5827 60.7743 33.548 60.872 33.5043C61.1055 33.3998 61.4544 33.2438 61.9759 33.0106L63.562 37.6296V48.3482L61.9759 52.9653C61.9759 52.9653 61.4823 54.0691 60.872 54.0691H55.1851C54.7972 54.0691 54.4559 53.8685 54.2595 53.5648M55.8098 35.8053L54.2595 53.5648M54.2595 53.5648V53.5618V53.558V53.5541V53.5502V53.5463V53.5424V53.5384V53.5344V53.5304V53.5263V53.5223V53.5182V53.514V53.5099V53.5057V53.5015V53.4973V53.493V53.4887V53.4844V53.4801V53.4757V53.4714V53.467V53.4625V53.4581V53.4536V53.4491V53.4445V53.44V53.4354V53.4308V53.4262V53.4215V53.4168V53.4121V53.4074V53.4026V53.3978V53.393V53.3882V53.3833V53.3784V53.3735V53.3686V53.3636V53.3586V53.3536V53.3486V53.3435V53.3384V53.3333V53.3282V53.323V53.3178V53.3126V53.3074V53.3021V53.2968V53.2915V53.2862V53.2809V53.2755V53.2701V53.2646V53.2592V53.2537V53.2482V53.2427V53.2371V53.2316V53.226V53.2203V53.2147V53.209V53.2033V53.1976V53.1919V53.1861V53.1803V53.1745V53.1686V53.1628V53.1569V53.151V53.1451V53.1391V53.1331V53.1271V53.1211V53.115V53.109V53.1029V53.0967V53.0906V53.0844V53.0782V53.072V53.0658V53.0595V53.0532V53.0469V53.0406V53.0342V53.0278V53.0214V53.015V53.0086V53.0021V52.9956V52.9891V52.9825V52.976V52.9694V52.9653V53.5648ZM50.8062 48.8029H52.5329H50.8062ZM50.8062 48.8029V50.5296M50.8062 48.8029V50.5296M50.8062 50.5296V50.5412M50.8062 50.5296V50.5412M55.8098 48.8029V50.5296V48.8029ZM55.8098 48.8029H54.0831M55.8098 48.8029H54.0831M54.0831 48.8029V50.5296V48.8029ZM50.8062 50.5412V50.5528M50.8062 50.5412V50.5528M50.8062 50.5528V50.5644M50.8062 50.5528V50.5644M50.8062 50.5644V50.5759M50.8062 50.5644V50.5759M50.8062 50.5759V50.5875M50.8062 50.5759V50.5875M50.8062 50.5875V50.599M50.8062 50.5875V50.599M50.8062 50.599V50.6105M50.8062 50.599V50.6105M50.8062 50.6105V50.622M50.8062 50.6105V50.622M50.8062 50.622V50.6335M50.8062 50.622V50.6335M50.8062 50.6335V50.645M50.8062 50.6335V50.645M50.8062 50.645V50.6565M50.8062 50.645V50.6565M50.8062 50.6565V50.6679M50.8062 50.6565V50.6679M50.8062 50.6679V50.6793M50.8062 50.6679V50.6793M50.8062 50.6793V50.6908M50.8062 50.6793V50.6908M50.8062 50.6908V50.7022M50.8062 50.6908V50.7022M50.8062 50.7022V50.7135M50.8062 50.7022V50.7135M50.8062 50.7135V50.7249M50.8062 50.7135V50.7249M50.8062 50.7249V50.7363M50.8062 50.7249V50.7363M50.8062 50.7363V50.7476M50.8062 50.7363V50.7476M50.8062 50.7476V50.7589M50.8062 50.7476V50.7589M50.8062 50.7589V50.7702M50.8062 50.7589V50.7702M50.8062 50.7702V50.7815M50.8062 50.7702V50.7815M50.8062 50.7815V50.7928M50.8062 50.7815V50.7928M50.8062 50.7928V50.804M50.8062 50.7928V50.804M50.8062 50.804V50.8153M50.8062 50.804V50.8153M50.8062 50.8153V50.8265M50.8062 50.8153V50.8265M50.8062 50.8265V50.8377M50.8062 50.8265V50.8377M50.8062 50.8377V50.8489M50.8062 50.8377V50.8489M50.8062 50.8489V50.8601M50.8062 50.8489V50.8601M50.8062 50.8601V50.8712M50.8062 50.8601V50.8712M50.8062 50.8712V50.8824M50.8062 50.8712V50.8824M50.8062 50.8824V50.8935M50.8062 50.8824V50.8935M50.8062 50.8935V50.9046M50.8062 50.8935V50.9046M50.8062 50.9046V50.9157M50.8062 50.9046V50.9157M50.8062 50.9157V50.9268M50.8062 50.9157V50.9268M50.8062 50.9268V50.9378M50.8062 50.9268V50.9378M50.8062 50.9378V50.9489M50.8062 50.9378V50.9489M50.8062 50.9489V50.9599M50.8062 50.9489V50.9599M50.8062 50.9599V50.9709M50.8062 50.9599V50.9709M50.8062 50.9709V50.9819M50.8062 50.9709V50.9819M50.8062 50.9819V50.9929M50.8062 50.9819V50.9929M50.8062 50.9929V51.0039M50.8062 50.9929V51.0039M50.8062 51.0039V51.0148M50.8062 51.0039V51.0148M50.8062 51.0148V51.0257M50.8062 51.0148V51.0257M50.8062 51.0257V51.0366M50.8062 51.0257V51.0366M50.8062 51.0366V51.0475M50.8062 51.0366V51.0475M50.8062 51.0475V51.0584M50.8062 51.0475V51.0584M50.8062 51.0584V51.0693M50.8062 51.0584V51.0693M50.8062 51.0693V51.0801M50.8062 51.0693V51.0801M50.8062 51.0801V51.091M50.8062 51.0801V51.091M50.8062 51.091V51.1018M50.8062 51.091V51.1018M50.8062 51.1018V51.1126M50.8062 51.1018V51.1126M50.8062 51.1126V51.1233M50.8062 51.1126V51.1233M50.8062 51.1233V51.1341M50.8062 51.1233V51.1341M50.8062 51.1341V51.1449M50.8062 51.1341V51.1449M50.8062 51.1449V51.1556M50.8062 51.1449V51.1556M50.8062 51.1556V51.1663M50.8062 51.1556V51.1663M50.8062 51.1663V51.177M50.8062 51.1663V51.177M50.8062 51.177V51.1877M50.8062 51.177V51.1877M50.8062 51.1877V51.1983M50.8062 51.1877V51.1983M50.8062 51.1983V51.209M50.8062 51.1983V51.209M50.8062 51.209V51.2196M50.8062 51.209V51.2196M50.8062 51.2196V51.2302M50.8062 51.2196V51.2302M50.8062 51.2302V51.2408M50.8062 51.2302V51.2408M50.8062 51.2408V51.2514M50.8062 51.2408V51.2514M50.8062 51.2514V51.2619M50.8062 51.2514V51.2619M50.8062 51.2619V51.2725M50.8062 51.2619V51.2725M50.8062 51.2725V51.283M50.8062 51.2725V51.283M50.8062 51.283V51.2935M50.8062 51.283V51.2935M50.8062 51.2935V51.304M50.8062 51.2935V51.304M50.8062 51.304V51.3145M50.8062 51.304V51.3145M50.8062 51.3145V51.3249M50.8062 51.3145V51.3249M50.8062 51.3249V51.3354M50.8062 51.3249V51.3354M50.8062 51.3354V51.3458M50.8062 51.3354V51.3458M50.8062 51.3458V51.3562M50.8062 51.3458V51.3562M50.8062 51.3562V51.3666M50.8062 51.3562V51.3666M50.8062 51.3666V51.3769M50.8062 51.3666V51.3769M50.8062 51.3769V51.3873M50.8062 51.3769V51.3873M50.8062 51.3873V51.3976M50.8062 51.3873V51.3976M50.8062 51.3976V51.4079M50.8062 51.3976V51.4079M50.8062 51.4079V51.4182M50.8062 51.4079V51.4182M50.8062 51.4182V51.4285M50.8062 51.4182V51.4285M50.8062 51.4285V51.4388M50.8062 51.4285V51.4388M50.8062 51.4388V51.449M50.8062 51.4388V51.449M50.8062 51.449V51.4592M50.8062 51.449V51.4592M50.8062 51.4592V51.4694M50.8062 51.4592V51.4694M50.8062 51.4694V51.4796M50.8062 51.4694V51.4796M50.8062 51.4796V51.4898M50.8062 51.4796V51.4898M50.8062 51.4898V51.5M50.8062 51.4898V51.5M50.8062 51.5V51.5101M50.8062 51.5V51.5101M50.8062 51.5101V51.5202M50.8062 51.5101V51.5202M50.8062 51.5202V51.5303M50.8062 51.5202V51.5303M50.8062 51.5303V51.5404M50.8062 51.5303V51.5404M50.8062 51.5404V51.5505M50.8062 51.5404V51.5505M50.8062 51.5505V51.5605M50.8062 51.5505V51.5605M50.8062 51.5605V51.5705M50.8062 51.5605V51.5705M50.8062 51.5705V51.5806M50.8062 51.5705V51.5806M50.8062 51.5806V51.5905M50.8062 51.5806V51.5905M50.8062 51.5905V51.6005M50.8062 51.5905V51.6005M50.8062 51.6005V51.6105M50.8062 51.6005V51.6105M50.8062 51.6105V51.6204M50.8062 51.6105V51.6204M50.8062 51.6204V51.6303M50.8062 51.6204V51.6303M50.8062 51.6303V51.6402M50.8062 51.6303V51.6402M50.8062 51.6402V51.6501M50.8062 51.6402V51.6501M50.8062 51.6501V51.66M50.8062 51.6501V51.66M50.8062 51.66V51.6698M50.8062 51.66V51.6698M50.8062 51.6698V51.6797M50.8062 51.6698V51.6797M50.8062 51.6797V51.6895M50.8062 51.6797V51.6895M50.8062 51.6895V51.6993M50.8062 51.6895V51.6993M50.8062 51.6993V51.709M50.8062 51.6993V51.709M50.8062 51.709V51.7188M50.8062 51.709V51.7188M50.8062 51.7188V51.7285M50.8062 51.7188V51.7285M50.8062 51.7285V51.7382M50.8062 51.7285V51.7382M50.8062 51.7382V51.7479M50.8062 51.7382V51.7479M50.8062 51.7479V51.7576M50.8062 51.7479V51.7576M50.8062 51.7576V51.7673M50.8062 51.7576V51.7673M50.8062 51.7673V51.7769M50.8062 51.7673V51.7769M50.8062 51.7769V51.7866M50.8062 51.7769V51.7866M50.8062 51.7866V51.7962M50.8062 51.7866V51.7962M50.8062 51.7962V51.8058M50.8062 51.7962V51.8058M50.8062 51.8058V51.8153M50.8062 51.8058V51.8153M50.8062 51.8153V51.8249M50.8062 51.8153V51.8249M50.8062 51.8249V51.8344M50.8062 51.8249V51.8344M50.8062 51.8344V51.8439M50.8062 51.8344V51.8439M50.8062 51.8439V51.8534M50.8062 51.8439V51.8534M50.8062 51.8534V51.8629M50.8062 51.8534V51.8629M50.8062 51.8629V51.8723M50.8062 51.8629V51.8723M50.8062 51.8723V51.8818M50.8062 51.8723V51.8818M50.8062 51.8818V51.8912M50.8062 51.8818V51.8912M50.8062 51.8912V51.9006M50.8062 51.8912V51.9006M50.8062 51.9006V51.91M50.8062 51.9006V51.91M50.8062 51.91V51.9193M50.8062 51.91V51.9193M50.8062 51.9193V51.9287M50.8062 51.9193V51.9287M50.8062 51.9287V51.938M50.8062 51.9287V51.938M50.8062 51.938V51.9473M50.8062 51.938V51.9473M50.8062 51.9473V51.9566M50.8062 51.9473V51.9566M50.8062 51.9566V51.9658M50.8062 51.9566V51.9658M50.8062 51.9658V51.9751M50.8062 51.9658V51.9751M50.8062 51.9751V51.9843M50.8062 51.9751V51.9843M50.8062 51.9843V51.9935M50.8062 51.9843V51.9935M50.8062 51.9935V52.0027M50.8062 51.9935V52.0027M50.8062 52.0027V52.0119M50.8062 52.0027V52.0119M50.8062 52.0119V52.021M50.8062 52.0119V52.021M50.8062 52.021V52.0302M50.8062 52.021V52.0302M50.8062 52.0302V52.0393M50.8062 52.0302V52.0393M50.8062 52.0393V52.0483M50.8062 52.0393V52.0483M50.8062 52.0483V52.0574M50.8062 52.0483V52.0574M50.8062 52.0574V52.0665M50.8062 52.0574V52.0665M50.8062 52.0665V52.0755M50.8062 52.0665V52.0755M50.8062 52.0755V52.0845M50.8062 52.0755V52.0845M50.8062 52.0845V52.0935M50.8062 52.0845V52.0935M50.8062 52.0935V52.1025M50.8062 52.0935V52.1025M50.8062 52.1025V52.1114M50.8062 52.1025V52.1114M50.8062 52.1114V52.1204M50.8062 52.1114V52.1204M50.8062 52.1204V52.1293M50.8062 52.1204V52.1293M50.8062 52.1293V52.1382M50.8062 52.1293V52.1382M50.8062 52.1382V52.147M50.8062 52.1382V52.147M50.8062 52.147V52.1559M50.8062 52.147V52.1559M50.8062 52.1559V52.1647M50.8062 52.1559V52.1647M50.8062 52.1647V52.1735M50.8062 52.1647V52.1735M50.8062 52.1735V52.1823M50.8062 52.1735V52.1823M50.8062 52.1823V52.1911M50.8062 52.1823V52.1911M50.8062 52.1911V52.1999M50.8062 52.1911V52.1999M50.8062 52.1999V52.2086M50.8062 52.1999V52.2086M50.8062 52.2086V52.2173M50.8062 52.2086V52.2173M50.8062 52.2173V52.226M50.8062 52.2173V52.226M50.8062 52.226V52.2347M50.8062 52.226V52.2347M50.8062 52.2347V52.2433M50.8062 52.2347V52.2433M50.8062 52.2433V52.252M50.8062 52.2433V52.252M50.8062 52.252V52.2606M50.8062 52.252V52.2606M50.8062 52.2606V52.2692M50.8062 52.2606V52.2692M50.8062 52.2692V52.2778M50.8062 52.2692V52.2778M50.8062 52.2778V52.2863M50.8062 52.2778V52.2863M50.8062 52.2863V52.2948M50.8062 52.2863V52.2948M50.8062 52.2948V52.3033V52.2948Z" stroke="black" stroke-width="3.45335"/>
</g>
</svg>
