<svg width="73" height="73" viewBox="0 0 73 73" fill="none" xmlns="http://www.w3.org/2000/svg">
<g id="Group 2226">
<circle id="Ellipse 3" cx="36.6689" cy="36.1326" r="36" fill="white"/>
<g id="car_repair">
<mask id="mask0_54_5195" style="mask-type:alpha" maskUnits="userSpaceOnUse" x="18" y="16" width="38" height="37">
<rect id="Bounding box" x="18.6689" y="16" width="37" height="37" fill="#D9D9D9"/>
</mask>
<g mask="url(#mask0_54_5195)">
<path id="car_repair_2" d="M35.6266 49.9167V45.2917H24.835V42.2083H49.5016V45.2917H38.71V49.9167H35.6266ZM32.5433 33.7292C32.9801 33.7292 33.3462 33.5814 33.6417 33.2859C33.9372 32.9905 34.085 32.6243 34.085 32.1875C34.085 31.7507 33.9372 31.3845 33.6417 31.0891C33.3462 30.7936 32.9801 30.6458 32.5433 30.6458C32.1065 30.6458 31.7403 30.7936 31.4449 31.0891C31.1494 31.3845 31.0016 31.7507 31.0016 32.1875C31.0016 32.6243 31.1494 32.9905 31.4449 33.2859C31.7403 33.5814 32.1065 33.7292 32.5433 33.7292ZM41.7933 33.7292C42.2301 33.7292 42.5962 33.5814 42.8917 33.2859C43.1872 32.9905 43.335 32.6243 43.335 32.1875C43.335 31.7507 43.1872 31.3845 42.8917 31.0891C42.5962 30.7936 42.2301 30.6458 41.7933 30.6458C41.3565 30.6458 40.9903 30.7936 40.6949 31.0891C40.3994 31.3845 40.2516 31.7507 40.2516 32.1875C40.2516 32.6243 40.3994 32.9905 40.6949 33.2859C40.9903 33.5814 41.3565 33.7292 41.7933 33.7292ZM26.3766 29.2583L28.9204 21.8583C29.0489 21.4986 29.2608 21.2031 29.5563 20.9719C29.8518 20.7406 30.1794 20.625 30.5391 20.625H43.7975C44.1572 20.625 44.4848 20.7406 44.7803 20.9719C45.0758 21.2031 45.2877 21.4986 45.4162 21.8583L47.96 29.2583V39.4333C47.96 39.7931 47.8443 40.0885 47.6131 40.3198C47.3818 40.551 47.0863 40.6667 46.7266 40.6667H46.11C45.7502 40.6667 45.4548 40.551 45.2235 40.3198C44.9923 40.0885 44.8766 39.7931 44.8766 39.4333V37.5833H29.46V39.4333C29.46 39.7931 29.3443 40.0885 29.1131 40.3198C28.8818 40.551 28.5863 40.6667 28.2266 40.6667H27.61C27.2502 40.6667 26.9548 40.551 26.7235 40.3198C26.4923 40.0885 26.3766 39.7931 26.3766 39.4333V29.2583ZM30.462 26.7917H43.8745L42.7954 23.7083H31.5412L30.462 26.7917ZM29.46 34.5H44.8766V29.875H29.46V34.5Z" fill="#003366"/>
</g>
</g>
</g>
</svg>
