<svg width="77" height="77" viewBox="0 0 77 77" fill="none" xmlns="http://www.w3.org/2000/svg">
<g id="Group 344">
<rect id="Rectangle 620" width="77" height="77" rx="6" fill="#E8F3FF"/>
<g id="car_repair">
<mask id="mask0_2528_5724" style="mask-type:alpha" maskUnits="userSpaceOnUse" x="16" y="16" width="46" height="46">
<rect id="Bounding box" x="16" y="16" width="46" height="46" fill="#D9D9D9"/>
</mask>
<g mask="url(#mask0_2528_5724)">
<path id="car_repair_2" d="M37.0832 58.1667V52.4167H23.6665V48.5833H54.3332V52.4167H40.9165V58.1667H37.0832ZM33.2498 38.0417C33.7929 38.0417 34.2481 37.858 34.6155 37.4906C34.9828 37.1233 35.1665 36.6681 35.1665 36.125C35.1665 35.5819 34.9828 35.1267 34.6155 34.7594C34.2481 34.392 33.7929 34.2083 33.2498 34.2083C32.7068 34.2083 32.2516 34.392 31.8842 34.7594C31.5169 35.1267 31.3332 35.5819 31.3332 36.125C31.3332 36.6681 31.5169 37.1233 31.8842 37.4906C32.2516 37.858 32.7068 38.0417 33.2498 38.0417ZM44.7498 38.0417C45.2929 38.0417 45.7481 37.858 46.1155 37.4906C46.4828 37.1233 46.6665 36.6681 46.6665 36.125C46.6665 35.5819 46.4828 35.1267 46.1155 34.7594C45.7481 34.392 45.2929 34.2083 44.7498 34.2083C44.2068 34.2083 43.7516 34.392 43.3842 34.7594C43.0169 35.1267 42.8332 35.5819 42.8332 36.125C42.8332 36.6681 43.0169 37.1233 43.3842 37.4906C43.7516 37.858 44.2068 38.0417 44.7498 38.0417ZM25.5832 32.4833L28.7457 23.2833C28.9054 22.8361 29.1689 22.4687 29.5363 22.1812C29.9037 21.8937 30.3109 21.75 30.7582 21.75H47.2415C47.6887 21.75 48.096 21.8937 48.4634 22.1812C48.8307 22.4687 49.0943 22.8361 49.254 23.2833L52.4165 32.4833V45.1333C52.4165 45.5806 52.2728 45.9479 51.9853 46.2354C51.6978 46.5229 51.3304 46.6667 50.8832 46.6667H50.1165C49.6693 46.6667 49.3019 46.5229 49.0144 46.2354C48.7269 45.9479 48.5832 45.5806 48.5832 45.1333V42.8333H29.4165V45.1333C29.4165 45.5806 29.2728 45.9479 28.9853 46.2354C28.6978 46.5229 28.3304 46.6667 27.8832 46.6667H27.1165C26.6693 46.6667 26.3019 46.5229 26.0144 46.2354C25.7269 45.9479 25.5832 45.5806 25.5832 45.1333V32.4833ZM30.6623 29.4167H47.3373L45.9957 25.5833H32.004L30.6623 29.4167ZM29.4165 39H48.5832V33.25H29.4165V39Z" fill="#1C1B1F"/>
</g>
</g>
</g>
</svg>
