<svg width="65" height="65" viewBox="0 0 65 65" fill="none" xmlns="http://www.w3.org/2000/svg">
<g id="Group 39">
<g id="add_to_photos">
<mask id="mask0_353_69641" style="mask-type:alpha" maskUnits="userSpaceOnUse" x="15" y="15" width="35" height="35">
<rect id="Bounding box" x="15.9188" y="15.7499" width="32.6398" height="32.6398" fill="#D9D9D9" stroke="#6A6F75" stroke-width="1.24588"/>
</mask>
<g mask="url(#mask0_353_69641)">
<path id="add_to_photos_2" d="M36.4748 30.6427H36.4593V30.6583V34.8784H33.6666V30.6583V30.6427H33.651H29.4309V27.8501H33.651H33.6666V27.8345V23.6144H36.4593V27.8345V27.8501H36.4748H40.695V30.6427H36.4748ZM26.576 37.7178V37.7334H26.5915H43.5344H43.5499V37.7178V20.775V20.7594H43.5344H26.5915H26.576V20.775V37.7178ZM20.9439 43.381H40.695V46.1736H20.9439C20.1715 46.1736 19.5107 45.8988 18.9606 45.3487C18.4105 44.7986 18.1357 44.1378 18.1357 43.3654V23.6144H20.9283V43.3654V43.381H20.9439ZM26.5915 40.526C25.8191 40.526 25.1583 40.2512 24.6082 39.7011C24.0581 39.151 23.7833 38.4902 23.7833 37.7178V20.775C23.7833 20.0026 24.0581 19.3418 24.6082 18.7917C25.1583 18.2416 25.8191 17.9667 26.5915 17.9667H43.5344C44.3067 17.9667 44.9676 18.2416 45.5177 18.7917C46.0678 19.3418 46.3426 20.0026 46.3426 20.775V37.7178C46.3426 38.4902 46.0678 39.151 45.5177 39.7011C44.9676 40.2512 44.3067 40.526 43.5344 40.526H26.5915Z" fill="#1C1B1F" stroke="#6A6F75" stroke-width="0.0311471"/>
</g>
</g>
<circle id="Ellipse 6" cx="32.7106" cy="32.2897" r="31.8474" stroke="#BABCBF" stroke-width="0.88465"/>
</g>
</svg>
