<svg xmlns="http://www.w3.org/2000/svg" xmlns:xlink="http://www.w3.org/1999/xlink" version="1.1" width="64.5791pt" height="64.58008pt" viewBox="0 0 64.5791 64.58008">
<defs>
<mask id="mask_0">
<g>
<clipPath id="clip_1">
<path transform="matrix(1,0,0,-1,0,64.58008)" d="M0 0H64.5791V64.58008H0Z"/>
</clipPath>
<g clip-path="url(#clip_1)">
<path transform="matrix(1,0,0,-1,14.875,49.01172)" d="M0 33.884767H33.885656V-.000889H0V33.884767Z" fill="#d9d9d9"/>
<clipPath id="clip_2">
<path transform="matrix(1,0,0,-1,0,64.58008)" d="M14.875 49.453126H48.760656V15.567471H14.875V49.453126Z" fill-rule="evenodd"/>
</clipPath>
<g clip-path="url(#clip_2)">
<path transform="matrix(1,0,0,-1,14.875,49.01172)" d="M0 33.884767V35.13065H-1.245883V33.884767H0ZM33.885656 33.884767H35.13154V35.13065H33.885656V33.884767ZM33.885656-.000889V-1.246773H35.13154V-.000889H33.885656ZM0-.000889H-1.245883V-1.246773H0V-.000889ZM0 32.63888H33.885656V35.13065H0V32.63888ZM32.63977 33.884767V-.000889H35.13154V33.884767H32.63977ZM33.885656 1.244995H0V-1.246773H33.885656V1.244995ZM1.245883-.000889V33.884767H-1.245883V-.000889H1.245883Z" fill="#6a6f75"/>
</g>
</g>
</g>
"/>
</mask>
<clipPath id="clip_3">
<path transform="matrix(1,0,0,-1,0,64.58008)" d="M0 0H64.5791V64.58008H0Z" fill-rule="evenodd"/>
</clipPath>
<clipPath id="clip_4">
<path transform="matrix(1,0,0,-1,0,64.58008)" d="M33.23014 29.68608H36.053949V33.921789H40.289655V36.74559H36.053949V40.981298H33.23014V36.74559H28.994437V33.921789H33.23014V29.68608ZM26.170632 24.038472C25.394085 24.038472 24.729315 24.314969 24.17632 24.867966 23.623326 25.42096 23.346829 26.085732 23.346829 26.862275V43.8051C23.346829 44.58165 23.623326 45.246419 24.17632 45.799417 24.729315 46.35241 25.394085 46.628908 26.170632 46.628908H43.113458C43.890008 46.628908 44.554777 46.35241 45.107774 45.799417 45.660768 45.246419 45.937265 44.58165 45.937265 43.8051V26.862275C45.937265 26.085732 45.660768 25.42096 45.107774 24.867966 44.554777 24.314969 43.890008 24.038472 43.113458 24.038472H26.170632ZM26.170632 26.862275H43.113458V43.8051H26.170632V26.862275ZM20.523024 18.390862C19.746478 18.390862 19.081707 18.667359 18.528712 19.220353 17.975716 19.77335 17.699219 20.438118 17.699219 21.214669V40.981298H20.523024V21.214669H40.289655V18.390862H20.523024Z" fill-rule="evenodd"/>
</clipPath>
<clipPath id="clip_5">
<path transform="matrix(1,0,0,-1,0,64.58008)" d="M64.57948 32.290338C64.57948 14.457203 50.122877 .000595 32.28974 .000595 14.45661 .000595 0 14.457203 0 32.290338 0 50.123468 14.45661 64.58008 32.28974 64.58008 50.122877 64.58008 64.57948 50.123468 64.57948 32.290338Z" fill-rule="evenodd"/>
</clipPath>
</defs>
<g>
<g mask="url(#mask_0)">
<g>
<g clip-path="url(#clip_3)">
<path transform="matrix(1,0,0,-1,17.699219,46.189455)" d="M15.530924 11.295456H18.354729V15.531161H22.590435V18.354966H18.354729V22.590672H15.530924V18.354966H11.295218V15.531161H15.530924V11.295456ZM8.471413 5.647846C7.694867 5.647846 7.030097 5.924343 6.477101 6.477339 5.924107 7.030333 5.647609 7.695105 5.647609 8.471651V25.414477C5.647609 26.191023 5.924107 26.855793 6.477101 27.408789 7.030097 27.961785 7.694867 28.238282 8.471413 28.238282H25.41424C26.190787 28.238282 26.855557 27.961785 27.408553 27.408789 27.961546 26.855793 28.238045 26.191023 28.238045 25.414477V8.471651C28.238045 7.695105 27.961546 7.030333 27.408553 6.477339 26.855557 5.924343 26.190787 5.647846 25.41424 5.647846H8.471413ZM8.471413 8.471651H25.41424V25.414477H8.471413V8.471651ZM2.823804 .000237C2.047258 .000237 1.382488 .276735 .829493 .829729 .276498 1.382725 0 2.047495 0 2.824041V22.590672H2.823804V2.824041H22.590435V.000237H2.823804Z" fill="#1c1b1f"/>
<g clip-path="url(#clip_4)">
<path transform="matrix(1,0,0,-1,17.699219,46.189455)" d="M15.530924 11.295456H15.499777V11.264307H15.530924V11.295456ZM18.354729 11.295456V11.264307H18.385876V11.295456H18.354729ZM18.354729 15.531161V15.562308H18.323582V15.531161H18.354729ZM22.590435 15.531161V15.500014H22.621582V15.531161H22.590435ZM22.590435 18.354966H22.621582V18.386113H22.590435V18.354966ZM18.354729 18.354966H18.323582V18.323819H18.354729V18.354966ZM18.354729 22.590672H18.385876V22.621819H18.354729V22.590672ZM15.530924 22.590672V22.621819H15.499777V22.590672H15.530924ZM15.530924 18.354966V18.323819H15.562071V18.354966H15.530924ZM11.295218 18.354966V18.386113H11.264071V18.354966H11.295218ZM11.295218 15.531161H11.264071V15.500014H11.295218V15.531161ZM15.530924 15.531161H15.562071V15.562308H15.530924V15.531161ZM8.471413 8.471651H8.440266V8.440504H8.471413V8.471651ZM25.41424 8.471651V8.440504H25.445387V8.471651H25.41424ZM25.41424 25.414477H25.445387V25.445624H25.41424V25.414477ZM8.471413 25.414477V25.445624H8.440266V25.414477H8.471413ZM0 22.590672V22.621819H-.031147V22.590672H0ZM2.823804 22.590672H2.854951V22.621819H2.823804V22.590672ZM2.823804 2.824041H2.792657V2.792894H2.823804V2.824041ZM22.590435 2.824041H22.621582V2.855188H22.590435V2.824041ZM22.590435 .000237V-.03091H22.621582V.000237H22.590435ZM15.530924 11.264307H18.354729V11.326603H15.530924V11.264307ZM18.385876 11.295456V15.531161H18.323582V11.295456H18.385876ZM18.354729 15.500014H22.590435V15.562308H18.354729V15.500014ZM22.621582 15.531161V18.354966H22.559288V15.531161H22.621582ZM22.590435 18.386113H18.354729V18.323819H22.590435V18.386113ZM18.385876 18.354966V22.590672H18.323582V18.354966H18.385876ZM18.354729 22.621819H15.530924V22.559525H18.354729V22.621819ZM15.499777 22.590672V18.354966H15.562071V22.590672H15.499777ZM15.530924 18.386113H11.295218V18.323819H15.530924V18.386113ZM11.264071 18.354966V15.531161H11.326365V18.354966H11.264071ZM11.295218 15.500014H15.530924V15.562308H11.295218V15.500014ZM15.499777 15.531161V11.295456H15.562071V15.531161H15.499777ZM8.471413 5.678993C7.703193 5.678993 7.046326 5.952162 6.499126 6.499363L6.455077 6.455315C7.013867 5.896524 7.686541 5.616699 8.471413 5.616699V5.678993ZM6.499126 6.499363C5.951925 7.046562 5.678756 7.70343 5.678756 8.471651H5.616462C5.616462 7.686777 5.896287 7.014103 6.455077 6.455315L6.499126 6.499363ZM5.678756 8.471651V25.414477H5.616462V8.471651H5.678756ZM5.678756 25.414477C5.678756 26.182698 5.951925 26.839564 6.499126 27.386765L6.455077 27.430813C5.896287 26.872023 5.616462 26.199349 5.616462 25.414477H5.678756ZM6.499126 27.386765C7.046326 27.933966 7.703193 28.207135 8.471413 28.207135V28.269429C7.686541 28.269429 7.013867 27.989603 6.455077 27.430813L6.499126 27.386765ZM8.471413 28.207135H25.41424V28.269429H8.471413V28.207135ZM25.41424 28.207135C26.182459 28.207135 26.839327 27.933966 27.386528 27.386765L27.430577 27.430813C26.871787 27.989603 26.199112 28.269429 25.41424 28.269429V28.207135ZM27.386528 27.386765C27.933728 26.839564 28.206896 26.182698 28.206896 25.414477H28.269192C28.269192 26.199349 27.989367 26.872023 27.430577 27.430813L27.386528 27.386765ZM28.206896 25.414477V8.471651H28.269192V25.414477H28.206896ZM28.206896 8.471651C28.206896 7.70343 27.933728 7.046562 27.386528 6.499363L27.430577 6.455315C27.989367 7.014103 28.269192 7.686777 28.269192 8.471651H28.206896ZM27.386528 6.499363C26.839327 5.952162 26.182459 5.678993 25.41424 5.678993V5.616699C26.199112 5.616699 26.871787 5.896524 27.430577 6.455315L27.386528 6.499363ZM25.41424 5.678993H8.471413V5.616699H25.41424V5.678993ZM8.471413 8.440504H25.41424V8.502798H8.471413V8.440504ZM25.445387 8.471651V25.414477H25.383093V8.471651H25.445387ZM25.41424 25.445624H8.471413V25.38333H25.41424V25.445624ZM8.440266 25.414477V8.471651H8.502561V25.414477H8.440266ZM2.823804 .031385C2.055584 .031385 1.398717 .304554 .851517 .851753L.807468 .807705C1.366258 .248915 2.038932-.03091 2.823804-.03091V.031385ZM.851517 .851753C.304316 1.398954 .031147 2.055822 .031147 2.824041H-.031147C-.031147 2.039169 .248679 1.366495 .807468 .807705L.851517 .851753ZM.031147 2.824041V22.590672H-.031147V2.824041H.031147ZM0 22.559525H2.823804V22.621819H0V22.559525ZM2.792657 22.590672V2.824041H2.854951V22.590672H2.792657ZM2.823804 2.792894H22.590435V2.855188H2.823804V2.792894ZM22.559288 2.824041V.000237H22.621582V2.824041H22.559288ZM22.590435 .031385H2.823804V-.03091H22.590435V.031385Z" fill="#6a6f75"/>
</g>
</g>
</g>
</g>
<g clip-path="url(#clip_5)">
<path transform="matrix(1,0,0,-1,0,64.58008)" d="M63.69483 32.290338C63.69483 14.945786 49.634294 .885246 32.28974 .885246V-.884056C50.611455-.884056 65.464138 13.968624 65.464138 32.290338H63.69483ZM32.28974 .885246C14.945189 .885246 .88465 14.945786 .88465 32.290338H-.88465C-.88465 13.968624 13.968031-.884056 32.28974-.884056V.885246ZM.88465 32.290338C.88465 49.634889 14.945189 63.695428 32.28974 63.695428V65.46473C13.968031 65.46473-.88465 50.612047-.88465 32.290338H.88465ZM32.28974 63.695428C49.634294 63.695428 63.69483 49.634889 63.69483 32.290338H65.464138C65.464138 50.612047 50.611455 65.46473 32.28974 65.46473V63.695428Z" fill="#babcbf"/>
</g>
</g>
</svg>
