<svg width="43" height="43" viewBox="0 0 43 43" fill="none" xmlns="http://www.w3.org/2000/svg">
<mask id="mask0_585_5132" style="mask-type:alpha" maskUnits="userSpaceOnUse" x="0" y="0" width="43" height="43">
<rect width="43" height="43" fill="#D9D9D9"/>
</mask>
<g mask="url(#mask0_585_5132)">
<path d="M21.5 32.25C18.5139 32.25 15.9757 31.2049 13.8854 29.1146C11.7951 27.0243 10.75 24.4861 10.75 21.5C10.75 18.5139 11.7951 15.9757 13.8854 13.8854C15.9757 11.7951 18.5139 10.75 21.5 10.75C24.4861 10.75 27.0243 11.7951 29.1146 13.8854C31.2049 15.9757 32.25 18.5139 32.25 21.5C32.25 24.4861 31.2049 27.0243 29.1146 29.1146C27.0243 31.2049 24.4861 32.25 21.5 32.25ZM20.1562 28.5323V24.725L17.4688 27.4125C17.8868 27.6812 18.3123 27.9127 18.7453 28.1068C19.1783 28.3009 19.6486 28.4427 20.1562 28.5323ZM22.8438 28.5323C23.3215 28.4427 23.7844 28.3009 24.2323 28.1068C24.6802 27.9127 25.1132 27.6812 25.5312 27.4125L22.8438 24.725V28.5323ZM27.4125 25.5312C27.6812 25.1132 27.9127 24.6802 28.1068 24.2323C28.3009 23.7844 28.4427 23.3215 28.5323 22.8438H24.725L27.4125 25.5312ZM24.725 20.1562H28.5323C28.4427 19.6785 28.3009 19.2156 28.1068 18.7677C27.9127 18.3198 27.6812 17.8868 27.4125 17.4688L24.725 20.1562ZM22.8438 18.275L25.5312 15.5875C25.1132 15.3188 24.6877 15.0873 24.2547 14.8932C23.8217 14.6991 23.3514 14.5573 22.8438 14.4677V18.275ZM21.5 23.2917C22.0076 23.2917 22.4332 23.12 22.7766 22.7766C23.12 22.4332 23.2917 22.0076 23.2917 21.5C23.2917 20.9924 23.12 20.5668 22.7766 20.2234C22.4332 19.88 22.0076 19.7083 21.5 19.7083C20.9924 19.7083 20.5668 19.88 20.2234 20.2234C19.88 20.5668 19.7083 20.9924 19.7083 21.5C19.7083 22.0076 19.88 22.4332 20.2234 22.7766C20.5668 23.12 20.9924 23.2917 21.5 23.2917ZM20.1562 18.275V14.4677C19.6785 14.5573 19.2156 14.6991 18.7677 14.8932C18.3198 15.0873 17.8868 15.3188 17.4688 15.5875L20.1562 18.275ZM14.4677 20.1562H18.275L15.5875 17.4688C15.3188 17.8868 15.0873 18.3198 14.8932 18.7677C14.6991 19.2156 14.5573 19.6785 14.4677 20.1562ZM15.5875 25.5312L18.275 22.8438H14.4677C14.5573 23.3215 14.6991 23.7844 14.8932 24.2323C15.0873 24.6802 15.3188 25.1132 15.5875 25.5312ZM8.95833 37.625C7.97292 37.625 7.12934 37.2741 6.4276 36.5724C5.72587 35.8707 5.375 35.0271 5.375 34.0417V8.95833C5.375 7.97292 5.72587 7.12934 6.4276 6.4276C7.12934 5.72587 7.97292 5.375 8.95833 5.375H34.0417C35.0271 5.375 35.8707 5.72587 36.5724 6.4276C37.2741 7.12934 37.625 7.97292 37.625 8.95833V34.0417C37.625 35.0271 37.2741 35.8707 36.5724 36.5724C35.8707 37.2741 35.0271 37.625 34.0417 37.625H8.95833ZM8.95833 34.0417H34.0417V8.95833H8.95833V34.0417Z" fill="#003366"/>
</g>
</svg>
