<svg width="77" height="77" viewBox="0 0 77 77" fill="none" xmlns="http://www.w3.org/2000/svg">
<g id="Group 345">
<rect id="Rectangle 621" width="77" height="77" rx="6" fill="#E8F3FF"/>
<g id="search_hands_free">
<mask id="mask0_2528_5731" style="mask-type:alpha" maskUnits="userSpaceOnUse" x="17" y="19" width="43" height="43">
<rect id="Bounding box" x="17" y="19" width="43" height="43" fill="#D9D9D9"/>
</mask>
<g mask="url(#mask0_2528_5731)">
<path id="search_hands_free_2" d="M38.4997 58.4163C36.0212 58.4163 33.692 57.946 31.5122 57.0054C29.3323 56.0648 27.4361 54.7882 25.8236 53.1757C24.2111 51.5632 22.9346 49.667 21.9939 47.4872C21.0533 45.3073 20.583 42.9781 20.583 40.4997C20.583 38.0212 21.0533 35.692 21.9939 33.5122C22.9346 31.3323 24.2111 29.4361 25.8236 27.8236C27.4361 26.2111 29.3323 24.9346 31.5122 23.9939C33.692 23.0533 36.0212 22.583 38.4997 22.583C40.9781 22.583 43.3073 23.0533 45.4872 23.9939C47.667 24.9346 49.5632 26.2111 51.1757 27.8236C52.7882 29.4361 54.0648 31.3323 55.0054 33.5122C55.946 35.692 56.4163 38.0212 56.4163 40.4997C56.4163 42.9781 55.946 45.3073 55.0054 47.4872C54.0648 49.667 52.7882 51.5632 51.1757 53.1757C49.5632 54.7882 47.667 56.0648 45.4872 57.0054C43.3073 57.946 40.9781 58.4163 38.4997 58.4163ZM36.708 54.6538V49.2788C34.9163 48.9205 33.3934 48.1143 32.1393 46.8601C30.8851 45.6059 30.0788 44.083 29.7205 42.2913H24.3455C24.7038 45.5462 26.0401 48.3084 28.3544 50.5778C30.6686 52.8472 33.4531 54.2059 36.708 54.6538ZM40.2913 54.6538C43.5462 54.2955 46.3308 52.9592 48.645 50.645C50.9592 48.3308 52.2955 45.5462 52.6538 42.2913H47.2788C46.9205 44.083 46.1143 45.6059 44.8601 46.8601C43.6059 48.1143 42.083 48.9205 40.2913 49.2788V54.6538ZM24.3455 38.708H29.5413L34.9163 33.333H42.083L47.458 38.708H52.6538C52.2059 35.0948 50.6382 32.1012 47.9507 29.7273C45.2632 27.3533 42.1129 26.1663 38.4997 26.1663C34.8865 26.1663 31.7361 27.3533 29.0486 29.7273C26.3611 32.1012 24.7934 35.0948 24.3455 38.708Z" fill="#1C1B1F"/>
</g>
</g>
</g>
</svg>
