<svg width="17" height="17" viewBox="0 0 17 17" fill="none" xmlns="http://www.w3.org/2000/svg">
<g id="location_on">
<mask id="mask0_497_1999" style="mask-type:alpha" maskUnits="userSpaceOnUse" x="0" y="0" width="17" height="17">
<rect id="Bounding box" width="17" height="17" fill="#D9D9D9"/>
</mask>
<g mask="url(#mask0_497_1999)">
<path id="location_on_2" d="M8.50004 8.5C8.88962 8.5 9.22313 8.36129 9.50056 8.08386C9.77799 7.80642 9.91671 7.47292 9.91671 7.08333C9.91671 6.69375 9.77799 6.36024 9.50056 6.08281C9.22313 5.80538 8.88962 5.66667 8.50004 5.66667C8.11046 5.66667 7.77695 5.80538 7.49952 6.08281C7.22209 6.36024 7.08337 6.69375 7.08337 7.08333C7.08337 7.47292 7.22209 7.80642 7.49952 8.08386C7.77695 8.36129 8.11046 8.5 8.50004 8.5ZM8.50004 13.7063C9.94032 12.384 11.0087 11.1828 11.7052 10.1026C12.4018 9.0224 12.75 8.06319 12.75 7.225C12.75 5.93819 12.3398 4.88455 11.5193 4.06406C10.6988 3.24358 9.6924 2.83333 8.50004 2.83333C7.30768 2.83333 6.30126 3.24358 5.48077 4.06406C4.66028 4.88455 4.25004 5.93819 4.25004 7.225C4.25004 8.06319 4.5983 9.0224 5.29483 10.1026C5.99136 11.1828 7.05976 12.384 8.50004 13.7063ZM8.50004 15.5833C6.59935 13.966 5.17973 12.4637 4.24119 11.0766C3.30264 9.68941 2.83337 8.40556 2.83337 7.225C2.83337 5.45417 3.40299 4.0434 4.54223 2.99271C5.68146 1.94201 7.00074 1.41667 8.50004 1.41667C9.99935 1.41667 11.3186 1.94201 12.4579 2.99271C13.5971 4.0434 14.1667 5.45417 14.1667 7.225C14.1667 8.40556 13.6974 9.68941 12.7589 11.0766C11.8204 12.4637 10.4007 13.966 8.50004 15.5833Z" fill="#5B5B5B"/>
</g>
</g>
</svg>
