<svg width="19" height="19" viewBox="0 0 19 19" fill="none" xmlns="http://www.w3.org/2000/svg">
<g id="logout">
<mask id="mask0_212_5057" style="mask-type:alpha" maskUnits="userSpaceOnUse" x="0" y="0" width="19" height="19">
<rect id="Bounding box" y="3.05176e-05" width="19" height="19" fill="#D9D9D9"/>
</mask>
<g mask="url(#mask0_212_5057)">
<path id="logout_2" d="M3.95833 16.625C3.52292 16.625 3.15017 16.47 2.8401 16.1599C2.53003 15.8499 2.375 15.4771 2.375 15.0417V3.95836C2.375 3.52295 2.53003 3.1502 2.8401 2.84013C3.15017 2.53007 3.52292 2.37503 3.95833 2.37503H9.5V3.95836H3.95833V15.0417H9.5V16.625H3.95833ZM12.6667 13.4584L11.5781 12.3104L13.5969 10.2917H7.125V8.70836H13.5969L11.5781 6.68961L12.6667 5.5417L16.625 9.50003L12.6667 13.4584Z" fill="#4B4B4B"/>
</g>
</g>
</svg>
