<svg width="17" height="17" viewBox="0 0 17 17" fill="none" xmlns="http://www.w3.org/2000/svg">
<g id="drafts">
<mask id="mask0_497_1996" style="mask-type:alpha" maskUnits="userSpaceOnUse" x="0" y="0" width="17" height="17">
<rect id="Bounding box" width="17" height="17" fill="#D9D9D9"/>
</mask>
<g mask="url(#mask0_497_1996)">
<path id="drafts_2" d="M8.49715 0.708244L14.9076 4.53324C15.1201 4.66311 15.2853 4.84019 15.4034 5.06449C15.5215 5.2888 15.5805 5.52491 15.5805 5.77283V13.4582C15.5805 13.8478 15.4418 14.1813 15.1643 14.4588C14.8869 14.7362 14.5534 14.8749 14.1638 14.8749H2.83049C2.4409 14.8749 2.10739 14.7362 1.82996 14.4588C1.55253 14.1813 1.41382 13.8478 1.41382 13.4582V5.77283C1.41382 5.52491 1.47285 5.2888 1.5909 5.06449C1.70896 4.84019 1.87424 4.66311 2.08674 4.53324L8.49715 0.708244ZM8.49715 8.96033L14.0222 5.66658L8.49715 2.37283L2.97215 5.66658L8.49715 8.96033ZM8.49715 10.6249L2.83049 7.22491V13.4582H14.1638V7.22491L8.49715 10.6249Z" fill="#5B5B5B"/>
</g>
</g>
</svg>
