<svg width="33" height="33" viewBox="0 0 33 33" fill="none" xmlns="http://www.w3.org/2000/svg">
<path d="M0.541992 32.4583L3.54824 22.1291C3.06005 21.0756 2.6939 19.9964 2.4498 18.8916C2.20571 17.7867 2.08366 16.6562 2.08366 15.4999C2.08366 13.3673 2.48835 11.3631 3.29772 9.48742C4.1071 7.61172 5.20553 5.98013 6.59303 4.59263C7.98053 3.20513 9.61213 2.10669 11.4878 1.29731C13.3635 0.487939 15.3677 0.083252 17.5003 0.083252C19.633 0.083252 21.6371 0.487939 23.5128 1.29731C25.3885 2.10669 27.0201 3.20513 28.4076 4.59263C29.7951 5.98013 30.8936 7.61172 31.7029 9.48742C32.5123 11.3631 32.917 13.3673 32.917 15.4999C32.917 17.6326 32.5123 19.6367 31.7029 21.5124C30.8936 23.3881 29.7951 25.0197 28.4076 26.4072C27.0201 27.7947 25.3885 28.8931 23.5128 29.7025C21.6371 30.5119 19.633 30.9166 17.5003 30.9166C16.3441 30.9166 15.2135 30.7945 14.1087 30.5504C13.0038 30.3063 11.9246 29.9402 10.8712 29.452L0.541992 32.4583ZM5.08991 27.9103L10.0232 26.4458C10.383 26.343 10.7491 26.3044 11.1217 26.3301C11.4942 26.3558 11.8475 26.4458 12.1816 26.5999C13.0038 27.011 13.8646 27.3194 14.7639 27.5249C15.6632 27.7305 16.5753 27.8333 17.5003 27.8333C20.9434 27.8333 23.8597 26.6385 26.2493 24.2489C28.6389 21.8593 29.8337 18.943 29.8337 15.4999C29.8337 12.0569 28.6389 9.14054 26.2493 6.75096C23.8597 4.36138 20.9434 3.16659 17.5003 3.16659C14.0573 3.16659 11.141 4.36138 8.75137 6.75096C6.36178 9.14054 5.16699 12.0569 5.16699 15.4999C5.16699 16.4249 5.26977 17.3371 5.47533 18.2364C5.68088 19.1357 5.98921 19.9964 6.40033 20.8187C6.58019 21.1527 6.67654 21.506 6.68939 21.8786C6.70224 22.2511 6.65727 22.6173 6.55449 22.977L5.08991 27.9103ZM15.9587 21.6666H19.042V17.0416H23.667V13.9583H19.042V9.33325H15.9587V13.9583H11.3337V17.0416H15.9587V21.6666Z" fill="#003366"/>
</svg>
