<svg width="17" height="17" viewBox="0 0 17 17" fill="none" xmlns="http://www.w3.org/2000/svg">
<g id="ad_units">
<mask id="mask0_497_1993" style="mask-type:alpha" maskUnits="userSpaceOnUse" x="0" y="0" width="17" height="17">
<rect id="Bounding box" width="16.25" height="16.25" fill="#D9D9D9"/>
</mask>
<g mask="url(#mask0_497_1993)">
<path id="ad_units_2" d="M5.41663 6.09375V4.73959H10.8333V6.09375H5.41663ZM4.73954 15.5729C4.36715 15.5729 4.04835 15.4403 3.78316 15.1751C3.51797 14.9099 3.38538 14.5911 3.38538 14.2188V2.03125C3.38538 1.65886 3.51797 1.34006 3.78316 1.07487C4.04835 0.809681 4.36715 0.677086 4.73954 0.677086H11.5104C11.8828 0.677086 12.2016 0.809681 12.4668 1.07487C12.7319 1.34006 12.8645 1.65886 12.8645 2.03125V14.2188C12.8645 14.5911 12.7319 14.9099 12.4668 15.1751C12.2016 15.4403 11.8828 15.5729 11.5104 15.5729H4.73954ZM4.73954 13.5417V14.2188H11.5104V13.5417H4.73954ZM4.73954 12.1875H11.5104V4.0625H4.73954V12.1875ZM4.73954 2.70834H11.5104V2.03125H4.73954V2.70834Z" fill="#5B5B5B"/>
</g>
</g>
</svg>
