<svg width="40" height="40" viewBox="0 0 40 40" fill="none" xmlns="http://www.w3.org/2000/svg">
<g id="other_admission">
<mask id="mask0_2528_5738" style="mask-type:alpha" maskUnits="userSpaceOnUse" x="0" y="0" width="40" height="40">
<rect id="Bounding box" width="40" height="40" fill="#D9D9D9"/>
</mask>
<g mask="url(#mask0_2528_5738)">
<path id="other_admission_2" d="M25.4167 31.25C25.75 31.25 26.0417 31.125 26.2917 30.875C26.5417 30.625 26.6667 30.3333 26.6667 30C26.6667 29.6667 26.5417 29.375 26.2917 29.125C26.0417 28.875 25.75 28.75 25.4167 28.75C25.0833 28.75 24.7917 28.875 24.5417 29.125C24.2917 29.375 24.1667 29.6667 24.1667 30C24.1667 30.3333 24.2917 30.625 24.5417 30.875C24.7917 31.125 25.0833 31.25 25.4167 31.25ZM30 31.25C30.3333 31.25 30.625 31.125 30.875 30.875C31.125 30.625 31.25 30.3333 31.25 30C31.25 29.6667 31.125 29.375 30.875 29.125C30.625 28.875 30.3333 28.75 30 28.75C29.6667 28.75 29.375 28.875 29.125 29.125C28.875 29.375 28.75 29.6667 28.75 30C28.75 30.3333 28.875 30.625 29.125 30.875C29.375 31.125 29.6667 31.25 30 31.25ZM34.5833 31.25C34.9167 31.25 35.2083 31.125 35.4583 30.875C35.7083 30.625 35.8333 30.3333 35.8333 30C35.8333 29.6667 35.7083 29.375 35.4583 29.125C35.2083 28.875 34.9167 28.75 34.5833 28.75C34.25 28.75 33.9583 28.875 33.7083 29.125C33.4583 29.375 33.3333 29.6667 33.3333 30C33.3333 30.3333 33.4583 30.625 33.7083 30.875C33.9583 31.125 34.25 31.25 34.5833 31.25ZM8.33333 35C7.41667 35 6.63194 34.6736 5.97917 34.0208C5.32639 33.3681 5 32.5833 5 31.6667V8.33333C5 7.41667 5.32639 6.63194 5.97917 5.97917C6.63194 5.32639 7.41667 5 8.33333 5H31.6667C32.5833 5 33.3681 5.32639 34.0208 5.97917C34.6736 6.63194 35 7.41667 35 8.33333V19.5C34.4722 19.25 33.9306 19.0347 33.375 18.8542C32.8194 18.6736 32.25 18.5417 31.6667 18.4583V8.33333H8.33333V31.6667H18.4167C18.5 32.2778 18.6319 32.8611 18.8125 33.4167C18.9931 33.9722 19.2083 34.5 19.4583 35H8.33333ZM8.33333 31.6667V8.33333V18.4583V18.3333V31.6667ZM11.6667 28.3333H18.4583C18.5417 27.75 18.6736 27.1806 18.8542 26.625C19.0347 26.0694 19.2361 25.5278 19.4583 25H11.6667V28.3333ZM11.6667 21.6667H21.8333C22.7222 20.8333 23.7153 20.1389 24.8125 19.5833C25.9097 19.0278 27.0833 18.6528 28.3333 18.4583V18.3333H11.6667V21.6667ZM11.6667 15H28.3333V11.6667H11.6667V15ZM30 38.3333C27.6944 38.3333 25.7292 37.5208 24.1042 35.8958C22.4792 34.2708 21.6667 32.3056 21.6667 30C21.6667 27.6944 22.4792 25.7292 24.1042 24.1042C25.7292 22.4792 27.6944 21.6667 30 21.6667C32.3056 21.6667 34.2708 22.4792 35.8958 24.1042C37.5208 25.7292 38.3333 27.6944 38.3333 30C38.3333 32.3056 37.5208 34.2708 35.8958 35.8958C34.2708 37.5208 32.3056 38.3333 30 38.3333Z" fill="#1C1B1F"/>
</g>
</g>
</svg>
