<svg width="41" height="43" viewBox="0 0 41 43" fill="none" xmlns="http://www.w3.org/2000/svg">
<circle cx="20.5" cy="20.5" r="20.1058" fill="#D9D9D9" stroke="black" stroke-width="0.788462"/>
<g filter="url(#filter0_d_212_4583)">
<g clip-path="url(#clip0_212_4583)">
<path d="M24.1167 26.3V27.7C24.1167 29.5666 26.8 30.3833 26.8 30.3833C26.8 30.3833 23.7083 32.7166 20.5 32.7166C17.2917 32.7166 14.2 30.3833 14.2 30.3833C14.2 30.3833 16.9045 29.5666 16.8833 27.7C16.8622 25.8333 16.8763 24.7366 16.8622 21.5386C15.1902 19.3713 15.2975 17.9167 16.2118 16.8937C19.275 13.4667 27.6167 14.6333 27.6167 14.6333C27.6167 14.6333 28.3951 23.0325 26.625 25.4833C25.8667 26.5333 24.1167 26.3 24.1167 26.3Z" fill="url(#paint0_linear_212_4583)"/>
<path style="mix-blend-mode:multiply" opacity="0.6" d="M24.1167 26.3C21.55 26.0083 20.0333 24.9 20.0333 24.9C20.9909 26.3166 22.4502 27.3173 24.1167 27.7V26.3Z" fill="url(#paint1_linear_212_4583)"/>
<path d="M32.75 33.9193C33.8607 36.1776 34.5 41.3859 34.5 41.3859H6.5C6.5 41.3859 7.13957 36.177 8.25 33.9193C9.36043 31.6615 15.845 29.5675 15.845 29.5675C17.0948 32.1333 23.9543 32.1333 25.1516 29.5667C25.1516 29.5667 31.6393 31.6609 32.75 33.9193Z" fill="url(#paint2_linear_212_4583)"/>
<path d="M20.0333 38.4333C20.0333 38.341 20.0607 38.2508 20.112 38.1741C20.1633 38.0973 20.2361 38.0375 20.3214 38.0022C20.4067 37.9669 20.5005 37.9576 20.591 37.9756C20.6816 37.9936 20.7647 38.0381 20.83 38.1034C20.8952 38.1686 20.9397 38.2518 20.9577 38.3423C20.9757 38.4328 20.9665 38.5266 20.9311 38.6119C20.8958 38.6972 20.836 38.7701 20.7593 38.8214C20.6825 38.8726 20.5923 38.9 20.5 38.9C20.3762 38.9 20.2575 38.8508 20.17 38.7633C20.0825 38.6758 20.0333 38.5571 20.0333 38.4333ZM20.0333 36.1C20.0333 36.0077 20.0607 35.9175 20.112 35.8407C20.1633 35.764 20.2361 35.7042 20.3214 35.6689C20.4067 35.6335 20.5005 35.6243 20.591 35.6423C20.6816 35.6603 20.7647 35.7048 20.83 35.77C20.8952 35.8353 20.9397 35.9184 20.9577 36.009C20.9757 36.0995 20.9665 36.1933 20.9311 36.2786C20.8958 36.3639 20.836 36.4367 20.7593 36.488C20.6825 36.5393 20.5923 36.5667 20.5 36.5667C20.3762 36.5667 20.2575 36.5175 20.17 36.43C20.0825 36.3425 20.0333 36.2238 20.0333 36.1ZM20.0333 33.7667C20.0333 33.6744 20.0607 33.5841 20.112 33.5074C20.1633 33.4307 20.2361 33.3708 20.3214 33.3355C20.4067 33.3002 20.5005 33.291 20.591 33.309C20.6816 33.327 20.7647 33.3714 20.83 33.4367C20.8952 33.502 20.9397 33.5851 20.9577 33.6756C20.9757 33.7662 20.9665 33.86 20.9311 33.9453C20.8958 34.0305 20.836 34.1034 20.7593 34.1547C20.6825 34.206 20.5923 34.2333 20.5 34.2333C20.3762 34.2333 20.2575 34.1842 20.17 34.0967C20.0825 34.0091 20.0333 33.8904 20.0333 33.7667Z" fill="white"/>
<path d="M18.3014 18.041C17.9304 17.7224 17.4796 17.5079 16.8424 17.839C15.3317 18.6233 16.475 21.6333 17.8167 21.6333C18.1667 21.6333 18.3407 22.7326 16.7824 23.5C16.7824 22.275 14.9157 19.2417 14.7524 16.4799C12.8741 15.7805 13.3407 12.982 14.6303 12.982C14.4245 10.4168 18.5324 9.09166 20.123 10.5639C21.7407 8.62499 25.8241 9.61666 26.0706 11.2988C28.8784 9.79994 30.7241 14.1083 28.095 15.7809C27.0131 16.4692 24.4824 16.7311 20.8292 16.7311C20.2777 16.7311 19.9688 16.8681 20.123 17.55C20.4216 18.8714 19.7285 19.7037 18.3014 18.041Z" fill="url(#paint3_linear_212_4583)"/>
</g>
</g>
<defs>
<filter id="filter0_d_212_4583" x="1.25" y="4.25" width="38.5" height="38.5" filterUnits="userSpaceOnUse" color-interpolation-filters="sRGB">
<feFlood flood-opacity="0" result="BackgroundImageFix"/>
<feColorMatrix in="SourceAlpha" type="matrix" values="0 0 0 0 0 0 0 0 0 0 0 0 0 0 0 0 0 0 127 0" result="hardAlpha"/>
<feOffset/>
<feGaussianBlur stdDeviation="0.875"/>
<feColorMatrix type="matrix" values="0 0 0 0 0 0 0 0 0 0 0 0 0 0 0 0 0 0 0.25 0"/>
<feBlend mode="normal" in2="BackgroundImageFix" result="effect1_dropShadow_212_4583"/>
<feBlend mode="normal" in="SourceGraphic" in2="effect1_dropShadow_212_4583" result="shape"/>
</filter>
<linearGradient id="paint0_linear_212_4583" x1="20.9936" y1="14.4419" x2="20.9936" y2="32.7166" gradientUnits="userSpaceOnUse">
<stop stop-color="#E6864E"/>
<stop offset="1" stop-color="#EB965E"/>
</linearGradient>
<linearGradient id="paint1_linear_212_4583" x1="23.3449" y1="25.4264" x2="22.6297" y2="28.1345" gradientUnits="userSpaceOnUse">
<stop stop-color="#E07A3F"/>
<stop offset="1" stop-color="#EB9154"/>
</linearGradient>
<linearGradient id="paint2_linear_212_4583" x1="20.5" y1="29.5667" x2="20.5" y2="41.3859" gradientUnits="userSpaceOnUse">
<stop stop-color="#1D0024"/>
<stop offset="1" stop-color="#100014"/>
</linearGradient>
<linearGradient id="paint3_linear_212_4583" x1="21.4314" y1="9.49969" x2="21.4314" y2="23.5" gradientUnits="userSpaceOnUse">
<stop stop-color="#1D0024"/>
<stop offset="1" stop-color="#100014"/>
</linearGradient>
<clipPath id="clip0_212_4583">
<rect x="3" y="6" width="35" height="35" rx="17.5" fill="white"/>
</clipPath>
</defs>
</svg>
