<svg width="73" height="73" viewBox="0 0 73 73" fill="none" xmlns="http://www.w3.org/2000/svg">
<g id="Group 2226">
<circle id="Ellipse 3" cx="36.1687" cy="36.1325" r="36" fill="white"/>
<g id="hourglass">
<mask id="mask0_4_2590" style="mask-type:alpha" maskUnits="userSpaceOnUse" x="17" y="16" width="40" height="40">
<rect id="Bounding box" x="17.5602" y="16.5783" width="38.9398" height="38.9398" fill="#D9D9D9"/>
</mask>
<g mask="url(#mask0_4_2590)">
<path id="hourglass_2" d="M31.207 45.7211H41.6388V41.8092C41.6388 40.3748 41.1281 39.1469 40.1067 38.1254C39.0852 37.104 37.8573 36.5933 36.4229 36.5933C34.9886 36.5933 33.7607 37.104 32.7392 38.1254C31.7178 39.1469 31.207 40.3748 31.207 41.8092V45.7211ZM36.4229 33.9853C37.8573 33.9853 39.0852 33.4746 40.1067 32.4531C41.1281 31.4317 41.6388 30.2038 41.6388 28.7694V24.8575H31.207V28.7694C31.207 30.2038 31.7178 31.4317 32.7392 32.4531C33.7607 33.4746 34.9886 33.9853 36.4229 33.9853ZM25.9911 48.329V45.7211H28.5991V41.8092C28.5991 40.4834 28.9088 39.2392 29.5282 38.0765C30.1476 36.9138 31.0115 35.9847 32.1198 35.2893C31.0115 34.5938 30.1476 33.6647 29.5282 32.502C28.9088 31.3393 28.5991 30.0951 28.5991 28.7694V24.8575H25.9911V22.2495H46.8547V24.8575H44.2468V28.7694C44.2468 30.0951 43.9371 31.3393 43.3177 32.502C42.6983 33.6647 41.8344 34.5938 40.7261 35.2893C41.8344 35.9847 42.6983 36.9138 43.3177 38.0765C43.9371 39.2392 44.2468 40.4834 44.2468 41.8092V45.7211H46.8547V48.329H25.9911Z" fill="#003366"/>
</g>
</g>
</g>
</svg>
