<svg width="34" height="35" viewBox="0 0 34 35" fill="none" xmlns="http://www.w3.org/2000/svg">
<path d="M17 34.8333C14.6483 34.8333 12.4383 34.387 10.37 33.4945C8.30167 32.602 6.5025 31.3908 4.9725 29.8608C3.4425 28.3308 2.23125 26.5316 1.33875 24.4633C0.44625 22.3949 0 20.1849 0 17.8333C0 15.4816 0.44625 13.2716 1.33875 11.2033C2.23125 9.13492 3.4425 7.33575 4.9725 5.80575C6.5025 4.27575 8.30167 3.0645 10.37 2.172C12.4383 1.2795 14.6483 0.833252 17 0.833252C19.3517 0.833252 21.5617 1.2795 23.63 2.172C25.6983 3.0645 27.4975 4.27575 29.0275 5.80575C30.5575 7.33575 31.7687 9.13492 32.6613 11.2033C33.5537 13.2716 34 15.4816 34 17.8333C34 20.1849 33.5537 22.3949 32.6613 24.4633C31.7687 26.5316 30.5575 28.3308 29.0275 29.8608C27.4975 31.3908 25.6983 32.602 23.63 33.4945C21.5617 34.387 19.3517 34.8333 17 34.8333ZM15.3 31.2633V26.1633C13.6 25.8233 12.155 25.0583 10.965 23.8683C9.775 22.6783 9.01 21.2333 8.67 19.5333H3.57C3.91 22.6216 5.17792 25.2424 7.37375 27.3958C9.56958 29.5491 12.2117 30.8383 15.3 31.2633ZM18.7 31.2633C21.7883 30.9233 24.4304 29.6553 26.6263 27.4595C28.8221 25.2637 30.09 22.6216 30.43 19.5333H25.33C24.99 21.2333 24.225 22.6783 23.035 23.8683C21.845 25.0583 20.4 25.8233 18.7 26.1633V31.2633ZM3.57 16.1333H8.5L13.6 11.0333H20.4L25.5 16.1333H30.43C30.005 12.7049 28.5175 9.8645 25.9675 7.612C23.4175 5.3595 20.4283 4.23325 17 4.23325C13.5717 4.23325 10.5825 5.3595 8.0325 7.612C5.4825 9.8645 3.995 12.7049 3.57 16.1333Z" fill="#003366"/>
</svg>
