<svg width="35" height="35" viewBox="0 0 35 35" fill="none" xmlns="http://www.w3.org/2000/svg">
<path d="M24.6758 34.4123C22.8536 34.1276 21.2947 33.3304 19.9992 32.0207C18.7037 30.7109 17.9136 29.145 17.6289 27.3228H20.1487C20.4049 28.4616 20.9388 29.4368 21.7503 30.2483C22.5617 31.0597 23.5369 31.5936 24.6758 31.8498V34.4123ZM27.2383 34.455V31.8498C28.6049 31.5366 29.7296 30.8533 30.6122 29.7998C31.4949 28.7464 31.9362 27.4936 31.9362 26.0415C31.9362 24.5894 31.4949 23.3366 30.6122 22.2832C29.7296 21.2297 28.6049 20.5464 27.2383 20.2332V17.628C29.2883 17.9412 31.0109 18.8879 32.406 20.4681C33.8011 22.0483 34.4987 23.9061 34.4987 26.0415C34.4987 28.1769 33.8011 30.0347 32.406 31.6149C31.0109 33.1952 29.2883 34.1419 27.2383 34.455ZM17.6289 24.7603C17.9136 22.938 18.7037 21.3721 19.9992 20.0623C21.2947 18.7526 22.8536 17.9554 24.6758 17.6707V20.2332C23.5369 20.4894 22.5617 21.0233 21.7503 21.8347C20.9388 22.6462 20.4049 23.6214 20.1487 24.7603H17.6289ZM24.2487 29.4582V22.6248L29.5445 26.0415L24.2487 29.4582ZM12.8029 34.5832L12.1195 29.1165C11.7494 28.9741 11.4006 28.8033 11.0732 28.604C10.7457 28.4047 10.4254 28.1912 10.1122 27.9634L5.02995 30.0988L0.332031 21.9842L4.73099 18.653C4.70252 18.4537 4.68828 18.2615 4.68828 18.0764V16.9233C4.68828 16.7382 4.70252 16.546 4.73099 16.3467L0.332031 13.0155L5.02995 4.90088L10.1122 7.0363C10.4254 6.80852 10.7529 6.59498 11.0945 6.39567C11.4362 6.19637 11.7779 6.02553 12.1195 5.88317L12.8029 0.416504H22.1987L22.882 5.88317C23.2522 6.02553 23.601 6.19637 23.9284 6.39567C24.2558 6.59498 24.5761 6.80852 24.8893 7.0363L29.9716 4.90088L34.6695 13.0155L31.5091 15.4071C30.8827 15.0939 30.2421 14.8306 29.5872 14.617C28.9324 14.4035 28.2348 14.254 27.4945 14.1686L30.1852 12.1186L28.5195 9.21442L24.2914 11.0082C23.665 10.3533 22.9746 9.80522 22.2201 9.3639C21.4655 8.92258 20.647 8.58803 19.7643 8.36025L19.2091 3.83317H15.8352L15.2372 8.36025C14.3546 8.58803 13.536 8.92258 12.7815 9.3639C12.027 9.80522 11.3365 10.3391 10.7102 10.9655L6.48203 9.21442L4.81641 12.1186L8.48932 14.8519C8.34696 15.279 8.24731 15.7061 8.19036 16.1332C8.13342 16.5603 8.10495 17.0158 8.10495 17.4998C8.10495 17.9554 8.13342 18.3967 8.19036 18.8238C8.24731 19.2509 8.34696 19.678 8.48932 20.105L4.81641 22.8811L6.48203 25.7853L10.7102 23.9915C11.1942 24.4755 11.7138 24.9097 12.269 25.2941C12.8242 25.6785 13.4293 25.9988 14.0841 26.255C14.1126 27.878 14.4471 29.4012 15.0878 30.8248C15.7284 32.2485 16.5897 33.5012 17.6716 34.5832H12.8029ZM14.5539 22.6675C14.7247 22.0981 14.9312 21.55 15.1732 21.0233C15.4152 20.4965 15.6928 19.9912 16.006 19.5071C15.6928 19.2794 15.4508 18.9875 15.2799 18.6316C15.1091 18.2757 15.0237 17.8984 15.0237 17.4998C15.0237 16.788 15.2728 16.183 15.7711 15.6847C16.2694 15.1865 16.8744 14.9373 17.5862 14.9373C17.9848 14.9373 18.3692 15.0299 18.7393 15.2149C19.1095 15.4 19.4084 15.6491 19.6362 15.9623C20.1202 15.6491 20.6185 15.3715 21.131 15.1295C21.6435 14.8875 22.1845 14.6953 22.7539 14.553C22.2414 13.6419 21.5296 12.9087 20.6185 12.3535C19.7074 11.7983 18.6966 11.5207 17.5862 11.5207C15.9063 11.5207 14.4898 12.1044 13.3367 13.2717C12.1836 14.4391 11.607 15.8484 11.607 17.4998C11.607 18.5818 11.8704 19.5854 12.3971 20.5108C12.9239 21.4361 13.6428 22.155 14.5539 22.6675Z" fill="#003366"/>
</svg>
