<svg width="23" height="19" viewBox="0 0 23 19" fill="none" xmlns="http://www.w3.org/2000/svg">
<path d="M9.98357 14.3471C10.205 14.4668 10.4528 14.5294 10.7045 14.5294C10.9811 14.5296 11.2526 14.455 11.4902 14.3133C11.7278 14.1716 11.9226 13.9682 12.0538 13.7247C12.1486 13.5487 12.2065 13.3607 12.2264 13.1659L13.1235 9.58811C13.1518 9.47524 13.1417 9.35618 13.0947 9.24971C13.0478 9.14324 12.9668 9.05542 12.8644 9.00013C12.762 8.94483 12.6442 8.92519 12.5294 8.94432C12.4146 8.96345 12.3095 9.02025 12.2306 9.10576L9.65651 11.8951C9.53891 12.0053 9.44011 12.134 9.36402 12.2761C8.96416 13.0187 9.24199 13.9475 9.98357 14.3471ZM10.2863 12.7728C10.3098 12.7282 10.341 12.688 10.3785 12.6542C10.3957 12.6385 10.4125 12.6217 10.4274 12.6039L11.6084 11.3245L11.2002 12.9517C11.1927 12.9819 11.1879 13.0128 11.1858 13.0439C11.1813 13.1085 11.1628 13.1714 11.1316 13.2282C11.0712 13.3406 10.9688 13.4244 10.8466 13.4613C10.7245 13.4982 10.5928 13.4851 10.4803 13.4249C10.3683 13.364 10.2849 13.2612 10.2486 13.1389C10.2122 13.0167 10.2258 12.8851 10.2863 12.7728Z" fill="#003366"/>
<path d="M1.61721 14.3841L3.91005 16.6725C4.00825 16.7704 4.14127 16.8254 4.28006 16.8254H16.9391C17.0779 16.8254 17.2112 16.7704 17.3091 16.6725L19.6363 14.3498C19.7344 14.2518 19.7897 14.1188 19.79 13.9801L19.7918 13.0636V13.0625C19.7918 8.00891 15.6804 3.89746 10.6267 3.89746C5.57312 3.89746 1.46167 8.00891 1.46167 13.0636L1.4635 14.0146C1.46381 14.1533 1.51909 14.2862 1.61721 14.3841ZM10.6267 4.9449C15.1024 4.9449 18.7441 8.58578 18.7444 13.0617L18.7431 13.7614L16.7225 15.778H4.49662L2.51094 13.7957L2.50937 13.0625C2.50937 8.58657 6.15078 4.9449 10.6267 4.9449Z" fill="#003366"/>
<path d="M10.6266 8.26665C10.7655 8.26665 10.8987 8.21147 10.9969 8.11326C11.0952 8.01504 11.1503 7.88183 11.1503 7.74293V6.76096C11.1503 6.62206 11.0952 6.48885 10.9969 6.39064C10.8987 6.29242 10.7655 6.23724 10.6266 6.23724C10.4877 6.23724 10.3545 6.29242 10.2563 6.39064C10.1581 6.48885 10.1029 6.62206 10.1029 6.76096V7.74293C10.1029 7.88183 10.1581 8.01504 10.2563 8.11326C10.3545 8.21147 10.4877 8.26665 10.6266 8.26665ZM14.9085 10.0402C15.0426 10.0402 15.1767 9.98916 15.2791 9.88677L15.9733 9.19232C16.0715 9.09405 16.1266 8.9608 16.1266 8.82187C16.1265 8.68294 16.0713 8.54972 15.973 8.45152C15.8747 8.35332 15.7415 8.29818 15.6025 8.29823C15.4636 8.29828 15.3304 8.35351 15.2322 8.45179L14.5383 9.14624C14.465 9.21948 14.4152 9.31278 14.395 9.41436C14.3748 9.51594 14.3852 9.62122 14.4248 9.71691C14.4644 9.81259 14.5315 9.89437 14.6176 9.95192C14.7037 10.0095 14.805 10.0402 14.9085 10.0402ZM5.97443 9.88677C6.07656 9.9889 6.21089 10.0402 6.3447 10.0402C6.47851 10.0402 6.61285 9.98916 6.71523 9.88677C6.81342 9.78856 6.86857 9.65537 6.86857 9.5165C6.86857 9.37763 6.81342 9.24445 6.71523 9.14624L6.02078 8.45179C5.97247 8.40176 5.91468 8.36187 5.85079 8.33442C5.78689 8.30697 5.71817 8.29252 5.64863 8.29192C5.57909 8.29132 5.51013 8.30457 5.44576 8.3309C5.3814 8.35723 5.32293 8.39612 5.27375 8.44529C5.22458 8.49447 5.18569 8.55294 5.15936 8.6173C5.13303 8.68167 5.11978 8.75063 5.12038 8.82017C5.12099 8.88971 5.13543 8.95843 5.16288 9.02233C5.19033 9.08622 5.23023 9.14401 5.28025 9.19232L5.97443 9.88677Z" fill="#003366"/>
</svg>
