<svg width="29" height="32" viewBox="0 0 29 32" fill="none" xmlns="http://www.w3.org/2000/svg">
<g id="User 05c">
<path id="face" d="M18.1167 17.3V18.7C18.1167 20.5666 20.8 21.3833 20.8 21.3833C20.8 21.3833 17.7083 23.7166 14.5 23.7166C11.2917 23.7166 8.20001 21.3833 8.20001 21.3833C8.20001 21.3833 10.9045 20.5666 10.8833 18.7C10.8622 16.8333 10.8763 15.7366 10.8622 12.5386C9.19016 10.3713 9.2975 8.91667 10.2118 7.89373C13.275 4.46665 21.6167 5.63332 21.6167 5.63332C21.6167 5.63332 22.3951 14.0325 20.625 16.4833C19.8667 17.5333 18.1167 17.3 18.1167 17.3Z" fill="url(#paint0_linear_460_2002)"/>
<path id="shade" style="mix-blend-mode:multiply" opacity="0.6" d="M18.1167 17.3C15.55 17.0083 14.0333 15.9 14.0333 15.9C14.9909 17.3166 16.4502 18.3173 18.1167 18.7V17.3Z" fill="url(#paint1_linear_460_2002)"/>
<path id="body" d="M26.75 24.9193C27.8607 27.1776 28.5 32.3859 28.5 32.3859H0.5C0.5 32.3859 1.13957 27.177 2.25 24.9193C3.36043 22.6615 9.845 20.5675 9.845 20.5675C11.0948 23.1333 17.9543 23.1333 19.1516 20.5667C19.1516 20.5667 25.6393 22.6609 26.75 24.9193Z" fill="url(#paint2_linear_460_2002)"/>
<path id="buttons" d="M14.0333 29.4333C14.0333 29.341 14.0607 29.2508 14.112 29.1741C14.1633 29.0973 14.2361 29.0375 14.3214 29.0022C14.4067 28.9669 14.5005 28.9576 14.591 28.9756C14.6816 28.9936 14.7647 29.0381 14.83 29.1034C14.8952 29.1686 14.9397 29.2518 14.9577 29.3423C14.9757 29.4328 14.9665 29.5266 14.9311 29.6119C14.8958 29.6972 14.836 29.7701 14.7593 29.8214C14.6825 29.8726 14.5923 29.9 14.5 29.9C14.3762 29.9 14.2575 29.8508 14.17 29.7633C14.0825 29.6758 14.0333 29.5571 14.0333 29.4333ZM14.0333 27.1C14.0333 27.0077 14.0607 26.9175 14.112 26.8407C14.1633 26.764 14.2361 26.7042 14.3214 26.6689C14.4067 26.6335 14.5005 26.6243 14.591 26.6423C14.6816 26.6603 14.7647 26.7048 14.83 26.77C14.8952 26.8353 14.9397 26.9184 14.9577 27.009C14.9757 27.0995 14.9665 27.1933 14.9311 27.2786C14.8958 27.3639 14.836 27.4367 14.7593 27.488C14.6825 27.5393 14.5923 27.5667 14.5 27.5667C14.3762 27.5667 14.2575 27.5175 14.17 27.43C14.0825 27.3425 14.0333 27.2238 14.0333 27.1ZM14.0333 24.7667C14.0333 24.6744 14.0607 24.5841 14.112 24.5074C14.1633 24.4307 14.2361 24.3708 14.3214 24.3355C14.4067 24.3002 14.5005 24.291 14.591 24.309C14.6816 24.327 14.7647 24.3714 14.83 24.4367C14.8952 24.502 14.9397 24.5851 14.9577 24.6756C14.9757 24.7662 14.9665 24.86 14.9311 24.9453C14.8958 25.0305 14.836 25.1034 14.7593 25.1547C14.6825 25.206 14.5923 25.2333 14.5 25.2333C14.3762 25.2333 14.2575 25.1842 14.17 25.0967C14.0825 25.0091 14.0333 24.8904 14.0333 24.7667V24.7667Z" fill="white"/>
<path id="hair" d="M12.3014 9.04104C11.9304 8.72242 11.4796 8.50787 10.8424 8.83897C9.33166 9.62332 10.475 12.6333 11.8167 12.6333C12.1667 12.6333 12.3407 13.7326 10.7824 14.5C10.7824 13.275 8.91574 10.2417 8.75241 7.47992C6.87408 6.78051 7.34074 3.98202 8.63026 3.98202C8.42446 1.41676 12.5324 0.0916573 14.123 1.56387C15.7407 -0.375009 19.8241 0.616657 20.0706 2.29876C22.8784 0.799941 24.7241 5.10832 22.095 6.78086C21.0131 7.46919 18.4824 7.73111 14.8292 7.73111C14.2777 7.73111 13.9688 7.86807 14.123 8.54999C14.4216 9.87136 13.7285 10.7037 12.3014 9.04104Z" fill="url(#paint3_linear_460_2002)"/>
</g>
<defs>
<linearGradient id="paint0_linear_460_2002" x1="14.9936" y1="5.44189" x2="14.9936" y2="23.7166" gradientUnits="userSpaceOnUse">
<stop stop-color="#E6864E"/>
<stop offset="1" stop-color="#EB965E"/>
</linearGradient>
<linearGradient id="paint1_linear_460_2002" x1="17.3449" y1="16.4264" x2="16.6297" y2="19.1345" gradientUnits="userSpaceOnUse">
<stop stop-color="#E07A3F"/>
<stop offset="1" stop-color="#EB9154"/>
</linearGradient>
<linearGradient id="paint2_linear_460_2002" x1="14.5" y1="20.5667" x2="14.5" y2="32.3859" gradientUnits="userSpaceOnUse">
<stop stop-color="#1D0024"/>
<stop offset="1" stop-color="#100014"/>
</linearGradient>
<linearGradient id="paint3_linear_460_2002" x1="15.4314" y1="0.499695" x2="15.4314" y2="14.5" gradientUnits="userSpaceOnUse">
<stop stop-color="#1D0024"/>
<stop offset="1" stop-color="#100014"/>
</linearGradient>
</defs>
</svg>
