<svg width="12" height="15" viewBox="0 0 12 15" fill="none" xmlns="http://www.w3.org/2000/svg">
<g id="Group 6915">
<g id="Group 6923">
<g id="Group 6922">
<g id="Group 6914">
<path id="Vector" d="M5.85054 1.78079V1.78155H5.84828C5.77608 1.78155 5.70388 1.79462 5.63544 1.82075L1.54332 3.39082C1.28084 3.4915 1.153 3.75741 1.14772 4.03636V4.04174C1.19661 6.66309 1.3222 8.97871 2.04497 10.4326C2.05098 10.4449 2.06302 10.4687 2.06302 10.4687C2.75645 11.8282 4.02898 12.4631 5.62335 13.1155C5.69631 13.1454 5.77377 13.16 5.85124 13.16C5.9287 13.16 6.00617 13.1454 6.07912 13.1155C7.67353 12.4638 8.94614 11.8297 9.63946 10.4695C9.65224 10.4449 9.65826 10.4326 9.65826 10.4326C10.381 8.97937 10.5066 6.66468 10.5555 4.04392L10.5563 4.03778C10.5615 3.7565 10.4231 3.49137 10.1599 3.39068L6.06625 1.82061C5.99706 1.79448 5.92411 1.78065 5.8504 1.78065L5.85054 1.78079ZM5.85204 1.18058H5.85279C5.86257 1.18058 5.87084 1.18519 5.87987 1.18903L11.049 3.17098C11.0716 3.17943 11.0851 3.20095 11.0844 3.22477C11.0844 3.23015 11.0836 3.23861 11.0836 3.23861C11.0438 6.16431 10.9738 8.94796 10.1164 10.6708C9.27485 12.3623 7.64892 13.0547 5.87164 13.7641C5.85886 13.7687 5.85209 13.7687 5.85209 13.7687C5.84532 13.7687 5.83855 13.7672 5.83178 13.7649C4.0546 13.0548 2.43009 12.367 1.58853 10.6755L1.58702 10.6709C0.729652 8.9479 0.660455 6.16597 0.620601 3.23948V3.23718C0.619849 3.20951 0.627369 3.18108 0.654444 3.17109L5.83264 1.18363C5.83941 1.18133 5.84527 1.18058 5.85204 1.18058ZM5.85806 0.527344H5.83926V0.528112C5.80541 0.528112 5.77082 0.53426 5.73697 0.547325L0.200083 2.67151C0.0782452 2.71839 -0.00148091 2.83828 2.08548e-05 2.97123L0.00227711 3.13108C0.0406337 6.04379 0.0902707 9.05331 1.0364 10.956L1.03865 10.9613C2.01561 12.9203 3.91684 13.6787 5.68873 14.3842L5.73912 14.4042C5.77522 14.418 5.81283 14.4257 5.85118 14.4257L5.85269 14.4265C5.89179 14.4257 5.92639 14.4188 5.96099 14.405H5.96174L5.96399 14.4042L6.01664 14.3827L6.07004 14.3619C7.82541 13.6626 9.69738 12.8987 10.6645 10.9613L10.6667 10.9559C11.6219 9.03541 11.6632 5.99436 11.7024 3.05724L11.7031 2.97117C11.7046 2.83822 11.6249 2.71911 11.5038 2.67146L5.96324 0.546483C5.92715 0.53265 5.89416 0.527344 5.85806 0.527344Z" fill="#1B69B8"/>
</g>
</g>
<g id="Group 414">
<rect id="Rectangle 694" width="1.04739" height="4.80753" transform="matrix(0.698113 0.715987 -0.698113 0.715987 7.54688 5.08789)" fill="white"/>
</g>
<g id="Group 415">
<rect id="Rectangle 694_2" width="1.04759" height="1.987" transform="matrix(0.698113 -0.715987 0.698113 0.715987 3 7.31641)" fill="white"/>
</g>
</g>
</g>
</svg>
