<?xml version="1.0" encoding="utf-8"?>
<!-- Generator: Adobe Illustrator 27.5.0, SVG Export Plug-In . SVG Version: 6.00 Build 0)  -->
<svg version="1.1" xmlns="http://www.w3.org/2000/svg" xmlns:xlink="http://www.w3.org/1999/xlink" x="0px" y="0px"
	 viewBox="0 0 500 500" style="enable-background:new 0 0 500 500;" xml:space="preserve">
<g id="BACKGROUND">
	<g>
		<defs>
			<rect id="SVGID_1_" x="9.321" y="145.371" width="455.96" height="261.441"/>
		</defs>
		<clipPath id="SVGID_00000075141281026471037320000004611951156482205350_">
			<use xlink:href="#SVGID_1_"  style="overflow:visible;"/>
		</clipPath>
		<g style="clip-path:url(#SVGID_00000075141281026471037320000004611951156482205350_);">
			<path style="fill:#BFB499;" d="M386.09,423.522c-10.642-1.28-24.693-4.796-34.777-0.491c1.883-1.899,3.735-3.818,5.579-5.741
				c9.142-6.242,20.07-0.621,30.393-1.33c0.19,0.012,0.379,0.03,0.569,0.033c5.533,0.072,11.814-1.518,16.276,0.577
				c3.372,1.583,4.228,4.787,3.309,8.055C400.329,425.003,393.144,424.371,386.09,423.522z"/>
			<path style="fill:#BFB499;" d="M325.704,388.898c-0.027,7.241,1.48,14.466,3.561,21.514c2.594,8.783,7.426,17.694,4.786,26.781
				c-0.018,0.062-0.016,0.119-0.007,0.173c-2.821,2.713-5.666,5.414-8.533,8.102c1.906-4.826,4.13-10.46,4.13-10.46
				c0.564-10.157-8.647-17.843-13.197-26.836c-4.217-8.334-4.368-18.21-0.423-27.509c2.288-5.392,8.051-11.384,14.437-12.593
				C327.034,374.758,325.727,382.475,325.704,388.898z"/>
			<path style="fill:#BFB499;" d="M372.969,429.421c-9.739-0.934-19.342-1.455-28.732,0.587c1.631-1.574,3.232-3.169,4.834-4.763
				c7.201-3.826,16.352-2.961,24.627-1.931c8.969,1.117,17.91,2.583,26.994,2.833c1.998,0.055,4.092,0.036,6.223-0.058
				c-0.715,1.618-1.853,3.186-3.312,4.529C393.247,430.873,383.449,430.426,372.969,429.421z"/>
			<path style="fill:#BFB499;" d="M358.772,415.325c5.231-5.518,10.294-11.133,15.22-16.808c13.648-4.311,27.741-1.417,42.029-1.592
				c4.976-0.061,10.407-0.578,15.293-1.986c-0.397,1.083-1.001,2.136-1.83,3.094c-4.232,4.889-12.039,7.37-19.223,7.972
				s-14.146-0.304-21.252-0.349c-3.156-0.02-6.903,0.357-8.925,2.46c-2.168,2.255-0.846,4.662,1.767,6.214
				C373.911,413.25,365.133,412.048,358.772,415.325z"/>
			<path style="fill:#BFB499;" d="M356.877,414.46c-2.262,2.379-4.544,4.745-6.849,7.096c0.585-9.284-4.877-18.149-1.262-27.516
				c0.13-0.336-0.492-0.571-0.71-0.261c-6.22,8.809,1.694,19.538,0.723,29.042c-1.464,1.485-2.921,2.975-4.401,4.45
				c-0.724-7.294-4.914-13.68-7.57-20.617c-3.615-9.44-1.639-17.986,3.592-26.616c0.054-0.089-0.099-0.17-0.167-0.084
				c-4.934,6.229-6.605,14.009-5.639,21.326c1.215,9.203,7.841,17.268,8.944,26.492c0.01,0.087,0.058,0.154,0.117,0.21
				c-2.653,2.638-5.335,5.26-8.036,7.871c1.414-5.757-0.22-11.343-2.134-17.057c-2.506-7.481-4.904-14.978-5.81-22.696
				c-0.865-7.371-0.448-14.863,2.174-21.96c0.845-2.288,1.956-4.34,3.226-6.285c0.722,0.02,1.448,0.106,2.172,0.27
				c6.318,1.431,7.615,7.732,6.596,13.046c-0.409,2.133-1.035,4.374-0.177,6.288c0.858,1.913,3.916,3.221,6.398,2.011
				c1.876-0.915,2.542-2.755,2.818-4.367c0.945-5.528-0.371-10.869-0.843-16.278c-0.472-5.409,0.044-11.296,4.125-16.246
				c3.19-3.869,9.157-6.777,14.498-6.772c-4.625,8.449-5.382,18.818-5.741,27.54C362.347,387.277,363.009,401.29,356.877,414.46z"/>
			<path style="fill:#BFB499;" d="M390.597,368.097c2.29-2.205,3.005-4.991,3.887-7.62c3.097-9.231,10.301-18.893,21.796-22.967
				c11.495-4.074,26.544,0.746,25.704,10.015c-0.702,7.742-10.94,13.819-20.503,17.307c-6.257,2.282-13.043,4.24-17.757,8.274
				c-4.715,4.034-5.875,11.021-0.362,13.183c6.32,2.478,15.154-3.031,22.215-1.732c0.745,0.137,1.414,0.36,2.028,0.636
				c-8.676,1.902-17.193,3.596-26.466,4.142c-6.843,0.403-15.025-0.408-21.254,2.262c13.866-16.961,26.143-36.521,48.414-47.143
				c0.322-0.154,0.043-0.564-0.286-0.414c-22.579,10.286-34.975,29.042-48.983,45.724c-3.653,4.351-7.408,8.632-11.223,12.874
				c2.606-5.497,1.008-13.432,1.136-18.545c0.283-11.264,2.37-21.362,9.036-31.311c0.213-0.318-0.334-0.588-0.597-0.299
				c-6.109,6.701-8.154,15.461-8.994,23.611c-0.516,5.008-0.565,10.043-0.712,15.068c-0.148,5.044,0.189,10.139-3.018,14.625
				c-0.073,0.102-0.03,0.206,0.05,0.282c-1.899,2.077-3.809,4.146-5.742,6.201c4.66-10.295,4.899-21.441,5.103-32.403
				c0.134-7.193,0.31-14.424,1.816-21.52c0.949-4.476,2.655-8.461,4.751-12.408c0.79,0.119,1.556,0.308,2.283,0.585
				c8.327,3.165,5.845,12.906,7.124,20.244c0.192,1.104,0.527,2.236,1.494,2.993C383.771,371.512,388.307,370.303,390.597,368.097z"
				/>
			<path style="fill:#BFB499;" d="M403.926,395.34c-9.818-0.529-19.798-0.989-28.913,2c0.679-0.787,1.372-1.567,2.045-2.356
				c0.555-0.65,1.105-1.307,1.654-1.967c8.843-3.577,19.416-2.007,29.068-2.962c7.087-0.702,14.595-1.83,21.489-3.832
				c2.051,1.681,2.902,4.294,2.499,6.947C423.249,395.94,414.034,395.885,403.926,395.34z"/>
			<path style="fill:#BFB499;" d="M376.062,430.626c8.255,0.874,17.436,2.224,25.916,1.309c-0.006,0.004-0.011,0.009-0.017,0.013
				c-6.144,4.228-13.938,1.609-21.591,1.699c-19.552,0.23-30.828,2.518-52.29,11.153c5.319-4.628,10.502-9.363,15.538-14.205
				C354.344,428.581,365.141,429.469,376.062,430.626z"/>
		</g>
		<g style="clip-path:url(#SVGID_00000075141281026471037320000004611951156482205350_);">
			<g>
				<path style="fill:#E3D6B6;" d="M197.695,277.405c-5.475,12.82-14.982,29.081-13.281,43.239
					c-1.685-3.043-3.406-6.054-5.135-9.057c-4.463-13.688,6.536-25.283,9.41-38.429c0.084-0.232,0.176-0.462,0.248-0.698
					c2.106-6.882,2.409-15.302,6.649-20.11c3.204-3.633,7.517-3.535,11.262-1.198C204.73,260.168,201.324,268.908,197.695,277.405z"
					/>
				<path style="fill:#E3D6B6;" d="M132.471,340.184c9.03,2.671,18.599,3.422,28.157,3.391c11.911-0.039,24.795-2.826,35.179,3.78
					c0.071,0.045,0.142,0.063,0.213,0.072c2.359,4.511,4.695,9.046,7.007,13.604c-5.331-4.137-11.554-8.966-11.554-8.966
					c-12.475-4.404-25.426,4.296-38.312,6.701c-11.941,2.229-24.325-1.179-34.498-9.493c-5.898-4.82-11.279-14.198-10.463-22.612
					C115.303,333.372,124.46,337.814,132.471,340.184z"/>
				<path style="fill:#E3D6B6;" d="M200.28,295.935c-4.714,11.818-8.863,23.618-9.733,36.085c-1.371-2.61-2.779-5.189-4.185-7.77
					c-2.154-10.384,2.259-21.494,6.56-31.449c4.661-10.791,9.748-21.419,13.37-32.669c0.796-2.474,1.535-5.096,2.194-7.791
					c1.76,1.482,3.303,3.474,4.447,5.785C209.479,271.147,205.352,283.218,200.28,295.935z"/>
				<path style="fill:#E3D6B6;" d="M177.509,308.525c-4.984-8.541-10.149-16.907-15.44-25.124
					c-0.411-18.61,8.336-35.15,13.322-53.052c1.736-6.235,3.07-13.203,3.091-19.816c1.207,0.89,2.302,2.028,3.196,3.412
					c4.563,7.064,4.816,17.715,2.951,26.903c-1.866,9.188-5.533,17.55-8.177,26.406c-1.174,3.933-2.069,8.748-0.18,12.039
					c2.025,3.529,5.512,2.754,8.402,0.058C180.434,288.868,175.736,299.389,177.509,308.525z"/>
				<path style="fill:#E3D6B6;" d="M175.74,310.575c2.146,3.69,4.268,7.401,6.364,11.136c-11.377-4.111-24.435-0.522-34.813-8.447
					c-0.373-0.285-0.892,0.406-0.585,0.791c8.732,10.974,25.009,5.002,36.521,9.676c1.321,2.368,2.65,4.73,3.953,7.115
					c-9.37-1.754-18.869,1.152-28.497,1.941c-13.103,1.074-23.052-4.506-31.92-14.179c-0.091-0.099-0.248,0.061-0.165,0.178
					c5.979,8.429,15.084,13.349,24.571,14.808c11.932,1.836,24.415-3.499,36.332-1.517c0.113,0.019,0.213-0.016,0.305-0.07
					c2.328,4.274,4.624,8.576,6.9,12.899c-6.672-3.863-14.241-3.858-22.073-3.549c-10.253,0.404-20.486,0.667-30.452-1.013
					c-9.518-1.604-18.719-4.855-26.625-10.713c-2.549-1.889-4.705-4.023-6.671-6.317c0.289-0.894,0.659-1.769,1.128-2.613
					c4.088-7.367,12.427-6.691,18.69-3.483c2.513,1.288,5.084,2.886,7.785,2.511c2.701-0.374,5.448-3.716,4.842-7.255
					c-0.459-2.676-2.513-4.177-4.426-5.108c-6.558-3.194-13.704-3.495-20.629-4.877c-6.925-1.382-14.086-4.17-18.779-11.068
					c-3.668-5.392-5.126-13.901-3.174-20.568c8.863,8.852,21.534,13.574,32.292,17.2
					C143.796,293.845,161.531,298.123,175.74,310.575z"/>
				<path style="fill:#E3D6B6;" d="M130.14,251.59c-1.919-3.662-5.136-5.569-8.097-7.628c-10.396-7.229-19.835-19.743-20.733-35.578
					c-0.899-15.835,10.6-32.868,21.866-28.443c9.41,3.697,13.267,18.692,14.138,31.902c0.57,8.643,0.543,17.828,3.862,25.183
					c3.319,7.355,11.62,11.349,16.326,5.255c5.396-6.987,1.736-20.023,5.93-28.365c0.442-0.88,0.965-1.634,1.533-2.3
					c-0.786,11.524-1.773,22.775-4.469,34.55c-1.989,8.69-5.982,18.609-4.918,27.358c-16.125-23.49-36.072-45.942-41.22-77.616
					c-0.074-0.458-0.688-0.259-0.621,0.206c4.617,31.935,23.517,54.244,39.243,77.809c4.101,6.145,8.078,12.393,11.985,18.701
					c-5.914-5.256-16.402-6.151-22.739-8.174c-13.959-4.456-25.806-10.74-35.799-22.687c-0.319-0.382-0.856,0.202-0.591,0.636
					c6.141,10.067,16.333,15.812,26.202,19.83c6.065,2.469,12.333,4.363,18.553,6.377c6.244,2.022,12.727,3.457,17.159,9.095
					c0.101,0.128,0.246,0.113,0.37,0.04c1.901,3.127,3.789,6.265,5.649,9.428c-11.155-9.568-24.984-13.927-38.595-18.175
					c-8.931-2.787-17.895-5.641-26.206-10.106c-5.242-2.816-9.596-6.397-13.76-10.452c0.436-0.943,0.952-1.83,1.562-2.638
					c6.985-9.243,18.242-2.596,27.869-1.521c1.449,0.162,2.983,0.157,4.281-0.774C131.917,261.355,132.059,255.252,130.14,251.59z"
					/>
				<path style="fill:#E3D6B6;" d="M169.007,244.872c-4.237,12.065-8.447,24.357-8.035,36.825c-0.735-1.134-1.456-2.284-2.196-3.412
					c-0.61-0.93-1.229-1.856-1.853-2.781c-1.245-12.344,4.568-24.971,6.89-37.369c1.705-9.103,3.032-18.888,3.044-28.224
					c2.846-1.949,6.418-2.059,9.584-0.589C176.795,220.966,173.37,232.451,169.007,244.872z"/>
				<path style="fill:#E3D6B6;" d="M202.911,292.513c4.099-9.988,9.128-20.958,11.074-31.879c0.003,0.009,0.007,0.017,0.01,0.026
					c3.04,9.211-3.068,17.987-5.743,27.575c-6.834,24.494-8.086,39.405-5.124,69.345c-3.84-8.327-7.864-16.523-12.074-24.572
					C192.446,318.882,197.488,305.726,202.911,292.513z"/>
			</g>
		</g>
		<g style="clip-path:url(#SVGID_00000075141281026471037320000004611951156482205350_);">
			<g>
				<path style="fill:#E3D6B6;" d="M360.502,339.161c-8.717,0.368-20.465-0.612-28.002,4.169c1.264-1.773,2.5-3.557,3.729-5.344
					c6.525-6.214,16.041-3.132,24.24-5.057c0.154-0.015,0.309-0.025,0.461-0.048c4.454-0.668,9.291-2.769,13.151-1.672
					c2.916,0.829,4.025,3.291,3.716,6.036C372.134,338.482,366.28,338.917,360.502,339.161z"/>
				<path style="fill:#E3D6B6;" d="M307.449,319.271c0.929,5.82,3.087,11.427,5.684,16.815c3.236,6.715,8.287,13.239,7.359,20.886
					c-0.006,0.052,0.003,0.097,0.017,0.14c-1.91,2.55-3.841,5.092-5.792,7.628c0.898-4.127,1.945-8.944,1.945-8.944
					c-0.88-8.233-9.288-13.199-14.123-19.826c-4.481-6.141-5.899-14.055-3.949-22.043c1.13-4.631,4.974-10.201,9.945-12.011
					C306.663,307.738,306.625,314.108,307.449,319.271z"/>
				<path style="fill:#E3D6B6;" d="M350.736,345.621c-7.946,0.527-15.729,1.369-23.004,4.242c1.104-1.479,2.181-2.97,3.259-4.46
					c5.282-4.019,12.748-4.525,19.53-4.783c7.351-0.28,14.726-0.275,22.056-1.267c1.612-0.218,3.292-0.508,4.992-0.863
					c-0.362,1.394-1.071,2.803-2.066,4.073C367.216,344.126,359.286,345.053,350.736,345.621z"/>
				<path style="fill:#E3D6B6;" d="M337.481,336.16c3.478-5.12,6.808-10.294,10.021-15.499c10.398-5.254,22.099-4.779,33.554-6.794
					c3.99-0.702,8.284-1.83,12.024-3.602c-0.177,0.922-0.524,1.847-1.064,2.726c-2.758,4.483-8.704,7.501-14.396,8.927
					c-5.692,1.426-11.404,1.612-17.118,2.509c-2.538,0.398-5.498,1.192-6.847,3.147c-1.446,2.096-0.068,3.856,2.235,4.76
					C349.371,332.507,342.161,332.693,337.481,336.16z"/>
				<path style="fill:#E3D6B6;" d="M335.846,335.714c-1.505,2.208-3.028,4.408-4.571,6.599c-0.749-7.534-6.299-13.94-4.625-21.939
					c0.06-0.287-0.47-0.394-0.605-0.117c-3.841,7.893,3.924,15.473,4.392,23.235c-0.981,1.385-1.956,2.773-2.951,4.153
					c-1.538-5.765-5.743-10.344-8.787-15.569c-4.143-7.109-3.677-14.234-0.607-21.852c0.032-0.078-0.102-0.124-0.145-0.045
					c-3.147,5.651-3.467,12.121-1.731,17.872c2.183,7.233,8.564,12.843,10.661,20.108c0.02,0.069,0.066,0.116,0.122,0.153
					c-1.785,2.468-3.595,4.926-5.422,7.377c0.381-4.81-1.665-9.083-3.952-13.422c-2.995-5.681-5.905-11.388-7.646-17.47
					c-1.663-5.808-2.31-11.881-1.135-17.926c0.379-1.949,1.002-3.743,1.767-5.472c0.583-0.078,1.177-0.105,1.78-0.068
					c5.263,0.32,7.132,5.212,7.011,9.615c-0.049,1.767-0.258,3.65,0.683,5.074c0.94,1.424,3.569,2.074,5.404,0.776
					c1.387-0.981,1.68-2.546,1.69-3.878c0.034-4.565-1.724-8.682-2.813-12.966c-1.089-4.283-1.447-9.08,1.182-13.592
					c2.055-3.527,6.467-6.646,10.758-7.343c-2.607,7.394-1.854,15.823-0.998,22.877C336.673,313.16,339.043,324.33,335.846,335.714z
					"/>
				<path style="fill:#E3D6B6;" d="M356.849,294.046c1.55-2.072,1.759-4.403,2.122-6.631c1.276-7.822,5.796-16.529,14.495-21.31
					c8.7-4.781,21.421-2.884,21.963,4.672c0.452,6.312-6.975,12.537-14.199,16.593c-4.727,2.654-9.921,5.118-13.179,8.977
					c-3.258,3.859-3.273,9.625,1.439,10.638c5.402,1.161,11.776-4.424,17.618-4.306c0.616,0.012,1.183,0.104,1.713,0.245
					c-6.72,2.666-13.339,5.145-20.717,6.801c-5.444,1.222-12.123,1.644-16.777,4.606c8.913-15.445,16.209-32.768,32.706-44.223
					c0.239-0.166-0.039-0.459-0.284-0.295c-16.788,11.225-24.285,27.919-33.349,43.159c-2.363,3.974-4.818,7.906-7.326,11.815
					c1.372-4.758-0.953-10.922-1.521-15.047c-1.251-9.085-0.899-17.471,3.15-26.338c0.129-0.283-0.345-0.429-0.519-0.162
					c-4.028,6.185-4.521,13.49-4.127,20.148c0.242,4.091,0.864,8.142,1.405,12.198c0.543,4.072,1.482,8.12-0.505,12.144
					c-0.045,0.092,0.003,0.169,0.077,0.22c-1.253,1.917-2.515,3.831-3.799,5.735c2.393-8.881,1.122-17.867-0.152-26.699
					c-0.836-5.796-1.644-11.628-1.366-17.526c0.175-3.72,1.023-7.145,2.189-10.591c0.65-0.008,1.29,0.043,1.911,0.17
					c7.104,1.45,6.389,9.601,8.38,15.327c0.299,0.862,0.716,1.727,1.593,2.209C351.814,297.684,355.299,296.118,356.849,294.046z"/>
				<path style="fill:#E3D6B6;" d="M371.132,314.181c-7.956,0.863-16.034,1.803-22.964,5.401c0.442-0.721,0.897-1.439,1.334-2.161
					c0.36-0.595,0.716-1.195,1.07-1.797c6.635-4.034,15.334-4.16,22.962-6.194c5.601-1.493,11.484-3.385,16.76-5.898
					c1.868,1.081,2.895,3.069,2.919,5.253C386.733,312.127,379.323,313.292,371.132,314.181z"/>
				<path style="fill:#E3D6B6;" d="M353.378,346.183c6.747-0.381,14.298-0.501,20.99-2.35c-0.004,0.004-0.008,0.009-0.012,0.013
					c-4.381,4.202-10.986,3.122-17.122,4.198c-15.676,2.751-24.434,6.068-40.542,15.821c3.666-4.416,7.208-8.9,10.618-13.45
					C335.664,347.39,344.454,346.687,353.378,346.183z"/>
			</g>
		</g>
		<g style="clip-path:url(#SVGID_00000075141281026471037320000004611951156482205350_);">
			<g>
				<g>
					<path style="fill:#BFB499;" d="M145.674,363.017c1.582,10.602,1.91,25.081,8.73,33.667c-2.33-1.314-4.67-2.592-7.013-3.861
						c-8.439-7.165-5.91-19.191-9.326-28.957c-0.039-0.186-0.071-0.374-0.119-0.557c-1.395-5.355-4.59-10.991-3.751-15.848
						c0.634-3.67,3.498-5.344,6.892-5.323C143.334,348.894,144.626,355.99,145.674,363.017z"/>
				</g>
				<g>
					<path style="fill:#BFB499;" d="M128.266,430.413c6.99-1.89,13.559-5.255,19.805-9.128c7.784-4.826,15.098-11.844,24.56-11.703
						c0.064,0.001,0.118-0.016,0.169-0.039c3.363,2.003,6.72,4.031,10.071,6.085c-5.158-0.561-11.18-1.214-11.18-1.214
						c-9.944,2.144-14.918,13.061-22.387,19.829c-6.921,6.272-16.404,9.032-26.416,7.688c-5.805-0.779-13.109-4.752-15.965-10.59
						C114.278,432.872,122.065,432.09,128.266,430.413z"/>
				</g>
				<g>
					<path style="fill:#BFB499;" d="M154.835,374.109c1.676,9.639,3.715,19.038,8.17,27.553c-1.95-1.156-3.911-2.278-5.872-3.402
						c-5.596-5.931-7.184-14.986-8.38-23.238c-1.297-8.945-2.249-17.955-4.412-26.781c-0.476-1.941-1.049-3.956-1.703-5.986
						c1.75,0.261,3.563,0.944,5.244,1.995C150.869,354.17,153.031,363.737,154.835,374.109z"/>
				</g>
				<g>
					<path style="fill:#BFB499;" d="M144.999,391.531c-6.706-3.584-13.46-6.981-20.236-10.229
						c-7.769-12.021-8.708-26.377-12.659-40.109c-1.376-4.783-3.311-9.883-5.962-14.222c1.149,0.096,2.325,0.4,3.468,0.946
						c5.835,2.787,10.294,9.659,12.775,16.428c2.481,6.768,3.45,13.722,5.288,20.587c0.816,3.049,2.171,6.562,4.734,7.956
						c2.748,1.494,4.719-0.418,5.525-3.348C138.991,377.48,140.155,386.263,144.999,391.531z"/>
				</g>
				<g>
					<path style="fill:#BFB499;" d="M144.666,393.586c2.892,1.552,5.778,3.126,8.656,4.727c-9.107,1.893-16.212,9.506-26.201,8.5
						c-0.359-0.036-0.42,0.625-0.064,0.754c10.141,3.667,18.393-6.804,27.815-8.383c1.82,1.018,3.642,2.03,5.456,3.066
						c-6.843,2.628-11.892,8.359-17.879,12.757c-8.147,5.984-16.911,6.34-26.617,3.58c-0.1-0.028-0.138,0.14-0.037,0.183
						c7.312,3.11,15.258,2.662,22.058-0.206c8.553-3.607,14.577-12.131,23.18-15.636c0.081-0.033,0.133-0.096,0.171-0.169
						c3.247,1.86,6.485,3.752,9.717,5.666c-5.926,0.16-10.88,3.214-15.884,6.572c-6.551,4.397-13.146,8.693-20.349,11.61
						c-6.879,2.785-14.214,4.365-21.753,3.715c-2.43-0.21-4.703-0.738-6.914-1.448c-0.171-0.702-0.281-1.424-0.315-2.166
						c-0.292-6.471,5.441-9.39,10.835-9.814c2.165-0.17,4.492-0.159,6.11-1.493c1.618-1.334,2.07-4.629,0.246-6.702
						c-1.379-1.567-3.329-1.722-4.957-1.561c-5.581,0.551-10.383,3.234-15.474,5.121c-5.092,1.886-10.905,2.947-16.758,0.321
						c-4.575-2.052-8.959-7.037-10.368-12.189c9.371,2.225,19.572,0.21,28.078-1.752
						C117.005,395.505,130.343,391.159,144.666,393.586z"/>
				</g>
				<g>
					<path style="fill:#BFB499;" d="M91.033,373.339c-2.733-1.624-5.608-1.577-8.377-1.732c-9.721-0.543-20.946-4.934-27.916-14.941
						c-6.97-10.007-6.306-25.795,2.855-27.438c7.652-1.372,16.222,6.893,22.116,15.192c3.857,5.43,7.541,11.456,12.679,14.934
						c5.138,3.479,12.183,2.749,12.809-3.139c0.717-6.75-6.934-13.812-7.549-20.964c-0.065-0.755-0.027-1.459,0.077-2.124
						c4.13,7.863,8.018,15.628,10.999,24.426c2.2,6.493,3.583,14.597,7.806,19.897c-20.026-8.883-42.137-15.546-58.274-34.212
						c-0.233-0.27-0.555,0.107-0.324,0.385c15.894,19.052,37.262,26.042,57.057,35.136c5.162,2.371,10.285,4.86,15.385,7.415
						c-5.991-1.058-13.22,2.583-18.185,3.812c-10.937,2.708-21.227,3.368-32.586-0.428c-0.363-0.121-0.479,0.477-0.131,0.655
						c8.079,4.117,17.068,3.771,25.15,2.425c4.966-0.827,9.835-2.113,14.719-3.301c4.904-1.192,9.727-2.866,14.902-0.96
						c0.118,0.043,0.207-0.025,0.258-0.123c2.505,1.282,5.007,2.575,7.499,3.897c-11.161-1.77-21.973,0.95-32.598,3.654
						c-6.972,1.774-13.992,3.518-21.234,3.944c-4.568,0.269-8.862-0.322-13.223-1.298c-0.095-0.793-0.114-1.582-0.04-2.357
						c0.849-8.868,10.899-9.053,17.636-12.228c1.014-0.478,2.017-1.1,2.491-2.232C96.132,379.018,93.765,374.964,91.033,373.339z"/>
				</g>
				<g>
					<path style="fill:#BFB499;" d="M113.776,353.275c2.088,9.608,4.285,19.354,9.581,27.353c-0.938-0.447-1.874-0.909-2.813-1.349
						c-0.774-0.363-1.553-0.72-2.334-1.074c-5.79-7.581-7.073-18.193-10.549-27.248c-2.552-6.648-5.627-13.59-9.382-19.709
						c1.078-2.423,3.373-3.935,6.038-4.249C109.241,334.482,111.627,343.383,113.776,353.275z"/>
				</g>
				<g>
					<path style="fill:#BFB499;" d="M155.179,370.808c-1.342-8.193-2.469-17.403-5.597-25.338c0.006,0.005,0.011,0.008,0.017,0.013
						c5.703,4.806,5.24,13.015,7.353,20.372c5.397,18.794,10.587,29.063,24.594,47.475c-5.87-3.905-11.809-7.65-17.81-11.224
						C158.954,392.293,156.953,381.645,155.179,370.808z"/>
				</g>
			</g>
		</g>
	</g>
</g>
<g id="OBJECTS">
	<g>
		<rect x="336.592" y="174.468" style="fill:#553923;" width="23.787" height="1.654"/>
		<rect x="336.592" y="253.069" style="fill:#553923;" width="23.787" height="1.654"/>
		<rect x="351.401" y="161.672" style="fill:#7B5D53;" width="26.191" height="118.107"/>
		<path style="fill:#F6CCA4;" d="M333.694,413.321H161.652c-3.487,0-6.314-2.827-6.314-6.314V97.655h184.67v309.352
			C340.008,410.494,337.181,413.321,333.694,413.321z"/>
		<path style="fill:#E0A86B;" d="M333.694,413.321H161.652c-3.487,0-6.314-2.827-6.314-6.314V205.769h184.67v201.239
			C340.008,410.494,337.181,413.321,333.694,413.321z"/>
		<g>
			<g>
				<path style="fill:#C49484;" d="M365.025,172.076c0.025-0.656,0.034-1.349,0.034-1.423c0-0.887-0.034-1.053,0.823-1.053
					c0.437,0,4.216-0.092,4.636-0.092c0.531,0,0.763,0.065,0.763,0.73c0,1.533-0.111,2.457-0.111,3.962
					c0,0.139,0.043,0.259,0.043,0.379l-0.411,7.167c0,0.148-0.223,0.434-0.403,0.434h-4.824c-0.172,0-0.257-0.489-0.283-1.007
					l-0.188-3.473c-0.026,0-1.791-0.083-1.876-0.083c-0.129,0-0.129,0.212-0.129,0.323c0,4.24-0.008,4.258-0.643,4.258
					c-0.651,0.046-1.285,0.083-1.902,0.092c-1.063,0.028-2.297-0.018-3.119-0.24c-0.12-0.028-0.197-0.453-0.197-0.517l-0.334-6.881
					v-0.176v-0.184c0-0.629,0.095-4.295,0.146-4.35c0.086-0.093,0.411-0.462,0.806-0.434h1.003c0.085,0,3.428,0.056,3.488,0.056
					c0.548,0,0.814,0.101,0.814,0.794c0,0.148-0.077,0.832-0.077,1.025c0,0.102,0.051,0.222,0.051,0.36
					c0,0.49-0.034,0.933-0.034,1.487c0.531,0,1.337,0.138,1.902,0.138L365.025,172.076z"/>
				<path style="fill:#C49484;" d="M357.351,195.826c0-5.135,2.048-7.223,7.052-7.223c2.545,0,6.427,1.145,6.427,6.428
					c0,6.059-2.665,7.167-6.598,7.167C360.822,202.198,357.351,201.709,357.351,195.826z M364.086,200.388
					c0.814,0,0.814-4.165,0.814-5.209c0-0.333,0-4.784-0.814-4.784c-0.788,0-0.788,2.854-0.788,5.163
					C363.298,196.703,363.298,200.388,364.086,200.388z"/>
				<path style="fill:#C49484;" d="M360.976,212.756h-1.936c-0.66,0-0.66-1.912-0.66-2.688c0-0.194,0.025-0.97,0.025-0.998
					c0-0.36,0.608-0.406,0.883-0.406c0.857,0,1.782,0.037,2.64,0.037h6.315c1.551,0,1.56,0.176,1.56,0.545v3.131
					c0,0.296-0.309,0.296-0.471,0.296c-0.643,0-1.611-0.009-2.271-0.009c-0.172,0-0.206-0.018-0.206,0.452
					c0,0.36-0.026,2.928-0.188,5.2v1.819c0,0.933-0.334,0.868-1.02,0.942c-1.405,0-2.125,0.056-4.053,0.056
					c-0.943,0-0.548-4.184-0.548-8.322C361.044,212.802,361.018,212.784,360.976,212.756z"/>
				<path style="fill:#C49484;" d="M359.081,228.489c0-0.342,0.711-0.379,1.294-0.379c2.93,0,5.038-0.231,8.2,0.018
					c0.437,0,0.437,1.21,0.668,2.097c0.026,0.628-0.103,0.517-0.402,0.517c-1.166,0-2.443,0.222-3.651,0.296
					c-0.214,0-0.334,1.441-0.334,1.838c0,0.342,0.077,0.397,0.274,0.397c1.063,0,2.082-0.037,3.11,0.074
					c0.368,0.046,0.488-0.009,0.6,0.434l0.068,1.69v0.056c0,0.434-1.003,0.471-2.04,0.471c-2.014,0-2.074-0.213-2.074,0.757
					c0,0.471-0.077,0.915-0.051,1.432c1.131,0,2.271-0.111,3.376-0.111c0.223,0,0.66,1.875,0.66,2.217
					c0,0.222-0.103,0.397-0.352,0.397c-0.848,0-1.602,0.074-2.485,0.074c-1.842,0-3.702,0.019-5.552,0.019
					c-0.189,0-1.226-0.129-1.208-0.268c0-0.832-0.189-3.482-0.189-4.387c0-0.813-0.06-1.228-0.06-2.78
					C358.935,231.749,358.935,230.197,359.081,228.489z"/>
				<path style="fill:#C49484;" d="M359.37,255.559c0-2.318-0.052-5.246,0.085-6.585c0-0.48-0.051-1.432,0.471-1.432
					c2.014,0,2.665,0.055,4.088,0.055c0.788,0,1.251-0.074,1.251,0.961c0,0.084-0.095,0.785-0.095,0.878
					c0,0.139,0.095,0.915,0.095,0.942c0.025,1.921,0.017,3.454,0.017,5.034c0,0.36-0.035,0.434,0.368,0.434
					c0.814,0,1.731-0.019,2.733-0.019c0.249,0,0.437,0.203,0.437,0.379v3.63c0,0.129,0.009,0.415-1.225,0.415h-2.563
					c-1.971,0-3.265-0.037-5.21-0.037c-0.205,0-0.454-0.268-0.454-0.489V255.559z"/>
			</g>
		</g>
		<g>
			<g>
				<path style="fill:#553923;" d="M367.025,172.076c0.025-0.656,0.034-1.349,0.034-1.423c0-0.887-0.034-1.053,0.823-1.053
					c0.437,0,4.216-0.092,4.636-0.092c0.531,0,0.763,0.065,0.763,0.73c0,1.533-0.111,2.457-0.111,3.962
					c0,0.139,0.043,0.259,0.043,0.379l-0.411,7.167c0,0.148-0.223,0.434-0.403,0.434h-4.824c-0.172,0-0.257-0.489-0.283-1.007
					l-0.188-3.473c-0.026,0-1.791-0.083-1.876-0.083c-0.129,0-0.129,0.212-0.129,0.323c0,4.24-0.008,4.258-0.643,4.258
					c-0.651,0.046-1.285,0.083-1.902,0.092c-1.063,0.028-2.297-0.018-3.119-0.24c-0.12-0.028-0.197-0.453-0.197-0.517l-0.334-6.881
					v-0.176v-0.184c0-0.629,0.095-4.295,0.146-4.35c0.086-0.093,0.411-0.462,0.806-0.434h1.003c0.085,0,3.428,0.056,3.488,0.056
					c0.548,0,0.814,0.101,0.814,0.794c0,0.148-0.077,0.832-0.077,1.025c0,0.102,0.051,0.222,0.051,0.36
					c0,0.49-0.034,0.933-0.034,1.487c0.531,0,1.337,0.138,1.902,0.138L367.025,172.076z"/>
				<path style="fill:#553923;" d="M359.351,195.826c0-5.135,2.048-7.223,7.052-7.223c2.545,0,6.427,1.145,6.427,6.428
					c0,6.059-2.665,7.167-6.598,7.167C362.822,202.198,359.351,201.709,359.351,195.826z M366.086,200.388
					c0.814,0,0.814-4.165,0.814-5.209c0-0.333,0-4.784-0.814-4.784c-0.788,0-0.788,2.854-0.788,5.163
					C365.298,196.703,365.298,200.388,366.086,200.388z"/>
				<path style="fill:#553923;" d="M362.976,212.756h-1.936c-0.66,0-0.66-1.912-0.66-2.688c0-0.194,0.025-0.97,0.025-0.998
					c0-0.36,0.608-0.406,0.883-0.406c0.857,0,1.782,0.037,2.64,0.037h6.315c1.551,0,1.56,0.176,1.56,0.545v3.131
					c0,0.296-0.309,0.296-0.471,0.296c-0.643,0-1.611-0.009-2.271-0.009c-0.172,0-0.206-0.018-0.206,0.452
					c0,0.36-0.026,2.928-0.188,5.2v1.819c0,0.933-0.334,0.868-1.02,0.942c-1.405,0-2.125,0.056-4.053,0.056
					c-0.943,0-0.548-4.184-0.548-8.322C363.044,212.802,363.018,212.784,362.976,212.756z"/>
				<path style="fill:#553923;" d="M361.081,228.489c0-0.342,0.711-0.379,1.294-0.379c2.93,0,5.038-0.231,8.2,0.018
					c0.437,0,0.437,1.21,0.668,2.097c0.026,0.628-0.103,0.517-0.402,0.517c-1.166,0-2.443,0.222-3.651,0.296
					c-0.214,0-0.334,1.441-0.334,1.838c0,0.342,0.077,0.397,0.274,0.397c1.063,0,2.082-0.037,3.11,0.074
					c0.368,0.046,0.488-0.009,0.6,0.434l0.068,1.69v0.056c0,0.434-1.003,0.471-2.04,0.471c-2.014,0-2.074-0.213-2.074,0.757
					c0,0.471-0.077,0.915-0.051,1.432c1.131,0,2.271-0.111,3.376-0.111c0.223,0,0.66,1.875,0.66,2.217
					c0,0.222-0.103,0.397-0.352,0.397c-0.848,0-1.602,0.074-2.485,0.074c-1.842,0-3.702,0.019-5.552,0.019
					c-0.189,0-1.226-0.129-1.208-0.268c0-0.832-0.189-3.482-0.189-4.387c0-0.813-0.06-1.228-0.06-2.78
					C360.935,231.749,360.935,230.197,361.081,228.489z"/>
				<path style="fill:#553923;" d="M361.37,255.559c0-2.318-0.052-5.246,0.085-6.585c0-0.48-0.051-1.432,0.471-1.432
					c2.014,0,2.665,0.055,4.088,0.055c0.788,0,1.251-0.074,1.251,0.961c0,0.084-0.095,0.785-0.095,0.878
					c0,0.139,0.095,0.915,0.095,0.942c0.025,1.921,0.017,3.454,0.017,5.034c0,0.36-0.035,0.434,0.368,0.434
					c0.814,0,1.731-0.019,2.733-0.019c0.249,0,0.437,0.203,0.437,0.379v3.63c0,0.129,0.009,0.415-1.225,0.415h-2.563
					c-1.971,0-3.265-0.037-5.21-0.037c-0.205,0-0.454-0.268-0.454-0.489V255.559z"/>
			</g>
		</g>
		<g>
			<g>
				<path style="fill:#FBEABF;" d="M366.025,172.076c0.025-0.656,0.034-1.349,0.034-1.423c0-0.887-0.034-1.053,0.823-1.053
					c0.437,0,4.216-0.092,4.636-0.092c0.531,0,0.763,0.065,0.763,0.73c0,1.533-0.111,2.457-0.111,3.962
					c0,0.139,0.043,0.259,0.043,0.379l-0.411,7.167c0,0.148-0.223,0.434-0.403,0.434h-4.824c-0.172,0-0.257-0.489-0.283-1.007
					l-0.188-3.473c-0.026,0-1.791-0.083-1.876-0.083c-0.129,0-0.129,0.212-0.129,0.323c0,4.24-0.008,4.258-0.643,4.258
					c-0.651,0.046-1.285,0.083-1.902,0.092c-1.063,0.028-2.297-0.018-3.119-0.24c-0.12-0.028-0.197-0.453-0.197-0.517l-0.334-6.881
					v-0.176v-0.184c0-0.629,0.095-4.295,0.146-4.35c0.086-0.093,0.411-0.462,0.806-0.434h1.003c0.085,0,3.428,0.056,3.488,0.056
					c0.548,0,0.814,0.101,0.814,0.794c0,0.148-0.077,0.832-0.077,1.025c0,0.102,0.051,0.222,0.051,0.36
					c0,0.49-0.034,0.933-0.034,1.487c0.531,0,1.337,0.138,1.902,0.138L366.025,172.076z"/>
				<path style="fill:#FBEABF;" d="M358.351,195.826c0-5.135,2.048-7.223,7.052-7.223c2.545,0,6.427,1.145,6.427,6.428
					c0,6.059-2.665,7.167-6.598,7.167C361.822,202.198,358.351,201.709,358.351,195.826z M365.086,200.388
					c0.814,0,0.814-4.165,0.814-5.209c0-0.333,0-4.784-0.814-4.784c-0.788,0-0.788,2.854-0.788,5.163
					C364.298,196.703,364.298,200.388,365.086,200.388z"/>
				<path style="fill:#FBEABF;" d="M361.976,212.756h-1.936c-0.66,0-0.66-1.912-0.66-2.688c0-0.194,0.025-0.97,0.025-0.998
					c0-0.36,0.608-0.406,0.883-0.406c0.857,0,1.782,0.037,2.64,0.037h6.315c1.551,0,1.56,0.176,1.56,0.545v3.131
					c0,0.296-0.309,0.296-0.471,0.296c-0.643,0-1.611-0.009-2.271-0.009c-0.172,0-0.206-0.018-0.206,0.452
					c0,0.36-0.026,2.928-0.188,5.2v1.819c0,0.933-0.334,0.868-1.02,0.942c-1.405,0-2.125,0.056-4.053,0.056
					c-0.943,0-0.548-4.184-0.548-8.322C362.044,212.802,362.018,212.784,361.976,212.756z"/>
				<path style="fill:#FBEABF;" d="M360.081,228.489c0-0.342,0.711-0.379,1.294-0.379c2.93,0,5.038-0.231,8.2,0.018
					c0.437,0,0.437,1.21,0.668,2.097c0.026,0.628-0.103,0.517-0.402,0.517c-1.166,0-2.443,0.222-3.651,0.296
					c-0.214,0-0.334,1.441-0.334,1.838c0,0.342,0.077,0.397,0.274,0.397c1.063,0,2.082-0.037,3.11,0.074
					c0.368,0.046,0.488-0.009,0.6,0.434l0.068,1.69v0.056c0,0.434-1.003,0.471-2.04,0.471c-2.014,0-2.074-0.213-2.074,0.757
					c0,0.471-0.077,0.915-0.051,1.432c1.131,0,2.271-0.111,3.376-0.111c0.223,0,0.66,1.875,0.66,2.217
					c0,0.222-0.103,0.397-0.352,0.397c-0.848,0-1.602,0.074-2.485,0.074c-1.842,0-3.702,0.019-5.552,0.019
					c-0.189,0-1.226-0.129-1.208-0.268c0-0.832-0.189-3.482-0.189-4.387c0-0.813-0.06-1.228-0.06-2.78
					C359.935,231.749,359.935,230.197,360.081,228.489z"/>
				<path style="fill:#FBEABF;" d="M360.37,255.559c0-2.318-0.052-5.246,0.085-6.585c0-0.48-0.051-1.432,0.471-1.432
					c2.014,0,2.665,0.055,4.088,0.055c0.788,0,1.251-0.074,1.251,0.961c0,0.084-0.095,0.785-0.095,0.878
					c0,0.139,0.095,0.915,0.095,0.942c0.025,1.921,0.017,3.454,0.017,5.034c0,0.36-0.035,0.434,0.368,0.434
					c0.814,0,1.731-0.019,2.733-0.019c0.249,0,0.437,0.203,0.437,0.379v3.63c0,0.129,0.009,0.415-1.225,0.415h-2.563
					c-1.971,0-3.265-0.037-5.21-0.037c-0.205,0-0.454-0.268-0.454-0.489V255.559z"/>
			</g>
		</g>
		<g>
			<g>
				<g>
					<path style="fill:#EDF4ED;" d="M207.349,160.285h-30.947v-38.906h30.947V160.285z M183.402,153.285h16.947v-24.906h-16.947
						V153.285z"/>
				</g>
			</g>
			<g>
				<g>
					<path style="fill:#EDF4ED;" d="M263.147,160.285H232.2v-38.906h30.946V160.285z M239.2,153.285h16.946v-24.906H239.2V153.285z"
						/>
				</g>
			</g>
			<g>
				<g>
					<path style="fill:#EDF4ED;" d="M318.944,160.285h-30.946v-38.906h30.946V160.285z M294.998,153.285h16.946v-24.906h-16.946
						V153.285z"/>
				</g>
			</g>
			<g>
				<g>
					<path style="fill:#EDF4ED;" d="M207.349,228.117h-30.947v-38.905h30.947V228.117z M183.402,221.117h16.947v-24.905h-16.947
						V221.117z"/>
				</g>
			</g>
			<g>
				<g>
					<path style="fill:#EDF4ED;" d="M263.147,228.117H232.2v-38.905h30.946V228.117z M239.2,221.117h16.946v-24.905H239.2V221.117z"
						/>
				</g>
			</g>
			<g>
				<g>
					<path style="fill:#EDF4ED;" d="M318.944,228.117h-30.946v-38.905h30.946V228.117z M294.998,221.117h16.946v-24.905h-16.946
						V221.117z"/>
				</g>
			</g>
			<g>
				<g>
					<path style="fill:#EDF4ED;" d="M207.349,295.949h-30.947v-38.905h30.947V295.949z M183.402,288.949h16.947v-24.905h-16.947
						V288.949z"/>
				</g>
			</g>
			<g>
				<g>
					<path style="fill:#EDF4ED;" d="M263.147,295.949H232.2v-38.905h30.946V295.949z M239.2,288.949h16.946v-24.905H239.2V288.949z"
						/>
				</g>
			</g>
			<g>
				<g>
					<path style="fill:#EDF4ED;" d="M318.944,295.949h-30.946v-38.905h30.946V295.949z M294.998,288.949h16.946v-24.905h-16.946
						V288.949z"/>
				</g>
			</g>
			<g>
				<g>
					<path style="fill:#EDF4ED;" d="M207.349,363.781h-30.947v-38.905h30.947V363.781z M183.402,356.781h16.947v-24.905h-16.947
						V356.781z"/>
				</g>
			</g>
			<g>
				<g>
					<path style="fill:#EDF4ED;" d="M318.944,363.781h-30.946v-38.905h30.946V363.781z M294.998,356.781h16.946v-24.905h-16.946
						V356.781z"/>
				</g>
			</g>
		</g>
		<g>
			<g>
				<rect x="179.902" y="124.879" style="fill:#618785;" width="23.946" height="31.906"/>
				<rect x="184.354" y="128.934" style="fill:#84B8B5;" width="19.494" height="27.851"/>
			</g>
			<g>
				<rect x="235.7" y="124.879" style="fill:#618785;" width="23.946" height="31.906"/>
				<rect x="240.152" y="128.934" style="fill:#84B8B5;" width="19.494" height="27.851"/>
			</g>
			<g>
				<rect x="291.498" y="124.879" style="fill:#618785;" width="23.946" height="31.906"/>
				<rect x="295.95" y="128.934" style="fill:#84B8B5;" width="19.494" height="27.851"/>
			</g>
		</g>
		<g>
			<g>
				<rect x="179.902" y="192.712" style="fill:#618785;" width="23.946" height="31.906"/>
				<rect x="184.354" y="196.766" style="fill:#84B8B5;" width="19.494" height="27.851"/>
			</g>
			<g>
				<rect x="235.7" y="192.712" style="fill:#618785;" width="23.946" height="31.906"/>
				<rect x="240.152" y="196.766" style="fill:#84B8B5;" width="19.494" height="27.851"/>
			</g>
			<g>
				<rect x="291.498" y="192.712" style="fill:#618785;" width="23.946" height="31.906"/>
				<rect x="295.95" y="196.766" style="fill:#84B8B5;" width="19.494" height="27.851"/>
			</g>
		</g>
		<g>
			<g>
				<rect x="179.902" y="260.544" style="fill:#618785;" width="23.946" height="31.906"/>
				<rect x="184.354" y="264.599" style="fill:#84B8B5;" width="19.494" height="27.851"/>
			</g>
			<g>
				<rect x="235.7" y="260.544" style="fill:#618785;" width="23.946" height="31.906"/>
				<rect x="240.152" y="264.599" style="fill:#84B8B5;" width="19.494" height="27.851"/>
			</g>
			<g>
				<rect x="291.498" y="260.544" style="fill:#618785;" width="23.946" height="31.906"/>
				<rect x="295.95" y="264.599" style="fill:#84B8B5;" width="19.494" height="27.851"/>
			</g>
		</g>
		<g>
			<g>
				<rect x="179.902" y="328.376" style="fill:#618785;" width="23.946" height="31.906"/>
				<rect x="184.354" y="332.431" style="fill:#84B8B5;" width="19.494" height="27.851"/>
			</g>
			<g>
				<rect x="291.498" y="328.376" style="fill:#618785;" width="23.946" height="31.906"/>
				<rect x="295.95" y="332.431" style="fill:#84B8B5;" width="19.494" height="27.851"/>
			</g>
		</g>
		<rect x="154.138" y="169.506" style="fill:#EDF4ED;" width="187.071" height="3.308"/>
		<rect x="154.138" y="172.814" style="fill:#E5A46A;" width="187.071" height="3.308"/>
		<rect x="154.138" y="237.474" style="fill:#EDF4ED;" width="187.071" height="3.308"/>
		<rect x="154.138" y="240.782" style="fill:#E5A46A;" width="187.071" height="3.308"/>
		<rect x="154.138" y="305.442" style="fill:#EDF4ED;" width="187.071" height="3.308"/>
		<rect x="154.138" y="308.75" style="fill:#E5A46A;" width="187.071" height="3.308"/>
		<rect x="226.263" y="332.431" style="fill:#553923;" width="40.021" height="80.89"/>
		<rect x="229.526" y="335.993" style="fill:#7B5D53;" width="36.758" height="77.328"/>
		<g>
			<polygon style="fill:#553923;" points="357.967,269.303 358.607,271.273 360.679,271.273 359.003,272.49 359.643,274.461 
				357.967,273.243 356.291,274.461 356.931,272.49 355.255,271.273 357.327,271.273 			"/>
			<polygon style="fill:#553923;" points="365.042,269.303 365.682,271.273 367.754,271.273 366.078,272.49 366.718,274.461 
				365.042,273.243 363.366,274.461 364.006,272.49 362.33,271.273 364.402,271.273 			"/>
			<polygon style="fill:#553923;" points="372.117,269.303 372.757,271.273 374.828,271.273 373.152,272.49 373.793,274.461 
				372.117,273.243 370.441,274.461 371.081,272.49 369.405,271.273 371.476,271.273 			"/>
		</g>
		<g>
			<polygon style="fill:#C49484;" points="356.967,269.303 357.607,271.273 359.679,271.273 358.003,272.49 358.643,274.461 
				356.967,273.243 355.291,274.461 355.931,272.49 354.255,271.273 356.327,271.273 			"/>
			<polygon style="fill:#C49484;" points="364.042,269.303 364.682,271.273 366.754,271.273 365.078,272.49 365.718,274.461 
				364.042,273.243 362.366,274.461 363.006,272.49 361.33,271.273 363.402,271.273 			"/>
			<polygon style="fill:#C49484;" points="371.117,269.303 371.757,271.273 373.828,271.273 372.152,272.49 372.793,274.461 
				371.117,273.243 369.441,274.461 370.081,272.49 368.405,271.273 370.476,271.273 			"/>
		</g>
		<g>
			<polygon style="fill:#FBEABF;" points="357.422,269.303 358.062,271.273 360.134,271.273 358.458,272.49 359.098,274.461 
				357.422,273.243 355.746,274.461 356.386,272.49 354.71,271.273 356.782,271.273 			"/>
			<polygon style="fill:#FBEABF;" points="364.497,269.303 365.137,271.273 367.208,271.273 365.532,272.49 366.172,274.461 
				364.497,273.243 362.821,274.461 363.461,272.49 361.785,271.273 363.856,271.273 			"/>
			<polygon style="fill:#FBEABF;" points="371.571,269.303 372.211,271.273 374.283,271.273 372.607,272.49 373.247,274.461 
				371.571,273.243 369.895,274.461 370.536,272.49 368.86,271.273 370.931,271.273 			"/>
		</g>
	</g>
	<g>
		<path style="fill:#EDF4ED;" d="M149.069,128.126l-54.351,25.891c-7.775,3.704-11.075,13.009-7.372,20.783l16.328,34.276
			c3.704,7.775,13.009,11.075,20.783,7.372l7.223-3.441c1.434,3.517,2.995,6.985,4.604,10.409c0.983,2.092,2.66,5.504,5.543,3.428
			c1.455-1.048,1.737-3.376,2.237-4.947c0.982-3.087,1.907-6.192,2.774-9.314c0.714-2.572,1.375-5.157,2.003-7.75l29.968-14.276
			c7.775-3.704,11.075-13.009,7.372-20.783l-16.328-34.276C166.149,127.723,156.844,124.423,149.069,128.126z"/>
	</g>
	<path style="fill:#FF592B;" d="M143.099,154.284c-6.127-0.324-11.356,4.381-11.68,10.508c-0.006,0.12,0.002,0.238-0.001,0.357
		c-1.874-1.884-4.417-3.115-7.279-3.266c-6.127-0.324-11.356,4.381-11.68,10.508c-0.324,6.127,3.664,9.684,9.098,12.532
		c6.374,3.34,22.368,5.385,22.368,5.385s10.402-16.086,9.681-24.344C153.074,159.851,149.226,154.607,143.099,154.284z"/>
	<polygon style="fill:#7B5D53;" points="324.992,66.651 170.355,66.651 150.589,107.895 344.757,107.895 	"/>
	<rect x="150.589" y="107.895" style="fill:#553923;" width="194.168" height="3.214"/>
	<g>
		<g>
			<path style="fill:#1E1029;" d="M138.848,232.881c-7.083,3.084-12.058,10.888-12.079,18.945
				c-0.014,5.532,2.079,11.135,0.725,16.481c-1.398,5.518-6.335,10.1-5.744,15.777c0.432,4.153,3.837,7.345,7.492,8.99
				c0.836,0.376,1.71,0.703,2.426,1.291c0.601,0.493,1.062,1.147,1.615,1.698c2.229,2.22,5.638,2.503,8.682,2.076
				c4.972-0.697,9.678-2.945,13.747-6.029c2.811-2.13,5.42-4.778,6.686-8.168c1.086-2.907,1.1-6.117,1.099-9.24
				c-0.001-6.483-0.003-12.97-0.387-19.441c-0.5-8.406-0.379-16.424-7.245-20.768c-6.845-4.33-18.319-2.678-23.25,3.928"/>
			<g>
				<path style="fill:#1E1029;" d="M138.637,232.113c-5.249,1.838-9.293,6.032-11.509,11.09c-1.19,2.716-1.844,5.657-1.878,8.623
					c-0.062,5.36,2.107,10.742,0.807,16.084c-1.494,6.139-7.332,11.11-5.516,17.924c0.648,2.433,2.246,4.578,4.154,6.178
					c1.169,0.98,2.467,1.624,3.799,2.342c1.845,0.995,3.115,2.362,4.809,3.548c9.575,6.706,26.968-4.148,30.472-13.582
					c1.137-3.06,1.141-6.402,1.164-9.619c0.038-5.184,0.019-10.376-0.173-15.557c-0.235-6.327,0.084-13.691-2.592-19.592
					c-5.348-11.795-23.617-11.837-30.64-1.764c-0.823,1.18,0.991,2.525,1.969,1.52c4.663-4.793,12.129-6.921,18.589-4.842
					c7.697,2.478,8.878,10.103,9.331,17.124c0.496,7.695,0.677,15.4,0.635,23.111c-0.025,4.488-0.241,8.612-3.106,12.306
					c-2.496,3.219-6.057,5.692-9.719,7.439c-3.489,1.664-8.323,3.338-12.183,2.154c-2.489-0.764-5.232-3.825-7.657-5.116
					c-4.265-2.271-7.161-6.116-5.736-11.083c0.886-3.086,2.917-5.724,4.178-8.649c2.905-6.736,0.307-12.978,0.456-19.926
					c0.169-7.858,4.443-14.148,10.96-18.257C139.982,233.108,139.524,231.802,138.637,232.113L138.637,232.113z"/>
			</g>
		</g>
		<g>
			<path style="fill:#F6A676;" d="M141.732,399.749c5.034-3.957,4.04,8.661,2.681,11.201c-0.31,0.579-1.034,0.464-1.472,0.146
				c-1.456-1.054-1.589-3.17-1.71-4.908c-0.065-0.931-0.114-1.867-0.23-2.796c-0.126-1.006-0.454-1.874-0.253-2.856
				C140.854,400.014,141.228,399.658,141.732,399.749L141.732,399.749z"/>
		</g>
		<path style="fill:#0D0514;" d="M140.291,407.79l-0.58,5.911l17.324-0.747c0,0-0.292-2.09-2.416-2.257s-5.818,0.039-6.989-1.186
			c-1.171-1.225-2.437-2.203-2.437-2.203s-1.489-0.567-1.774,0.689C143.419,407.997,142.048,406.603,140.291,407.79z"/>
		<path style="fill:#0D0514;" d="M152.587,306.372l2.354,6.191c1.959,5.152,2.557,10.789,1.735,16.341l-11.366,76.714l-4.203-1.143
			c-4.589-9.938-12.937-38.634-3.506-46.766c0,0-8.082-31.205-2.491-51.387C140.701,286.141,152.587,306.372,152.587,306.372z"/>
		<g>
			<path style="fill:#FFFFFF;" d="M148.816,410.377c0.562,0.338,0.841,0.761,1.017,1.408c0.104,0.382-0.154,0.84-0.594,0.731
				c-1.901-0.472-3.879-1.003-5.551-2.124c-0.15-0.101-0.023-0.328,0.13-0.3c1.874,0.341,3.701,0.989,5.58,1.32
				c-0.198,0.244-0.396,0.487-0.594,0.731c-0.162-0.417-0.399-0.793-0.601-1.193C148.025,410.594,148.481,410.175,148.816,410.377
				L148.816,410.377z"/>
		</g>
		<g>
			<g>
				<path style="fill:#FFBD95;" d="M93.117,364.584c3.577,5.167-8.548,4.266-10.928,2.876c-0.542-0.317-0.396-1.069-0.068-1.527
					c1.088-1.52,3.134-1.676,4.815-1.816c0.901-0.075,1.805-0.134,2.706-0.262c0.976-0.139,1.829-0.487,2.765-0.286
					C92.906,363.675,93.231,364.06,93.117,364.584L93.117,364.584z"/>
			</g>
			<path style="fill:#0D0514;" d="M87.455,365.072l-2.842-5.163l-13.221,11.862c0,0,1.396,1.502,3.161,0.258
				s4.558-3.812,6.163-3.581c1.605,0.231,3.148,0.2,3.148,0.2s1.489-0.509,1.012-1.711
				C84.877,366.937,86.734,367.176,87.455,365.072z"/>
			<path style="fill:#1E1029;" d="M152.8,309.08l-15.063,58.111l-50.456,1.156l1.311-4.373c9.805-4.846,27.176-16.269,36.759-9.228
				c0,0-14.839-42.542,10.08-49.949C154.572,299.108,152.8,309.08,152.8,309.08z"/>
			<g>
				<path style="fill:#FFFFFF;" d="M78.996,368.273c-0.555-0.138-0.872-0.077-1.114-0.614c-0.085-0.189-0.008-0.44,0.115-0.595
					c0.613-0.766,1.866-1.24,2.723-1.624c0.831-0.372,2.107-1.093,2.966-0.618c0.122,0.068,0.194,0.235,0.119,0.373
					c-0.421,0.77-1.416,0.935-2.156,1.258c-0.878,0.383-2.253,0.739-2.888,1.502c-0.047-0.256-0.094-0.512-0.141-0.768
					c0.2,0.132,0.408,0.251,0.623,0.355C79.602,367.732,79.417,368.378,78.996,368.273L78.996,368.273z"/>
			</g>
		</g>
		<path style="fill:#FF592B;" d="M135.432,304.796c0,0-3.211-9.963-2.57-22.934c0.731-14.787,5.315-14.303,10.581-16.045
			c4.051-1.34,8.938-0.813,10.873,5.079c1.272,3.872,4.801,9.062,5.305,12.47c0.295,1.994-4.326,7.626-4.326,7.626l-1.97,17.472
			c0,0,0.398,1.302-6.576,0.861C139.268,308.852,135.432,304.796,135.432,304.796z"/>
		<path style="fill:#F6A676;" d="M152.9,262.777l-0.052,3.6c-0.041,2.85-0.464,5.696-2.858,5.151
			c-1.936-0.44-5.784-2.824-6.425-4.79l-0.522-3.531c-0.446-3.02,1.323-5.766,3.919-6.082l0.573-0.07
			C150.393,256.708,152.948,259.433,152.9,262.777z"/>
		<path style="fill:#FFBD95;" d="M158.539,255.935c-2.21,10.767-6.554,11.792-11.997,9.453
			c-6.461-2.776-11.552-10.372-11.134-17.279s7.444-9.614,13.247-9.229C154.458,239.265,161.035,243.776,158.539,255.935z"/>
		
			<ellipse transform="matrix(0.0026 -1 1 0.0026 -108.0711 408.043)" style="fill:#FF8763;" cx="150.518" cy="258.198" rx="3.923" ry="3.742"/>
		<g>
			<path style="fill:#FFBD95;" d="M139.495,257.423c0.03,0.073,0.044,0.148,0.042,0.225c0.027,0.688-0.318,1.221-0.982,1.367
				c-1.153,0.253-2.667-1.615-3.664-0.995c0.234-0.194,0.469-0.388,0.703-0.581c0.387-0.488-0.271-0.762,0.341-0.349
				c0.255,0.172,0.508,0.304,0.79,0.424c0.279,0.119,0.546,0.211,0.841,0.272c0.196,0.038,0.392,0.066,0.59,0.085
				c0.37-0.005,0.396,0.02,0.079,0.076c-0.237,0.196-0.474,0.392-0.711,0.588c-0.013,0.024-0.027,0.048-0.04,0.072
				c-0.038,0.317-0.076,0.634-0.113,0.951c0.441,0.566,0.432,0.709-0.026,0.431c-0.16-0.068-0.32-0.137-0.479-0.205
				c-0.16-0.068-0.32-0.137-0.479-0.205c-0.342-0.155-0.424-0.188-0.246-0.099c0.295-0.044,0.59-0.087,0.886-0.131
				c-0.051,0.023-0.102,0.047-0.153,0.07c0.225-0.186,0.449-0.371,0.674-0.557c-0.031,0.046-0.062,0.093-0.093,0.139
				c0.108-0.277,0.216-0.555,0.324-0.832c-0.019-0.129-0.037-0.257-0.056-0.386c-0.176-0.234-0.353-0.469-0.529-0.703
				c0.045,0.041,0.091,0.081,0.136,0.122c-0.263-0.113-0.527-0.225-0.79-0.338c-0.174,0.09-0.124,0.063,0.15-0.08
				c1.42-0.75,2.868,1.261,1.897,2.525c-1.047,1.364-3.306,1.566-4.018-0.298c-0.586-1.532,0.561-3.282,2.183-3.017
				c0.74,0.121,1.519,0.516,2.207,0.825c0.72,0.324,1.382,0.764,1.707,1.551c0.325,0.786,0.201,1.737-0.308,2.401
				c-0.557,0.726-1.376,0.855-2.212,0.823c-2.479-0.094-6.758-1.952-5.895-5.279c0.507-1.954,2.421-2.297,4.04-1.739
				c1.425,0.492,2.249,1.349,3.077,2.591c-0.381-0.047-0.763-0.093-1.144-0.14c0.036-0.031,0.072-0.062,0.108-0.093
				C138.796,256.534,139.362,256.896,139.495,257.423L139.495,257.423z"/>
		</g>
		<g>
			<path style="fill:#F6A676;" d="M137.12,257.468c-0.024,0.177-0.045,0.125-0.063-0.155c0-0.237-0.101-0.423-0.303-0.557
				c-0.029-0.019-0.059-0.037-0.088-0.056c0.079,0.035,0.16,0.065,0.242,0.091c0.271,0.083-0.231-0.024,0.254,0.049
				c0.065,0.009,0.13,0.018,0.195,0.026c0.346,0.017,0.262,0.039-0.251,0.064c-0.226,0.187-0.452,0.374-0.678,0.561
				c-0.026,0.046-0.052,0.092-0.077,0.138c-0.037,0.308-0.073,0.616-0.11,0.924c-0.011-0.048-0.022-0.096-0.032-0.144
				c0.117,0.286,0.233,0.572,0.35,0.858c0.062,0.035,0.118,0.077,0.17,0.127c-0.109-0.04-0.218-0.081-0.327-0.121
				c-0.329-0.122-0.616-0.287-0.912-0.483c-0.643-0.428-0.839-1.444-0.563-2.148c0.268-0.686,1.098-1.31,1.833-1.117
				c1.206,0.316,2.682,1.067,2.844,2.532c0.182,1.642-1.315,2.511-2.678,2.295c-0.982-0.155-2.028-0.532-2.635-1.399
				c-0.979-1.398,0.048-3.193,1.634-3.111C136.631,255.877,137.268,256.745,137.12,257.468L137.12,257.468z"/>
		</g>
		<g>
			<path style="fill:#CA5E49;" d="M159.814,242.678c-0.125,0-0.122-0.204,0.003-0.204
				C159.943,242.474,159.94,242.678,159.814,242.678L159.814,242.678z"/>
		</g>
		<g>
			<path style="fill:#1E1029;" d="M155.702,243.256c-3.698,7.364-12.214,11.692-20.018,10.174c-0.635-0.124-1.285-0.291-1.802-0.697
				c-1.533-1.204-1.156-3.685-0.556-5.592c0.845-2.682,1.985-5.523,4.325-6.924c1.336-0.8,2.91-1.026,4.443-1.16
				c1.948-0.171,3.906-0.219,5.86-0.145c3.447,0.13,7.314,0.911,9.216,3.928"/>
			<g>
				<path style="fill:#1E1029;" d="M155.307,243.026c-2.019,3.385-4.891,6.26-8.426,8.047c-3.517,1.778-13.284,4.582-13.15-2.533
					c0.2-10.679,17.336-11.172,23.084-5.343c0.399,0.405,1.09-0.116,0.791-0.611c-3.134-5.186-11.026-4.942-16.279-4.24
					c-5.514,0.737-9.125,5.655-9.245,11.242c-0.106,4.974,5.184,5.18,9.036,4.698c6.625-0.829,12.009-4.936,14.978-10.798
					C156.361,242.965,155.611,242.516,155.307,243.026L155.307,243.026z"/>
			</g>
		</g>
		<g>
			<path style="fill:#FFBD95;" d="M192.637,286.711c0,0,2.204-2.102,2.833-4.005c0.628-1.903,1.405,1.388,0.083,3.145
				c0,0,4.671-1.301,6.34-1.823c1.853-0.578,1.014,0.581-3.022,2.067c0,0,2.772-0.343,4.032-0.62s-0.75,1.462-4.24,1.802
				c0,0,1.394,0.153,4.223-0.193c2.831-0.346-1.119,1.821-4.906,1.315c0,0,3.127,0.261,4.935,0.387
				c1.694,0.118-0.684,1.152-4.094,1.224c0,0-5.654,0.019-7.776-0.154C188.101,289.617,190.076,288.159,192.637,286.711z"/>
			<g>
				<path style="fill:#FFBD95;" d="M148.991,274.894c6.693,4.853,10.02,7.815,17.281,10.854c9.805,4.104,19.626,1.452,30.371,0.859
					c-1.413,2.06-3.896,3.035-6.318,3.695c-7.134,1.943-16.714,5.479-25.831,3.154c-6.649-1.696-14.247-5.614-21.544-9.659
					c-1.94-1.075-10.783-7.103-6.326-13.458C138.701,267.376,146.701,273.233,148.991,274.894z"/>
			</g>
		</g>
		<g>
			<g>
				<path style="fill:#FF8763;" d="M157.476,253.103c-0.374,1.095-0.314,2.221,0.319,3.227c0.515,0.818,1.753,1.829,2.727,1.146
					c0.486-0.341,0.557-0.913,0.176-1.366c-0.412-0.49-1.09-0.498-1.451-1.085c-0.184-0.299-0.278-0.638-0.388-0.967
					c-0.133-0.395-0.324-0.705-0.526-1.067C158.126,252.62,157.601,252.736,157.476,253.103L157.476,253.103z"/>
			</g>
		</g>
	</g>
</g>
<g id="DESIGNED_BY_FREEPIK">
	<g>
		<g id="XMLID_29_">
			<g id="XMLID_48_">
				<path id="XMLID_56_" style="fill:#1D262D;" d="M260.104,465.465c-0.433,0.443-0.804,0.932-1.108,1.453l-0.465-0.241
					c-0.067-0.297-0.35-0.502-0.659-0.466c-0.331,0.039-0.567,0.339-0.529,0.67c0.039,0.331,0.339,0.567,0.67,0.528
					c0.065-0.007,0.127-0.025,0.184-0.052l0.451,0.234c-0.251,0.554-0.433,1.139-0.539,1.743l0.747,0.132
					c0.229-1.306,0.85-2.507,1.792-3.473L260.104,465.465z"/>
				<path id="XMLID_55_" style="fill:#1D262D;" d="M265.592,463.163c-0.171,0-0.341,0.006-0.509,0.017l-0.074-0.626
					c0.188-0.149,0.296-0.389,0.266-0.645c-0.046-0.393-0.402-0.674-0.795-0.628c-0.393,0.046-0.675,0.402-0.628,0.796
					c0.03,0.254,0.189,0.461,0.404,0.563l0.073,0.624c-0.714,0.116-1.402,0.332-2.06,0.645l0.327,0.685
					c0.935-0.447,1.941-0.674,2.995-0.674c0.497,0,0.993,0.053,1.476,0.158l0.16-0.741
					C266.692,463.222,266.143,463.163,265.592,463.163z"/>
				<path id="XMLID_54_" style="fill:#1D262D;" d="M272.194,465.71c0.331-0.04,0.566-0.341,0.525-0.672
					c-0.04-0.331-0.341-0.566-0.672-0.525c-0.31,0.038-0.535,0.304-0.53,0.608l-0.416,0.363c-0.418-0.43-0.89-0.813-1.407-1.14
					l-0.404,0.642c1.135,0.715,2.02,1.727,2.563,2.925l0.69-0.313c-0.251-0.554-0.567-1.071-0.942-1.545l0.402-0.351
					C272.065,465.715,272.129,465.719,272.194,465.71z"/>
				<path id="XMLID_53_" style="fill:#1D262D;" d="M265.045,473.371c-0.386,0.023-0.775,0.035-1.157,0.035
					c-0.88,0-1.733-0.061-2.479-0.18c-0.391-0.061-0.846-0.154-1.27-0.292c1.047,1.861,3.069,3.125,5.389,3.125
					c2.856,0,5.263-1.916,5.949-4.503c-0.682,0.449-1.505,0.825-2.458,1.122C267.839,473.047,266.464,473.286,265.045,473.371z"/>
				<path id="XMLID_49_" style="fill:#1D262D;" d="M265.592,464.68c-3.352,0-6.079,2.666-6.079,5.943
					c0,0.425,0.046,0.849,0.137,1.261c0.674,0.483,2.706,0.891,5.348,0.731c2.88-0.174,5.297-0.958,6.672-2.159
					c-0.005-0.194-0.021-0.39-0.045-0.581C271.244,466.913,268.65,464.68,265.592,464.68z M263.433,471.194
					c-1.02,0-1.85-0.83-1.85-1.85c0-1.021,0.83-1.85,1.85-1.85c1.02,0,1.85,0.83,1.85,1.85
					C265.282,470.364,264.452,471.194,263.433,471.194z M268.17,470.286c-0.75,0-1.36-0.61-1.36-1.36s0.61-1.36,1.36-1.36
					s1.36,0.61,1.36,1.36S268.92,470.286,268.17,470.286z"/>
			</g>
			<path id="XMLID_46_" style="fill:#1D262D;" d="M281.596,466.547c-0.295-0.116-0.806-0.31-1.383-0.238
				c-0.551,0.069-0.844,0.341-0.844,1.007v0.866h2.228v1.717h-2.228v5.455h-1.932v-5.455h-1.339v-1.717h1.339v-0.889
				c0-1.68,0.896-2.782,2.568-2.782c0.643,0,1.157,0.121,1.59,0.308V466.547z"/>
			<path id="XMLID_44_" style="fill:#1D262D;" d="M286.298,469.878c-0.177-0.029-0.357-0.046-0.525-0.046
				c-0.895,0-1.51,0.548-1.51,1.613v3.908h-1.933v-7.172h1.873v0.784c0.451-0.673,1.14-0.977,2.021-0.977
				c0.414,0,0.848,0.128,1.095,0.337L286.298,469.878z"/>
			<path id="XMLID_41_" style="fill:#1D262D;" d="M293.966,471.757c0,0.222-0.016,0.488-0.037,0.651h-5.085
				c0.207,1.036,0.933,1.487,1.843,1.487c0.622,0,1.295-0.252,1.813-0.689l1.133,1.243c-0.814,0.748-1.851,1.089-3.057,1.089
				c-2.198,0-3.724-1.496-3.724-3.753c0-2.258,1.48-3.797,3.627-3.797C292.544,467.989,293.958,469.522,293.966,471.757z
				 M288.852,471.091h3.175c-0.178-0.918-0.732-1.436-1.562-1.436C289.555,469.654,289.021,470.202,288.852,471.091z"/>
			<path id="XMLID_38_" style="fill:#1D262D;" d="M301.619,471.757c0,0.222-0.016,0.488-0.037,0.651h-5.085
				c0.207,1.036,0.933,1.487,1.843,1.487c0.622,0,1.296-0.252,1.814-0.689l1.133,1.243c-0.815,0.748-1.851,1.089-3.058,1.089
				c-2.198,0-3.723-1.496-3.723-3.753c0-2.258,1.48-3.797,3.627-3.797C300.197,467.989,301.611,469.522,301.619,471.757z
				 M296.505,471.091h3.175c-0.178-0.918-0.733-1.436-1.561-1.436C297.208,469.654,296.675,470.202,296.505,471.091z"/>
			<path id="XMLID_35_" style="fill:#1D262D;" d="M309.965,471.764c0,2.154-1.495,3.775-3.472,3.775
				c-0.962,0-1.643-0.378-2.109-0.933v3.708h-1.925v-10.133h1.888v0.792c0.467-0.585,1.154-0.984,2.139-0.984
				C308.47,467.989,309.965,469.61,309.965,471.764z M304.287,471.764c0,1.133,0.748,1.977,1.844,1.977
				c1.14,0,1.85-0.881,1.85-1.977c0-1.095-0.71-1.976-1.85-1.976C305.035,469.788,304.287,470.632,304.287,471.764z"/>
			<path id="XMLID_32_" style="fill:#1D262D;" d="M313.068,465.835c0,0.696-0.541,1.23-1.236,1.23c-0.696,0-1.229-0.533-1.229-1.23
				c0-0.695,0.532-1.243,1.229-1.243C312.527,464.592,313.068,465.14,313.068,465.835z M312.809,475.353h-1.932v-7.172h1.932
				V475.353z"/>
			<path id="XMLID_30_" style="fill:#1D262D;" d="M316.032,470.735l2.702-2.554h2.368l-3.479,3.375l3.501,3.797h-2.376l-2.717-2.901
				v2.901h-1.932v-10.658h1.932V470.735z"/>
		</g>
		<g>
			<path style="fill:#1D262D;" d="M184.413,475.289v-1.055c-0.527,0.718-1.391,1.23-2.387,1.23c-1.846,0-3.149-1.406-3.149-3.706
				c0-2.256,1.289-3.721,3.149-3.721c0.952,0,1.816,0.469,2.387,1.245v-3.765h1.099v9.771H184.413z M184.413,473.37v-3.208
				c-0.395-0.615-1.245-1.143-2.124-1.143c-1.42,0-2.27,1.172-2.27,2.739c0,1.567,0.85,2.725,2.27,2.725
				C183.168,474.483,184.018,473.985,184.413,473.37z"/>
			<path style="fill:#1D262D;" d="M186.932,471.744c0-2.051,1.465-3.706,3.486-3.706c2.139,0,3.398,1.67,3.398,3.794v0.278h-5.727
				c0.088,1.333,1.025,2.446,2.549,2.446c0.806,0,1.626-0.322,2.182-0.894l0.527,0.718c-0.703,0.703-1.655,1.084-2.812,1.084
				C188.441,475.465,186.932,473.956,186.932,471.744z M190.404,468.946c-1.509,0-2.256,1.274-2.314,2.358h4.644
				C192.718,470.25,192.015,468.946,190.404,468.946z"/>
			<path style="fill:#1D262D;" d="M194.607,474.352l0.571-0.791c0.469,0.542,1.362,1.011,2.329,1.011c1.084,0,1.67-0.513,1.67-1.216
				c0-1.714-4.38-0.659-4.38-3.281c0-1.099,0.952-2.036,2.636-2.036c1.202,0,2.051,0.454,2.623,1.025l-0.513,0.762
				c-0.424-0.513-1.201-0.893-2.109-0.893c-0.966,0-1.567,0.483-1.567,1.113c0,1.553,4.379,0.527,4.379,3.281
				c0,1.186-0.952,2.139-2.783,2.139C196.307,475.465,195.325,475.113,194.607,474.352z"/>
			<path style="fill:#1D262D;" d="M201.478,466.471c0-0.41,0.337-0.747,0.732-0.747c0.41,0,0.747,0.337,0.747,0.747
				c0,0.41-0.337,0.732-0.747,0.732C201.814,467.203,201.478,466.881,201.478,466.471z M201.667,475.289v-7.075h1.099v7.075H201.667
				z"/>
			<path style="fill:#1D262D;" d="M204.583,477.105l0.556-0.82c0.586,0.703,1.289,0.967,2.3,0.967c1.172,0,2.271-0.571,2.271-2.124
				v-1.011c-0.513,0.718-1.377,1.26-2.373,1.26c-1.846,0-3.149-1.377-3.149-3.662c0-2.271,1.289-3.677,3.149-3.677
				c0.952,0,1.802,0.469,2.373,1.245v-1.069h1.099v6.87c0,2.344-1.641,3.076-3.369,3.076
				C206.237,478.16,205.417,477.925,204.583,477.105z M209.709,473.253v-3.091c-0.381-0.615-1.23-1.143-2.109-1.143
				c-1.421,0-2.27,1.128-2.27,2.695c0,1.553,0.849,2.695,2.27,2.695C208.479,474.41,209.328,473.868,209.709,473.253z"/>
			<path style="fill:#1D262D;" d="M217.414,475.289v-4.629c0-1.245-0.63-1.641-1.582-1.641c-0.864,0-1.685,0.527-2.094,1.099v5.171
				h-1.099v-7.075h1.099v1.025c0.497-0.586,1.464-1.201,2.519-1.201c1.479,0,2.256,0.747,2.256,2.285v4.966H217.414z"/>
			<path style="fill:#1D262D;" d="M219.933,471.744c0-2.051,1.465-3.706,3.486-3.706c2.139,0,3.398,1.67,3.398,3.794v0.278h-5.727
				c0.088,1.333,1.025,2.446,2.548,2.446c0.806,0,1.626-0.322,2.183-0.894l0.527,0.718c-0.703,0.703-1.655,1.084-2.813,1.084
				C221.442,475.465,219.933,473.956,219.933,471.744z M223.404,468.946c-1.509,0-2.256,1.274-2.314,2.358h4.643
				C225.719,470.25,225.016,468.946,223.404,468.946z"/>
			<path style="fill:#1D262D;" d="M233.351,475.289v-1.055c-0.527,0.718-1.392,1.23-2.388,1.23c-1.845,0-3.149-1.406-3.149-3.706
				c0-2.256,1.289-3.721,3.149-3.721c0.952,0,1.817,0.469,2.388,1.245v-3.765h1.098v9.771H233.351z M233.351,473.37v-3.208
				c-0.396-0.615-1.245-1.143-2.124-1.143c-1.421,0-2.271,1.172-2.271,2.739c0,1.567,0.85,2.725,2.271,2.725
				C232.105,474.483,232.955,473.985,233.351,473.37z"/>
			<path style="fill:#1D262D;" d="M239.692,475.289v-9.771h1.099v3.765c0.571-0.776,1.421-1.245,2.388-1.245
				c1.845,0,3.149,1.465,3.149,3.721c0,2.3-1.304,3.706-3.149,3.706c-0.996,0-1.86-0.513-2.388-1.23v1.055H239.692z M242.9,474.483
				c1.436,0,2.285-1.157,2.285-2.725c0-1.567-0.85-2.739-2.285-2.739c-0.864,0-1.729,0.527-2.109,1.143v3.208
				C241.172,473.985,242.036,474.483,242.9,474.483z"/>
			<path style="fill:#1D262D;" d="M247.529,477.061c0.161,0.073,0.425,0.117,0.601,0.117c0.483,0,0.806-0.161,1.055-0.747
				l0.469-1.069l-2.959-7.148h1.186l2.358,5.801l2.344-5.801h1.2l-3.545,8.511c-0.425,1.024-1.143,1.421-2.08,1.436
				c-0.234,0-0.6-0.044-0.806-0.103L247.529,477.061z"/>
		</g>
	</g>
</g>
</svg>
