<?xml version="1.0" encoding="utf-8"?>
<!-- Generator: Adobe Illustrator 27.5.0, SVG Export Plug-In . SVG Version: 6.00 Build 0)  -->
<svg version="1.1" xmlns="http://www.w3.org/2000/svg" xmlns:xlink="http://www.w3.org/1999/xlink" x="0px" y="0px"
	 viewBox="0 0 500 500" style="enable-background:new 0 0 500 500;" xml:space="preserve">
<g id="BACKGROUND">
	<rect style="fill:#F0D5D5;" width="500" height="500"/>
</g>
<g id="OBJECTS">
	<g>
		<path style="fill:#E4C2C2;" d="M407.639,247.969H390.65v-18.586c0-9.33-6.499-17.125-15.213-19.15v-23.067h-6.253v22.628
			c-10.03,0.904-17.892,9.323-17.892,19.589v19.132h-16.901v21.319h-1.138v39.621l-30.719-0.221V261.88h-35.199v34.703h-24.696
			v33.712h-29.848v89.237h99.162v-0.013h21.3v0.013h103.27V307.001h-28.928L407.639,247.969z"/>
		<polygon style="fill:#E4C2C2;" points="70.773,297.015 70.773,252.653 87.403,252.653 87.403,228.927 93.656,228.927 
			93.656,252.653 108.976,252.653 108.976,297.015 117.029,297.015 117.029,323.592 139.855,323.592 139.855,233.056 
			197.049,233.056 197.049,419.532 159.779,419.532 143.722,419.532 117.029,419.532 98.37,419.532 58.756,419.532 58.756,297.015 
					"/>
	</g>
	<g>
		<g>
			<path id="XMLID_41_" style="fill:#FFFFFF;" d="M364.211,149.795c2.058-2.742,4.288-7.685,7.26-9.393
				c2.972-1.709,6.863-2.211,9.789-0.425c2.353,1.436,3.807,1.793,6.313,2.942c3.264,1.496,7.19-0.189,9.761-2.695
				c2.572-2.506,4.296-4.446,6.726-7.089c2.43-2.644,6.046-4.725,9.511-3.783c6.293,1.71,7.338,9.069,13.596,10.899
				c5.007,1.464,6.679,0.352,11.772-0.775c5.924-1.31,12.489,4.773,13.552,10.746L364.211,149.795z"/>
		</g>
		<path id="XMLID_37_" style="fill:#FFFFFF;" d="M115.171,196.434c0.223-3.111-3.083-8.196-6.906-8.689
			c-3.463-0.447-7.711,0.934-10.606,2.096c-2.895,1.163-6.159,2.101-9.083,1.014c-5.877-2.184-6.989-8.107-12.672-10.756
			c-4.132-1.926-9.244,0.362-11.99,4.001c-2.747,3.639-3.696,7.85-4.571,12.325L115.171,196.434z"/>
	</g>
	<g>
		<g>
			<g>
				
					<line style="fill:none;stroke:#202347;stroke-width:2.3915;stroke-miterlimit:10;" x1="207.868" y1="59.066" x2="207.868" y2="113.617"/>
				
					<line style="fill:none;stroke:#202347;stroke-width:2.3915;stroke-miterlimit:10;" x1="288.032" y1="59.066" x2="288.032" y2="113.617"/>
				<rect x="194.769" y="65.288" style="fill:#DC8990;" width="106.839" height="29.89"/>
				
					<rect x="194.769" y="65.288" style="fill:none;stroke:#202347;stroke-width:2.3915;stroke-miterlimit:10;" width="106.839" height="29.89"/>
			</g>
			
				<text transform="matrix(1 0 0 1 209.6022 86.3157)" style="fill:#FFFFFF; font-family:'Montserrat-ExtraBold'; font-size:18.3721px; letter-spacing:2;">hotel</text>
		</g>
		<g>
			<rect x="154.456" y="115.968" style="fill:#DC8990;" width="187.464" height="304.732"/>
			<g>
				<g>
					<rect x="148.658" y="104.624" style="fill:#FFFFFF;" width="199.06" height="5.874"/>
					<polygon style="fill:#BA6672;" points="154.32,115.968 149.361,110.498 347.015,110.498 341.784,115.968 					"/>
				</g>
				<g>
					<rect x="148.658" y="123.666" style="fill:#FFFFFF;" width="199.06" height="5.874"/>
					<rect x="154.456" y="129.54" style="fill:#BA6672;" width="187.464" height="4.709"/>
				</g>
				<g>
					<rect x="148.658" y="217.544" style="fill:#FFFFFF;" width="199.06" height="5.874"/>
					<rect x="154.456" y="223.417" style="fill:#BA6672;" width="187.464" height="4.709"/>
				</g>
				<g>
					<rect x="148.658" y="311.422" style="fill:#FFFFFF;" width="199.06" height="5.874"/>
					<rect x="154.456" y="317.295" style="fill:#BA6672;" width="187.464" height="4.709"/>
				</g>
			</g>
			<g>
				<g>
					<g>
						<rect x="176.866" y="154.51" style="fill:#BA6672;" width="27.588" height="44.614"/>
						<rect x="180.692" y="160.436" style="fill:#F8F1E8;" width="19.937" height="35.172"/>
						<polygon style="fill:#FFFFFF;" points="181.22,190.602 181.22,184.139 196.558,159.294 199.446,161.078 						"/>
						
							<rect x="173.515" y="180.194" transform="matrix(0.5255 -0.8508 0.8508 0.5255 -63.8038 248.2447)" style="fill:#FFFFFF;" width="34.291" height="2.263"/>
						<path style="fill:#202347;" d="M201.771,197.346H179.55v-38.051h22.221V197.346z M181.834,195.061h17.653v-33.483h-17.653
							V195.061z"/>
						<rect x="180.692" y="176.449" style="fill:#202347;" width="19.937" height="2.284"/>
						<g>
							<path style="fill:#272956;" d="M191.078,139.838l-17.734,13.35v3.321h34.632v-3.796L191.078,139.838z M190.964,144.97
								l10.16,7.541H181.22L190.964,144.97z"/>
						</g>
						<rect x="173.994" y="197.346" style="fill:#FFFFFF;" width="33.332" height="5.842"/>
						<rect x="173.994" y="203.187" style="fill:#BA6672;" width="33.332" height="5.842"/>
					</g>
					<g>
						<rect x="234.394" y="154.51" style="fill:#BA6672;" width="27.588" height="44.614"/>
						<rect x="238.22" y="160.436" style="fill:#F8F1E8;" width="19.937" height="35.172"/>
						<polygon style="fill:#FFFFFF;" points="238.748,190.602 238.748,184.139 254.086,159.294 256.975,161.078 						"/>
						
							<rect x="231.043" y="180.194" transform="matrix(0.5255 -0.8508 0.8508 0.5255 -36.5053 297.1951)" style="fill:#FFFFFF;" width="34.291" height="2.263"/>
						<path style="fill:#202347;" d="M259.299,197.346h-22.221v-38.051h22.221V197.346z M239.362,195.061h17.653v-33.483h-17.653
							V195.061z"/>
						<rect x="238.22" y="176.449" style="fill:#202347;" width="19.937" height="2.284"/>
						<g>
							<path style="fill:#272956;" d="M248.606,139.838l-17.734,13.35v3.321h34.632v-3.796L248.606,139.838z M248.493,144.97
								l10.16,7.541h-19.904L248.493,144.97z"/>
						</g>
						<rect x="231.522" y="197.346" style="fill:#FFFFFF;" width="33.332" height="5.842"/>
						<rect x="231.522" y="203.187" style="fill:#BA6672;" width="33.332" height="5.842"/>
					</g>
					<g>
						<rect x="291.922" y="154.51" style="fill:#BA6672;" width="27.588" height="44.614"/>
						<rect x="295.748" y="160.436" style="fill:#F8F1E8;" width="19.937" height="35.172"/>
						<polygon style="fill:#FFFFFF;" points="296.277,190.602 296.277,184.139 311.614,159.294 314.503,161.078 						"/>
						
							<rect x="288.571" y="180.194" transform="matrix(0.5255 -0.8508 0.8508 0.5255 -9.2121 346.1323)" style="fill:#FFFFFF;" width="34.291" height="2.263"/>
						<path style="fill:#202347;" d="M316.827,197.346h-22.221v-38.051h22.221V197.346z M296.89,195.061h17.653v-33.483H296.89
							V195.061z"/>
						<rect x="295.748" y="176.449" style="fill:#202347;" width="19.937" height="2.284"/>
						<g>
							<path style="fill:#272956;" d="M306.134,139.838l-17.734,13.35v3.321h34.632v-3.796L306.134,139.838z M306.021,144.97
								l10.16,7.541h-19.904L306.021,144.97z"/>
						</g>
						<rect x="289.05" y="197.346" style="fill:#FFFFFF;" width="33.332" height="5.842"/>
						<rect x="289.05" y="203.187" style="fill:#BA6672;" width="33.332" height="5.842"/>
					</g>
				</g>
				<g>
					<g>
						<rect x="176.866" y="248.428" style="fill:#BA6672;" width="27.588" height="44.614"/>
						<rect x="180.692" y="254.354" style="fill:#F8F1E8;" width="19.937" height="35.172"/>
						<polygon style="fill:#FFFFFF;" points="181.22,284.519 181.22,278.057 196.558,253.212 199.446,254.996 						"/>
						
							<rect x="173.515" y="274.112" transform="matrix(0.5255 -0.8508 0.8508 0.5255 -143.7071 292.8065)" style="fill:#FFFFFF;" width="34.291" height="2.263"/>
						<path style="fill:#202347;" d="M201.771,291.263H179.55v-38.051h22.221V291.263z M181.834,288.979h17.653v-33.483h-17.653
							V288.979z"/>
						<rect x="180.692" y="270.366" style="fill:#202347;" width="19.937" height="2.284"/>
						<g>
							<path style="fill:#272956;" d="M191.078,233.756l-17.734,13.35v3.321h34.632v-3.796L191.078,233.756z M190.964,238.887
								l10.16,7.541H181.22L190.964,238.887z"/>
						</g>
						<rect x="173.994" y="291.263" style="fill:#FFFFFF;" width="33.332" height="5.842"/>
						<rect x="173.994" y="297.105" style="fill:#BA6672;" width="33.332" height="5.842"/>
					</g>
					<g>
						<rect x="234.394" y="248.428" style="fill:#BA6672;" width="27.588" height="44.614"/>
						<rect x="238.22" y="254.354" style="fill:#F8F1E8;" width="19.937" height="35.172"/>
						<polygon style="fill:#FFFFFF;" points="238.748,284.519 238.748,278.057 254.086,253.212 256.975,254.996 						"/>
						
							<rect x="231.043" y="274.112" transform="matrix(0.5255 -0.8508 0.8508 0.5255 -116.4097 341.7589)" style="fill:#FFFFFF;" width="34.291" height="2.263"/>
						<path style="fill:#202347;" d="M259.299,291.263h-22.221v-38.051h22.221V291.263z M239.362,288.979h17.653v-33.483h-17.653
							V288.979z"/>
						<rect x="238.22" y="270.366" style="fill:#202347;" width="19.937" height="2.284"/>
						<g>
							<path style="fill:#272956;" d="M248.606,233.756l-17.734,13.35v3.321h34.632v-3.796L248.606,233.756z M248.493,238.887
								l10.16,7.541h-19.904L248.493,238.887z"/>
						</g>
						<rect x="231.522" y="291.263" style="fill:#FFFFFF;" width="33.332" height="5.842"/>
						<rect x="231.522" y="297.105" style="fill:#BA6672;" width="33.332" height="5.842"/>
					</g>
					<g>
						<rect x="291.922" y="248.428" style="fill:#BA6672;" width="27.588" height="44.614"/>
						<rect x="295.748" y="254.354" style="fill:#F8F1E8;" width="19.937" height="35.172"/>
						<polygon style="fill:#FFFFFF;" points="296.277,284.519 296.277,278.057 311.614,253.212 314.503,254.996 						"/>
						
							<rect x="288.571" y="274.112" transform="matrix(0.5255 -0.8508 0.8508 0.5255 -89.1154 390.6942)" style="fill:#FFFFFF;" width="34.291" height="2.263"/>
						<path style="fill:#202347;" d="M316.827,291.263h-22.221v-38.051h22.221V291.263z M296.89,288.979h17.653v-33.483H296.89
							V288.979z"/>
						<rect x="295.748" y="270.366" style="fill:#202347;" width="19.937" height="2.284"/>
						<g>
							<path style="fill:#272956;" d="M306.134,233.756l-17.734,13.35v3.321h34.632v-3.796L306.134,233.756z M306.021,238.887
								l10.16,7.541h-19.904L306.021,238.887z"/>
						</g>
						<rect x="289.05" y="291.263" style="fill:#FFFFFF;" width="33.332" height="5.842"/>
						<rect x="289.05" y="297.105" style="fill:#BA6672;" width="33.332" height="5.842"/>
					</g>
				</g>
				<g>
					<g>
						<rect x="176.866" y="342.277" style="fill:#BA6672;" width="27.588" height="44.614"/>
						<rect x="180.692" y="348.203" style="fill:#F8F1E8;" width="19.937" height="35.172"/>
						<polygon style="fill:#FFFFFF;" points="181.22,378.369 181.22,371.906 196.558,347.062 199.446,348.845 						"/>
						
							<rect x="173.515" y="367.961" transform="matrix(0.5255 -0.8508 0.8508 0.5255 -223.5523 337.336)" style="fill:#FFFFFF;" width="34.291" height="2.263"/>
						<path style="fill:#202347;" d="M201.771,385.113H179.55v-38.051h22.221V385.113z M181.834,382.828h17.653v-33.483h-17.653
							V382.828z"/>
						<rect x="180.692" y="364.216" style="fill:#202347;" width="19.937" height="2.284"/>
						<g>
							<path style="fill:#272956;" d="M191.078,327.605l-17.734,13.35v3.321h34.632v-3.796L191.078,327.605z M190.964,332.737
								l10.16,7.541H181.22L190.964,332.737z"/>
						</g>
						<rect x="173.994" y="385.113" style="fill:#FFFFFF;" width="33.332" height="5.842"/>
						<rect x="173.994" y="390.954" style="fill:#BA6672;" width="33.332" height="5.842"/>
					</g>
					<g>
						<rect x="291.922" y="342.277" style="fill:#BA6672;" width="27.588" height="44.614"/>
						<rect x="295.748" y="348.203" style="fill:#F8F1E8;" width="19.937" height="35.172"/>
						<polygon style="fill:#FFFFFF;" points="296.277,378.369 296.277,371.906 311.614,347.062 314.503,348.845 						"/>
						
							<rect x="288.571" y="367.961" transform="matrix(0.5255 -0.8508 0.8508 0.5255 -168.9606 435.2236)" style="fill:#FFFFFF;" width="34.291" height="2.263"/>
						<path style="fill:#202347;" d="M316.827,385.113h-22.221v-38.051h22.221V385.113z M296.89,382.828h17.653v-33.483H296.89
							V382.828z"/>
						<rect x="295.748" y="364.216" style="fill:#202347;" width="19.937" height="2.284"/>
						<g>
							<path style="fill:#272956;" d="M306.134,327.605l-17.734,13.35v3.321h34.632v-3.796L306.134,327.605z M306.021,332.737
								l10.16,7.541h-19.904L306.021,332.737z"/>
						</g>
						<rect x="289.05" y="385.113" style="fill:#FFFFFF;" width="33.332" height="5.842"/>
						<rect x="289.05" y="390.954" style="fill:#BA6672;" width="33.332" height="5.842"/>
					</g>
				</g>
				<g>
					<g>
						<rect x="223.732" y="348.899" style="fill:#F8F1E8;" width="49.296" height="70.161"/>
						<polygon style="fill:#FFFFFF;" points="224.797,407.163 224.797,394.147 255.687,344.11 261.505,347.702 						"/>
						<polygon style="fill:#FFFFFF;" points="227.093,419.895 223.349,417.285 267.507,345.864 271.384,348.259 						"/>
						
							<rect x="223.732" y="348.899" style="fill:none;stroke:#202347;stroke-width:2.3767;stroke-miterlimit:10;" width="49.296" height="70.161"/>
						
							<line style="fill:none;stroke:#202347;stroke-width:2.4044;stroke-miterlimit:10;" x1="248.38" y1="348.899" x2="248.38" y2="419.738"/>
					</g>
					<g>
						<g>
							<path style="fill:#272956;" d="M222.027,357.251c0,2.411-1.955,4.366-4.366,4.366c-2.411,0-4.366-1.955-4.366-4.366
								c0-2.411,1.955-4.366,4.366-4.366C220.073,352.886,222.027,354.84,222.027,357.251z"/>
							<path style="fill:#272956;" d="M230.759,357.251c0,2.411-1.955,4.366-4.366,4.366c-2.411,0-4.366-1.955-4.366-4.366
								c0-2.411,1.955-4.366,4.366-4.366C228.804,352.886,230.759,354.84,230.759,357.251z"/>
							<path style="fill:#272956;" d="M239.49,357.251c0,2.411-1.955,4.366-4.366,4.366c-2.411,0-4.366-1.955-4.366-4.366
								c0-2.411,1.955-4.366,4.366-4.366C237.536,352.886,239.49,354.84,239.49,357.251z"/>
							<path style="fill:#272956;" d="M248.222,357.251c0,2.411-1.955,4.366-4.366,4.366c-2.411,0-4.366-1.955-4.366-4.366
								c0-2.411,1.955-4.366,4.366-4.366C246.267,352.886,248.222,354.84,248.222,357.251z"/>
							<path style="fill:#272956;" d="M256.953,357.251c0,2.411-1.955,4.366-4.366,4.366c-2.411,0-4.366-1.955-4.366-4.366
								c0-2.411,1.955-4.366,4.366-4.366C254.999,352.886,256.953,354.84,256.953,357.251z"/>
							<path style="fill:#272956;" d="M265.685,357.251c0,2.411-1.955,4.366-4.366,4.366c-2.411,0-4.366-1.955-4.366-4.366
								c0-2.411,1.955-4.366,4.366-4.366C263.73,352.886,265.685,354.84,265.685,357.251z"/>
							<path style="fill:#272956;" d="M274.416,357.251c0,2.411-1.955,4.366-4.366,4.366c-2.411,0-4.366-1.955-4.366-4.366
								c0-2.411,1.955-4.366,4.366-4.366C272.462,352.886,274.416,354.84,274.416,357.251z"/>
							<path style="fill:#272956;" d="M283.148,357.251c0,2.411-1.955,4.366-4.366,4.366c-2.411,0-4.366-1.955-4.366-4.366
								c0-2.411,1.955-4.366,4.366-4.366C281.193,352.886,283.148,354.84,283.148,357.251z"/>
						</g>
						<g>
							<g>
								<defs>
									<path id="XMLID_1_" d="M248.188,327.745c-18.488,0-33.623,12.765-34.96,28.953h69.919
										C281.811,340.511,266.676,327.745,248.188,327.745z"/>
								</defs>
								<use xlink:href="#XMLID_1_"  style="overflow:visible;fill:#FFFFFF;"/>
								<clipPath id="XMLID_00000131341474307017392520000009348431276373860512_">
									<use xlink:href="#XMLID_1_"  style="overflow:visible;"/>
								</clipPath>
								<path style="clip-path:url(#XMLID_00000131341474307017392520000009348431276373860512_);fill:#BA6672;" d="
									M248.188,326.257c0,0-29.993,3.117-28.175,35.97l-10.778-1.579C209.236,360.647,211.436,325.348,248.188,326.257z"/>
								<path style="clip-path:url(#XMLID_00000131341474307017392520000009348431276373860512_);fill:#BA6672;" d="M246.795,326.63
									c0,0-16.793,4.821-17.962,35.856l11.297,0.13C240.13,362.616,237.348,338.853,246.795,326.63z"/>
								<path style="clip-path:url(#XMLID_00000131341474307017392520000009348431276373860512_);fill:#BA6672;" d="
									M247.071,326.257c0,0,29.993,3.117,28.175,35.97l10.778-1.579C286.023,360.647,283.823,325.348,247.071,326.257z"/>
								<path style="clip-path:url(#XMLID_00000131341474307017392520000009348431276373860512_);fill:#BA6672;" d="M247.454,326.63
									c0,0,16.793,4.821,17.962,35.856l-11.297,0.13C254.118,362.616,256.9,338.853,247.454,326.63z"/>
							</g>
						</g>
					</g>
				</g>
			</g>
		</g>
	</g>
	<g>
		<g>
			<path style="fill:#DC8990;" d="M129.611,346.454c3.429-3.48,5.55-8.253,5.55-13.524c0-6.11-2.852-11.546-7.287-15.077
				c2.073-2.612,3.32-5.909,3.32-9.502c0-8.454-6.854-15.308-15.308-15.308s-15.308,6.854-15.308,15.308
				c0,3.593,1.247,6.89,3.32,9.502c-4.436,3.531-7.287,8.967-7.287,15.077c0,5.272,2.121,10.044,5.55,13.524
				c-6.168,4.328-10.203,11.488-10.203,19.596c0,13.215,10.713,23.928,23.928,23.928c13.215,0,23.928-10.713,23.928-23.928
				C139.815,357.942,135.779,350.782,129.611,346.454z"/>
			<g>
				
					<line style="fill:none;stroke:#272956;stroke-width:2.0033;stroke-miterlimit:10;" x1="116.508" y1="315.043" x2="116.508" y2="419.981"/>
				
					<line style="fill:none;stroke:#272956;stroke-width:2.0033;stroke-miterlimit:10;" x1="108.661" y1="327.183" x2="116.508" y2="335.417"/>
				
					<line style="fill:none;stroke:#272956;stroke-width:2.0033;stroke-miterlimit:10;" x1="108.661" y1="366.56" x2="116.508" y2="374.793"/>
				
					<line style="fill:none;stroke:#272956;stroke-width:2.0033;stroke-miterlimit:10;" x1="116.508" y1="357.523" x2="124.312" y2="349.977"/>
			</g>
		</g>
		<g>
			<path style="fill:#DC8990;" d="M394.181,346.454c3.429-3.48,5.55-8.253,5.55-13.524c0-6.11-2.852-11.546-7.287-15.077
				c2.073-2.612,3.32-5.909,3.32-9.502c0-8.454-6.853-15.308-15.308-15.308c-8.454,0-15.308,6.854-15.308,15.308
				c0,3.593,1.247,6.89,3.32,9.502c-4.436,3.531-7.287,8.967-7.287,15.077c0,5.272,2.121,10.044,5.55,13.524
				c-6.168,4.328-10.203,11.488-10.203,19.596c0,13.215,10.713,23.928,23.928,23.928c13.215,0,23.928-10.713,23.928-23.928
				C404.384,357.942,400.348,350.782,394.181,346.454z"/>
			<g>
				
					<line style="fill:none;stroke:#272956;stroke-width:2.0033;stroke-miterlimit:10;" x1="381.077" y1="315.043" x2="381.077" y2="419.981"/>
				
					<line style="fill:none;stroke:#272956;stroke-width:2.0033;stroke-miterlimit:10;" x1="373.23" y1="327.183" x2="381.077" y2="335.417"/>
				
					<line style="fill:none;stroke:#272956;stroke-width:2.0033;stroke-miterlimit:10;" x1="373.23" y1="366.56" x2="381.077" y2="374.793"/>
				
					<line style="fill:none;stroke:#272956;stroke-width:2.0033;stroke-miterlimit:10;" x1="381.077" y1="357.523" x2="388.882" y2="349.977"/>
			</g>
		</g>
		
			<line style="fill:none;stroke:#202347;stroke-width:2.3915;stroke-miterlimit:10;" x1="40.064" y1="420.7" x2="456.312" y2="420.7"/>
	</g>
</g>
<g id="DESIGNED_BY_FREEPIK">
	<g>
		<g id="XMLID_319_">
			<g id="XMLID_338_">
				<path id="XMLID_346_" style="fill:#222221;" d="M260.104,465.465c-0.432,0.443-0.803,0.931-1.108,1.453l-0.465-0.241
					c-0.067-0.298-0.349-0.503-0.659-0.466c-0.331,0.039-0.568,0.339-0.529,0.67s0.339,0.568,0.67,0.529
					c0.065-0.008,0.127-0.026,0.184-0.052l0.451,0.234c-0.251,0.554-0.433,1.139-0.539,1.744l0.746,0.132
					c0.23-1.306,0.85-2.507,1.792-3.473L260.104,465.465z"/>
				<path id="XMLID_345_" style="fill:#222221;" d="M265.592,463.163c-0.171,0-0.341,0.006-0.51,0.017l-0.074-0.626
					c0.188-0.149,0.296-0.389,0.266-0.645c-0.046-0.393-0.402-0.674-0.795-0.628s-0.674,0.402-0.628,0.795
					c0.03,0.254,0.189,0.461,0.405,0.564l0.073,0.624c-0.714,0.116-1.403,0.332-2.06,0.646l0.327,0.684
					c0.934-0.447,1.942-0.673,2.995-0.673c0.496,0,0.993,0.053,1.475,0.158l0.161-0.741
					C266.693,463.222,266.142,463.163,265.592,463.163z"/>
				<path id="XMLID_344_" style="fill:#222221;" d="M272.194,465.711c0.331-0.04,0.566-0.341,0.525-0.672
					c-0.04-0.331-0.341-0.566-0.672-0.526c-0.309,0.038-0.535,0.304-0.53,0.609l-0.416,0.363c-0.418-0.43-0.89-0.813-1.408-1.139
					l-0.404,0.641c1.134,0.715,2.021,1.726,2.563,2.925l0.691-0.313c-0.251-0.554-0.568-1.072-0.942-1.545l0.402-0.351
					C272.065,465.716,272.129,465.719,272.194,465.711z"/>
				<path id="XMLID_343_" style="fill:#222221;" d="M265.044,473.372c-0.386,0.023-0.775,0.035-1.157,0.035
					c-0.88,0-1.733-0.061-2.478-0.179c-0.39-0.062-0.846-0.155-1.27-0.292c1.046,1.861,3.069,3.125,5.388,3.125
					c2.855,0,5.262-1.916,5.95-4.504c-0.682,0.449-1.505,0.825-2.459,1.123C267.839,473.047,266.464,473.286,265.044,473.372z"/>
				<path id="XMLID_339_" style="fill:#222221;" d="M265.592,464.68c-3.352,0-6.08,2.666-6.08,5.943
					c0,0.426,0.046,0.849,0.137,1.261c0.674,0.483,2.706,0.89,5.348,0.731c2.879-0.173,5.297-0.957,6.672-2.159
					c-0.005-0.195-0.021-0.39-0.045-0.582C271.244,466.913,268.65,464.68,265.592,464.68z M263.432,471.194
					c-1.02,0-1.85-0.83-1.85-1.85c0-1.02,0.83-1.85,1.85-1.85c1.02,0,1.85,0.83,1.85,1.85
					C265.282,470.365,264.452,471.194,263.432,471.194z M268.17,470.286c-0.75,0-1.36-0.61-1.36-1.36s0.61-1.361,1.36-1.361
					c0.75,0,1.361,0.61,1.361,1.361S268.92,470.286,268.17,470.286z"/>
			</g>
			<path id="XMLID_336_" style="fill:#222221;" d="M281.595,466.547c-0.295-0.116-0.806-0.309-1.382-0.237
				c-0.551,0.069-0.844,0.341-0.844,1.007v0.866h2.228v1.717h-2.228v5.455h-1.932v-5.455h-1.34v-1.717h1.34v-0.888
				c0-1.68,0.896-2.783,2.568-2.783c0.642,0,1.157,0.122,1.59,0.308L281.595,466.547z"/>
			<path id="XMLID_334_" style="fill:#222221;" d="M286.298,469.879c-0.177-0.03-0.358-0.046-0.526-0.046
				c-0.896,0-1.51,0.548-1.51,1.614v3.908h-1.932v-7.172h1.873v0.785c0.451-0.673,1.14-0.977,2.021-0.977
				c0.414,0,0.848,0.128,1.094,0.337L286.298,469.879z"/>
			<path id="XMLID_331_" style="fill:#222221;" d="M293.965,471.757c0,0.222-0.015,0.489-0.037,0.651h-5.085
				c0.207,1.036,0.933,1.488,1.843,1.488c0.622,0,1.295-0.252,1.813-0.688l1.132,1.243c-0.814,0.748-1.85,1.088-3.057,1.088
				c-2.198,0-3.723-1.495-3.723-3.753c0-2.258,1.48-3.797,3.627-3.797C292.544,467.99,293.958,469.522,293.965,471.757z
				 M288.851,471.091h3.175c-0.177-0.918-0.733-1.436-1.562-1.436C289.554,469.655,289.021,470.203,288.851,471.091z"/>
			<path id="XMLID_328_" style="fill:#222221;" d="M301.618,471.757c0,0.222-0.015,0.489-0.037,0.651h-5.085
				c0.207,1.036,0.932,1.488,1.843,1.488c0.622,0,1.295-0.252,1.813-0.688l1.132,1.243c-0.814,0.748-1.85,1.088-3.057,1.088
				c-2.198,0-3.723-1.495-3.723-3.753c0-2.258,1.48-3.797,3.627-3.797C300.197,467.99,301.611,469.522,301.618,471.757z
				 M296.504,471.091h3.175c-0.178-0.918-0.733-1.436-1.562-1.436C297.207,469.655,296.674,470.203,296.504,471.091z"/>
			<path id="XMLID_325_" style="fill:#222221;" d="M309.964,471.764c0,2.154-1.495,3.775-3.471,3.775
				c-0.962,0-1.643-0.378-2.109-0.933v3.708h-1.924v-10.133h1.887v0.792c0.466-0.585,1.155-0.984,2.139-0.984
				C308.469,467.99,309.964,469.61,309.964,471.764z M304.287,471.764c0,1.132,0.747,1.976,1.843,1.976
				c1.14,0,1.85-0.881,1.85-1.976c0-1.095-0.71-1.976-1.85-1.976C305.035,469.788,304.287,470.632,304.287,471.764z"/>
			<path id="XMLID_322_" style="fill:#222221;" d="M313.068,465.836c0,0.696-0.54,1.229-1.236,1.229
				c-0.696,0-1.229-0.533-1.229-1.229c0-0.696,0.533-1.243,1.229-1.243C312.527,464.592,313.068,465.14,313.068,465.836z
				 M312.809,475.354h-1.932v-7.172h1.932V475.354z"/>
			<path id="XMLID_320_" style="fill:#222221;" d="M316.032,470.736l2.702-2.554h2.368l-3.479,3.375l3.501,3.797h-2.376
				l-2.716-2.901v2.901H314.1v-10.658h1.932V470.736z"/>
		</g>
		<g>
			<path style="fill:#222221;" d="M184.412,475.289v-1.055c-0.527,0.718-1.391,1.23-2.388,1.23c-1.846,0-3.149-1.406-3.149-3.706
				c0-2.256,1.289-3.721,3.149-3.721c0.952,0,1.816,0.469,2.388,1.245v-3.765h1.099v9.77H184.412z M184.412,473.37v-3.208
				c-0.395-0.615-1.245-1.143-2.124-1.143c-1.421,0-2.27,1.172-2.27,2.739c0,1.567,0.85,2.724,2.27,2.724
				C183.168,474.483,184.017,473.986,184.412,473.37z"/>
			<path style="fill:#222221;" d="M186.932,471.744c0-2.051,1.465-3.706,3.486-3.706c2.139,0,3.398,1.67,3.398,3.794v0.279h-5.727
				c0.088,1.333,1.025,2.446,2.549,2.446c0.805,0,1.626-0.322,2.182-0.894l0.527,0.718c-0.703,0.703-1.655,1.084-2.812,1.084
				C188.44,475.465,186.932,473.956,186.932,471.744z M190.403,468.947c-1.509,0-2.256,1.274-2.314,2.358h4.643
				C192.718,470.25,192.015,468.947,190.403,468.947z"/>
			<path style="fill:#222221;" d="M194.607,474.351l0.571-0.791c0.469,0.542,1.362,1.011,2.329,1.011c1.084,0,1.67-0.513,1.67-1.216
				c0-1.714-4.38-0.659-4.38-3.281c0-1.098,0.952-2.036,2.636-2.036c1.201,0,2.051,0.454,2.622,1.026l-0.513,0.762
				c-0.424-0.513-1.201-0.894-2.109-0.894c-0.967,0-1.567,0.483-1.567,1.113c0,1.552,4.38,0.527,4.38,3.281
				c0,1.187-0.952,2.138-2.783,2.138C196.306,475.465,195.325,475.113,194.607,474.351z"/>
			<path style="fill:#222221;" d="M201.477,466.471c0-0.41,0.337-0.747,0.732-0.747c0.41,0,0.747,0.337,0.747,0.747
				c0,0.41-0.337,0.732-0.747,0.732C201.814,467.203,201.477,466.881,201.477,466.471z M201.667,475.289v-7.075h1.099v7.075H201.667
				z"/>
			<path style="fill:#222221;" d="M204.582,477.105l0.556-0.82c0.586,0.703,1.289,0.967,2.3,0.967c1.172,0,2.27-0.571,2.27-2.124
				v-1.011c-0.513,0.718-1.377,1.26-2.373,1.26c-1.845,0-3.149-1.377-3.149-3.662c0-2.27,1.289-3.677,3.149-3.677
				c0.952,0,1.802,0.469,2.373,1.245v-1.069h1.098v6.87c0,2.344-1.641,3.076-3.369,3.076
				C206.237,478.16,205.417,477.926,204.582,477.105z M209.709,473.253v-3.091c-0.381-0.615-1.23-1.143-2.109-1.143
				c-1.421,0-2.27,1.128-2.27,2.695c0,1.553,0.849,2.695,2.27,2.695C208.478,474.41,209.328,473.868,209.709,473.253z"/>
			<path style="fill:#222221;" d="M217.413,475.289v-4.629c0-1.245-0.63-1.641-1.582-1.641c-0.865,0-1.685,0.527-2.095,1.099v5.17
				h-1.099v-7.075h1.099v1.025c0.498-0.586,1.465-1.201,2.519-1.201c1.48,0,2.256,0.747,2.256,2.285v4.966H217.413z"/>
			<path style="fill:#222221;" d="M219.932,471.744c0-2.051,1.465-3.706,3.486-3.706c2.139,0,3.398,1.67,3.398,3.794v0.279h-5.727
				c0.088,1.333,1.025,2.446,2.549,2.446c0.806,0,1.626-0.322,2.183-0.894l0.527,0.718c-0.703,0.703-1.655,1.084-2.812,1.084
				C221.441,475.465,219.932,473.956,219.932,471.744z M223.404,468.947c-1.509,0-2.256,1.274-2.314,2.358h4.643
				C225.718,470.25,225.015,468.947,223.404,468.947z"/>
			<path style="fill:#222221;" d="M233.35,475.289v-1.055c-0.527,0.718-1.392,1.23-2.388,1.23c-1.846,0-3.149-1.406-3.149-3.706
				c0-2.256,1.289-3.721,3.149-3.721c0.952,0,1.817,0.469,2.388,1.245v-3.765h1.098v9.77H233.35z M233.35,473.37v-3.208
				c-0.396-0.615-1.245-1.143-2.124-1.143c-1.421,0-2.27,1.172-2.27,2.739c0,1.567,0.849,2.724,2.27,2.724
				C232.105,474.483,232.954,473.986,233.35,473.37z"/>
			<path style="fill:#222221;" d="M239.692,475.289v-9.77h1.098v3.765c0.572-0.776,1.421-1.245,2.388-1.245
				c1.845,0,3.149,1.465,3.149,3.721c0,2.299-1.304,3.706-3.149,3.706c-0.996,0-1.86-0.513-2.388-1.23v1.055H239.692z
				 M242.9,474.483c1.436,0,2.285-1.157,2.285-2.724c0-1.568-0.85-2.739-2.285-2.739c-0.864,0-1.728,0.527-2.109,1.143v3.208
				C241.171,473.986,242.036,474.483,242.9,474.483z"/>
			<path style="fill:#222221;" d="M247.528,477.061c0.161,0.073,0.425,0.117,0.601,0.117c0.483,0,0.805-0.161,1.055-0.747
				l0.469-1.069l-2.959-7.148h1.187l2.358,5.8l2.344-5.8h1.201l-3.545,8.51c-0.425,1.025-1.143,1.421-2.08,1.435
				c-0.234,0-0.601-0.044-0.805-0.103L247.528,477.061z"/>
		</g>
	</g>
</g>
</svg>
