<svg width="23" height="22" viewBox="0 0 23 22" fill="none" xmlns="http://www.w3.org/2000/svg">
<g id="icon_filled/Check_circle">
<path id="Exclude" fill-rule="evenodd" clip-rule="evenodd" d="M11.0611 2.07938C6.01391 2.07938 1.92236 5.988 1.92236 10.8095C1.92236 15.6311 6.01391 19.5397 11.0611 19.5397C16.1083 19.5397 20.1998 15.6311 20.1998 10.8095C20.1998 5.988 16.1083 2.07938 11.0611 2.07938ZM15.3016 7.51984C15.6894 7.82851 15.7417 8.379 15.4186 8.7494L10.8493 13.9875C10.6897 14.1704 10.4589 14.2831 10.2103 14.2995C9.96173 14.316 9.71688 14.2347 9.53248 14.0746L6.79086 11.6936C6.4174 11.3693 6.38988 10.8172 6.72939 10.4604C7.0689 10.1036 7.64688 10.0773 8.02034 10.4017L10.056 12.1695L14.0145 7.63162C14.3376 7.26122 14.9139 7.21117 15.3016 7.51984Z" fill="#528AFF"/>
</g>
</svg>
