<svg width="20" height="20" viewBox="0 0 20 20" fill="none" xmlns="http://www.w3.org/2000/svg">
<g id="Frame">
<g id="Mask Group">
<mask id="mask0_1_635" style="mask-type:luminance" maskUnits="userSpaceOnUse" x="0" y="0" width="20" height="20">
<g id="Group">
<path id="Vector" d="M20 0H0V20H20V0Z" fill="white"/>
</g>
</mask>
<g mask="url(#mask0_1_635)">
<g id="Group_2">
<path id="Vector_2" d="M12.7459 5.00589C15.3378 3.67337 16.6338 3.0071 17.2606 3.60476C17.8873 4.20241 17.2834 5.52857 16.0755 8.18088L12.5942 15.8251C11.3383 18.5829 10.7104 19.9618 9.83672 19.8682C8.96308 19.7746 8.63987 18.2863 7.99344 15.3099C7.8358 14.5841 7.75698 14.2212 7.51354 13.9712C7.2701 13.7212 6.91097 13.6331 6.19271 13.4569L5.82801 13.3675C3.1717 12.7161 1.84354 12.3904 1.74477 11.5514C1.64599 10.7125 2.86219 10.0872 5.29458 8.83667L12.7459 5.00589Z" fill="#1B1E24"/>
</g>
</g>
</g>
</g>
</svg>
