<svg width="60" height="146" viewBox="0 0 60 146" fill="none" xmlns="http://www.w3.org/2000/svg">
<g id="freepik--Character--inject-100">
<path id="Vector" d="M35.7916 141.797L31.9265 141.738L30.8147 132.861L34.6798 132.919L35.7916 141.797Z" fill="#FF8B7B"/>
<path id="Vector_2" d="M12.2674 141.706L8.73584 139.755L11.3715 131.519L14.9031 133.47L12.2674 141.706Z" fill="#FF8B7B"/>
<path id="Vector_3" d="M8.4022 139.295L12.4962 141.602C12.5632 141.638 12.6155 141.696 12.6441 141.765C12.6728 141.835 12.676 141.913 12.6532 141.985L11.6199 145.322C11.5946 145.403 11.5509 145.477 11.4923 145.539C11.4336 145.601 11.3615 145.649 11.2814 145.679C11.2012 145.709 11.1153 145.72 11.03 145.712C10.9447 145.704 10.8624 145.677 10.7893 145.633C9.48129 144.875 8.56569 144.253 6.90453 143.319C5.88429 142.749 2.7451 141.123 1.339 140.332C-0.0671045 139.542 0.534572 138.051 1.18203 138.252C4.09233 139.146 6.48597 139.47 7.72203 139.198C7.95304 139.145 8.19572 139.18 8.4022 139.295Z" fill="#53BE00"/>
<path id="Vector_4" d="M31.8481 141.298L36.0664 141.363C36.1435 141.363 36.2182 141.389 36.2779 141.437C36.3375 141.486 36.3783 141.553 36.3934 141.628L37.0997 145.043C37.1144 145.124 37.1107 145.207 37.0889 145.285C37.0672 145.364 37.028 145.438 36.9741 145.5C36.9202 145.562 36.8531 145.611 36.7775 145.644C36.7019 145.677 36.6199 145.693 36.5373 145.691C35.0135 145.646 32.816 145.523 30.9064 145.49C28.6697 145.458 26.7338 145.549 24.1113 145.49C22.5286 145.49 22.1493 143.87 22.8033 143.734C25.8379 143.125 28.3034 143.086 30.9391 141.537C31.2149 141.378 31.5289 141.295 31.8481 141.298Z" fill="#53BE00"/>
<path id="Vector_5" d="M30.0235 29.5306C27.8083 31.3267 25.4986 33.0052 23.1042 34.5591C21.9008 35.3303 20.6778 36.0949 19.3764 36.7947C18.0159 37.5585 16.5861 38.1942 15.1058 38.6934C14.6641 38.8331 14.2142 38.9457 13.7585 39.0303C13.51 39.0757 13.2222 39.1081 12.9476 39.134C12.6364 39.1598 12.3235 39.1598 12.0123 39.134C11.3267 39.0787 10.6594 38.887 10.0503 38.5703C9.46781 38.2626 8.94871 37.8493 8.51997 37.352C7.85877 36.5652 7.37291 35.6488 7.09426 34.6628C6.86824 33.8662 6.71717 33.0506 6.64299 32.2263C6.44554 29.2779 6.73043 26.3172 7.48665 23.4589L10.3577 23.8542C10.3445 26.4285 10.5988 28.9973 11.1164 31.52C11.2392 32.0533 11.4121 32.5739 11.633 33.0752C11.7617 33.4116 11.9651 33.715 12.2282 33.963C12.3066 34.0148 12.3393 34.0083 12.3459 33.963C12.3524 33.9176 12.3459 33.9306 12.3459 33.9176C12.6772 33.8456 13.0012 33.7437 13.3138 33.6131C14.4285 33.1362 15.5024 32.5706 16.5249 31.9218C17.6237 31.2738 18.7289 30.5156 19.7949 29.751C21.9793 28.2347 24.1833 26.6017 26.2826 24.9946L30.0235 29.5306Z" fill="#FF8B7B"/>
<path id="Vector_6" d="M31.2007 27.7681C29.4415 31.7014 22.6595 35.7709 18.899 37.4881C17.7872 37.9935 17.9311 39.471 17.2705 38.8294C17.2705 38.8294 14.3733 33.5612 14.3733 32.4855C14.3733 31.4098 15.3347 32.0514 16.1195 31.3256C18.9448 28.7336 24.8569 23.0377 28.5455 22.4091C33.372 21.5667 32.8488 24.1004 31.2007 27.7681Z" fill="#53BE00"/>
<path id="Vector_7" d="M14.7787 31.7857C14.4059 31.2414 12.8624 32.667 12.3719 33.2631C11.8814 33.8593 13.2287 36.0236 13.6342 37.1511C14.0396 38.2787 13.2418 39.4775 14.4844 39.6524C15.1384 39.7431 17.0023 39.5034 17.362 39.0044C18.2056 37.9352 15.6746 33.0947 14.7787 31.7857Z" fill="#212121"/>
<path id="Vector_8" opacity="0.2" d="M23.6536 34.8961C26.8189 32.9197 30.0628 30.3147 31.2073 27.7681C31.2792 27.5931 31.3642 27.4311 31.4296 27.2627L31.495 26.6147C27.1982 27.3404 24.2814 31.6431 23.6536 34.8961Z" fill="black"/>
<path id="Vector_9" d="M9.80183 25.04L12.2936 21.3788L8.22568 19.7329C8.22568 19.7329 5.9236 22.3249 7.57168 24.5864L9.80183 25.04Z" fill="#FF8B7B"/>
<path id="Vector_10" d="M13.3399 17.4001L9.59899 17.277L8.22559 19.7005L12.2935 21.3464L13.3399 17.4001Z" fill="#FF8B7B"/>
<path id="Vector_11" opacity="0.2" d="M30.8147 132.861L31.3902 137.436L35.2554 137.5L34.6798 132.926L30.8147 132.861Z" fill="black"/>
<path id="Vector_12" opacity="0.2" d="M14.903 133.47L11.3714 131.519L10.0176 135.77L13.5426 137.721L14.903 133.47Z" fill="black"/>
<path id="Vector_13" d="M50.1339 23.7959C45.9679 38.337 46.8115 53.7659 46.4322 56.8892C43.4107 56.6754 32.0442 55.833 25.8312 55.3729C23.8692 33.5029 28.5388 22.3962 28.5388 22.3962C28.5388 22.3962 29.8468 22.1435 31.6649 21.962C32.2273 21.9037 32.8356 21.8519 33.4699 21.8195C33.8231 21.8195 34.1763 21.7871 34.536 21.7806C37.4673 21.8297 40.3933 22.046 43.2996 22.4286C43.8489 22.4934 44.4048 22.5776 44.9476 22.6619C45.4905 22.7461 45.9417 22.8368 46.4061 22.9275C48.5054 23.3423 50.1339 23.7959 50.1339 23.7959Z" fill="#53BE00"/>
<path id="Vector_14" d="M34.5361 21.8C32.803 22.7202 32.2994 26.0898 35.6544 26.2194C39.0095 26.349 42.3383 24.0097 43.2997 22.4415L34.5361 21.8Z" fill="#212121"/>
<path id="Vector_15" opacity="0.2" d="M45.7325 30.0361C45.3662 31.4423 45.7848 37.8575 47.2694 39.4451C47.4721 37.3909 47.7403 35.2395 48.1 33.0493L45.7325 30.0361Z" fill="black"/>
<path id="Vector_16" d="M43.1623 12.5919C42.4037 15.3394 41.4684 20.4133 43.2996 22.4221C41.6516 23.8218 39.7615 24.8002 36.4065 24.6706C33.0515 24.541 33.5681 22.921 34.536 21.7806C37.7406 21.2686 37.806 18.9488 37.4463 16.7391L43.1623 12.5919Z" fill="#FF8B7B"/>
<path id="Vector_17" opacity="0.2" d="M40.834 14.2832L37.4463 16.7391C37.5432 17.2543 37.5957 17.7768 37.6033 18.3008C38.8132 18.2166 40.5659 17.0048 40.7817 15.793C40.8905 15.297 40.9083 14.7855 40.834 14.2832Z" fill="black"/>
<path id="Vector_18" d="M34.4379 11.5357C34.4379 11.5357 32.0704 8.23737 32.7636 5.65833C33.6531 2.36001 39.0159 6.40354 34.4379 11.5357Z" fill="#212121"/>
<path id="Vector_19" d="M43.8163 8.41234C43.2931 12.1772 43.1623 14.4063 41.1153 16.1883C37.9957 18.897 33.4177 16.8363 32.7899 12.9483C32.2209 9.4945 33.1627 3.91522 37.0147 2.6905C37.8653 2.41385 38.7734 2.35811 39.6519 2.52858C40.5305 2.69906 41.3502 3.09006 42.0327 3.66418C42.7151 4.2383 43.2375 4.97633 43.5498 5.80766C43.8621 6.63899 43.9538 7.53582 43.8163 8.41234Z" fill="#FF8B7B"/>
<path id="Vector_20" d="M34.8238 12.3911C34.8238 12.9678 34.2876 13.1039 33.8559 13.3631C33.5561 13.5693 33.3041 13.8366 33.1169 14.1471C33.1169 14.1471 32.561 13.9657 32.7899 12.9872C33.0188 12.0087 34.8238 11.8532 34.8238 12.3911Z" fill="#212121"/>
<path id="Vector_21" d="M35.092 12.4105C35.092 13.4019 36.1973 13.2659 37.054 13.538C37.749 13.7527 38.3607 14.1733 38.8068 14.7433C38.9182 14.4943 38.9547 14.2188 38.9118 13.9497C38.8689 13.6807 38.7484 13.4297 38.5648 13.227C37.4922 11.8338 35.092 11.8727 35.092 12.4105Z" fill="#212121"/>
<path id="Vector_22" d="M40.8799 5.01033C38.4993 5.71017 31.822 6.44241 32.6395 3.06633C33.7774 -1.65759 36.7858 0.804814 37.2175 1.47873C39.1337 0.104975 47.5899 1.30377 45.9026 4.01889C47.7403 4.29753 48.8064 6.28041 47.4853 7.25889C46.1642 8.23737 44.5619 12.2291 43.679 12.1124C42.6109 11.9662 41.568 11.6762 40.579 11.2506L42.3972 8.84001C42.3972 8.84001 40.1932 6.76641 40.8799 5.01033Z" fill="#212121"/>
<path id="Vector_23" d="M45.0459 4.43362C46.3539 4.1161 47.5769 3.97354 48.6364 4.94554C48.5579 3.31258 46.3016 3.08578 45.0459 4.43362Z" fill="#212121"/>
<path id="Vector_24" d="M45.2225 12.728C44.9397 13.1084 44.5838 13.4295 44.1752 13.6731C43.7667 13.9166 43.3135 14.0777 42.8419 14.1471C41.5732 14.3286 41.1088 13.1687 41.5993 12.0735C42.0375 11.0821 43.2278 9.79905 44.4311 10.1295C44.6912 10.2066 44.9278 10.3464 45.12 10.5363C45.3121 10.7263 45.4537 10.9604 45.5321 11.2179C45.6105 11.4753 45.6233 11.7481 45.5693 12.0116C45.5152 12.2751 45.3961 12.5213 45.2225 12.728Z" fill="#FF8B7B"/>
<path id="Vector_25" d="M29.9516 136.535L36.4916 136.632C36.4916 136.632 32.718 111.03 33.3066 99.1194C33.4832 95.497 32.8946 90.4297 33.8625 84.9994C35.0855 78.1501 35.6741 75.422 37.2502 66.7712C38.3751 60.6022 39.3757 56.4032 39.3757 56.4032L25.8314 55.4053C25.8314 55.4053 21.4038 86.2566 21.5346 97.94C21.6719 110.051 29.9516 136.535 29.9516 136.535Z" fill="#528AFF"/>
<path id="Vector_26" opacity="0.6" d="M29.9516 136.535L36.4916 136.632C36.4916 136.632 32.718 111.03 33.3066 99.1194C33.4832 95.497 32.8946 90.4297 33.8625 84.9994C35.0855 78.1501 35.6741 75.422 37.2502 66.7712C38.3751 60.6022 39.3757 56.4032 39.3757 56.4032L25.8314 55.4053C25.8314 55.4053 21.4038 86.2566 21.5346 97.94C21.6719 110.051 29.9516 136.535 29.9516 136.535Z" fill="black"/>
<path id="Vector_27" opacity="0.2" d="M33.8624 84.9995C33.4031 87.8398 33.2126 90.7165 33.2934 93.5919C32.1685 96.7412 31.1875 99.7285 30.5008 102.385C29.304 107.031 27.4074 114.082 25.5631 120.853C23.5553 112.922 21.5999 103.753 21.541 97.9076L33.8624 84.9995Z" fill="black"/>
<path id="Vector_28" d="M33.1365 55.9107C33.1365 55.9107 23.405 80.2755 19.7164 90.9027C15.6747 102.515 9.1543 133.859 9.1543 133.859L15.3084 137.312C15.3084 137.312 24.8961 111.477 28.8659 100.169C33.3915 87.2869 45.8699 66.9332 46.4323 56.9216L33.1365 55.9107Z" fill="#528AFF"/>
<path id="Vector_29" opacity="0.6" d="M33.1365 55.9107C33.1365 55.9107 23.405 80.2755 19.7164 90.9027C15.6747 102.515 9.1543 133.859 9.1543 133.859L15.3084 137.312C15.3084 137.312 24.8961 111.477 28.8659 100.169C33.3915 87.2869 45.8699 66.9332 46.4323 56.9216L33.1365 55.9107Z" fill="black"/>
<path id="Vector_30" d="M8.34326 133.548L15.5896 137.624L16.8191 135.479L8.79452 130.787L8.34326 133.548Z" fill="#528AFF"/>
<path id="Vector_31" d="M29.1273 136.671L36.923 136.794L36.9623 134.299L28.251 134.027L29.1273 136.671Z" fill="#528AFF"/>
<path id="Vector_32" d="M38.7282 9.04088C38.7282 9.35192 38.5189 9.58521 38.3162 9.57225C38.1135 9.55929 37.9696 9.2936 37.9957 8.98904C38.0219 8.68448 38.1985 8.44473 38.4012 8.45769C38.604 8.47065 38.7544 8.73632 38.7282 9.04088Z" fill="#212121"/>
<path id="Vector_33" d="M34.5948 8.78171C34.5948 9.09275 34.3921 9.32602 34.1893 9.31306C33.9866 9.3001 33.8362 9.03442 33.8623 8.72986C33.8885 8.4253 34.0651 8.18554 34.2678 8.1985C34.4706 8.21146 34.621 8.47715 34.5948 8.78171Z" fill="#212121"/>
<path id="Vector_34" d="M35.5301 9.02145C35.0873 9.93457 34.5195 10.7828 33.8428 11.5422C34.0436 11.7088 34.2788 11.8299 34.5319 11.8971C34.7849 11.9642 35.0497 11.9758 35.3077 11.931L35.5301 9.02145Z" fill="#FF5652"/>
<path id="Vector_35" d="M35.1902 13.9139C35.5402 13.8998 35.8835 13.8143 36.1986 13.6626C36.5137 13.511 36.7938 13.2965 37.0214 13.0326C37.0301 13.0241 37.037 13.0141 37.0417 13.0029C37.0464 12.9918 37.0488 12.9799 37.0488 12.9678C37.0488 12.9557 37.0464 12.9438 37.0417 12.9326C37.037 12.9215 37.0301 12.9114 37.0214 12.903C37.0044 12.8875 36.9823 12.8789 36.9592 12.8789C36.9362 12.8789 36.914 12.8875 36.8971 12.903C36.6383 13.1892 36.3153 13.411 35.954 13.5506C35.5927 13.6902 35.2033 13.7436 34.8174 13.7065C34.7935 13.7063 34.7703 13.7147 34.7523 13.7303C34.7342 13.7458 34.7225 13.7673 34.7193 13.7907C34.7174 13.8028 34.7182 13.8152 34.7216 13.827C34.725 13.8387 34.7309 13.8496 34.739 13.8589C34.7471 13.8681 34.7572 13.8755 34.7684 13.8805C34.7797 13.8856 34.7919 13.8881 34.8043 13.8879C34.9322 13.9053 35.0611 13.914 35.1902 13.9139Z" fill="#212121"/>
<path id="Vector_36" d="M39.3823 7.9976C39.4103 8.00319 39.4392 8.00319 39.4673 7.9976C39.4876 7.9845 39.505 7.96754 39.5187 7.94771C39.5323 7.92788 39.5418 7.90557 39.5467 7.88207C39.5515 7.85856 39.5517 7.83433 39.547 7.81079C39.5424 7.78724 39.5331 7.76484 39.5196 7.74488C39.3684 7.49964 39.16 7.29394 38.9119 7.1451C38.6638 6.99625 38.3833 6.90861 38.0939 6.88953C38.0696 6.88862 38.0454 6.89269 38.0227 6.90148C38.0001 6.91028 37.9796 6.92362 37.9624 6.94065C37.9452 6.95768 37.9317 6.97804 37.9228 7.00047C37.914 7.02289 37.9099 7.0469 37.9108 7.07097C37.9108 7.11909 37.9301 7.16523 37.9644 7.19926C37.9988 7.23329 38.0453 7.25241 38.0939 7.25241C38.3217 7.27156 38.5418 7.34375 38.7361 7.46311C38.9304 7.58248 39.0936 7.74563 39.2122 7.93929C39.2331 7.96269 39.2597 7.98035 39.2895 7.99056C39.3193 8.00078 39.3513 8.00321 39.3823 7.9976Z" fill="#212121"/>
<path id="Vector_37" d="M33.0646 7.41441C33.095 7.41698 33.1257 7.41245 33.1541 7.4012C33.1825 7.38995 33.2078 7.37229 33.2281 7.34961C33.3732 7.17316 33.5586 7.03351 33.769 6.94223C33.9794 6.85095 34.2087 6.81067 34.438 6.82473C34.4856 6.83026 34.5335 6.81708 34.5714 6.788C34.6093 6.75892 34.6342 6.71626 34.6407 6.66921C34.6444 6.64535 34.6433 6.621 34.6373 6.59759C34.6314 6.57418 34.6208 6.55217 34.6062 6.53286C34.5916 6.51354 34.5732 6.49732 34.5522 6.48513C34.5312 6.47293 34.5079 6.46502 34.4838 6.46185C34.195 6.44135 33.9055 6.48946 33.6394 6.60217C33.3732 6.71488 33.138 6.88893 32.9534 7.10985C32.936 7.12675 32.9222 7.1469 32.9127 7.16916C32.9033 7.19141 32.8984 7.21531 32.8984 7.23945C32.8984 7.26359 32.9033 7.28749 32.9127 7.30974C32.9222 7.332 32.936 7.35215 32.9534 7.36905C32.9856 7.394 33.024 7.4097 33.0646 7.41441Z" fill="#212121"/>
<path id="Vector_38" d="M6.95685 139.256C7.25653 139.418 7.575 139.542 7.90515 139.626C7.91849 139.635 7.93451 139.64 7.95093 139.64C7.96736 139.64 7.98336 139.635 7.99671 139.626C8.00589 139.61 8.01073 139.592 8.01073 139.574C8.01073 139.556 8.00589 139.538 7.99671 139.522C7.91823 139.38 7.21191 138.11 6.72795 138.09C6.67483 138.089 6.62246 138.103 6.5764 138.129C6.53034 138.155 6.49232 138.193 6.46635 138.239C6.4125 138.311 6.37769 138.394 6.36512 138.483C6.35255 138.571 6.36262 138.661 6.39441 138.745C6.52005 138.972 6.71771 139.152 6.95685 139.256ZM7.73511 139.386C7.08111 139.179 6.67563 138.913 6.57753 138.66C6.55601 138.602 6.54953 138.54 6.55867 138.479C6.56781 138.418 6.59228 138.36 6.62985 138.31C6.63953 138.291 6.65444 138.275 6.67292 138.263C6.69139 138.252 6.71271 138.246 6.73449 138.246C6.98301 138.259 7.44081 138.887 7.73511 139.386Z" fill="#528AFF"/>
<path id="Vector_39" d="M7.8855 139.619H7.93129C7.94807 139.619 7.96449 139.614 7.97845 139.605C7.99242 139.596 8.00331 139.583 8.00977 139.568C8.00977 139.522 8.50027 138.518 8.29099 137.986C8.2676 137.92 8.23051 137.859 8.18209 137.808C8.13367 137.757 8.07498 137.716 8.00977 137.688C7.94898 137.657 7.87969 137.647 7.81242 137.659C7.74514 137.67 7.68355 137.704 7.63699 137.753C7.35577 138.09 7.63698 139.192 7.8528 139.574C7.85767 139.593 7.86932 139.609 7.8855 139.619ZM7.97706 137.889C8.04464 137.929 8.0957 137.991 8.12095 138.064C8.18221 138.496 8.1116 138.936 7.91821 139.328C7.72201 138.874 7.61083 138.084 7.78087 137.889C7.78087 137.889 7.82665 137.824 7.93783 137.889H7.97706Z" fill="#528AFF"/>
<path id="Vector_40" d="M31.4622 141.816C31.4784 141.812 31.4929 141.803 31.5035 141.79C31.514 141.777 31.5202 141.761 31.5211 141.745C31.5257 141.727 31.5236 141.708 31.5152 141.691C31.5068 141.674 31.4926 141.661 31.4753 141.654C31.3053 141.557 29.7618 140.753 29.291 141.006C29.2466 141.03 29.209 141.064 29.1816 141.106C29.1542 141.148 29.1378 141.196 29.134 141.246C29.1243 141.328 29.1341 141.411 29.1624 141.489C29.1908 141.566 29.2371 141.636 29.2975 141.693C29.7161 142.069 30.8279 141.933 31.4492 141.823L31.4622 141.816ZM29.4087 141.168C30.0237 141.202 30.621 141.384 31.1483 141.699C30.576 141.865 29.9624 141.819 29.4218 141.57C29.3821 141.533 29.3519 141.487 29.3337 141.437C29.3154 141.386 29.3098 141.332 29.3171 141.278C29.3163 141.258 29.3215 141.238 29.332 141.221C29.3424 141.204 29.3577 141.19 29.376 141.181L29.4087 141.168Z" fill="#528AFF"/>
<path id="Vector_41" d="M31.4623 141.816C31.475 141.806 31.4851 141.793 31.492 141.779C31.4988 141.764 31.502 141.748 31.5015 141.732C31.4694 141.189 31.2658 140.67 30.9195 140.248C30.8516 140.188 30.7717 140.142 30.685 140.114C30.5982 140.086 30.5066 140.077 30.4159 140.086C30.1674 140.086 30.0889 140.229 30.0758 140.332C29.9973 140.766 30.9064 141.628 31.3838 141.823C31.4099 141.83 31.4378 141.828 31.4623 141.816ZM30.3636 140.274H30.4617C30.5275 140.267 30.5941 140.274 30.6572 140.294C30.7202 140.314 30.7784 140.347 30.8279 140.391C31.1138 140.727 31.2854 141.144 31.3184 141.583C30.8475 141.291 30.2328 140.63 30.2786 140.371C30.2807 140.348 30.29 140.326 30.3053 140.309C30.3205 140.291 30.3409 140.279 30.3636 140.274Z" fill="#528AFF"/>
<path id="Vector_42" d="M51.0888 26.1092C51.939 27.6774 52.6715 29.2261 53.4301 30.8007C54.1888 32.3754 54.8493 33.9824 55.5164 35.6024C56.1835 37.2224 56.7851 38.8424 57.341 40.5791L57.74 41.8751L58.0931 43.1711C58.2109 43.6117 58.3024 44.0783 58.4071 44.5254L58.4855 44.8753L58.5575 45.3419C58.6004 45.6254 58.6288 45.9109 58.6425 46.1972C58.6827 47.1774 58.6412 48.1592 58.5182 49.1327C58.4136 50.0528 58.2828 50.9406 58.1258 51.8154C57.8054 53.565 57.413 55.2692 56.9748 56.954C56.1026 60.3098 55.057 63.6189 53.8421 66.8684L51.0496 66.1038C51.6316 62.786 52.1941 59.4229 52.6911 56.1116C52.9331 54.4592 53.1554 52.8068 53.3058 51.1739C53.3843 50.3639 53.4432 49.5603 53.4693 48.7763C53.5042 48.0522 53.4845 47.3266 53.4105 46.6055C53.4105 46.4694 53.3778 46.2879 53.3451 46.1972L53.3058 46.0288L53.2274 45.7566C53.1097 45.3872 53.0181 45.0179 52.8873 44.642L52.5014 43.5145L52.0763 42.3805C51.4943 40.8577 50.8403 39.3414 50.1797 37.8445C49.5192 36.3476 48.7867 34.8119 48.0608 33.3085C47.3348 31.8051 46.5893 30.2759 45.8699 28.8114L51.0888 26.1092Z" fill="#FF8B7B"/>
<path id="Vector_43" d="M50.1275 23.8023C52.9004 24.6577 56.5694 36.0495 58.0213 40.8966C58.9434 41.7195 58.479 43.2229 58.479 43.2229L52.835 45.6918C51.527 45.0438 50.7161 43.6895 51.2066 43.022C48.2505 37.4946 45.9288 33.3603 44.8105 30.062C43.1558 25.1761 45.8634 22.448 50.1275 23.8023Z" fill="#53BE00"/>
<path id="Vector_44" d="M51.455 44.3375C50.886 44.6744 52.6322 46.4499 53.1946 46.9683C53.7571 47.4867 55.6341 46.1324 56.8047 45.7955C57.9754 45.4585 59.1264 46.3268 59.375 45.1086C59.5123 44.4606 59.375 42.6073 58.9237 42.2185C57.8577 41.3243 52.8284 43.5339 51.455 44.3375Z" fill="#212121"/>
<path id="Vector_45" d="M51.782 64.4708L48.7671 66.9591L52.521 69.6419C52.521 69.6419 54.9866 67.0499 53.8814 65.5076L51.782 64.4708Z" fill="#FF8B7B"/>
<path id="Vector_46" d="M47.0471 70.4389L50.7618 72.2274L52.5211 69.6418L48.7671 66.9591L47.0471 70.4389Z" fill="#FF8B7B"/>
</g>
</svg>
