<svg width="141" height="29" viewBox="0 0 141 29" fill="none" xmlns="http://www.w3.org/2000/svg">
<g id="Frame">
<g id="Mask Group">
<mask id="mask0_1_662" style="mask-type:luminance" maskUnits="userSpaceOnUse" x="0" y="0" width="161" height="29">
<g id="Group">
<path id="Vector" d="M160.945 0.400024H0V28.4H160.945V0.400024Z" fill="white"/>
</g>
</mask>
<g mask="url(#mask0_1_662)">
<g id="Group_2">
<path id="Vector_2" fill-rule="evenodd" clip-rule="evenodd" d="M5.20858 27.7717V11.5512H0V27.7717H5.20858ZM13.4094 27.7717V17.2939C14.2662 16.2416 15.326 15.7155 16.5887 15.7155C18.37 15.7155 19.2606 16.6111 19.2606 18.4021V27.7717H24.4692V16.2864C24.4692 14.7192 24.0182 13.4711 23.1163 12.5419C22.2144 11.6128 20.8615 11.1483 19.0577 11.1483C17.795 11.1483 16.6789 11.3777 15.7093 11.8367C14.7397 12.2957 13.9731 12.861 13.4094 13.5326V11.5512H8.20082V19.6614V27.7717H13.4094ZM33.7185 28.1747C35.2517 28.1747 36.5764 27.9452 37.6926 27.4863C38.8087 27.0273 39.6655 26.3892 40.263 25.5721C40.8605 24.7549 41.1593 23.8313 41.1593 22.8015C41.1593 21.4806 40.8098 20.4507 40.1108 19.7119C39.4118 18.973 38.6001 18.4525 37.6756 18.1503C36.7512 17.848 35.6125 17.585 34.2596 17.3611C33.3126 17.2043 32.6418 17.0364 32.2472 16.8573C31.8526 16.6782 31.6553 16.4096 31.6553 16.0513C31.6553 15.7155 31.8414 15.4468 32.2134 15.2454C32.5854 15.0439 33.0871 14.9431 33.7185 14.9431C34.6429 14.9431 35.5449 15.1166 36.4242 15.4636C37.3036 15.8107 38.0026 16.2304 38.5212 16.723L40.5167 13.2976C39.5922 12.6259 38.5494 12.0998 37.3882 11.7192C36.2269 11.3386 34.9924 11.1483 33.6847 11.1483C32.219 11.1483 30.962 11.3889 29.9135 11.8703C28.865 12.3516 28.0646 13.0009 27.5122 13.8181C26.9597 14.6353 26.6835 15.5252 26.6835 16.4879C26.6835 17.7641 27.0217 18.7492 27.6982 19.4432C28.3746 20.1372 29.1469 20.6242 30.015 20.904C30.8831 21.1839 32.0048 21.4358 33.3803 21.6597C34.3273 21.8164 35.0319 21.9955 35.4941 22.197C35.9564 22.3985 36.1875 22.6895 36.1875 23.0701C36.1875 23.4507 36.0071 23.7474 35.6463 23.9601C35.2856 24.1728 34.7331 24.2791 33.9891 24.2791C33.0646 24.2791 32.033 24.0608 30.8943 23.6243C29.7557 23.1877 28.8707 22.6895 28.2393 22.1298L26.0747 25.6896C26.9315 26.4508 28.0533 27.0553 29.44 27.5031C30.8267 27.9508 32.2529 28.1747 33.7185 28.1747ZM49.2248 28.1747C50.1493 28.1747 50.9385 28.074 51.5924 27.8725C52.2463 27.671 52.7423 27.4135 53.0805 27.1001L52.0659 23.2045C51.9757 23.3164 51.8009 23.4116 51.5416 23.4899C51.2823 23.5683 51.0174 23.6075 50.7468 23.6075C50.2959 23.6075 49.9407 23.4563 49.6814 23.1541C49.4221 22.8518 49.2925 22.4545 49.2925 21.9619V16.0513H52.607V11.5512H49.2925V7.11829H44.1177V11.5512H41.412V16.0513H44.1177V23.406C44.1177 24.9732 44.5518 26.1598 45.4199 26.9657C46.288 27.7717 47.5563 28.1747 49.2248 28.1747ZM58.9815 28.1747C60.0187 28.1747 60.9939 27.99 61.9071 27.6206C62.8203 27.2512 63.5362 26.7642 64.0548 26.1598V27.7717H69.2633V17.6297C69.2633 15.3013 68.5531 13.639 67.1326 12.6427C65.712 11.6464 63.8857 11.1483 61.6534 11.1483C60.3231 11.1483 59.004 11.3553 57.6962 11.7695C56.3885 12.1837 55.2385 12.8162 54.2464 13.667L56.1066 16.9245C56.7605 16.3648 57.4933 15.9394 58.305 15.6483C59.1168 15.3573 59.9285 15.2118 60.7402 15.2118C61.7774 15.2118 62.5892 15.4245 63.1754 15.8498C63.7616 16.2752 64.0548 16.8461 64.0548 17.5626V19.6111C63.5813 19.0066 62.8935 18.5421 61.9916 18.2174C61.0897 17.8928 60.0863 17.7305 58.9815 17.7305C57.4933 17.7305 56.1855 18.1335 55.0581 18.9395C53.9307 19.7454 53.367 21.044 53.367 22.8351C53.367 23.9769 53.6489 24.9508 54.2126 25.7568C54.7763 26.5627 55.4922 27.1672 56.3603 27.5702C57.2284 27.9732 58.1021 28.1747 58.9815 28.1747ZM61.1461 24.7829C60.402 24.7829 59.7819 24.6205 59.2859 24.2959C58.7898 23.9713 58.5418 23.5067 58.5418 22.9022C58.5418 22.2977 58.7898 21.8332 59.2859 21.5085C59.7819 21.1839 60.402 21.0216 61.1461 21.0216C61.7549 21.0216 62.3242 21.1223 62.8541 21.3238C63.384 21.5253 63.7842 21.8052 64.0548 22.1634V23.6075C63.7842 23.9881 63.384 24.2791 62.8541 24.4806C62.3242 24.6821 61.7549 24.7829 61.1461 24.7829ZM77.4642 27.7717V17.2939C78.321 16.2416 79.2906 15.7155 80.3729 15.7155C81.1169 15.7155 81.6637 15.9114 82.0132 16.3032C82.3627 16.695 82.5375 17.2267 82.5375 17.8984V27.7717H87.746V17.2939C88.0617 16.8685 88.4732 16.4991 88.9805 16.1857C89.4879 15.8722 90.0572 15.7155 90.6885 15.7155C91.4326 15.7155 91.9794 15.9114 92.3289 16.3032C92.6784 16.695 92.8531 17.2267 92.8531 17.8984V27.7717H98.0279V16.0178C98.0279 14.4058 97.5995 13.1912 96.7427 12.374C95.8858 11.5568 94.6795 11.1483 93.1237 11.1483C91.9287 11.1483 90.8182 11.4337 89.7923 12.0046C88.7663 12.5755 87.9941 13.2528 87.4755 14.0364C87.1372 13.0961 86.5735 12.3796 85.7844 11.8871C84.9952 11.3945 84.0144 11.1483 82.8419 11.1483C81.6694 11.1483 80.5871 11.4057 79.595 11.9207C78.6028 12.4356 77.8926 12.9729 77.4642 13.5326V11.5512H72.2556V27.7717H77.4642ZM105.62 28.1747C106.657 28.1747 107.632 27.99 108.546 27.6206C109.459 27.2512 110.175 26.7642 110.693 26.1598V27.7717H115.902V17.6297C115.902 15.3013 115.192 13.639 113.771 12.6427C112.351 11.6464 110.524 11.1483 108.292 11.1483C106.962 11.1483 105.642 11.3553 104.335 11.7695C103.027 12.1837 101.877 12.8162 100.885 13.667L102.745 16.9245C103.399 16.3648 104.132 15.9394 104.943 15.6483C105.755 15.3573 106.567 15.2118 107.379 15.2118C108.416 15.2118 109.228 15.4245 109.814 15.8498C110.4 16.2752 110.693 16.8461 110.693 17.5626V19.6111C110.22 19.0066 109.532 18.5421 108.63 18.2174C107.728 17.8928 106.725 17.7305 105.62 17.7305C104.132 17.7305 102.824 18.1335 101.697 18.9395C100.569 19.7454 100.005 21.044 100.005 22.8351C100.005 23.9769 100.287 24.9508 100.851 25.7568C101.415 26.5627 102.131 27.1672 102.999 27.5702C103.867 27.9732 104.741 28.1747 105.62 28.1747ZM107.785 24.7829C107.04 24.7829 106.42 24.6205 105.924 24.2959C105.428 23.9713 105.18 23.5067 105.18 22.9022C105.18 22.2977 105.428 21.8332 105.924 21.5085C106.42 21.1839 107.04 21.0216 107.785 21.0216C108.393 21.0216 108.963 21.1223 109.493 21.3238C110.022 21.5253 110.423 21.8052 110.693 22.1634V23.6075C110.423 23.9881 110.022 24.2791 109.493 24.4806C108.963 24.6821 108.393 24.7829 107.785 24.7829ZM124.103 27.7717V17.4954C124.418 17.0476 124.954 16.6838 125.709 16.404C126.465 16.1241 127.203 15.9842 127.925 15.9842C128.27 15.9842 132.425 15.9497 140.39 15.8808V11.1483H129.21C128.263 11.1483 127.316 11.3833 126.369 11.8535C125.422 12.3237 124.666 12.9058 124.103 13.5998V11.5512H118.894V27.7717H124.103Z" fill="#9E1E62"/>
<path id="Vector_3" fill-rule="evenodd" clip-rule="evenodd" d="M136.97 28.3999C137.895 28.3999 138.684 28.2991 139.338 28.0976C139.992 27.8961 140.488 27.6386 140.826 27.3252L139.811 23.4296C139.721 23.5415 139.546 23.6367 139.287 23.7151C139.028 23.7934 138.763 23.8326 138.492 23.8326C138.041 23.8326 137.686 23.6815 137.427 23.3792C137.167 23.077 137.038 22.6796 137.038 22.187V16.0092H140.352V11.7764H137.038V7.34351H131.863V11.7764H129.157V16.0092H131.863C131.863 17.8218 131.863 19.1366 131.863 19.9538C131.863 20.771 131.863 21.9967 131.863 23.6311C131.863 25.1983 132.297 26.3849 133.165 27.1909C134.033 27.9969 135.302 28.3999 136.97 28.3999Z" fill="#9E1E62"/>
</g>
</g>
</g>
</g>
</svg>
