<svg width="16" height="17" viewBox="0 0 16 17" fill="none" xmlns="http://www.w3.org/2000/svg">
<g id="Navigation / Map_Pin">
<g id="Vector">
<path d="M3.3335 7.11523C3.3335 10.3498 6.16315 13.0246 7.41562 14.0501C7.59487 14.1969 7.68557 14.2712 7.8193 14.3088C7.92343 14.3381 8.07669 14.3381 8.18083 14.3088C8.31481 14.2711 8.40487 14.1976 8.5848 14.0502C9.83727 13.0247 12.6668 10.3501 12.6668 7.11553C12.6668 5.89145 12.1751 4.71737 11.3 3.85181C10.4248 2.98626 9.23789 2.5 8.00022 2.5C6.76254 2.5 5.5755 2.98634 4.70033 3.85189C3.82516 4.71744 3.3335 5.89116 3.3335 7.11523Z" stroke="#528AFF" stroke-width="1.2" stroke-linecap="round" stroke-linejoin="round"/>
<path d="M6.66683 6.5C6.66683 7.23638 7.26378 7.83333 8.00016 7.83333C8.73654 7.83333 9.3335 7.23638 9.3335 6.5C9.3335 5.76362 8.73654 5.16667 8.00016 5.16667C7.26378 5.16667 6.66683 5.76362 6.66683 6.5Z" stroke="#528AFF" stroke-width="1.2" stroke-linecap="round" stroke-linejoin="round"/>
</g>
</g>
</svg>
