<svg width="327" height="324" viewBox="0 0 327 324" fill="none" xmlns="http://www.w3.org/2000/svg">
<path d="M327 247.795H0V247.957H327V247.795Z" fill="#EBEBEB"/>
<path d="M294.235 258.221H272.574V258.383H294.235V258.221Z" fill="#EBEBEB"/>
<path d="M216.618 259.984H210.935V260.146H216.618V259.984Z" fill="#EBEBEB"/>
<path d="M271.92 252.208H259.37V252.37H271.92V252.208Z" fill="#EBEBEB"/>
<path d="M62.5551 253.297H34.3088V253.459H62.5551V253.297Z" fill="#EBEBEB"/>
<path d="M72.522 253.297H68.3822V253.459H72.522V253.297Z" fill="#EBEBEB"/>
<path d="M147.248 256.031H85.9814V256.193H147.248V256.031Z" fill="#EBEBEB"/>
<path d="M154.998 218.894H28.7172C27.7279 218.893 26.7797 218.502 26.0808 217.808C25.3819 217.115 24.9894 216.175 24.9894 215.194V39.3077C24.998 38.3331 25.3943 37.4012 26.0923 36.7145C26.7903 36.0278 27.7335 35.6417 28.7172 35.64H154.998C155.988 35.64 156.938 36.0298 157.639 36.7237C158.339 37.4176 158.732 38.3588 158.732 39.3401V215.194C158.732 216.176 158.339 217.117 157.639 217.811C156.938 218.505 155.988 218.894 154.998 218.894ZM28.7172 35.7696C27.7713 35.7713 26.8647 36.1448 26.1964 36.8082C25.5282 37.4715 25.1529 38.3704 25.1529 39.3077V215.194C25.1529 216.132 25.5282 217.031 26.1964 217.694C26.8647 218.357 27.7713 218.731 28.7172 218.732H154.998C155.945 218.731 156.852 218.357 157.521 217.694C158.19 217.031 158.567 216.132 158.569 215.194V39.3077C158.567 38.3698 158.19 37.4709 157.521 36.8078C156.852 36.1446 155.945 35.7713 154.998 35.7696H28.7172Z" fill="#EBEBEB"/>
<path d="M296.465 218.894H170.177C169.187 218.893 168.239 218.502 167.539 217.809C166.839 217.115 166.445 216.175 166.443 215.194V39.3077C166.453 38.3325 166.851 37.4007 167.55 36.7141C168.249 36.0276 169.193 35.6417 170.177 35.64H296.465C297.447 35.6434 298.389 36.0303 299.085 36.7168C299.782 37.4033 300.177 38.3342 300.186 39.3077V215.194C300.186 216.173 299.794 217.113 299.097 217.806C298.399 218.5 297.453 218.891 296.465 218.894ZM170.177 35.7696C169.231 35.7713 168.324 36.1446 167.654 36.8078C166.985 37.4709 166.608 38.3698 166.606 39.3077V215.194C166.608 216.132 166.985 217.031 167.654 217.694C168.324 218.357 169.231 218.731 170.177 218.732H296.465C297.411 218.731 298.318 218.357 298.988 217.694C299.657 217.031 300.034 216.132 300.036 215.194V39.3077C300.034 38.3698 299.657 37.4709 298.988 36.8078C298.318 36.1446 297.411 35.7713 296.465 35.7696H170.177Z" fill="#EBEBEB"/>
<path d="M172.545 177.963C188.257 175.436 198.927 160.767 196.376 145.199C193.826 129.631 179.021 119.059 163.309 121.586C147.597 124.114 136.927 138.782 139.477 154.35C142.028 169.919 156.833 180.49 172.545 177.963Z" fill="#F0F0F0"/>
<path d="M175.272 166.536C180.72 162.214 196.854 162 204.48 168.48C212.105 174.96 222.576 185.542 226.284 186.838C229.992 188.134 242.34 183.384 252.3 182.302C262.26 181.22 266.178 191.374 269.88 196.992C273.581 202.61 277.512 202.824 279.258 210.166C281.004 217.508 284.268 222.912 289.284 228.958C294.3 235.004 308.904 243.214 310.428 247.795H149.544L147.804 185.328C152.133 181.006 169.791 170.858 175.272 166.536Z" fill="#EBEBEB"/>
<path d="M46.6105 191.374C49.9917 187.991 60.92 185.762 67.1788 172.368C73.4376 158.974 93.9928 131.11 101.841 127.254C109.689 123.399 118.367 106.518 121.507 104.114C124.646 101.71 128.701 108.216 129.786 112.104C132.612 121.992 146.136 150.122 154.18 155.52C162.225 160.918 162.787 172.582 165.03 179.282C167.274 185.982 181.027 189.864 184.153 198.502C187.279 207.14 222.085 247.795 222.085 247.795H14.3879C24.7342 240.35 33.5894 204.405 46.6105 191.374Z" fill="#F5F5F5"/>
<path d="M121.834 113.4C121.834 116.724 120.82 132.121 117.328 135.866C113.835 139.612 116.916 131.259 111.017 135.866C105.117 140.473 102.515 149.973 92.6195 153.291C82.7245 156.609 83.614 148.249 88.4078 143.493C93.2016 138.737 98.8718 130.391 103.384 127.941C107.897 125.492 121.834 103.175 121.834 113.4Z" fill="#F0F0F0"/>
<path d="M97.446 182.231C102.148 175.789 81.0241 183.241 74.628 180.935C68.2318 178.628 73.1761 175.465 63.8697 183.527C54.5632 191.588 38.4421 199.37 47.16 202.105C55.8778 204.839 88.6955 194.186 97.446 182.231Z" fill="#F0F0F0"/>
<path d="M217.861 185.438C214.25 181.161 210.124 173.126 204.781 171.72C199.437 170.314 195.847 169.452 196.933 172.692C198.018 175.932 223.485 192.087 217.861 185.438Z" fill="#F0F0F0"/>
<path d="M276.361 208.442C275.432 205.442 272.581 205.526 270.076 200.77C267.571 196.014 263.863 187.92 257.754 187.596C251.646 187.272 241.98 189.65 250.129 195.696C258.278 201.742 279.591 218.914 276.361 208.442Z" fill="#F0F0F0"/>
<path d="M264.543 70.9236H140.283C124.587 70.9236 168.621 67.6836 192.819 62.2858C217.017 56.8879 218.979 55.1578 227.043 60.9898C235.106 66.8218 259.089 53.8618 270.645 61.6378C282.201 69.4138 285.249 70.9236 264.543 70.9236Z" fill="#FAFAFA"/>
<path d="M92.3121 91.7633C107.812 91.7633 137.392 90.5126 125.529 85.3351C113.665 80.1576 104.882 90.5191 99.7023 86.1192C94.5226 81.7193 86.1383 81.1037 79.1798 85.3351C72.2212 89.5666 74.2878 82.9829 65.897 85.3351C54.125 88.6334 16.4285 91.7633 48.5137 91.7633H92.3121Z" fill="#FAFAFA"/>
<path d="M223.164 147.491C235.002 147.491 257.584 146.532 248.527 142.586C239.469 138.64 232.765 146.532 228.815 143.182C224.865 139.832 218.456 139.352 213.119 142.586C207.782 145.819 209.385 140.791 202.975 142.586C194.009 145.1 165.213 147.491 189.706 147.491H223.164Z" fill="#FAFAFA"/>
<path d="M163.5 277.059C233.532 277.059 290.304 273.775 290.304 269.724C290.304 265.672 233.532 262.388 163.5 262.388C93.468 262.388 36.6959 265.672 36.6959 269.724C36.6959 273.775 93.468 277.059 163.5 277.059Z" fill="#F5F5F5"/>
<path d="M154.383 268.337C162.578 268.337 169.222 255.299 169.222 239.216C169.222 223.132 162.578 210.095 154.383 210.095H135.378V268.337H154.383Z" fill="#212121"/>
<path d="M135.28 268.337C143.475 268.337 150.119 255.299 150.119 239.216C150.119 223.133 143.475 210.095 135.28 210.095C127.084 210.095 120.441 223.133 120.441 239.216C120.441 255.299 127.084 268.337 135.28 268.337Z" fill="#212121"/>
<path d="M263.189 268.337C271.384 268.337 278.022 255.299 278.022 239.216C278.022 223.132 271.41 210.095 263.189 210.095H244.151V268.337H263.189Z" fill="#212121"/>
<path d="M244.079 268.337C252.275 268.337 258.919 255.299 258.919 239.216C258.919 223.133 252.275 210.095 244.079 210.095C235.884 210.095 229.24 223.133 229.24 239.216C229.24 255.299 235.884 268.337 244.079 268.337Z" fill="#212121"/>
<path d="M57.1204 253.673L46.9572 251.191C45.2375 250.774 43.6308 249.988 42.2501 248.89C40.8694 247.792 39.7482 246.407 38.9653 244.834C38.2721 243.445 37.315 242.202 36.1466 241.173L33.6483 238.969C32.2216 237.711 31.1144 236.137 30.4167 234.375C29.719 232.613 29.4504 230.712 29.6327 228.828L31.0061 214.572C31.2364 212.182 32.1826 209.915 33.7232 208.061C35.2638 206.208 37.3285 204.854 39.652 204.172L46.918 202.046L73.1303 200.193L57.1204 253.673Z" fill="#528AFF"/>
<path d="M79.2845 268.337C87.4791 268.337 94.1237 255.299 94.1237 239.216C94.1237 223.132 87.4791 210.095 79.2845 210.095H60.2531V268.337H79.2845Z" fill="#212121"/>
<path d="M60.1811 268.337C68.3765 268.337 75.0203 255.299 75.0203 239.216C75.0203 223.133 68.3765 210.095 60.1811 210.095C51.9856 210.095 45.3418 223.133 45.3418 239.216C45.3418 255.299 51.9856 268.337 60.1811 268.337Z" fill="#212121"/>
<path d="M60.1811 262.233C65.9313 262.233 70.5928 251.928 70.5928 239.216C70.5928 226.504 65.9313 216.199 60.1811 216.199C54.4309 216.199 49.7694 226.504 49.7694 239.216C49.7694 251.928 54.4309 262.233 60.1811 262.233Z" fill="#D9D9D9"/>
<path d="M210.751 253.673L236.375 196.934C236.375 196.934 198.038 168.655 149.393 168.655C70.5535 168.655 73.261 179.185 46.8787 202.046L58.3956 210.095C78.8854 210.095 80.5924 242.274 83.8689 251.327C84.1137 252.013 84.5672 252.607 85.1669 253.027C85.7666 253.447 86.4829 253.673 87.2174 253.673H210.751Z" fill="#528AFF"/>
<path d="M188.09 268.337C196.285 268.337 202.923 255.299 202.923 239.216C202.923 223.132 196.285 210.095 188.09 210.095H169.052V268.337H188.09Z" fill="#212121"/>
<path d="M168.98 268.337C177.176 268.337 183.82 255.299 183.82 239.216C183.82 223.133 177.176 210.095 168.98 210.095C160.785 210.095 154.141 223.133 154.141 239.216C154.141 255.299 160.785 268.337 168.98 268.337Z" fill="#212121"/>
<path d="M168.981 262.233C174.731 262.233 179.392 251.928 179.392 239.216C179.392 226.504 174.731 216.199 168.981 216.199C163.23 216.199 158.569 226.504 158.569 239.216C158.569 251.928 163.23 262.233 168.981 262.233Z" fill="#D9D9D9"/>
<path d="M195.461 248.988C193.1 238.36 181.812 210.108 168.281 210.108L153.618 196.914H236.375C242.104 196.914 267.551 200.4 281.972 210.075C293.62 217.89 295.052 229.755 296.726 247.089C297.073 250.627 293.947 253.666 289.997 253.673C256.839 253.673 216.709 253.796 202.099 253.841C198.875 253.873 196.095 251.832 195.461 248.988Z" fill="#528AFF"/>
<path opacity="0.8" d="M230.391 196.934H176.443C175.195 196.939 173.965 196.641 172.86 196.066C171.755 195.491 170.809 194.656 170.105 193.635C164.102 184.823 153.474 175.893 145.685 171.662C200.229 171.662 230.391 196.934 230.391 196.934Z" fill="white"/>
<path opacity="0.8" d="M144.351 174.312C150.891 179.004 158.333 186.274 162.512 193.499C162.715 193.844 162.823 194.235 162.825 194.634C162.827 195.032 162.724 195.425 162.525 195.772C162.327 196.118 162.04 196.408 161.693 196.61C161.347 196.813 160.953 196.922 160.55 196.927H72.1362C62.7578 196.927 65.8709 173.781 114.862 172.044C119.479 171.649 130.244 171.636 136.196 171.662C139.127 171.677 141.979 172.604 144.351 174.312Z" fill="white"/>
<path d="M204.813 241.056L233.151 243.175C233.593 243.208 234.006 243.405 234.307 243.727C234.608 244.049 234.774 244.473 234.773 244.912V246.856C234.773 247.316 234.588 247.758 234.26 248.084C233.931 248.409 233.485 248.592 233.02 248.592H204.702C204.237 248.592 203.79 248.409 203.46 248.084C203.131 247.758 202.945 247.317 202.943 246.856V242.819C202.94 242.578 202.987 242.34 203.081 242.119C203.175 241.898 203.314 241.698 203.49 241.533C203.665 241.367 203.873 241.239 204.101 241.157C204.329 241.075 204.571 241.041 204.813 241.056Z" fill="#212121"/>
<path d="M294.889 241.445L287.106 243C286.708 243.078 286.349 243.291 286.092 243.601C285.834 243.912 285.693 244.302 285.693 244.704V246.81C285.693 247.039 285.739 247.265 285.827 247.476C285.916 247.687 286.046 247.879 286.209 248.041C286.372 248.202 286.566 248.33 286.78 248.417C286.993 248.503 287.222 248.548 287.453 248.547H295.693C295.941 248.548 296.187 248.496 296.414 248.396C296.641 248.296 296.843 248.149 297.008 247.965C297.173 247.781 297.297 247.565 297.371 247.33C297.446 247.095 297.469 246.847 297.439 246.603L297.001 242.948C296.973 242.707 296.894 242.475 296.77 242.266C296.646 242.057 296.479 241.876 296.28 241.734C296.081 241.593 295.855 241.494 295.615 241.444C295.375 241.394 295.128 241.394 294.889 241.445Z" fill="#212121"/>
<path opacity="0.8" d="M228.135 208.384L188.568 206.479C188.568 206.479 188.162 213.425 202.825 214.903C211.77 215.715 220.721 213.41 228.135 208.384Z" fill="white"/>
<path opacity="0.3" d="M30.9995 214.566C31.1101 213.427 31.3854 212.309 31.817 211.248L34.4984 211.17C34.4984 211.17 34.6227 221.363 30.7379 220.722C30.6291 220.705 30.5218 220.679 30.4175 220.644L30.9995 214.566Z" fill="black"/>
<path opacity="0.8" d="M278.074 207.762C279.41 208.472 280.709 209.248 281.966 210.088C283.877 211.357 285.624 212.854 287.165 214.546C286.612 214.702 286.051 214.828 285.484 214.922C276.701 216.419 270.318 208.384 270.318 208.384L278.074 207.762Z" fill="white"/>
<path d="M240.391 219.335H268.388C269.37 219.341 270.326 219.644 271.129 220.203L276.021 223.605C276.576 223.987 277.046 224.478 277.4 225.048C277.755 225.617 277.986 226.254 278.081 226.917L279.33 236.099C279.423 236.693 279.385 237.3 279.217 237.878C279.049 238.456 278.756 238.991 278.358 239.445C277.96 239.899 277.467 240.261 276.913 240.507C276.359 240.753 275.758 240.876 275.151 240.868H245.211C244.315 240.856 243.441 240.602 242.68 240.134C241.919 239.666 241.302 239.001 240.894 238.211L235.303 227.409C234.899 226.673 234.718 225.837 234.781 225.002C234.844 224.167 235.147 223.367 235.656 222.698L237.055 220.916C237.452 220.417 237.959 220.014 238.537 219.74C239.115 219.466 239.75 219.327 240.391 219.335Z" fill="#212121"/>
<path opacity="0.1" d="M92.8026 241.736H147.556C147.737 241.736 147.917 241.773 148.083 241.844C148.25 241.916 148.399 242.022 148.522 242.154C148.645 242.286 148.739 242.443 148.798 242.613C148.857 242.783 148.879 242.963 148.864 243.143L148.582 246.298C148.553 246.621 148.402 246.922 148.16 247.14C147.918 247.359 147.602 247.479 147.274 247.478H92.5149C92.3333 247.478 92.1537 247.442 91.9873 247.37C91.8208 247.298 91.6714 247.192 91.5483 247.06C91.4253 246.928 91.3314 246.772 91.2726 246.601C91.2138 246.431 91.1915 246.251 91.2069 246.072L91.4881 242.909C91.5192 242.586 91.6715 242.286 91.9149 242.069C92.1583 241.852 92.4751 241.733 92.8026 241.736Z" fill="black"/>
<path d="M110.258 171.662L113.534 171.033L106.831 200.193H103.692L110.258 171.662Z" fill="#528AFF"/>
<path d="M122.219 203.472H111.003L110.716 204.638C110.628 204.895 110.605 205.168 110.648 205.435C110.691 205.702 110.8 205.955 110.964 206.171C111.129 206.387 111.344 206.56 111.591 206.674C111.839 206.789 112.111 206.842 112.383 206.829H119.165C119.8 206.799 120.409 206.571 120.904 206.178C121.4 205.784 121.757 205.245 121.925 204.638L122.219 203.472Z" fill="#212121"/>
<path d="M83.6401 203.472H72.4305L72.1427 204.638C72.0549 204.895 72.0317 205.168 72.0751 205.435C72.1185 205.702 72.2271 205.955 72.3915 206.171C72.556 206.387 72.7712 206.56 73.0185 206.674C73.2659 206.789 73.5377 206.842 73.8104 206.829H80.5924C81.2269 206.799 81.8356 206.571 82.3314 206.178C82.8272 205.784 83.1845 205.245 83.3523 204.638L83.6401 203.472Z" fill="#212121"/>
<path opacity="0.1" d="M105.595 237.965C105.497 237.965 105.403 237.927 105.334 237.859C105.264 237.791 105.224 237.699 105.222 237.602L104.398 199.422C104.398 199.324 104.436 199.229 104.504 199.158C104.572 199.087 104.665 199.045 104.764 199.04C104.862 199.04 104.956 199.078 105.026 199.146C105.095 199.213 105.135 199.306 105.137 199.403L105.948 237.589C105.948 237.687 105.91 237.78 105.842 237.85C105.773 237.921 105.68 237.962 105.582 237.965H105.595Z" fill="black"/>
<path d="M127.792 265.797L123.927 265.738L122.815 256.861L126.68 256.919L127.792 265.797Z" fill="#FF8B7B"/>
<path d="M104.267 265.706L100.736 263.755L103.371 255.519L106.903 257.47L104.267 265.706Z" fill="#FF8B7B"/>
<path d="M100.402 263.295L104.496 265.602C104.563 265.638 104.615 265.696 104.644 265.765C104.673 265.835 104.676 265.913 104.653 265.985L103.62 269.322C103.594 269.403 103.551 269.477 103.492 269.539C103.433 269.601 103.361 269.649 103.281 269.679C103.201 269.709 103.115 269.72 103.03 269.712C102.945 269.704 102.862 269.677 102.789 269.633C101.481 268.875 100.566 268.253 98.9044 267.319C97.8842 266.749 94.745 265.123 93.3389 264.332C91.9328 263.542 92.5344 262.051 93.1819 262.252C96.0922 263.146 98.4858 263.47 99.7219 263.198C99.9529 263.145 100.196 263.18 100.402 263.295Z" fill="#B6D25E"/>
<path d="M123.848 265.298L128.066 265.362C128.143 265.363 128.218 265.389 128.278 265.437C128.337 265.486 128.378 265.553 128.393 265.628L129.1 269.043C129.114 269.124 129.111 269.206 129.089 269.285C129.067 269.364 129.028 269.438 128.974 269.5C128.92 269.562 128.853 269.611 128.777 269.644C128.702 269.677 128.62 269.693 128.537 269.691C127.013 269.646 124.816 269.523 122.906 269.49C120.67 269.458 118.734 269.549 116.111 269.49C114.528 269.49 114.149 267.87 114.803 267.734C117.838 267.125 120.303 267.086 122.939 265.537C123.215 265.378 123.529 265.295 123.848 265.298Z" fill="#B6D25E"/>
<path d="M122.023 153.531C119.808 155.327 117.498 157.005 115.104 158.559C113.901 159.33 112.678 160.095 111.376 160.795C110.016 161.558 108.586 162.194 107.106 162.693C106.664 162.833 106.214 162.946 105.758 163.03C105.51 163.076 105.222 163.108 104.947 163.134C104.636 163.16 104.323 163.16 104.012 163.134C103.326 163.079 102.659 162.887 102.05 162.57C101.468 162.263 100.948 161.849 100.52 161.352C99.8585 160.565 99.3727 159.649 99.094 158.663C98.868 157.866 98.7169 157.051 98.6428 156.226C98.4453 153.278 98.7302 150.317 99.4864 147.459L102.357 147.854C102.344 150.428 102.599 152.997 103.116 155.52C103.239 156.053 103.412 156.574 103.633 157.075C103.761 157.412 103.965 157.715 104.228 157.963C104.306 158.015 104.339 158.008 104.346 157.963C104.352 157.918 104.346 157.931 104.346 157.918C104.677 157.846 105.001 157.744 105.314 157.613C106.428 157.136 107.502 156.571 108.525 155.922C109.623 155.274 110.729 154.516 111.795 153.751C113.979 152.235 116.183 150.602 118.282 148.995L122.023 153.531Z" fill="#FF8B7B"/>
<path d="M123.2 151.768C121.441 155.701 114.659 159.771 110.899 161.488C109.787 161.994 109.931 163.471 109.27 162.829C109.27 162.829 106.373 157.561 106.373 156.486C106.373 155.41 107.334 156.051 108.119 155.326C110.945 152.734 116.857 147.038 120.545 146.409C125.372 145.567 124.849 148.1 123.2 151.768Z" fill="#B6D25E"/>
<path d="M106.779 155.786C106.406 155.241 104.862 156.667 104.372 157.263C103.881 157.859 105.229 160.024 105.634 161.151C106.04 162.279 105.242 163.477 106.484 163.652C107.138 163.743 109.002 163.503 109.362 163.004C110.205 161.935 107.675 157.095 106.779 155.786Z" fill="#212121"/>
<path opacity="0.2" d="M115.653 158.896C118.819 156.92 122.063 154.315 123.207 151.768C123.279 151.593 123.364 151.431 123.429 151.263L123.495 150.615C119.198 151.34 116.281 155.643 115.653 158.896Z" fill="black"/>
<path d="M101.802 149.04L104.293 145.379L100.225 143.733C100.225 143.733 97.9234 146.325 99.5714 148.586L101.802 149.04Z" fill="#FF8B7B"/>
<path d="M105.34 141.4L101.599 141.277L100.225 143.7L104.293 145.346L105.34 141.4Z" fill="#FF8B7B"/>
<path opacity="0.2" d="M122.815 256.861L123.39 261.436L127.255 261.5L126.68 256.926L122.815 256.861Z" fill="black"/>
<path opacity="0.2" d="M106.903 257.47L103.371 255.519L102.017 259.77L105.543 261.721L106.903 257.47Z" fill="black"/>
<path d="M142.134 147.796C137.968 162.337 138.812 177.766 138.432 180.889C135.411 180.675 124.044 179.833 117.831 179.373C115.869 157.503 120.539 146.396 120.539 146.396C120.539 146.396 121.847 146.143 123.665 145.962C124.227 145.904 124.836 145.852 125.47 145.819C125.823 145.819 126.176 145.787 126.536 145.781C129.467 145.83 132.393 146.046 135.3 146.429C135.849 146.493 136.405 146.578 136.948 146.662C137.49 146.746 137.942 146.837 138.406 146.928C140.505 147.342 142.134 147.796 142.134 147.796Z" fill="#B6D25E"/>
<path d="M126.536 145.8C124.803 146.72 124.299 150.09 127.654 150.219C131.009 150.349 134.338 148.01 135.3 146.442L126.536 145.8Z" fill="#212121"/>
<path opacity="0.2" d="M137.732 154.036C137.366 155.442 137.785 161.857 139.269 163.445C139.472 161.391 139.74 159.24 140.1 157.049L137.732 154.036Z" fill="black"/>
<path d="M135.162 136.592C134.404 139.339 133.468 144.413 135.3 146.422C133.651 147.822 131.761 148.8 128.406 148.671C125.051 148.541 125.568 146.921 126.536 145.781C129.741 145.269 129.806 142.949 129.446 140.739L135.162 136.592Z" fill="#FF8B7B"/>
<path opacity="0.2" d="M132.834 138.283L129.446 140.739C129.543 141.254 129.596 141.777 129.603 142.301C130.813 142.217 132.566 141.005 132.782 139.793C132.89 139.297 132.908 138.786 132.834 138.283Z" fill="black"/>
<path d="M126.438 135.536C126.438 135.536 124.07 132.237 124.764 129.658C125.653 126.36 131.016 130.404 126.438 135.536Z" fill="#212121"/>
<path d="M135.816 132.412C135.293 136.177 135.162 138.406 133.115 140.188C129.996 142.897 125.418 140.836 124.79 136.948C124.221 133.494 125.163 127.915 129.015 126.69C129.865 126.414 130.773 126.358 131.652 126.529C132.53 126.699 133.35 127.09 134.033 127.664C134.715 128.238 135.237 128.976 135.55 129.808C135.862 130.639 135.954 131.536 135.816 132.412Z" fill="#FF8B7B"/>
<path d="M126.824 136.391C126.824 136.968 126.287 137.104 125.856 137.363C125.556 137.569 125.304 137.837 125.117 138.147C125.117 138.147 124.561 137.966 124.79 136.987C125.019 136.009 126.824 135.853 126.824 136.391Z" fill="#212121"/>
<path d="M127.092 136.41C127.092 137.402 128.197 137.266 129.054 137.538C129.749 137.753 130.36 138.173 130.807 138.743C130.918 138.494 130.954 138.219 130.912 137.95C130.869 137.681 130.748 137.43 130.565 137.227C129.492 135.834 127.092 135.873 127.092 136.41Z" fill="#212121"/>
<path d="M132.88 129.01C130.499 129.71 123.822 130.442 124.639 127.066C125.777 122.342 128.786 124.805 129.217 125.479C131.134 124.105 139.59 125.304 137.902 128.019C139.74 128.298 140.806 130.28 139.485 131.259C138.164 132.237 136.562 136.229 135.679 136.112C134.611 135.966 133.568 135.676 132.579 135.251L134.397 132.84C134.397 132.84 132.193 130.766 132.88 129.01Z" fill="#212121"/>
<path d="M137.046 128.434C138.354 128.116 139.577 127.974 140.636 128.946C140.558 127.313 138.301 127.086 137.046 128.434Z" fill="#212121"/>
<path d="M137.222 136.728C136.939 137.108 136.584 137.43 136.175 137.673C135.766 137.917 135.313 138.078 134.842 138.147C133.573 138.329 133.109 137.169 133.599 136.074C134.037 135.082 135.228 133.799 136.431 134.13C136.691 134.207 136.928 134.346 137.12 134.536C137.312 134.726 137.453 134.96 137.532 135.218C137.61 135.475 137.623 135.748 137.569 136.012C137.515 136.275 137.396 136.521 137.222 136.728Z" fill="#FF8B7B"/>
<path d="M121.951 260.535L128.491 260.632C128.491 260.632 124.718 235.03 125.306 223.119C125.483 219.497 124.894 214.43 125.862 208.999C127.085 202.15 127.674 199.422 129.25 190.771C130.375 184.602 131.375 180.403 131.375 180.403L117.831 179.405C117.831 179.405 113.404 210.257 113.534 221.94C113.672 234.051 121.951 260.535 121.951 260.535Z" fill="#528AFF"/>
<path opacity="0.6" d="M121.951 260.535L128.491 260.632C128.491 260.632 124.718 235.03 125.306 223.119C125.483 219.497 124.894 214.43 125.862 208.999C127.085 202.15 127.674 199.422 129.25 190.771C130.375 184.602 131.375 180.403 131.375 180.403L117.831 179.405C117.831 179.405 113.404 210.257 113.534 221.94C113.672 234.051 121.951 260.535 121.951 260.535Z" fill="black"/>
<path opacity="0.2" d="M125.862 208.999C125.403 211.84 125.213 214.716 125.293 217.592C124.168 220.741 123.187 223.728 122.501 226.385C121.304 231.031 119.407 238.082 117.563 244.853C115.555 236.922 113.6 227.753 113.541 221.908L125.862 208.999Z" fill="black"/>
<path d="M125.136 179.911C125.136 179.911 115.405 204.276 111.716 214.903C107.675 226.515 101.154 257.859 101.154 257.859L107.308 261.312C107.308 261.312 116.896 235.477 120.866 224.169C125.391 211.287 137.87 190.933 138.432 180.922L125.136 179.911Z" fill="#528AFF"/>
<path opacity="0.6" d="M125.136 179.911C125.136 179.911 115.405 204.276 111.716 214.903C107.675 226.515 101.154 257.859 101.154 257.859L107.308 261.312C107.308 261.312 116.896 235.477 120.866 224.169C125.391 211.287 137.87 190.933 138.432 180.922L125.136 179.911Z" fill="black"/>
<path d="M100.343 257.548L107.59 261.624L108.819 259.479L100.795 254.787L100.343 257.548Z" fill="#528AFF"/>
<path d="M121.127 260.671L128.923 260.794L128.962 258.299L120.251 258.027L121.127 260.671Z" fill="#528AFF"/>
<path d="M130.728 133.041C130.728 133.352 130.519 133.585 130.316 133.572C130.113 133.559 129.969 133.294 129.996 132.989C130.022 132.684 130.198 132.445 130.401 132.458C130.604 132.471 130.754 132.736 130.728 133.041Z" fill="#212121"/>
<path d="M126.595 132.782C126.595 133.093 126.392 133.326 126.189 133.313C125.987 133.3 125.836 133.034 125.862 132.73C125.888 132.425 126.065 132.186 126.268 132.198C126.471 132.211 126.621 132.477 126.595 132.782Z" fill="#212121"/>
<path d="M127.53 133.021C127.087 133.935 126.519 134.783 125.843 135.542C126.044 135.709 126.279 135.83 126.532 135.897C126.785 135.964 127.05 135.976 127.308 135.931L127.53 133.021Z" fill="#FF5652"/>
<path d="M127.19 137.914C127.54 137.9 127.883 137.814 128.198 137.663C128.513 137.511 128.794 137.296 129.021 137.033C129.03 137.024 129.037 137.014 129.041 137.003C129.046 136.992 129.049 136.98 129.049 136.968C129.049 136.956 129.046 136.944 129.041 136.933C129.037 136.921 129.03 136.911 129.021 136.903C129.004 136.887 128.982 136.879 128.959 136.879C128.936 136.879 128.914 136.887 128.897 136.903C128.638 137.189 128.315 137.411 127.954 137.551C127.592 137.69 127.203 137.744 126.817 137.706C126.793 137.706 126.77 137.715 126.752 137.73C126.734 137.746 126.722 137.767 126.719 137.791C126.717 137.803 126.718 137.815 126.721 137.827C126.725 137.839 126.731 137.85 126.739 137.859C126.747 137.868 126.757 137.875 126.768 137.881C126.779 137.886 126.792 137.888 126.804 137.888C126.932 137.905 127.061 137.914 127.19 137.914Z" fill="#212121"/>
<path d="M131.382 131.998C131.41 132.003 131.439 132.003 131.467 131.998C131.487 131.984 131.505 131.968 131.518 131.948C131.532 131.928 131.542 131.906 131.546 131.882C131.551 131.859 131.551 131.834 131.547 131.811C131.542 131.787 131.533 131.765 131.519 131.745C131.368 131.5 131.16 131.294 130.912 131.145C130.664 130.996 130.383 130.909 130.094 130.89C130.069 130.889 130.045 130.893 130.022 130.901C130 130.91 129.979 130.924 129.962 130.941C129.945 130.958 129.931 130.978 129.923 131C129.914 131.023 129.91 131.047 129.911 131.071C129.911 131.119 129.93 131.165 129.964 131.199C129.999 131.233 130.045 131.252 130.094 131.252C130.321 131.272 130.542 131.344 130.736 131.463C130.93 131.582 131.093 131.746 131.212 131.939C131.233 131.963 131.259 131.98 131.289 131.991C131.319 132.001 131.351 132.003 131.382 131.998Z" fill="#212121"/>
<path d="M125.064 131.414C125.095 131.417 125.126 131.412 125.154 131.401C125.182 131.39 125.208 131.372 125.228 131.35C125.373 131.173 125.558 131.033 125.769 130.942C125.979 130.851 126.209 130.811 126.438 130.825C126.485 130.83 126.533 130.817 126.571 130.788C126.609 130.759 126.634 130.716 126.641 130.669C126.644 130.645 126.643 130.621 126.637 130.598C126.631 130.574 126.621 130.552 126.606 130.533C126.591 130.514 126.573 130.497 126.552 130.485C126.531 130.473 126.508 130.465 126.484 130.462C126.195 130.441 125.905 130.489 125.639 130.602C125.373 130.715 125.138 130.889 124.953 131.11C124.936 131.127 124.922 131.147 124.913 131.169C124.903 131.191 124.898 131.215 124.898 131.239C124.898 131.264 124.903 131.287 124.913 131.31C124.922 131.332 124.936 131.352 124.953 131.369C124.985 131.394 125.024 131.41 125.064 131.414Z" fill="#212121"/>
<path d="M98.9567 263.256C99.2564 263.418 99.5749 263.542 99.905 263.626C99.9184 263.635 99.9344 263.64 99.9508 263.64C99.9672 263.64 99.9832 263.635 99.9966 263.626C100.006 263.61 100.011 263.592 100.011 263.574C100.011 263.556 100.006 263.538 99.9966 263.522C99.9181 263.38 99.2118 262.11 98.7278 262.09C98.6747 262.089 98.6223 262.103 98.5763 262.129C98.5302 262.155 98.4922 262.193 98.4662 262.239C98.4124 262.311 98.3776 262.394 98.365 262.483C98.3524 262.571 98.3625 262.661 98.3943 262.745C98.5199 262.972 98.7176 263.152 98.9567 263.256ZM99.735 263.386C99.081 263.179 98.6755 262.913 98.5774 262.66C98.5559 262.602 98.5494 262.54 98.5585 262.479C98.5677 262.418 98.5922 262.36 98.6297 262.31C98.6394 262.291 98.6543 262.275 98.6728 262.263C98.6913 262.252 98.7126 262.246 98.7344 262.246C98.9829 262.259 99.4407 262.887 99.735 263.386Z" fill="#528AFF"/>
<path d="M99.8854 263.619H99.9312C99.948 263.619 99.9644 263.614 99.9783 263.605C99.9923 263.596 100.003 263.583 100.01 263.568C100.01 263.522 100.5 262.518 100.291 261.986C100.267 261.92 100.23 261.859 100.182 261.808C100.134 261.757 100.075 261.716 100.01 261.688C99.9489 261.657 99.8796 261.647 99.8123 261.659C99.745 261.67 99.6834 261.704 99.6369 261.753C99.3556 262.09 99.6369 263.192 99.8527 263.574C99.8575 263.593 99.8692 263.609 99.8854 263.619ZM99.9769 261.889C100.045 261.929 100.096 261.991 100.121 262.064C100.182 262.496 100.111 262.936 99.9181 263.328C99.7219 262.874 99.6107 262.084 99.7808 261.889C99.7808 261.889 99.8265 261.824 99.9377 261.889H99.9769Z" fill="#528AFF"/>
<path d="M123.462 265.816C123.478 265.812 123.493 265.803 123.503 265.79C123.514 265.777 123.52 265.761 123.521 265.745C123.526 265.727 123.523 265.708 123.515 265.691C123.507 265.674 123.493 265.661 123.475 265.654C123.305 265.557 121.762 264.753 121.291 265.006C121.247 265.03 121.209 265.064 121.181 265.106C121.154 265.148 121.138 265.196 121.134 265.246C121.124 265.328 121.134 265.411 121.162 265.489C121.191 265.566 121.237 265.636 121.297 265.693C121.716 266.069 122.828 265.933 123.449 265.823L123.462 265.816ZM121.409 265.168C122.024 265.202 122.621 265.384 123.148 265.699C122.576 265.865 121.962 265.819 121.422 265.57C121.382 265.533 121.352 265.487 121.334 265.437C121.315 265.386 121.31 265.332 121.317 265.278C121.316 265.258 121.321 265.238 121.332 265.221C121.342 265.204 121.358 265.19 121.376 265.181L121.409 265.168Z" fill="#528AFF"/>
<path d="M123.462 265.816C123.475 265.806 123.485 265.793 123.492 265.779C123.499 265.764 123.502 265.748 123.501 265.732C123.469 265.189 123.266 264.67 122.919 264.248C122.851 264.188 122.772 264.142 122.685 264.114C122.598 264.086 122.506 264.077 122.416 264.086C122.167 264.086 122.089 264.228 122.076 264.332C121.997 264.766 122.906 265.628 123.384 265.823C123.41 265.83 123.438 265.828 123.462 265.816ZM122.363 264.274H122.462C122.527 264.267 122.594 264.274 122.657 264.294C122.72 264.314 122.778 264.347 122.828 264.39C123.114 264.727 123.285 265.144 123.318 265.583C122.847 265.291 122.233 264.63 122.278 264.371C122.281 264.348 122.29 264.326 122.305 264.309C122.32 264.291 122.341 264.279 122.363 264.274Z" fill="#528AFF"/>
<path d="M143.089 150.109C143.939 151.677 144.671 153.226 145.43 154.801C146.189 156.375 146.849 157.982 147.516 159.602C148.183 161.222 148.785 162.842 149.341 164.579L149.74 165.875L150.093 167.171C150.211 167.612 150.302 168.078 150.407 168.525L150.485 168.875L150.557 169.342C150.6 169.625 150.629 169.911 150.642 170.197C150.683 171.177 150.641 172.159 150.518 173.133C150.413 174.053 150.283 174.941 150.126 175.815C149.805 177.565 149.413 179.269 148.975 180.954C148.102 184.31 147.057 187.619 145.842 190.868L143.049 190.104C143.631 186.786 144.194 183.423 144.691 180.112C144.933 178.459 145.155 176.807 145.306 175.174C145.384 174.364 145.443 173.56 145.469 172.776C145.504 172.052 145.484 171.327 145.41 170.605C145.41 170.469 145.378 170.288 145.345 170.197L145.306 170.029L145.227 169.757C145.11 169.387 145.018 169.018 144.887 168.642L144.501 167.514L144.076 166.38C143.494 164.858 142.84 163.341 142.18 161.844C141.519 160.348 140.787 158.812 140.061 157.308C139.335 155.805 138.589 154.276 137.87 152.811L143.089 150.109Z" fill="#FF8B7B"/>
<path d="M142.127 147.802C144.9 148.658 148.569 160.05 150.021 164.897C150.943 165.72 150.479 167.223 150.479 167.223L144.835 169.692C143.527 169.044 142.716 167.689 143.206 167.022C140.25 161.495 137.929 157.36 136.81 154.062C135.156 149.176 137.863 146.448 142.127 147.802Z" fill="#B6D25E"/>
<path d="M143.455 168.337C142.886 168.674 144.632 170.45 145.195 170.968C145.757 171.487 147.634 170.132 148.805 169.795C149.975 169.458 151.126 170.327 151.375 169.109C151.512 168.461 151.375 166.607 150.924 166.218C149.858 165.324 144.828 167.534 143.455 168.337Z" fill="#212121"/>
<path d="M143.782 188.471L140.767 190.959L144.521 193.642C144.521 193.642 146.987 191.05 145.881 189.508L143.782 188.471Z" fill="#FF8B7B"/>
<path d="M139.047 194.439L142.762 196.227L144.521 193.642L140.767 190.959L139.047 194.439Z" fill="#FF8B7B"/>
</svg>
