<svg width="48" height="48" viewBox="0 0 48 48" fill="none" xmlns="http://www.w3.org/2000/svg">
<g id="Circles/Spinner-Three-Circles">
<path id="Ellipse 44" d="M43 24C43 26.4951 42.5086 28.9658 41.5537 31.271C40.5989 33.5762 39.1993 35.6707 37.435 37.435C35.6707 39.1993 33.5762 40.5989 31.271 41.5537C28.9658 42.5086 26.4951 43 24 43C21.5049 43 19.0342 42.5086 16.729 41.5537C14.4238 40.5989 12.3293 39.1993 10.565 37.435C8.80066 35.6707 7.40113 33.5762 6.44629 31.271C5.49145 28.9658 5 26.4951 5 24" stroke="#528AFF" stroke-width="4" stroke-linecap="round"/>
<path id="Ellipse 45" d="M12 24C12 22.4241 12.3104 20.8637 12.9134 19.4078C13.5165 17.9519 14.4004 16.629 15.5147 15.5147C16.629 14.4004 17.9519 13.5165 19.4078 12.9134C20.8637 12.3104 22.4241 12 24 12C25.5759 12 27.1363 12.3104 28.5922 12.9134C30.0481 13.5165 31.371 14.4004 32.4853 15.5147C33.5996 16.629 34.4835 17.9519 35.0866 19.4078C35.6896 20.8637 36 22.4241 36 24" stroke="#003366" stroke-opacity="0.55" stroke-width="4" stroke-linecap="round"/>
<path id="Ellipse 46" d="M20 24C20 24.5253 20.1035 25.0454 20.3045 25.5307C20.5055 26.016 20.8001 26.457 21.1716 26.8284C21.543 27.1999 21.984 27.4945 22.4693 27.6955C22.9546 27.8965 23.4747 28 24 28C24.5253 28 25.0454 27.8965 25.5307 27.6955C26.016 27.4945 26.457 27.1999 26.8284 26.8284C27.1999 26.457 27.4945 26.016 27.6955 25.5307C27.8965 25.0454 28 24.5253 28 24" stroke="#212121" stroke-width="4" stroke-linecap="round"/>
</g>
</svg>
