<svg width="11" height="15" viewBox="0 0 11 15" fill="none" xmlns="http://www.w3.org/2000/svg">
<path id="Vector" d="M6.47118 3.47959V5.21478C6.47118 5.82042 6.47118 6.12324 6.65949 6.311C6.8478 6.49876 7.15062 6.49787 7.75626 6.49609L8.3245 6.49442C9.4693 6.49105 10.0417 6.48937 10.2181 6.84917C10.3945 7.20897 10.0427 7.66044 9.3389 8.56339L5.80651 13.0956C4.85513 14.3163 4.37945 14.9266 3.94701 14.778C3.51457 14.6294 3.51457 13.8556 3.51457 12.308V10.8328C3.51457 10.2288 3.51457 9.92684 3.32693 9.7392C3.13928 9.55155 2.83727 9.55155 2.23325 9.55155H1.87175C0.797947 9.55155 0.261047 9.55155 0.0811768 9.20817C-0.0986932 8.86479 0.207007 8.42342 0.818407 7.54068L4.13653 2.75002C5.09353 1.36831 5.57204 0.677453 6.02161 0.81794C6.47118 0.958428 6.47118 1.79881 6.47118 3.47959Z" fill="#9E1E62"/>
</svg>
