<svg width="27" height="26" viewBox="0 0 27 26" fill="none" xmlns="http://www.w3.org/2000/svg">
<g id="Whatsapp">
<g clip-path="url(#clip0_190_10444)">
<path id="Vector" fill-rule="evenodd" clip-rule="evenodd" d="M23.1161 4.02701C20.6797 1.70776 17.4393 0.429862 13.9871 0.428558C6.87394 0.428558 1.08469 5.93256 1.08184 12.6979C1.08089 14.8604 1.67517 16.9714 2.80444 18.8321L0.973633 25.1905L7.81491 23.4842C9.69981 24.4617 11.8221 24.9768 13.982 24.9777H13.9873C21.0997 24.9777 26.8895 19.473 26.8924 12.7077C26.8938 9.42909 25.5527 6.34625 23.1161 4.02701ZM13.9873 22.9053H13.9829C12.0582 22.9046 10.1704 22.413 8.52355 21.4838L8.13184 21.2628L4.07218 22.2753L5.1558 18.512L4.90073 18.1261C3.82702 16.5024 3.25991 14.6256 3.26075 12.6986C3.2631 7.07558 8.07494 2.5009 13.9915 2.5009C16.8565 2.50193 19.5496 3.56414 21.5748 5.49182C23.6 7.41949 24.7146 9.98184 24.7135 12.7069C24.7111 18.3303 19.8993 22.9053 13.9873 22.9053ZM19.8709 15.2673C19.5484 15.1139 17.963 14.3721 17.6674 14.2698C17.3719 14.1675 17.157 14.1164 16.9419 14.4233C16.727 14.7302 16.109 15.4208 15.9209 15.6254C15.7328 15.83 15.5447 15.8556 15.2223 15.7021C14.8998 15.5487 13.8608 15.225 12.6291 14.1804C11.6706 13.3675 11.0234 12.3635 10.8353 12.0566C10.6472 11.7496 10.8153 11.5837 10.9767 11.4308C11.1218 11.2935 11.2992 11.0728 11.4604 10.8937C11.6216 10.7147 11.6753 10.5868 11.7828 10.3822C11.8903 10.1776 11.8366 9.99852 11.756 9.84506C11.6753 9.69161 11.0305 8.18255 10.7617 7.5687C10.5 6.97086 10.2342 7.05175 10.0362 7.04239C9.84836 7.0335 9.63318 7.0316 9.41824 7.0316C9.20327 7.0316 8.85394 7.10834 8.55834 7.41525C8.26279 7.72219 7.42981 8.46392 7.42981 9.97295C7.42981 11.482 8.58523 12.9398 8.74647 13.1445C8.90767 13.3491 11.0202 16.4459 14.2549 17.7739C15.0243 18.0897 15.6249 18.2783 16.0932 18.4197C16.8657 18.653 17.5686 18.6201 18.1242 18.5412C18.7438 18.4532 20.032 17.7995 20.3008 17.0833C20.5695 16.3671 20.5695 15.7533 20.4889 15.6254C20.4083 15.4975 20.1933 15.4208 19.8709 15.2673Z" fill="#212121"/>
</g>
</g>
<defs>
<clipPath id="clip0_190_10444">
<rect x="0.972656" y="0.428558" width="25.9207" height="24.7619" fill="white"/>
</clipPath>
</defs>
</svg>
